<svg version="1.1" viewBox="0.0 0.0 724.0 270.0" fill="none" stroke="none" stroke-linecap="square" stroke-miterlimit="10" width="724" height="270" xmlns:xlink="http://www.w3.org/1999/xlink" xmlns="http://www.w3.org/2000/svg"><path fill="#ffffff" d="M0 0L724.0 0L724.0 270.0L0 270.0L0 0Z" fill-rule="nonzero"/><path stroke="#333333" stroke-width="1.0" stroke-linecap="butt" d="M51.5 46.5L51.5 236.5" fill-rule="nonzero"/><path stroke="#cccccc" stroke-width="1.0" stroke-linecap="butt" d="M161.5 46.5L161.5 236.5" fill-rule="nonzero"/><path stroke="#cccccc" stroke-width="1.0" stroke-linecap="butt" d="M271.5 46.5L271.5 236.5" fill-rule="nonzero"/><path stroke="#cccccc" stroke-width="1.0" stroke-linecap="butt" d="M381.5 46.5L381.5 236.5" fill-rule="nonzero"/><path stroke="#cccccc" stroke-width="1.0" stroke-linecap="butt" d="M490.5 46.5L490.5 236.5" fill-rule="nonzero"/><path stroke="#cccccc" stroke-width="1.0" stroke-linecap="butt" d="M600.5 46.5L600.5 236.5" fill-rule="nonzero"/><path stroke="#cccccc" stroke-width="1.0" stroke-linecap="butt" d="M710.5 46.5L710.5 236.5" fill-rule="nonzero"/><path stroke="#e6e6e6" stroke-width="1.0" stroke-linecap="butt" d="M88.5 46.5L88.5 236.5" fill-rule="nonzero"/><path stroke="#e6e6e6" stroke-width="1.0" stroke-linecap="butt" d="M124.5 46.5L124.5 236.5" fill-rule="nonzero"/><path stroke="#e6e6e6" stroke-width="1.0" stroke-linecap="butt" d="M197.5 46.5L197.5 236.5" fill-rule="nonzero"/><path stroke="#e6e6e6" stroke-width="1.0" stroke-linecap="butt" d="M234.5 46.5L234.5 236.5" fill-rule="nonzero"/><path stroke="#e6e6e6" stroke-width="1.0" stroke-linecap="butt" d="M307.5 46.5L307.5 236.5" fill-rule="nonzero"/><path stroke="#e6e6e6" stroke-width="1.0" stroke-linecap="butt" d="M344.5 46.5L344.5 236.5" fill-rule="nonzero"/><path stroke="#e6e6e6" stroke-width="1.0" stroke-linecap="butt" d="M417.5 46.5L417.5 236.5" fill-rule="nonzero"/><path stroke="#e6e6e6" stroke-width="1.0" stroke-linecap="butt" d="M454.5 46.5L454.5 236.5" fill-rule="nonzero"/><path stroke="#e6e6e6" stroke-width="1.0" stroke-linecap="butt" d="M527.5 46.5L527.5 236.5" fill-rule="nonzero"/><path stroke="#e6e6e6" stroke-width="1.0" stroke-linecap="butt" d="M564.5 46.5L564.5 236.5" fill-rule="nonzero"/><path stroke="#e6e6e6" stroke-width="1.0" stroke-linecap="butt" d="M637.5 46.5L637.5 236.5" fill-rule="nonzero"/><path stroke="#e6e6e6" stroke-width="1.0" stroke-linecap="butt" d="M673.5 46.5L673.5 236.5" fill-rule="nonzero"/><path stroke="#000000" stroke-width="1.0" stroke-linecap="butt" d="M710.5 236.5L51.5 236.5" fill-rule="nonzero"/><clipPath id="id_0"><path d="M51.5 46.5L710.5 46.5L710.5 236.5L51.5 236.5L51.5 46.5Z" clip-rule="nonzero"/></clipPath><path stroke="#000000" stroke-width="2.0" stroke-linecap="butt" stroke-opacity="0.0" clip-path="url(#id_0)" d="M51.0 128.0L51.0 75.0L639.0 75.0C640.10455 75.0 641.0 75.89543 641.0 77.0L641.0 126.0C641.0 127.10457 640.10455 128.0 639.0 128.0Z" fill-rule="nonzero"/><path fill="#4285f4" clip-path="url(#id_0)" d="M51.0 128.0L51.0 75.0L639.0 75.0C640.10455 75.0 641.0 75.89543 641.0 77.0L641.0 126.0C641.0 127.10457 640.10455 128.0 639.0 128.0Z" fill-rule="nonzero"/><path stroke="#000000" stroke-width="2.0" stroke-linecap="butt" stroke-opacity="0.0" clip-path="url(#id_0)" d="M51.0 209.0L51.0 156.0L167.0 156.0C168.10457 156.0 169.0 156.89543 169.0 158.0L169.0 207.0C169.0 208.10457 168.10457 209.0 167.0 209.0Z" fill-rule="nonzero"/><path fill="#4285f4" clip-path="url(#id_0)" d="M51.0 209.0L51.0 156.0L167.0 156.0C168.10457 156.0 169.0 156.89543 169.0 158.0L169.0 207.0C169.0 208.10457 168.10457 209.0 167.0 209.0Z" fill-rule="nonzero"/><path stroke="#4285f4" stroke-width="3.0" stroke-linejoin="round" stroke-linecap="round" d="M588.57654 101.75Q588.2484 102.15625 587.76404 102.40625Q587.2953 102.640625 586.7328 102.640625Q585.9984 102.640625 585.45154 102.28125Q584.90466 101.921875 584.6078 101.265625Q584.3109 100.59375 584.3109 99.796875Q584.3109 98.953125 584.6234 98.265625Q584.95154 97.578125 585.5453 97.21875Q586.15466 96.84375 586.95154 96.84375Q588.21716 96.84375 588.9359 97.796875Q589.6703 98.75 589.6703 100.375L589.6703 100.6875Q589.6703 103.1875 588.6859 104.328125Q587.70154 105.46875 585.71716 105.5L585.4984 105.5L585.4984 104.59375L585.7328 104.59375Q587.07654 104.5625 587.7953 103.890625Q588.51404 103.21875 588.57654 101.75ZM586.90466 101.75Q587.45154 101.75 587.90466 101.421875Q588.3734 101.078125 588.59216 100.59375L588.59216 100.15625Q588.59216 99.09375 588.1234 98.421875Q587.65466 97.75 586.95154 97.75Q586.2328 97.75 585.7953 98.296875Q585.3734 98.84375 585.3734 99.75Q585.3734 100.625 585.77966 101.1875Q586.20154 101.75 586.90466 101.75ZM595.57654 101.75Q595.2484 102.15625 594.76404 102.40625Q594.2953 102.640625 593.7328 102.640625Q592.9984 102.640625 592.45154 102.28125Q591.90466 101.921875 591.6078 101.265625Q591.3109 100.59375 591.3109 99.796875Q591.3109 98.953125 591.6234 98.265625Q591.95154 97.578125 592.5453 97.21875Q593.15466 96.84375 593.95154 96.84375Q595.21716 96.84375 595.9359 97.796875Q596.6703 98.75 596.6703 100.375L596.6703 100.6875Q596.6703 103.1875 595.6859 104.328125Q594.70154 105.46875 592.71716 105.5L592.4984 105.5L592.4984 104.59375L592.7328 104.59375Q594.07654 104.5625 594.7953 103.890625Q595.51404 103.21875 595.57654 101.75ZM593.90466 101.75Q594.45154 101.75 594.90466 101.421875Q595.3734 101.078125 595.59216 100.59375L595.59216 100.15625Q595.59216 99.09375 595.1234 98.421875Q594.65466 97.75 593.95154 97.75Q593.2328 97.75 592.7953 98.296875Q592.3734 98.84375 592.3734 99.75Q592.3734 100.625 592.77966 101.1875Q593.20154 101.75 593.90466 101.75ZM604.01404 105.5L598.4203 105.5L598.4203 104.71875L601.3734 101.4375Q602.02966 100.6875 602.27966 100.234375Q602.52966 99.765625 602.52966 99.265625Q602.52966 98.59375 602.1234 98.171875Q601.7328 97.734375 601.0453 97.734375Q600.2484 97.734375 599.7953 98.203125Q599.34216 98.65625 599.34216 99.484375L598.26404 99.484375Q598.26404 98.296875 599.01404 97.578125Q599.77966 96.84375 601.0453 96.84375Q602.2484 96.84375 602.9359 97.46875Q603.6234 98.09375 603.6234 99.140625Q603.6234 100.390625 602.01404 102.140625L599.7328 104.609375L604.01404 104.609375L604.01404 105.5ZM610.15466 96.96875L612.95154 103.921875L615.7328 96.96875L617.20154 96.96875L617.20154 105.5L616.07654 105.5L616.07654 102.171875L616.1859 98.59375L613.3734 105.5L612.51404 105.5L609.71716 98.609375L609.82654 102.171875L609.82654 105.5L608.70154 105.5L608.70154 96.96875L610.15466 96.96875ZM618.70154 105.5L618.70154 96.96875L621.4984 96.96875Q622.88904 96.96875 623.57654 97.546875Q624.27966 98.109375 624.27966 99.234375Q624.27966 99.84375 623.9359 100.3125Q623.6078 100.765625 623.01404 101.015625Q623.71716 101.203125 624.1078 101.75Q624.51404 102.28125 624.51404 103.03125Q624.51404 104.1875 623.76404 104.84375Q623.02966 105.5 621.6703 105.5L618.70154 105.5ZM619.82654 101.515625L619.82654 104.578125L621.6859 104.578125Q622.4828 104.578125 622.9359 104.171875Q623.38904 103.765625 623.38904 103.046875Q623.38904 101.515625 621.70154 101.515625L619.82654 101.515625ZM619.82654 100.609375L621.52966 100.609375Q622.26404 100.609375 622.70154 100.25Q623.15466 99.875 623.15466 99.234375Q623.15466 98.53125 622.7484 98.21875Q622.34216 97.890625 621.4984 97.890625L619.82654 97.890625L619.82654 100.609375ZM625.7484 106.234375L624.82654 106.234375L628.38904 96.96875L629.3109 96.96875L625.7484 106.234375ZM634.2328 103.8125Q634.2328 103.375 633.88904 103.140625Q633.5609 102.890625 632.7328 102.71875Q631.9203 102.546875 631.4359 102.296875Q630.95154 102.046875 630.71716 101.71875Q630.4984 101.375 630.4984 100.90625Q630.4984 100.125 631.15466 99.59375Q631.8109 99.046875 632.84216 99.046875Q633.9203 99.046875 634.57654 99.609375Q635.2484 100.15625 635.2484 101.015625L634.1703 101.015625Q634.1703 100.578125 633.77966 100.265625Q633.40466 99.9375 632.84216 99.9375Q632.2484 99.9375 631.90466 100.203125Q631.57654 100.453125 631.57654 100.859375Q631.57654 101.25 631.88904 101.453125Q632.20154 101.65625 633.01404 101.84375Q633.82654 102.015625 634.32654 102.265625Q634.82654 102.515625 635.0609 102.875Q635.3109 103.234375 635.3109 103.734375Q635.3109 104.59375 634.6234 105.109375Q633.95154 105.625 632.8734 105.625Q632.1078 105.625 631.51404 105.359375Q630.9359 105.078125 630.6078 104.59375Q630.27966 104.109375 630.27966 103.546875L631.3578 103.546875Q631.38904 104.09375 631.7953 104.421875Q632.20154 104.734375 632.8734 104.734375Q633.4828 104.734375 633.8578 104.484375Q634.2328 104.234375 634.2328 103.8125Z" fill-rule="nonzero"/><path fill="#ffffff" d="M588.57654 101.75Q588.2484 102.15625 587.76404 102.40625Q587.2953 102.640625 586.7328 102.640625Q585.9984 102.640625 585.45154 102.28125Q584.90466 101.921875 584.6078 101.265625Q584.3109 100.59375 584.3109 99.796875Q584.3109 98.953125 584.6234 98.265625Q584.95154 97.578125 585.5453 97.21875Q586.15466 96.84375 586.95154 96.84375Q588.21716 96.84375 588.9359 97.796875Q589.6703 98.75 589.6703 100.375L589.6703 100.6875Q589.6703 103.1875 588.6859 104.328125Q587.70154 105.46875 585.71716 105.5L585.4984 105.5L585.4984 104.59375L585.7328 104.59375Q587.07654 104.5625 587.7953 103.890625Q588.51404 103.21875 588.57654 101.75ZM586.90466 101.75Q587.45154 101.75 587.90466 101.421875Q588.3734 101.078125 588.59216 100.59375L588.59216 100.15625Q588.59216 99.09375 588.1234 98.421875Q587.65466 97.75 586.95154 97.75Q586.2328 97.75 585.7953 98.296875Q585.3734 98.84375 585.3734 99.75Q585.3734 100.625 585.77966 101.1875Q586.20154 101.75 586.90466 101.75ZM595.57654 101.75Q595.2484 102.15625 594.76404 102.40625Q594.2953 102.640625 593.7328 102.640625Q592.9984 102.640625 592.45154 102.28125Q591.90466 101.921875 591.6078 101.265625Q591.3109 100.59375 591.3109 99.796875Q591.3109 98.953125 591.6234 98.265625Q591.95154 97.578125 592.5453 97.21875Q593.15466 96.84375 593.95154 96.84375Q595.21716 96.84375 595.9359 97.796875Q596.6703 98.75 596.6703 100.375L596.6703 100.6875Q596.6703 103.1875 595.6859 104.328125Q594.70154 105.46875 592.71716 105.5L592.4984 105.5L592.4984 104.59375L592.7328 104.59375Q594.07654 104.5625 594.7953 103.890625Q595.51404 103.21875 595.57654 101.75ZM593.90466 101.75Q594.45154 101.75 594.90466 101.421875Q595.3734 101.078125 595.59216 100.59375L595.59216 100.15625Q595.59216 99.09375 595.1234 98.421875Q594.65466 97.75 593.95154 97.75Q593.2328 97.75 592.7953 98.296875Q592.3734 98.84375 592.3734 99.75Q592.3734 100.625 592.77966 101.1875Q593.20154 101.75 593.90466 101.75ZM604.01404 105.5L598.4203 105.5L598.4203 104.71875L601.3734 101.4375Q602.02966 100.6875 602.27966 100.234375Q602.52966 99.765625 602.52966 99.265625Q602.52966 98.59375 602.1234 98.171875Q601.7328 97.734375 601.0453 97.734375Q600.2484 97.734375 599.7953 98.203125Q599.34216 98.65625 599.34216 99.484375L598.26404 99.484375Q598.26404 98.296875 599.01404 97.578125Q599.77966 96.84375 601.0453 96.84375Q602.2484 96.84375 602.9359 97.46875Q603.6234 98.09375 603.6234 99.140625Q603.6234 100.390625 602.01404 102.140625L599.7328 104.609375L604.01404 104.609375L604.01404 105.5ZM610.15466 96.96875L612.95154 103.921875L615.7328 96.96875L617.20154 96.96875L617.20154 105.5L616.07654 105.5L616.07654 102.171875L616.1859 98.59375L613.3734 105.5L612.51404 105.5L609.71716 98.609375L609.82654 102.171875L609.82654 105.5L608.70154 105.5L608.70154 96.96875L610.15466 96.96875ZM618.70154 105.5L618.70154 96.96875L621.4984 96.96875Q622.88904 96.96875 623.57654 97.546875Q624.27966 98.109375 624.27966 99.234375Q624.27966 99.84375 623.9359 100.3125Q623.6078 100.765625 623.01404 101.015625Q623.71716 101.203125 624.1078 101.75Q624.51404 102.28125 624.51404 103.03125Q624.51404 104.1875 623.76404 104.84375Q623.02966 105.5 621.6703 105.5L618.70154 105.5ZM619.82654 101.515625L619.82654 104.578125L621.6859 104.578125Q622.4828 104.578125 622.9359 104.171875Q623.38904 103.765625 623.38904 103.046875Q623.38904 101.515625 621.70154 101.515625L619.82654 101.515625ZM619.82654 100.609375L621.52966 100.609375Q622.26404 100.609375 622.70154 100.25Q623.15466 99.875 623.15466 99.234375Q623.15466 98.53125 622.7484 98.21875Q622.34216 97.890625 621.4984 97.890625L619.82654 97.890625L619.82654 100.609375ZM625.7484 106.234375L624.82654 106.234375L628.38904 96.96875L629.3109 96.96875L625.7484 106.234375ZM634.2328 103.8125Q634.2328 103.375 633.88904 103.140625Q633.5609 102.890625 632.7328 102.71875Q631.9203 102.546875 631.4359 102.296875Q630.95154 102.046875 630.71716 101.71875Q630.4984 101.375 630.4984 100.90625Q630.4984 100.125 631.15466 99.59375Q631.8109 99.046875 632.84216 99.046875Q633.9203 99.046875 634.57654 99.609375Q635.2484 100.15625 635.2484 101.015625L634.1703 101.015625Q634.1703 100.578125 633.77966 100.265625Q633.40466 99.9375 632.84216 99.9375Q632.2484 99.9375 631.90466 100.203125Q631.57654 100.453125 631.57654 100.859375Q631.57654 101.25 631.88904 101.453125Q632.20154 101.65625 633.01404 101.84375Q633.82654 102.015625 634.32654 102.265625Q634.82654 102.515625 635.0609 102.875Q635.3109 103.234375 635.3109 103.734375Q635.3109 104.59375 634.6234 105.109375Q633.95154 105.625 632.8734 105.625Q632.1078 105.625 631.51404 105.359375Q630.9359 105.078125 630.6078 104.59375Q630.27966 104.109375 630.27966 103.546875L631.3578 103.546875Q631.38904 104.09375 631.7953 104.421875Q632.20154 104.734375 632.8734 104.734375Q633.4828 104.734375 633.8578 104.484375Q634.2328 104.234375 634.2328 103.8125Z" fill-rule="nonzero"/><path stroke="#4285f4" stroke-width="3.0" stroke-linejoin="round" stroke-linecap="round" d="M116.77226 186.5L115.69414 186.5L115.69414 179.28125L113.50664 180.07812L113.50664 179.09375L116.61601 177.92188L116.77226 177.92188L116.77226 186.5ZM124.36601 182.75Q124.03789 183.15625 123.55351 183.40625Q123.08476 183.64062 122.52226 183.64062Q121.78789 183.64062 121.24101 183.28125Q120.69414 182.92188 120.39726 182.26562Q120.10039 181.59375 120.10039 180.79688Q120.10039 179.95312 120.41289 179.26562Q120.74101 178.57812 121.33476 178.21875Q121.94414 177.84375 122.74101 177.84375Q124.00664 177.84375 124.72539 178.79688Q125.45976 179.75 125.45976 181.375L125.45976 181.6875Q125.45976 184.1875 124.47539 185.32812Q123.49101 186.46875 121.50664 186.5L121.28789 186.5L121.28789 185.59375L121.52226 185.59375Q122.86601 185.5625 123.58476 184.89062Q124.30351 184.21875 124.36601 182.75ZM122.69414 182.75Q123.24101 182.75 123.69414 182.42188Q124.16289 182.07812 124.38164 181.59375L124.38164 181.15625Q124.38164 180.09375 123.91289 179.42188Q123.44414 178.75 122.74101 178.75Q122.02226 178.75 121.58476 179.29688Q121.16289 179.84375 121.16289 180.75Q121.16289 181.625 121.56914 182.1875Q121.99101 182.75 122.69414 182.75ZM132.39726 180.1875Q132.39726 180.82812 132.05351 181.32812Q131.70976 181.82812 131.14726 182.10938Q131.80351 182.39062 132.19414 182.95312Q132.58476 183.5 132.58476 184.20312Q132.58476 185.29688 131.83476 185.96875Q131.10039 186.625 129.88164 186.625Q128.64726 186.625 127.89726 185.96875Q127.16289 185.29688 127.16289 184.20312Q127.16289 183.5 127.53789 182.95312Q127.91289 182.39062 128.58476 182.10938Q128.02226 181.82812 127.69414 181.32812Q127.36601 180.82812 127.36601 180.1875Q127.36601 179.10938 128.05351 178.48438Q128.74101 177.84375 129.88164 177.84375Q131.00664 177.84375 131.69414 178.48438Q132.39726 179.10938 132.39726 180.1875ZM131.50664 184.17188Q131.50664 183.45312 131.05351 183.01562Q130.60039 182.5625 129.86601 182.5625Q129.13164 182.5625 128.67851 183.01562Q128.24101 183.45312 128.24101 184.1875Q128.24101 184.90625 128.67851 185.32812Q129.11601 185.73438 129.88164 185.73438Q130.63164 185.73438 131.06914 185.3125Q131.50664 184.89062 131.50664 184.17188ZM129.88164 178.73438Q129.24101 178.73438 128.83476 179.14062Q128.44414 179.53125 128.44414 180.21875Q128.44414 180.85938 128.83476 181.26562Q129.22539 181.67188 129.86601 181.67188Q130.52226 181.67188 130.91289 181.26562Q131.30351 180.85938 131.30351 180.21875Q131.30351 179.5625 130.89726 179.15625Q130.49101 178.73438 129.88164 178.73438ZM138.94414 177.96875L141.74101 184.92188L144.52226 177.96875L145.99101 177.96875L145.99101 186.5L144.86601 186.5L144.86601 183.17188L144.97539 179.59375L142.16289 186.5L141.30351 186.5L138.50664 179.60938L138.61601 183.17188L138.61601 186.5L137.49101 186.5L137.49101 177.96875L138.94414 177.96875ZM147.49101 186.5L147.49101 177.96875L150.28789 177.96875Q151.67851 177.96875 152.36601 178.54688Q153.06914 179.10938 153.06914 180.23438Q153.06914 180.84375 152.72539 181.3125Q152.39726 181.76562 151.80351 182.01562Q152.50664 182.20312 152.89726 182.75Q153.30351 183.28125 153.30351 184.03125Q153.30351 185.1875 152.55351 185.84375Q151.81914 186.5 150.45976 186.5L147.49101 186.5ZM148.61601 182.51562L148.61601 185.57812L150.47539 185.57812Q151.27226 185.57812 151.72539 185.17188Q152.17851 184.76562 152.17851 184.04688Q152.17851 182.51562 150.49101 182.51562L148.61601 182.51562ZM148.61601 181.60938L150.31914 181.60938Q151.05351 181.60938 151.49101 181.25Q151.94414 180.875 151.94414 180.23438Q151.94414 179.53125 151.53789 179.21875Q151.13164 178.89062 150.28789 178.89062L148.61601 178.89062L148.61601 181.60938ZM154.53789 187.23438L153.61601 187.23438L157.17851 177.96875L158.10039 177.96875L154.53789 187.23438ZM163.02226 184.8125Q163.02226 184.375 162.67851 184.14062Q162.35039 183.89062 161.52226 183.71875Q160.70976 183.54688 160.22539 183.29688Q159.74101 183.04688 159.50664 182.71875Q159.28789 182.375 159.28789 181.90625Q159.28789 181.125 159.94414 180.59375Q160.60039 180.04688 161.63164 180.04688Q162.70976 180.04688 163.36601 180.60938Q164.03789 181.15625 164.03789 182.01562L162.95976 182.01562Q162.95976 181.57812 162.56914 181.26562Q162.19414 180.9375 161.63164 180.9375Q161.03789 180.9375 160.69414 181.20312Q160.36601 181.45312 160.36601 181.85938Q160.36601 182.25 160.67851 182.45312Q160.99101 182.65625 161.80351 182.84375Q162.61601 183.01562 163.11601 183.26562Q163.61601 183.51562 163.85039 183.875Q164.10039 184.23438 164.10039 184.73438Q164.10039 185.59375 163.41289 186.10938Q162.74101 186.625 161.66289 186.625Q160.89726 186.625 160.30351 186.35938Q159.72539 186.07812 159.39726 185.59375Q159.06914 185.10938 159.06914 184.54688L160.14726 184.54688Q160.17851 185.09375 160.58476 185.42188Q160.99101 185.73438 161.66289 185.73438Q162.27226 185.73438 162.64726 185.48438Q163.02226 185.23438 163.02226 184.8125Z" fill-rule="nonzero"/><path fill="#ffffff" d="M116.77226 186.5L115.69414 186.5L115.69414 179.28125L113.50664 180.07812L113.50664 179.09375L116.61601 177.92188L116.77226 177.92188L116.77226 186.5ZM124.36601 182.75Q124.03789 183.15625 123.55351 183.40625Q123.08476 183.64062 122.52226 183.64062Q121.78789 183.64062 121.24101 183.28125Q120.69414 182.92188 120.39726 182.26562Q120.10039 181.59375 120.10039 180.79688Q120.10039 179.95312 120.41289 179.26562Q120.74101 178.57812 121.33476 178.21875Q121.94414 177.84375 122.74101 177.84375Q124.00664 177.84375 124.72539 178.79688Q125.45976 179.75 125.45976 181.375L125.45976 181.6875Q125.45976 184.1875 124.47539 185.32812Q123.49101 186.46875 121.50664 186.5L121.28789 186.5L121.28789 185.59375L121.52226 185.59375Q122.86601 185.5625 123.58476 184.89062Q124.30351 184.21875 124.36601 182.75ZM122.69414 182.75Q123.24101 182.75 123.69414 182.42188Q124.16289 182.07812 124.38164 181.59375L124.38164 181.15625Q124.38164 180.09375 123.91289 179.42188Q123.44414 178.75 122.74101 178.75Q122.02226 178.75 121.58476 179.29688Q121.16289 179.84375 121.16289 180.75Q121.16289 181.625 121.56914 182.1875Q121.99101 182.75 122.69414 182.75ZM132.39726 180.1875Q132.39726 180.82812 132.05351 181.32812Q131.70976 181.82812 131.14726 182.10938Q131.80351 182.39062 132.19414 182.95312Q132.58476 183.5 132.58476 184.20312Q132.58476 185.29688 131.83476 185.96875Q131.10039 186.625 129.88164 186.625Q128.64726 186.625 127.89726 185.96875Q127.16289 185.29688 127.16289 184.20312Q127.16289 183.5 127.53789 182.95312Q127.91289 182.39062 128.58476 182.10938Q128.02226 181.82812 127.69414 181.32812Q127.36601 180.82812 127.36601 180.1875Q127.36601 179.10938 128.05351 178.48438Q128.74101 177.84375 129.88164 177.84375Q131.00664 177.84375 131.69414 178.48438Q132.39726 179.10938 132.39726 180.1875ZM131.50664 184.17188Q131.50664 183.45312 131.05351 183.01562Q130.60039 182.5625 129.86601 182.5625Q129.13164 182.5625 128.67851 183.01562Q128.24101 183.45312 128.24101 184.1875Q128.24101 184.90625 128.67851 185.32812Q129.11601 185.73438 129.88164 185.73438Q130.63164 185.73438 131.06914 185.3125Q131.50664 184.89062 131.50664 184.17188ZM129.88164 178.73438Q129.24101 178.73438 128.83476 179.14062Q128.44414 179.53125 128.44414 180.21875Q128.44414 180.85938 128.83476 181.26562Q129.22539 181.67188 129.86601 181.67188Q130.52226 181.67188 130.91289 181.26562Q131.30351 180.85938 131.30351 180.21875Q131.30351 179.5625 130.89726 179.15625Q130.49101 178.73438 129.88164 178.73438ZM138.94414 177.96875L141.74101 184.92188L144.52226 177.96875L145.99101 177.96875L145.99101 186.5L144.86601 186.5L144.86601 183.17188L144.97539 179.59375L142.16289 186.5L141.30351 186.5L138.50664 179.60938L138.61601 183.17188L138.61601 186.5L137.49101 186.5L137.49101 177.96875L138.94414 177.96875ZM147.49101 186.5L147.49101 177.96875L150.28789 177.96875Q151.67851 177.96875 152.36601 178.54688Q153.06914 179.10938 153.06914 180.23438Q153.06914 180.84375 152.72539 181.3125Q152.39726 181.76562 151.80351 182.01562Q152.50664 182.20312 152.89726 182.75Q153.30351 183.28125 153.30351 184.03125Q153.30351 185.1875 152.55351 185.84375Q151.81914 186.5 150.45976 186.5L147.49101 186.5ZM148.61601 182.51562L148.61601 185.57812L150.47539 185.57812Q151.27226 185.57812 151.72539 185.17188Q152.17851 184.76562 152.17851 184.04688Q152.17851 182.51562 150.49101 182.51562L148.61601 182.51562ZM148.61601 181.60938L150.31914 181.60938Q151.05351 181.60938 151.49101 181.25Q151.94414 180.875 151.94414 180.23438Q151.94414 179.53125 151.53789 179.21875Q151.13164 178.89062 150.28789 178.89062L148.61601 178.89062L148.61601 181.60938ZM154.53789 187.23438L153.61601 187.23438L157.17851 177.96875L158.10039 177.96875L154.53789 187.23438ZM163.02226 184.8125Q163.02226 184.375 162.67851 184.14062Q162.35039 183.89062 161.52226 183.71875Q160.70976 183.54688 160.22539 183.29688Q159.74101 183.04688 159.50664 182.71875Q159.28789 182.375 159.28789 181.90625Q159.28789 181.125 159.94414 180.59375Q160.60039 180.04688 161.63164 180.04688Q162.70976 180.04688 163.36601 180.60938Q164.03789 181.15625 164.03789 182.01562L162.95976 182.01562Q162.95976 181.57812 162.56914 181.26562Q162.19414 180.9375 161.63164 180.9375Q161.03789 180.9375 160.69414 181.20312Q160.36601 181.45312 160.36601 181.85938Q160.36601 182.25 160.67851 182.45312Q160.99101 182.65625 161.80351 182.84375Q162.61601 183.01562 163.11601 183.26562Q163.61601 183.51562 163.85039 183.875Q164.10039 184.23438 164.10039 184.73438Q164.10039 185.59375 163.41289 186.10938Q162.74101 186.625 161.66289 186.625Q160.89726 186.625 160.30351 186.35938Q159.72539 186.07812 159.39726 185.59375Q159.06914 185.10938 159.06914 184.54688L160.14726 184.54688Q160.17851 185.09375 160.58476 185.42188Q160.99101 185.73438 161.66289 185.73438Q162.27226 185.73438 162.64726 185.48438Q163.02226 185.23438 163.02226 184.8125Z" fill-rule="nonzero"/><path fill="#000000" d="M14.421875 105.07447L14.421875 96.48072L17.671875 96.48072Q18.515625 96.48072 18.96875 96.558846Q19.609375 96.66822 20.03125 96.965096Q20.46875 97.26197 20.71875 97.79322Q20.984375 98.32447 20.984375 98.965096Q20.984375 100.058846 20.28125 100.82447Q19.59375 101.57447 17.765625 101.57447L15.5625 101.57447L15.5625 105.07447L14.421875 105.07447ZM15.5625 100.57447L17.78125 100.57447Q18.890625 100.57447 19.34375 100.16822Q19.8125 99.746346 19.8125 98.996346Q19.8125 98.465096 19.53125 98.090096Q19.265625 97.69947 18.828125 97.57447Q18.53125 97.496346 17.765625 97.496346L15.5625 97.496346L15.5625 100.57447ZM26.375 105.07447L26.375 104.152596Q25.640625 105.215096 24.390625 105.215096Q23.84375 105.215096 23.359375 105.01197Q22.890625 104.79322 22.65625 104.48072Q22.421875 104.152596 22.328125 103.683846Q22.265625 103.38697 22.265625 102.69947L22.265625 98.85572L23.328125 98.85572L23.328125 102.308846Q23.328125 103.121346 23.390625 103.41822Q23.484375 103.82447 23.796875 104.07447Q24.125 104.308846 24.609375 104.308846Q25.078125 104.308846 25.484375 104.07447Q25.90625 103.82447 26.078125 103.402596Q26.265625 102.98072 26.265625 102.183846L26.265625 98.85572L27.3125 98.85572L27.3125 105.07447L26.375 105.07447ZM29.265625 105.07447L29.265625 96.48072L30.328125 96.48072L30.328125 105.07447L29.265625 105.07447ZM31.875 103.215096L32.90625 103.058846Q33.0 103.683846 33.390625 104.01197Q33.796875 104.340096 34.53125 104.340096Q35.25 104.340096 35.59375 104.058846Q35.953125 103.76197 35.953125 103.35572Q35.953125 102.996346 35.640625 102.79322Q35.421875 102.652596 34.5625 102.433846Q33.40625 102.13697 32.953125 101.933846Q32.515625 101.715096 32.28125 101.340096Q32.046875 100.965096 32.046875 100.496346Q32.046875 100.090096 32.234375 99.73072Q32.421875 99.371346 32.75 99.13697Q33.0 98.965096 33.421875 98.840096Q33.84375 98.715096 34.34375 98.715096Q35.0625 98.715096 35.609375 98.933846Q36.171875 99.13697 36.4375 99.496346Q36.703125 99.85572 36.796875 100.44947L35.765625 100.590096Q35.703125 100.121346 35.359375 99.85572Q35.03125 99.57447 34.40625 99.57447Q33.6875 99.57447 33.375 99.82447Q33.0625 100.058846 33.0625 100.38697Q33.0625 100.590096 33.1875 100.746346Q33.328125 100.91822 33.59375 101.027596Q33.75 101.090096 34.53125 101.29322Q35.65625 101.60572 36.09375 101.79322Q36.53125 101.98072 36.78125 102.340096Q37.03125 102.69947 37.03125 103.246346Q37.03125 103.777596 36.71875 104.246346Q36.421875 104.69947 35.84375 104.965096Q35.265625 105.215096 34.53125 105.215096Q33.3125 105.215096 32.671875 104.715096Q32.046875 104.19947 31.875 103.215096ZM43.546875 103.07447L44.640625 103.19947Q44.390625 104.152596 43.6875 104.683846Q42.984375 105.215096 41.90625 105.215096Q40.546875 105.215096 39.734375 104.371346Q38.9375 103.527596 38.9375 102.01197Q38.9375 100.44947 39.75 99.590096Q40.5625 98.715096 41.84375 98.715096Q43.09375 98.715096 43.875 99.558846Q44.671875 100.402596 44.671875 101.94947Q44.671875 102.04322 44.671875 102.23072L40.03125 102.23072Q40.09375 103.26197 40.609375 103.808846Q41.125 104.340096 41.90625 104.340096Q42.484375 104.340096 42.890625 104.04322Q43.3125 103.73072 43.546875 103.07447ZM40.09375 101.371346L43.5625 101.371346Q43.5 100.57447 43.171875 100.183846Q42.65625 99.57447 41.859375 99.57447Q41.125 99.57447 40.625 100.058846Q40.140625 100.54322 40.09375 101.371346Z" fill-rule="nonzero"/><path fill="#000000" d="M18.609375 185.92554L18.609375 178.34741L15.78125 178.34741L15.78125 177.33179L22.59375 177.33179L22.59375 178.34741L19.75 178.34741L19.75 185.92554L18.609375 185.92554ZM22.90625 182.81616Q22.90625 181.08179 23.859375 180.25366Q24.65625 179.56616 25.8125 179.56616Q27.09375 179.56616 27.90625 180.40991Q28.734375 181.23804 28.734375 182.72241Q28.734375 183.92554 28.375 184.61304Q28.015625 185.30054 27.3125 185.69116Q26.625 186.06616 25.8125 186.06616Q24.515625 186.06616 23.703125 185.23804Q22.90625 184.39429 22.90625 182.81616ZM23.984375 182.81616Q23.984375 184.00366 24.5 184.59741Q25.03125 185.19116 25.8125 185.19116Q26.609375 185.19116 27.125 184.59741Q27.640625 184.00366 27.640625 182.78491Q27.640625 181.62866 27.109375 181.03491Q26.59375 180.44116 25.8125 180.44116Q25.03125 180.44116 24.5 181.03491Q23.984375 181.61304 23.984375 182.81616ZM30.296875 185.92554L30.296875 177.33179L31.359375 177.33179L31.359375 182.23804L33.84375 179.70679L35.21875 179.70679L32.828125 182.00366L35.453125 185.92554L34.15625 185.92554L32.09375 182.73804L31.359375 183.45679L31.359375 185.92554L30.296875 185.92554ZM36.296875 178.55054L36.296875 177.33179L37.359375 177.33179L37.359375 178.55054L36.296875 178.55054ZM36.296875 185.92554L36.296875 179.70679L37.359375 179.70679L37.359375 185.92554L36.296875 185.92554ZM38.90625 182.81616Q38.90625 181.08179 39.859375 180.25366Q40.65625 179.56616 41.8125 179.56616Q43.09375 179.56616 43.90625 180.40991Q44.734375 181.23804 44.734375 182.72241Q44.734375 183.92554 44.375 184.61304Q44.015625 185.30054 43.3125 185.69116Q42.625 186.06616 41.8125 186.06616Q40.515625 186.06616 39.703125 185.23804Q38.90625 184.39429 38.90625 182.81616ZM39.984375 182.81616Q39.984375 184.00366 40.5 184.59741Q41.03125 185.19116 41.8125 185.19116Q42.609375 185.19116 43.125 184.59741Q43.640625 184.00366 43.640625 182.78491Q43.640625 181.62866 43.109375 181.03491Q42.59375 180.44116 41.8125 180.44116Q41.03125 180.44116 40.5 181.03491Q39.984375 181.61304 39.984375 182.81616Z" fill-rule="nonzero"/><path fill="#000000" d="M40.390625 253.5L40.390625 244.90625L42.109375 244.90625L44.140625 250.98438Q44.421875 251.84375 44.546875 252.26562Q44.6875 251.79688 45.0 250.89062L47.0625 244.90625L48.59375 244.90625L48.59375 253.5L47.5 253.5L47.5 246.3125L45.0 253.5L43.96875 253.5L41.484375 246.1875L41.484375 253.5L40.390625 253.5ZM49.375 253.5L49.375 244.90625L52.609375 244.90625Q53.59375 244.90625 54.1875 245.17188Q54.78125 245.4375 55.109375 245.98438Q55.453125 246.51562 55.453125 247.10938Q55.453125 247.65625 55.15625 248.14062Q54.859375 248.625 54.25 248.92188Q55.03125 249.15625 55.4375 249.71875Q55.859375 250.26562 55.859375 251.01562Q55.859375 251.60938 55.609375 252.14062Q55.359375 252.65625 54.984375 252.9375Q54.609375 253.21875 54.03125 253.35938Q53.46875 253.5 52.65625 253.5L49.375 253.5ZM50.515625 248.51562L52.375 248.51562Q53.125 248.51562 53.453125 248.42188Q53.890625 248.29688 54.109375 248.0Q54.328125 247.6875 54.328125 247.23438Q54.328125 246.8125 54.125 246.48438Q53.921875 246.15625 53.53125 246.04688Q53.15625 245.92188 52.234375 245.92188L50.515625 245.92188L50.515625 248.51562ZM50.515625 252.48438L52.65625 252.48438Q53.203125 252.48438 53.421875 252.4375Q53.828125 252.375 54.078125 252.21875Q54.34375 252.04688 54.515625 251.73438Q54.6875 251.42188 54.6875 251.01562Q54.6875 250.53125 54.4375 250.17188Q54.203125 249.8125 53.765625 249.67188Q53.328125 249.53125 52.5 249.53125L50.515625 249.53125L50.515625 252.48438ZM56.5 253.64062L58.984375 244.76562L59.828125 244.76562L57.34375 253.64062L56.5 253.64062ZM59.875 251.64062L60.90625 251.48438Q61.0 252.10938 61.390625 252.4375Q61.796875 252.76562 62.53125 252.76562Q63.25 252.76562 63.59375 252.48438Q63.953125 252.1875 63.953125 251.78125Q63.953125 251.42188 63.640625 251.21875Q63.421875 251.07812 62.5625 250.85938Q61.40625 250.5625 60.953125 250.35938Q60.515625 250.14062 60.28125 249.76562Q60.046875 249.39062 60.046875 248.92188Q60.046875 248.51562 60.234375 248.15625Q60.421875 247.79688 60.75 247.5625Q61.0 247.39062 61.421875 247.26562Q61.84375 247.14062 62.34375 247.14062Q63.0625 247.14062 63.609375 247.35938Q64.171875 247.5625 64.4375 247.92188Q64.703125 248.28125 64.796875 248.875L63.765625 249.01562Q63.703125 248.54688 63.359375 248.28125Q63.03125 248.0 62.40625 248.0Q61.6875 248.0 61.375 248.25Q61.0625 248.48438 61.0625 248.8125Q61.0625 249.01562 61.1875 249.17188Q61.328125 249.34375 61.59375 249.45312Q61.75 249.51562 62.53125 249.71875Q63.65625 250.03125 64.09375 250.21875Q64.53125 250.40625 64.78125 250.76562Q65.03125 251.125 65.03125 251.67188Q65.03125 252.20312 64.71875 252.67188Q64.421875 253.125 63.84375 253.39062Q63.265625 253.64062 62.53125 253.64062Q61.3125 253.64062 60.671875 253.14062Q60.046875 252.625 59.875 251.64062Z" fill-rule="nonzero"/><path fill="#000000" d="M140.30208 253.5L139.2552 253.5L139.2552 246.78125Q138.86458 247.14062 138.23958 247.51562Q137.6302 247.875 137.14583 248.04688L137.14583 247.03125Q138.02083 246.60938 138.67708 246.03125Q139.34895 245.4375 139.6302 244.875L140.30208 244.875L140.30208 253.5ZM144.95833 248.84375Q144.30208 248.59375 143.97395 248.15625Q143.66145 247.70312 143.66145 247.09375Q143.66145 246.15625 144.33333 245.51562Q145.02083 244.875 146.1302 244.875Q147.2552 244.875 147.9427 245.53125Q148.6302 246.1875 148.6302 247.125Q148.6302 247.71875 148.3177 248.15625Q148.0052 248.59375 147.36458 248.84375Q148.16145 249.09375 148.5677 249.67188Q148.97395 250.25 148.97395 251.04688Q148.97395 252.14062 148.1927 252.89062Q147.42708 253.64062 146.14583 253.64062Q144.8802 253.64062 144.09895 252.89062Q143.3177 252.14062 143.3177 251.01562Q143.3177 250.17188 143.73958 249.60938Q144.17708 249.04688 144.95833 248.84375ZM144.73958 247.04688Q144.73958 247.65625 145.1302 248.04688Q145.53645 248.4375 146.16145 248.4375Q146.77083 248.4375 147.16145 248.0625Q147.55208 247.67188 147.55208 247.10938Q147.55208 246.53125 147.14583 246.14062Q146.73958 245.73438 146.14583 245.73438Q145.53645 245.73438 145.1302 246.125Q144.73958 246.51562 144.73958 247.04688ZM144.41145 251.01562Q144.41145 251.46875 144.61458 251.89062Q144.83333 252.3125 145.2552 252.54688Q145.67708 252.78125 146.16145 252.78125Q146.91145 252.78125 147.39583 252.29688Q147.89583 251.8125 147.89583 251.0625Q147.89583 250.29688 147.39583 249.79688Q146.89583 249.29688 146.1302 249.29688Q145.3802 249.29688 144.89583 249.79688Q144.41145 250.28125 144.41145 251.01562ZM150.33333 251.25L151.4427 251.15625Q151.5677 251.96875 152.0052 252.375Q152.45833 252.78125 153.09895 252.78125Q153.84895 252.78125 154.3802 252.20312Q154.91145 251.625 154.91145 250.6875Q154.91145 249.78125 154.39583 249.26562Q153.89583 248.73438 153.0677 248.73438Q152.5677 248.73438 152.14583 248.96875Q151.73958 249.20312 151.5052 249.5625L150.52083 249.4375L151.34895 245.03125L155.6302 245.03125L155.6302 246.03125L152.1927 246.03125L151.73958 248.34375Q152.5052 247.79688 153.34895 247.79688Q154.47395 247.79688 155.23958 248.57812Q156.02083 249.35938 156.02083 250.59375Q156.02083 251.75 155.34895 252.60938Q154.52083 253.64062 153.09895 253.64062Q151.92708 253.64062 151.17708 252.98438Q150.4427 252.32812 150.33333 251.25ZM160.72395 253.5L160.72395 244.90625L162.4427 244.90625L164.47395 250.98438Q164.7552 251.84375 164.8802 252.26562Q165.02083 251.79688 165.33333 250.89062L167.39583 244.90625L168.92708 244.90625L168.92708 253.5L167.83333 253.5L167.83333 246.3125L165.33333 253.5L164.30208 253.5L161.8177 246.1875L161.8177 253.5L160.72395 253.5ZM169.70833 253.5L169.70833 244.90625L172.9427 244.90625Q173.92708 244.90625 174.52083 245.17188Q175.11458 245.4375 175.4427 245.98438Q175.78645 246.51562 175.78645 247.10938Q175.78645 247.65625 175.48958 248.14062Q175.1927 248.625 174.58333 248.92188Q175.36458 249.15625 175.77083 249.71875Q176.1927 250.26562 176.1927 251.01562Q176.1927 251.60938 175.9427 252.14062Q175.6927 252.65625 175.3177 252.9375Q174.9427 253.21875 174.36458 253.35938Q173.80208 253.5 172.98958 253.5L169.70833 253.5ZM170.84895 248.51562L172.70833 248.51562Q173.45833 248.51562 173.78645 248.42188Q174.22395 248.29688 174.4427 248.0Q174.66145 247.6875 174.66145 247.23438Q174.66145 246.8125 174.45833 246.48438Q174.2552 246.15625 173.86458 246.04688Q173.48958 245.92188 172.5677 245.92188L170.84895 245.92188L170.84895 248.51562ZM170.84895 252.48438L172.98958 252.48438Q173.53645 252.48438 173.7552 252.4375Q174.16145 252.375 174.41145 252.21875Q174.67708 252.04688 174.84895 251.73438Q175.02083 251.42188 175.02083 251.01562Q175.02083 250.53125 174.77083 250.17188Q174.53645 249.8125 174.09895 249.67188Q173.66145 249.53125 172.83333 249.53125L170.84895 249.53125L170.84895 252.48438ZM176.83333 253.64062L179.3177 244.76562L180.16145 244.76562L177.67708 253.64062L176.83333 253.64062ZM180.20833 251.64062L181.23958 251.48438Q181.33333 252.10938 181.72395 252.4375Q182.1302 252.76562 182.86458 252.76562Q183.58333 252.76562 183.92708 252.48438Q184.28645 252.1875 184.28645 251.78125Q184.28645 251.42188 183.97395 251.21875Q183.7552 251.07812 182.89583 250.85938Q181.73958 250.5625 181.28645 250.35938Q180.84895 250.14062 180.61458 249.76562Q180.3802 249.39062 180.3802 248.92188Q180.3802 248.51562 180.5677 248.15625Q180.7552 247.79688 181.08333 247.5625Q181.33333 247.39062 181.7552 247.26562Q182.17708 247.14062 182.67708 247.14062Q183.39583 247.14062 183.9427 247.35938Q184.5052 247.5625 184.77083 247.92188Q185.03645 248.28125 185.1302 248.875L184.09895 249.01562Q184.03645 248.54688 183.6927 248.28125Q183.36458 248.0 182.73958 248.0Q182.02083 248.0 181.70833 248.25Q181.39583 248.48438 181.39583 248.8125Q181.39583 249.01562 181.52083 249.17188Q181.66145 249.34375 181.92708 249.45312Q182.08333 249.51562 182.86458 249.71875Q183.98958 250.03125 184.42708 250.21875Q184.86458 250.40625 185.11458 250.76562Q185.36458 251.125 185.36458 251.67188Q185.36458 252.20312 185.05208 252.67188Q184.7552 253.125 184.17708 253.39062Q183.59895 253.64062 182.86458 253.64062Q181.64583 253.64062 181.0052 253.14062Q180.3802 252.625 180.20833 251.64062Z" fill-rule="nonzero"/><path fill="#000000" d="M246.16667 251.23438L247.22917 251.09375Q247.40105 251.98438 247.83855 252.39062Q248.27605 252.78125 248.90105 252.78125Q249.65105 252.78125 250.16667 252.26562Q250.6823 251.75 250.6823 250.98438Q250.6823 250.26562 250.19792 249.79688Q249.72917 249.3125 248.9948 249.3125Q248.69792 249.3125 248.2448 249.4375L248.3698 248.5Q248.47917 248.51562 248.54167 248.51562Q249.21355 248.51562 249.7448 248.17188Q250.29167 247.8125 250.29167 247.07812Q250.29167 246.5 249.90105 246.125Q249.51042 245.73438 248.88542 245.73438Q248.27605 245.73438 247.85417 246.125Q247.44792 246.51562 247.33855 247.28125L246.27605 247.09375Q246.46355 246.04688 247.15105 245.46875Q247.83855 244.875 248.85417 244.875Q249.5573 244.875 250.15105 245.1875Q250.7448 245.48438 251.0573 246.0Q251.3698 246.51562 251.3698 247.10938Q251.3698 247.65625 251.07292 248.125Q250.77605 248.57812 250.19792 248.84375Q250.94792 249.01562 251.3698 249.57812Q251.79167 250.125 251.79167 250.96875Q251.79167 252.09375 250.96355 252.875Q250.15105 253.65625 248.90105 253.65625Q247.77605 253.65625 247.02605 252.98438Q246.27605 252.29688 246.16667 251.23438ZM253.22917 246.03125L253.22917 245.01562L258.7917 245.01562L258.7917 245.84375Q257.9792 246.71875 257.1667 248.17188Q256.3698 249.60938 255.9323 251.14062Q255.60417 252.21875 255.52605 253.5L254.4323 253.5Q254.44792 252.48438 254.82292 251.04688Q255.21355 249.60938 255.91667 248.28125Q256.63544 246.95312 257.44794 246.03125L253.22917 246.03125ZM260.1667 249.26562Q260.1667 247.73438 260.4792 246.8125Q260.7917 245.875 261.40106 245.375Q262.02606 244.875 262.96356 244.875Q263.65106 244.875 264.1667 245.15625Q264.69794 245.4375 265.0417 245.96875Q265.38544 246.48438 265.57294 247.23438Q265.76044 247.98438 265.76044 249.26562Q265.76044 250.78125 265.44794 251.70312Q265.15106 252.625 264.52606 253.14062Q263.9167 253.64062 262.96356 253.64062Q261.7292 253.64062 261.01044 252.75Q260.1667 251.6875 260.1667 249.26562ZM261.2448 249.26562Q261.2448 251.375 261.7448 252.07812Q262.2448 252.78125 262.96356 252.78125Q263.69794 252.78125 264.1823 252.07812Q264.6823 251.375 264.6823 249.26562Q264.6823 247.14062 264.1823 246.45312Q263.69794 245.75 262.94794 245.75Q262.2292 245.75 261.7917 246.35938Q261.2448 247.14062 261.2448 249.26562ZM270.5573 253.5L270.5573 244.90625L272.27606 244.90625L274.3073 250.98438Q274.58856 251.84375 274.71356 252.26562Q274.8542 251.79688 275.1667 250.89062L277.2292 244.90625L278.76044 244.90625L278.76044 253.5L277.6667 253.5L277.6667 246.3125L275.1667 253.5L274.13544 253.5L271.65106 246.1875L271.65106 253.5L270.5573 253.5ZM279.5417 253.5L279.5417 244.90625L282.77606 244.90625Q283.76044 244.90625 284.3542 245.17188Q284.94794 245.4375 285.27606 245.98438Q285.6198 246.51562 285.6198 247.10938Q285.6198 247.65625 285.32294 248.14062Q285.02606 248.625 284.4167 248.92188Q285.19794 249.15625 285.6042 249.71875Q286.02606 250.26562 286.02606 251.01562Q286.02606 251.60938 285.77606 252.14062Q285.52606 252.65625 285.15106 252.9375Q284.77606 253.21875 284.19794 253.35938Q283.63544 253.5 282.82294 253.5L279.5417 253.5ZM280.6823 248.51562L282.5417 248.51562Q283.2917 248.51562 283.6198 248.42188Q284.0573 248.29688 284.27606 248.0Q284.4948 247.6875 284.4948 247.23438Q284.4948 246.8125 284.2917 246.48438Q284.08856 246.15625 283.69794 246.04688Q283.32294 245.92188 282.40106 245.92188L280.6823 245.92188L280.6823 248.51562ZM280.6823 252.48438L282.82294 252.48438Q283.3698 252.48438 283.58856 252.4375Q283.9948 252.375 284.2448 252.21875Q284.51044 252.04688 284.6823 251.73438Q284.8542 251.42188 284.8542 251.01562Q284.8542 250.53125 284.6042 250.17188Q284.3698 249.8125 283.9323 249.67188Q283.4948 249.53125 282.6667 249.53125L280.6823 249.53125L280.6823 252.48438ZM286.6667 253.64062L289.15106 244.76562L289.9948 244.76562L287.51044 253.64062L286.6667 253.64062ZM290.0417 251.64062L291.07294 251.48438Q291.1667 252.10938 291.5573 252.4375Q291.96356 252.76562 292.69794 252.76562Q293.4167 252.76562 293.76044 252.48438Q294.1198 252.1875 294.1198 251.78125Q294.1198 251.42188 293.8073 251.21875Q293.58856 251.07812 292.7292 250.85938Q291.57294 250.5625 291.1198 250.35938Q290.6823 250.14062 290.44794 249.76562Q290.21356 249.39062 290.21356 248.92188Q290.21356 248.51562 290.40106 248.15625Q290.58856 247.79688 290.9167 247.5625Q291.1667 247.39062 291.58856 247.26562Q292.01044 247.14062 292.51044 247.14062Q293.2292 247.14062 293.77606 247.35938Q294.33856 247.5625 294.6042 247.92188Q294.8698 248.28125 294.96356 248.875L293.9323 249.01562Q293.8698 248.54688 293.52606 248.28125Q293.19794 248.0 292.57294 248.0Q291.8542 248.0 291.5417 248.25Q291.2292 248.48438 291.2292 248.8125Q291.2292 249.01562 291.3542 249.17188Q291.4948 249.34375 291.76044 249.45312Q291.9167 249.51562 292.69794 249.71875Q293.82294 250.03125 294.26044 250.21875Q294.69794 250.40625 294.94794 250.76562Q295.19794 251.125 295.19794 251.67188Q295.19794 252.20312 294.88544 252.67188Q294.58856 253.125 294.01044 253.39062Q293.4323 253.64062 292.69794 253.64062Q291.4792 253.64062 290.83856 253.14062Q290.21356 252.625 290.0417 251.64062Z" fill-rule="nonzero"/><path fill="#000000" d="M356.0 251.25L357.10938 251.15625Q357.23438 251.96875 357.67188 252.375Q358.125 252.78125 358.76562 252.78125Q359.51562 252.78125 360.04688 252.20312Q360.57812 251.625 360.57812 250.6875Q360.57812 249.78125 360.0625 249.26562Q359.5625 248.73438 358.73438 248.73438Q358.23438 248.73438 357.8125 248.96875Q357.40625 249.20312 357.17188 249.5625L356.1875 249.4375L357.01562 245.03125L361.29688 245.03125L361.29688 246.03125L357.85938 246.03125L357.40625 248.34375Q358.17188 247.79688 359.01562 247.79688Q360.14062 247.79688 360.90625 248.57812Q361.6875 249.35938 361.6875 250.59375Q361.6875 251.75 361.01562 252.60938Q360.1875 253.64062 358.76562 253.64062Q357.59375 253.64062 356.84375 252.98438Q356.10938 252.32812 356.0 251.25ZM363.0 251.25L364.10938 251.15625Q364.23438 251.96875 364.67188 252.375Q365.125 252.78125 365.76562 252.78125Q366.51562 252.78125 367.04688 252.20312Q367.57812 251.625 367.57812 250.6875Q367.57812 249.78125 367.0625 249.26562Q366.5625 248.73438 365.73438 248.73438Q365.23438 248.73438 364.8125 248.96875Q364.40625 249.20312 364.17188 249.5625L363.1875 249.4375L364.01562 245.03125L368.29688 245.03125L368.29688 246.03125L364.85938 246.03125L364.40625 248.34375Q365.17188 247.79688 366.01562 247.79688Q367.14062 247.79688 367.90625 248.57812Q368.6875 249.35938 368.6875 250.59375Q368.6875 251.75 368.01562 252.60938Q367.1875 253.64062 365.76562 253.64062Q364.59375 253.64062 363.84375 252.98438Q363.10938 252.32812 363.0 251.25ZM370.0 251.25L371.10938 251.15625Q371.23438 251.96875 371.67188 252.375Q372.125 252.78125 372.76562 252.78125Q373.51562 252.78125 374.04688 252.20312Q374.57812 251.625 374.57812 250.6875Q374.57812 249.78125 374.0625 249.26562Q373.5625 248.73438 372.73438 248.73438Q372.23438 248.73438 371.8125 248.96875Q371.40625 249.20312 371.17188 249.5625L370.1875 249.4375L371.01562 245.03125L375.29688 245.03125L375.29688 246.03125L371.85938 246.03125L371.40625 248.34375Q372.17188 247.79688 373.01562 247.79688Q374.14062 247.79688 374.90625 248.57812Q375.6875 249.35938 375.6875 250.59375Q375.6875 251.75 375.01562 252.60938Q374.1875 253.64062 372.76562 253.64062Q371.59375 253.64062 370.84375 252.98438Q370.10938 252.32812 370.0 251.25ZM380.39062 253.5L380.39062 244.90625L382.10938 244.90625L384.14062 250.98438Q384.42188 251.84375 384.54688 252.26562Q384.6875 251.79688 385.0 250.89062L387.0625 244.90625L388.59375 244.90625L388.59375 253.5L387.5 253.5L387.5 246.3125L385.0 253.5L383.96875 253.5L381.48438 246.1875L381.48438 253.5L380.39062 253.5ZM389.375 253.5L389.375 244.90625L392.60938 244.90625Q393.59375 244.90625 394.1875 245.17188Q394.78125 245.4375 395.10938 245.98438Q395.45312 246.51562 395.45312 247.10938Q395.45312 247.65625 395.15625 248.14062Q394.85938 248.625 394.25 248.92188Q395.03125 249.15625 395.4375 249.71875Q395.85938 250.26562 395.85938 251.01562Q395.85938 251.60938 395.60938 252.14062Q395.35938 252.65625 394.98438 252.9375Q394.60938 253.21875 394.03125 253.35938Q393.46875 253.5 392.65625 253.5L389.375 253.5ZM390.51562 248.51562L392.375 248.51562Q393.125 248.51562 393.45312 248.42188Q393.89062 248.29688 394.10938 248.0Q394.32812 247.6875 394.32812 247.23438Q394.32812 246.8125 394.125 246.48438Q393.92188 246.15625 393.53125 246.04688Q393.15625 245.92188 392.23438 245.92188L390.51562 245.92188L390.51562 248.51562ZM390.51562 252.48438L392.65625 252.48438Q393.20312 252.48438 393.42188 252.4375Q393.82812 252.375 394.07812 252.21875Q394.34375 252.04688 394.51562 251.73438Q394.6875 251.42188 394.6875 251.01562Q394.6875 250.53125 394.4375 250.17188Q394.20312 249.8125 393.76562 249.67188Q393.32812 249.53125 392.5 249.53125L390.51562 249.53125L390.51562 252.48438ZM396.5 253.64062L398.98438 244.76562L399.82812 244.76562L397.34375 253.64062L396.5 253.64062ZM399.875 251.64062L400.90625 251.48438Q401.0 252.10938 401.39062 252.4375Q401.79688 252.76562 402.53125 252.76562Q403.25 252.76562 403.59375 252.48438Q403.95312 252.1875 403.95312 251.78125Q403.95312 251.42188 403.64062 251.21875Q403.42188 251.07812 402.5625 250.85938Q401.40625 250.5625 400.95312 250.35938Q400.51562 250.14062 400.28125 249.76562Q400.04688 249.39062 400.04688 248.92188Q400.04688 248.51562 400.23438 248.15625Q400.42188 247.79688 400.75 247.5625Q401.0 247.39062 401.42188 247.26562Q401.84375 247.14062 402.34375 247.14062Q403.0625 247.14062 403.60938 247.35938Q404.17188 247.5625 404.4375 247.92188Q404.70312 248.28125 404.79688 248.875L403.76562 249.01562Q403.70312 248.54688 403.35938 248.28125Q403.03125 248.0 402.40625 248.0Q401.6875 248.0 401.375 248.25Q401.0625 248.48438 401.0625 248.8125Q401.0625 249.01562 401.1875 249.17188Q401.32812 249.34375 401.59375 249.45312Q401.75 249.51562 402.53125 249.71875Q403.65625 250.03125 404.09375 250.21875Q404.53125 250.40625 404.78125 250.76562Q405.03125 251.125 405.03125 251.67188Q405.03125 252.20312 404.71875 252.67188Q404.42188 253.125 403.84375 253.39062Q403.26562 253.64062 402.53125 253.64062Q401.3125 253.64062 400.67188 253.14062Q400.04688 252.625 399.875 251.64062Z" fill-rule="nonzero"/><path fill="#000000" d="M465.89584 246.03125L465.89584 245.01562L471.45834 245.01562L471.45834 245.84375Q470.64584 246.71875 469.83334 248.17188Q469.03647 249.60938 468.59897 251.14062Q468.27084 252.21875 468.19272 253.5L467.09897 253.5Q467.1146 252.48438 467.4896 251.04688Q467.88022 249.60938 468.58334 248.28125Q469.3021 246.95312 470.1146 246.03125L465.89584 246.03125ZM476.20834 253.5L476.20834 251.4375L472.4896 251.4375L472.4896 250.46875L476.41147 244.90625L477.27084 244.90625L477.27084 250.46875L478.4271 250.46875L478.4271 251.4375L477.27084 251.4375L477.27084 253.5L476.20834 253.5ZM476.20834 250.46875L476.20834 246.60938L473.52084 250.46875L476.20834 250.46875ZM479.83334 249.26562Q479.83334 247.73438 480.14584 246.8125Q480.45834 245.875 481.06772 245.375Q481.69272 244.875 482.63022 244.875Q483.31772 244.875 483.83334 245.15625Q484.3646 245.4375 484.70834 245.96875Q485.0521 246.48438 485.2396 247.23438Q485.4271 247.98438 485.4271 249.26562Q485.4271 250.78125 485.1146 251.70312Q484.81772 252.625 484.19272 253.14062Q483.58334 253.64062 482.63022 253.64062Q481.39584 253.64062 480.6771 252.75Q479.83334 251.6875 479.83334 249.26562ZM480.91147 249.26562Q480.91147 251.375 481.41147 252.07812Q481.91147 252.78125 482.63022 252.78125Q483.3646 252.78125 483.84897 252.07812Q484.34897 251.375 484.34897 249.26562Q484.34897 247.14062 483.84897 246.45312Q483.3646 245.75 482.6146 245.75Q481.89584 245.75 481.45834 246.35938Q480.91147 247.14062 480.91147 249.26562ZM490.22397 253.5L490.22397 244.90625L491.94272 244.90625L493.97397 250.98438Q494.25522 251.84375 494.38022 252.26562Q494.52084 251.79688 494.83334 250.89062L496.89584 244.90625L498.4271 244.90625L498.4271 253.5L497.33334 253.5L497.33334 246.3125L494.83334 253.5L493.8021 253.5L491.31772 246.1875L491.31772 253.5L490.22397 253.5ZM499.20834 253.5L499.20834 244.90625L502.44272 244.90625Q503.4271 244.90625 504.02084 245.17188Q504.6146 245.4375 504.94272 245.98438Q505.28647 246.51562 505.28647 247.10938Q505.28647 247.65625 504.9896 248.14062Q504.69272 248.625 504.08334 248.92188Q504.8646 249.15625 505.27084 249.71875Q505.69272 250.26562 505.69272 251.01562Q505.69272 251.60938 505.44272 252.14062Q505.19272 252.65625 504.81772 252.9375Q504.44272 253.21875 503.8646 253.35938Q503.3021 253.5 502.4896 253.5L499.20834 253.5ZM500.34897 248.51562L502.20834 248.51562Q502.95834 248.51562 503.28647 248.42188Q503.72397 248.29688 503.94272 248.0Q504.16147 247.6875 504.16147 247.23438Q504.16147 246.8125 503.95834 246.48438Q503.75522 246.15625 503.3646 246.04688Q502.9896 245.92188 502.06772 245.92188L500.34897 245.92188L500.34897 248.51562ZM500.34897 252.48438L502.4896 252.48438Q503.03647 252.48438 503.25522 252.4375Q503.66147 252.375 503.91147 252.21875Q504.1771 252.04688 504.34897 251.73438Q504.52084 251.42188 504.52084 251.01562Q504.52084 250.53125 504.27084 250.17188Q504.03647 249.8125 503.59897 249.67188Q503.16147 249.53125 502.33334 249.53125L500.34897 249.53125L500.34897 252.48438ZM506.33334 253.64062L508.81772 244.76562L509.66147 244.76562L507.1771 253.64062L506.33334 253.64062ZM509.70834 251.64062L510.7396 251.48438Q510.83334 252.10938 511.22397 252.4375Q511.63022 252.76562 512.3646 252.76562Q513.0834 252.76562 513.4271 252.48438Q513.7865 252.1875 513.7865 251.78125Q513.7865 251.42188 513.474 251.21875Q513.25525 251.07812 512.3959 250.85938Q511.2396 250.5625 510.78647 250.35938Q510.34897 250.14062 510.1146 249.76562Q509.88022 249.39062 509.88022 248.92188Q509.88022 248.51562 510.06772 248.15625Q510.25522 247.79688 510.58334 247.5625Q510.83334 247.39062 511.25522 247.26562Q511.6771 247.14062 512.1771 247.14062Q512.8959 247.14062 513.44275 247.35938Q514.00525 247.5625 514.2709 247.92188Q514.5365 248.28125 514.63025 248.875L513.599 249.01562Q513.5365 248.54688 513.19275 248.28125Q512.8646 248.0 512.2396 248.0Q511.52084 248.0 511.20834 248.25Q510.89584 248.48438 510.89584 248.8125Q510.89584 249.01562 511.02084 249.17188Q511.16147 249.34375 511.4271 249.45312Q511.58334 249.51562 512.3646 249.71875Q513.4896 250.03125 513.9271 250.21875Q514.3646 250.40625 514.6146 250.76562Q514.8646 251.125 514.8646 251.67188Q514.8646 252.20312 514.5521 252.67188Q514.25525 253.125 513.6771 253.39062Q513.099 253.64062 512.3646 253.64062Q511.14584 253.64062 510.50522 253.14062Q509.88022 252.625 509.70834 251.64062Z" fill-rule="nonzero"/><path fill="#000000" d="M575.82294 251.51562L576.83856 251.42188Q576.96356 252.14062 577.32294 252.46875Q577.69794 252.78125 578.26044 252.78125Q578.7448 252.78125 579.1042 252.5625Q579.4792 252.32812 579.71356 251.96875Q579.94794 251.59375 580.1042 250.96875Q580.26044 250.32812 580.26044 249.67188Q580.26044 249.59375 580.26044 249.45312Q579.94794 249.95312 579.40106 250.28125Q578.8542 250.59375 578.21356 250.59375Q577.13544 250.59375 576.40106 249.82812Q575.6667 249.04688 575.6667 247.78125Q575.6667 246.46875 576.4323 245.67188Q577.21356 244.875 578.3698 244.875Q579.19794 244.875 579.88544 245.32812Q580.58856 245.78125 580.94794 246.625Q581.3073 247.45312 581.3073 249.03125Q581.3073 250.67188 580.94794 251.65625Q580.6042 252.625 579.88544 253.14062Q579.1823 253.64062 578.2448 253.64062Q577.2292 253.64062 576.58856 253.09375Q575.94794 252.53125 575.82294 251.51562ZM580.13544 247.71875Q580.13544 246.8125 579.65106 246.28125Q579.1823 245.75 578.4948 245.75Q577.7917 245.75 577.26044 246.32812Q576.7448 246.89062 576.7448 247.8125Q576.7448 248.625 577.2448 249.14062Q577.7448 249.65625 578.46356 249.65625Q579.19794 249.65625 579.6667 249.14062Q580.13544 248.625 580.13544 247.71875ZM588.21356 252.48438L588.21356 253.5L582.52606 253.5Q582.52606 253.125 582.65106 252.76562Q582.8698 252.1875 583.33856 251.625Q583.82294 251.0625 584.7292 250.32812Q586.13544 249.17188 586.6198 248.5Q587.1198 247.82812 587.1198 247.23438Q587.1198 246.60938 586.6667 246.1875Q586.21356 245.75 585.4948 245.75Q584.7292 245.75 584.27606 246.20312Q583.82294 246.65625 583.8073 247.46875L582.7292 247.35938Q582.83856 246.14062 583.5573 245.51562Q584.2917 244.875 585.52606 244.875Q586.76044 244.875 587.4792 245.5625Q588.19794 246.25 588.19794 247.26562Q588.19794 247.78125 587.9792 248.28125Q587.77606 248.76562 587.27606 249.32812Q586.7917 249.875 585.6667 250.82812Q584.71356 251.625 584.4323 251.92188Q584.1667 252.20312 583.9948 252.48438L588.21356 252.48438ZM589.6667 251.25L590.77606 251.15625Q590.90106 251.96875 591.33856 252.375Q591.7917 252.78125 592.4323 252.78125Q593.1823 252.78125 593.71356 252.20312Q594.2448 251.625 594.2448 250.6875Q594.2448 249.78125 593.7292 249.26562Q593.2292 248.73438 592.40106 248.73438Q591.90106 248.73438 591.4792 248.96875Q591.07294 249.20312 590.83856 249.5625L589.8542 249.4375L590.6823 245.03125L594.96356 245.03125L594.96356 246.03125L591.52606 246.03125L591.07294 248.34375Q591.83856 247.79688 592.6823 247.79688Q593.8073 247.79688 594.57294 248.57812Q595.3542 249.35938 595.3542 250.59375Q595.3542 251.75 594.6823 252.60938Q593.8542 253.64062 592.4323 253.64062Q591.26044 253.64062 590.51044 252.98438Q589.77606 252.32812 589.6667 251.25ZM600.0573 253.5L600.0573 244.90625L601.77606 244.90625L603.8073 250.98438Q604.08856 251.84375 604.21356 252.26562Q604.3542 251.79688 604.6667 250.89062L606.7292 244.90625L608.26044 244.90625L608.26044 253.5L607.1667 253.5L607.1667 246.3125L604.6667 253.5L603.63544 253.5L601.15106 246.1875L601.15106 253.5L600.0573 253.5ZM609.0417 253.5L609.0417 244.90625L612.27606 244.90625Q613.26044 244.90625 613.8542 245.17188Q614.44794 245.4375 614.77606 245.98438Q615.1198 246.51562 615.1198 247.10938Q615.1198 247.65625 614.82294 248.14062Q614.52606 248.625 613.9167 248.92188Q614.69794 249.15625 615.1042 249.71875Q615.52606 250.26562 615.52606 251.01562Q615.52606 251.60938 615.27606 252.14062Q615.02606 252.65625 614.65106 252.9375Q614.27606 253.21875 613.69794 253.35938Q613.13544 253.5 612.32294 253.5L609.0417 253.5ZM610.1823 248.51562L612.0417 248.51562Q612.7917 248.51562 613.1198 248.42188Q613.5573 248.29688 613.77606 248.0Q613.9948 247.6875 613.9948 247.23438Q613.9948 246.8125 613.7917 246.48438Q613.58856 246.15625 613.19794 246.04688Q612.82294 245.92188 611.90106 245.92188L610.1823 245.92188L610.1823 248.51562ZM610.1823 252.48438L612.32294 252.48438Q612.8698 252.48438 613.08856 252.4375Q613.4948 252.375 613.7448 252.21875Q614.01044 252.04688 614.1823 251.73438Q614.3542 251.42188 614.3542 251.01562Q614.3542 250.53125 614.1042 250.17188Q613.8698 249.8125 613.4323 249.67188Q612.9948 249.53125 612.1667 249.53125L610.1823 249.53125L610.1823 252.48438ZM616.1667 253.64062L618.65106 244.76562L619.4948 244.76562L617.01044 253.64062L616.1667 253.64062ZM619.5417 251.64062L620.57294 251.48438Q620.6667 252.10938 621.0573 252.4375Q621.46356 252.76562 622.19794 252.76562Q622.9167 252.76562 623.26044 252.48438Q623.6198 252.1875 623.6198 251.78125Q623.6198 251.42188 623.3073 251.21875Q623.08856 251.07812 622.2292 250.85938Q621.07294 250.5625 620.6198 250.35938Q620.1823 250.14062 619.94794 249.76562Q619.71356 249.39062 619.71356 248.92188Q619.71356 248.51562 619.90106 248.15625Q620.08856 247.79688 620.4167 247.5625Q620.6667 247.39062 621.08856 247.26562Q621.51044 247.14062 622.01044 247.14062Q622.7292 247.14062 623.27606 247.35938Q623.83856 247.5625 624.1042 247.92188Q624.3698 248.28125 624.46356 248.875L623.4323 249.01562Q623.3698 248.54688 623.02606 248.28125Q622.69794 248.0 622.07294 248.0Q621.3542 248.0 621.0417 248.25Q620.7292 248.48438 620.7292 248.8125Q620.7292 249.01562 620.8542 249.17188Q620.9948 249.34375 621.26044 249.45312Q621.4167 249.51562 622.19794 249.71875Q623.32294 250.03125 623.76044 250.21875Q624.19794 250.40625 624.44794 250.76562Q624.69794 251.125 624.69794 251.67188Q624.69794 252.20312 624.38544 252.67188Q624.08856 253.125 623.51044 253.39062Q622.9323 253.64062 622.19794 253.64062Q620.9792 253.64062 620.33856 253.14062Q619.71356 252.625 619.5417 251.64062Z" fill-rule="nonzero"/><path fill="#757575" d="M15.046875 32.5L15.046875 18.1875L19.96875 18.1875Q21.640625 18.1875 22.53125 18.390625Q23.75 18.671875 24.625 19.40625Q25.75 20.375 26.3125 21.859375Q26.875 23.34375 26.875 25.265625Q26.875 26.890625 26.5 28.15625Q26.125 29.40625 25.515625 30.234375Q24.921875 31.0625 24.21875 31.546875Q23.515625 32.015625 22.515625 32.265625Q21.515625 32.5 20.203125 32.5L15.046875 32.5ZM16.9375 30.8125L20.0 30.8125Q21.40625 30.8125 22.203125 30.546875Q23.015625 30.28125 23.5 29.796875Q24.171875 29.125 24.546875 28.0Q24.921875 26.859375 24.921875 25.234375Q24.921875 22.984375 24.1875 21.78125Q23.453125 20.578125 22.390625 20.171875Q21.640625 19.875 19.953125 19.875L16.9375 19.875L16.9375 30.8125ZM28.828125 20.203125L28.828125 18.1875L30.59375 18.1875L30.59375 20.203125L28.828125 20.203125ZM28.828125 32.5L28.828125 22.125L30.59375 22.125L30.59375 32.5L28.828125 32.5ZM32.796875 32.5L32.796875 22.125L34.375 22.125L34.375 23.703125Q34.984375 22.59375 35.5 22.25Q36.015625 21.890625 36.625 21.890625Q37.515625 21.890625 38.4375 22.453125L37.828125 24.09375Q37.1875 23.703125 36.546875 23.703125Q35.96875 23.703125 35.5 24.0625Q35.046875 24.40625 34.84375 25.015625Q34.5625 25.953125 34.5625 27.0625L34.5625 32.5L32.796875 32.5ZM46.921875 29.15625L48.734375 29.390625Q48.3125 30.96875 47.140625 31.859375Q45.984375 32.734375 44.171875 32.734375Q41.90625 32.734375 40.5625 31.34375Q39.234375 29.9375 39.234375 27.40625Q39.234375 24.78125 40.578125 23.34375Q41.921875 21.890625 44.078125 21.890625Q46.15625 21.890625 47.46875 23.3125Q48.796875 24.71875 48.796875 27.296875Q48.796875 27.453125 48.78125 27.765625L41.046875 27.765625Q41.140625 29.46875 42.015625 30.375Q42.890625 31.28125 44.1875 31.28125Q45.15625 31.28125 45.828125 30.78125Q46.515625 30.265625 46.921875 29.15625ZM41.140625 26.3125L46.9375 26.3125Q46.828125 25.015625 46.28125 24.359375Q45.4375 23.34375 44.09375 23.34375Q42.890625 23.34375 42.0625 24.15625Q41.234375 24.953125 41.140625 26.3125ZM57.59375 28.703125L59.3125 28.921875Q59.03125 30.71875 57.859375 31.734375Q56.703125 32.734375 55.0 32.734375Q52.875 32.734375 51.578125 31.34375Q50.28125 29.953125 50.28125 27.359375Q50.28125 25.671875 50.828125 24.421875Q51.390625 23.15625 52.53125 22.53125Q53.671875 21.890625 55.015625 21.890625Q56.703125 21.890625 57.765625 22.75Q58.84375 23.609375 59.15625 25.171875L57.4375 25.4375Q57.203125 24.390625 56.578125 23.875Q55.953125 23.34375 55.078125 23.34375Q53.75 23.34375 52.921875 24.296875Q52.09375 25.25 52.09375 27.296875Q52.09375 29.390625 52.890625 30.34375Q53.6875 31.28125 54.984375 31.28125Q56.015625 31.28125 56.703125 30.65625Q57.40625 30.015625 57.59375 28.703125ZM64.65625 30.921875L64.90625 32.484375Q64.171875 32.640625 63.578125 32.640625Q62.625 32.640625 62.09375 32.34375Q61.578125 32.03125 61.359375 31.546875Q61.140625 31.046875 61.140625 29.46875L61.140625 23.5L59.859375 23.5L59.859375 22.125L61.140625 22.125L61.140625 19.5625L62.890625 18.5L62.890625 22.125L64.65625 22.125L64.65625 23.5L62.890625 23.5L62.890625 29.5625Q62.890625 30.3125 62.984375 30.53125Q63.078125 30.734375 63.28125 30.875Q63.5 31.0 63.890625 31.0Q64.171875 31.0 64.65625 30.921875ZM72.796875 32.5L72.796875 22.125L74.375 22.125L74.375 23.703125Q74.984375 22.59375 75.5 22.25Q76.015625 21.890625 76.625 21.890625Q77.515625 21.890625 78.4375 22.453125L77.828125 24.09375Q77.1875 23.703125 76.546875 23.703125Q75.96875 23.703125 75.5 24.0625Q75.046875 24.40625 74.84375 25.015625Q74.5625 25.953125 74.5625 27.0625L74.5625 32.5L72.796875 32.5ZM86.59375 31.21875Q85.609375 32.046875 84.703125 32.390625Q83.796875 32.734375 82.765625 32.734375Q81.0625 32.734375 80.140625 31.90625Q79.21875 31.0625 79.21875 29.765625Q79.21875 29.0 79.5625 28.375Q79.921875 27.75 80.484375 27.375Q81.046875 26.984375 81.75 26.78125Q82.265625 26.65625 83.3125 26.515625Q85.4375 26.265625 86.4375 25.921875Q86.453125 25.5625 86.453125 25.453125Q86.453125 24.390625 85.953125 23.9375Q85.28125 23.34375 83.953125 23.34375Q82.703125 23.34375 82.109375 23.78125Q81.53125 24.21875 81.25 25.328125L79.53125 25.09375Q79.765625 23.984375 80.296875 23.3125Q80.828125 22.625 81.84375 22.265625Q82.859375 21.890625 84.203125 21.890625Q85.53125 21.890625 86.359375 22.203125Q87.1875 22.515625 87.578125 23.0Q87.96875 23.46875 88.125 24.1875Q88.21875 24.640625 88.21875 25.8125L88.21875 28.15625Q88.21875 30.609375 88.328125 31.265625Q88.4375 31.90625 88.78125 32.5L86.9375 32.5Q86.671875 31.953125 86.59375 31.21875ZM86.4375 27.296875Q85.484375 27.6875 83.5625 27.953125Q82.484375 28.109375 82.03125 28.3125Q81.59375 28.5 81.34375 28.875Q81.09375 29.25 81.09375 29.71875Q81.09375 30.421875 81.625 30.890625Q82.15625 31.359375 83.1875 31.359375Q84.203125 31.359375 84.984375 30.921875Q85.78125 30.46875 86.15625 29.703125Q86.4375 29.09375 86.4375 27.9375L86.4375 27.296875ZM90.8125 32.5L90.8125 22.125L92.40625 22.125L92.40625 23.609375Q93.546875 21.890625 95.703125 21.890625Q96.640625 21.890625 97.421875 22.234375Q98.21875 22.5625 98.609375 23.109375Q99.0 23.65625 99.15625 24.40625Q99.25 24.90625 99.25 26.125L99.25 32.5L97.484375 32.5L97.484375 26.1875Q97.484375 25.109375 97.28125 24.578125Q97.078125 24.046875 96.546875 23.734375Q96.03125 23.421875 95.328125 23.421875Q94.203125 23.421875 93.390625 24.140625Q92.578125 24.84375 92.578125 26.828125L92.578125 32.5L90.8125 32.5ZM107.546875 32.5L107.546875 31.1875Q106.5625 32.734375 104.640625 32.734375Q103.40625 32.734375 102.359375 32.046875Q101.328125 31.359375 100.75 30.140625Q100.1875 28.921875 100.1875 27.328125Q100.1875 25.765625 100.703125 24.5Q101.21875 23.234375 102.25 22.5625Q103.296875 21.890625 104.5625 21.890625Q105.5 21.890625 106.234375 22.296875Q106.96875 22.6875 107.4375 23.3125L107.4375 18.1875L109.171875 18.1875L109.171875 32.5L107.546875 32.5ZM101.984375 27.328125Q101.984375 29.3125 102.828125 30.296875Q103.671875 31.28125 104.8125 31.28125Q105.96875 31.28125 106.765625 30.34375Q107.578125 29.40625 107.578125 27.46875Q107.578125 25.34375 106.75 24.34375Q105.9375 23.34375 104.734375 23.34375Q103.5625 23.34375 102.765625 24.3125Q101.984375 25.265625 101.984375 27.328125ZM111.171875 27.3125Q111.171875 24.4375 112.765625 23.046875Q114.109375 21.890625 116.03125 21.890625Q118.171875 21.890625 119.515625 23.296875Q120.875 24.703125 120.875 27.171875Q120.875 29.171875 120.28125 30.328125Q119.6875 31.46875 118.53125 32.109375Q117.390625 32.734375 116.03125 32.734375Q113.84375 32.734375 112.5 31.34375Q111.171875 29.9375 111.171875 27.3125ZM112.96875 27.3125Q112.96875 29.3125 113.828125 30.296875Q114.703125 31.28125 116.03125 31.28125Q117.34375 31.28125 118.203125 30.296875Q119.078125 29.296875 119.078125 27.25Q119.078125 25.328125 118.203125 24.34375Q117.328125 23.34375 116.03125 23.34375Q114.703125 23.34375 113.828125 24.34375Q112.96875 25.328125 112.96875 27.3125ZM122.8125 32.5L122.8125 22.125L124.390625 22.125L124.390625 23.578125Q124.875 22.828125 125.6875 22.359375Q126.5 21.890625 127.53125 21.890625Q128.6875 21.890625 129.42188 22.375Q130.15625 22.84375 130.46875 23.703125Q131.70312 21.890625 133.67188 21.890625Q135.21875 21.890625 136.04688 22.75Q136.875 23.609375 136.875 25.375L136.875 32.5L135.125 32.5L135.125 25.96875Q135.125 24.90625 134.95312 24.453125Q134.78125 23.984375 134.32812 23.703125Q133.89062 23.421875 133.28125 23.421875Q132.1875 23.421875 131.45312 24.15625Q130.73438 24.875 130.73438 26.46875L130.73438 32.5L128.98438 32.5L128.98438 25.765625Q128.98438 24.59375 128.54688 24.015625Q128.125 23.421875 127.140625 23.421875Q126.40625 23.421875 125.765625 23.8125Q125.140625 24.203125 124.859375 24.953125Q124.578125 25.703125 124.578125 27.125L124.578125 32.5L122.8125 32.5ZM149.96875 32.5L149.96875 29.078125L143.75 29.078125L143.75 27.453125L150.28125 18.1875L151.71875 18.1875L151.71875 27.453125L153.65625 27.453125L153.65625 29.078125L151.71875 29.078125L151.71875 32.5L149.96875 32.5ZM149.96875 27.453125L149.96875 21.0L145.48438 27.453125L149.96875 27.453125ZM155.96875 32.5L155.96875 18.1875L157.85938 18.1875L157.85938 25.28125L164.96875 18.1875L167.53125 18.1875L161.53125 23.984375L167.79688 32.5L165.29688 32.5L160.20312 25.25L157.85938 27.53125L157.85938 32.5L155.96875 32.5ZM168.96875 32.5L168.96875 18.1875L174.34375 18.1875Q175.98438 18.1875 176.96875 18.625Q177.95312 19.046875 178.51562 19.953125Q179.07812 20.859375 179.07812 21.84375Q179.07812 22.765625 178.57812 23.578125Q178.09375 24.390625 177.07812 24.875Q178.375 25.265625 179.07812 26.1875Q179.78125 27.09375 179.78125 28.34375Q179.78125 29.359375 179.34375 30.21875Q178.92188 31.078125 178.29688 31.546875Q177.67188 32.015625 176.73438 32.265625Q175.79688 32.5 174.42188 32.5L168.96875 32.5ZM170.85938 24.203125L173.95312 24.203125Q175.21875 24.203125 175.76562 24.03125Q176.48438 23.8125 176.84375 23.328125Q177.21875 22.828125 177.21875 22.0625Q177.21875 21.359375 176.875 20.8125Q176.53125 20.265625 175.89062 20.078125Q175.26562 19.875 173.71875 19.875L170.85938 19.875L170.85938 24.203125ZM170.85938 30.8125L174.42188 30.8125Q175.34375 30.8125 175.71875 30.734375Q176.375 30.625 176.8125 30.359375Q177.25 30.078125 177.53125 29.5625Q177.8125 29.03125 177.8125 28.34375Q177.8125 27.546875 177.40625 26.953125Q177.0 26.359375 176.26562 26.125Q175.53125 25.890625 174.17188 25.890625L170.85938 25.890625L170.85938 30.8125ZM198.89062 30.96875Q200.21875 31.875 201.32812 32.296875L200.76562 33.609375Q199.21875 33.0625 197.6875 31.859375Q196.09375 32.75 194.17188 32.75Q192.23438 32.75 190.64062 31.8125Q189.0625 30.875 188.20312 29.171875Q187.35938 27.46875 187.35938 25.34375Q187.35938 23.21875 188.21875 21.484375Q189.07812 19.75 190.65625 18.84375Q192.25 17.921875 194.21875 17.921875Q196.20312 17.921875 197.78125 18.875Q199.375 19.8125 200.20312 21.515625Q201.04688 23.203125 201.04688 25.328125Q201.04688 27.09375 200.51562 28.515625Q199.98438 29.921875 198.89062 30.96875ZM194.71875 28.546875Q196.35938 29.0 197.42188 29.90625Q199.09375 28.390625 199.09375 25.328125Q199.09375 23.59375 198.5 22.296875Q197.92188 21.0 196.78125 20.28125Q195.64062 19.5625 194.21875 19.5625Q192.10938 19.5625 190.70312 21.015625Q189.3125 22.453125 189.3125 25.34375Q189.3125 28.140625 190.6875 29.640625Q192.07812 31.125 194.21875 31.125Q195.23438 31.125 196.14062 30.734375Q195.25 30.171875 194.26562 29.921875L194.71875 28.546875ZM204.04688 32.5L204.04688 18.1875L208.96875 18.1875Q210.64062 18.1875 211.53125 18.390625Q212.75 18.671875 213.625 19.40625Q214.75 20.375 215.3125 21.859375Q215.875 23.34375 215.875 25.265625Q215.875 26.890625 215.5 28.15625Q215.125 29.40625 214.51562 30.234375Q213.92188 31.0625 213.21875 31.546875Q212.51562 32.015625 211.51562 32.265625Q210.51562 32.5 209.20312 32.5L204.04688 32.5ZM205.9375 30.8125L209.0 30.8125Q210.40625 30.8125 211.20312 30.546875Q212.01562 30.28125 212.5 29.796875Q213.17188 29.125 213.54688 28.0Q213.92188 26.859375 213.92188 25.234375Q213.92188 22.984375 213.1875 21.78125Q212.45312 20.578125 211.39062 20.171875Q210.64062 19.875 208.95312 19.875L205.9375 19.875L205.9375 30.8125ZM217.34375 28.71875L219.09375 28.484375Q219.40625 29.984375 220.125 30.640625Q220.85938 31.296875 221.90625 31.296875Q223.14062 31.296875 223.98438 30.4375Q224.84375 29.578125 224.84375 28.3125Q224.84375 27.09375 224.04688 26.3125Q223.26562 25.53125 222.04688 25.53125Q221.54688 25.53125 220.8125 25.71875L221.0 24.171875Q221.17188 24.203125 221.28125 24.203125Q222.40625 24.203125 223.29688 23.625Q224.20312 23.03125 224.20312 21.8125Q224.20312 20.84375 223.54688 20.203125Q222.89062 19.5625 221.85938 19.5625Q220.84375 19.5625 220.15625 20.21875Q219.46875 20.859375 219.28125 22.140625L217.51562 21.828125Q217.84375 20.0625 218.98438 19.09375Q220.125 18.125 221.82812 18.125Q223.0 18.125 223.98438 18.625Q224.96875 19.125 225.48438 20.0Q226.01562 20.875 226.01562 21.84375Q226.01562 22.765625 225.51562 23.53125Q225.01562 24.296875 224.04688 24.75Q225.3125 25.03125 226.01562 25.96875Q226.71875 26.890625 226.71875 28.265625Q226.71875 30.140625 225.34375 31.453125Q223.98438 32.75 221.89062 32.75Q220.0 32.75 218.75 31.625Q217.51562 30.5 217.34375 28.71875ZM237.5625 30.8125L237.5625 32.5L228.10938 32.5Q228.09375 31.859375 228.3125 31.28125Q228.67188 30.3125 229.46875 29.375Q230.26562 28.4375 231.76562 27.203125Q234.10938 25.296875 234.92188 24.1875Q235.75 23.0625 235.75 22.0625Q235.75 21.015625 235.0 20.296875Q234.25 19.578125 233.04688 19.578125Q231.78125 19.578125 231.01562 20.34375Q230.25 21.109375 230.25 22.453125L228.4375 22.265625Q228.625 20.25 229.82812 19.1875Q231.04688 18.125 233.09375 18.125Q235.14062 18.125 236.34375 19.265625Q237.54688 20.40625 237.54688 22.09375Q237.54688 22.953125 237.1875 23.796875Q236.84375 24.625 236.03125 25.546875Q235.21875 26.453125 233.32812 28.0625Q231.73438 29.390625 231.28125 29.859375Q230.84375 30.328125 230.54688 30.8125L237.5625 30.8125Z" fill-rule="nonzero"/></svg>