<svg version="1.1" viewBox="0.0 0.0 724.0 270.0" fill="none" stroke="none" stroke-linecap="square" stroke-miterlimit="10" width="724" height="270" xmlns:xlink="http://www.w3.org/1999/xlink" xmlns="http://www.w3.org/2000/svg"><path fill="#ffffff" d="M0 0L724.0 0L724.0 270.0L0 270.0L0 0Z" fill-rule="nonzero"/><path stroke="#333333" stroke-width="1.0" stroke-linecap="butt" d="M51.5 46.5L51.5 236.5" fill-rule="nonzero"/><path stroke="#cccccc" stroke-width="1.0" stroke-linecap="butt" d="M161.5 46.5L161.5 236.5" fill-rule="nonzero"/><path stroke="#cccccc" stroke-width="1.0" stroke-linecap="butt" d="M271.5 46.5L271.5 236.5" fill-rule="nonzero"/><path stroke="#cccccc" stroke-width="1.0" stroke-linecap="butt" d="M381.5 46.5L381.5 236.5" fill-rule="nonzero"/><path stroke="#cccccc" stroke-width="1.0" stroke-linecap="butt" d="M490.5 46.5L490.5 236.5" fill-rule="nonzero"/><path stroke="#cccccc" stroke-width="1.0" stroke-linecap="butt" d="M600.5 46.5L600.5 236.5" fill-rule="nonzero"/><path stroke="#cccccc" stroke-width="1.0" stroke-linecap="butt" d="M710.5 46.5L710.5 236.5" fill-rule="nonzero"/><path stroke="#e6e6e6" stroke-width="1.0" stroke-linecap="butt" d="M88.5 46.5L88.5 236.5" fill-rule="nonzero"/><path stroke="#e6e6e6" stroke-width="1.0" stroke-linecap="butt" d="M124.5 46.5L124.5 236.5" fill-rule="nonzero"/><path stroke="#e6e6e6" stroke-width="1.0" stroke-linecap="butt" d="M197.5 46.5L197.5 236.5" fill-rule="nonzero"/><path stroke="#e6e6e6" stroke-width="1.0" stroke-linecap="butt" d="M234.5 46.5L234.5 236.5" fill-rule="nonzero"/><path stroke="#e6e6e6" stroke-width="1.0" stroke-linecap="butt" d="M307.5 46.5L307.5 236.5" fill-rule="nonzero"/><path stroke="#e6e6e6" stroke-width="1.0" stroke-linecap="butt" d="M344.5 46.5L344.5 236.5" fill-rule="nonzero"/><path stroke="#e6e6e6" stroke-width="1.0" stroke-linecap="butt" d="M417.5 46.5L417.5 236.5" fill-rule="nonzero"/><path stroke="#e6e6e6" stroke-width="1.0" stroke-linecap="butt" d="M454.5 46.5L454.5 236.5" fill-rule="nonzero"/><path stroke="#e6e6e6" stroke-width="1.0" stroke-linecap="butt" d="M527.5 46.5L527.5 236.5" fill-rule="nonzero"/><path stroke="#e6e6e6" stroke-width="1.0" stroke-linecap="butt" d="M564.5 46.5L564.5 236.5" fill-rule="nonzero"/><path stroke="#e6e6e6" stroke-width="1.0" stroke-linecap="butt" d="M637.5 46.5L637.5 236.5" fill-rule="nonzero"/><path stroke="#e6e6e6" stroke-width="1.0" stroke-linecap="butt" d="M673.5 46.5L673.5 236.5" fill-rule="nonzero"/><path stroke="#000000" stroke-width="1.0" stroke-linecap="butt" d="M710.5 236.5L51.5 236.5" fill-rule="nonzero"/><clipPath id="id_0"><path d="M51.5 46.5L710.5 46.5L710.5 236.5L51.5 236.5L51.5 46.5Z" clip-rule="nonzero"/></clipPath><path stroke="#000000" stroke-width="2.0" stroke-linecap="butt" stroke-opacity="0.0" clip-path="url(#id_0)" d="M51.0 128.0L51.0 75.0L635.0 75.0C636.10455 75.0 637.0 75.89543 637.0 77.0L637.0 126.0C637.0 127.10457 636.10455 128.0 635.0 128.0Z" fill-rule="nonzero"/><path fill="#4285f4" clip-path="url(#id_0)" d="M51.0 128.0L51.0 75.0L635.0 75.0C636.10455 75.0 637.0 75.89543 637.0 77.0L637.0 126.0C637.0 127.10457 636.10455 128.0 635.0 128.0Z" fill-rule="nonzero"/><path stroke="#000000" stroke-width="2.0" stroke-linecap="butt" stroke-opacity="0.0" clip-path="url(#id_0)" d="M51.0 209.0L51.0 156.0L495.0 156.0C496.10458 156.0 497.0 156.89543 497.0 158.0L497.0 207.0C497.0 208.10457 496.10458 209.0 495.0 209.0Z" fill-rule="nonzero"/><path fill="#4285f4" clip-path="url(#id_0)" d="M51.0 209.0L51.0 156.0L495.0 156.0C496.10458 156.0 497.0 156.89543 497.0 158.0L497.0 207.0C497.0 208.10457 496.10458 209.0 495.0 209.0Z" fill-rule="nonzero"/><path stroke="#4285f4" stroke-width="3.0" stroke-linejoin="round" stroke-linecap="round" d="M592.89465 99.1875Q592.89465 99.828125 592.5509 100.328125Q592.20715 100.828125 591.64465 101.109375Q592.3009 101.390625 592.6915 101.953125Q593.08215 102.5 593.08215 103.203125Q593.08215 104.296875 592.33215 104.96875Q591.5978 105.625 590.379 105.625Q589.14465 105.625 588.39465 104.96875Q587.6603 104.296875 587.6603 103.203125Q587.6603 102.5 588.0353 101.953125Q588.4103 101.390625 589.08215 101.109375Q588.51965 100.828125 588.1915 100.328125Q587.8634 99.828125 587.8634 99.1875Q587.8634 98.109375 588.5509 97.484375Q589.2384 96.84375 590.379 96.84375Q591.504 96.84375 592.1915 97.484375Q592.89465 98.109375 592.89465 99.1875ZM592.004 103.171875Q592.004 102.453125 591.5509 102.015625Q591.0978 101.5625 590.3634 101.5625Q589.629 101.5625 589.1759 102.015625Q588.7384 102.453125 588.7384 103.1875Q588.7384 103.90625 589.1759 104.328125Q589.6134 104.734375 590.379 104.734375Q591.129 104.734375 591.5665 104.3125Q592.004 103.890625 592.004 103.171875ZM590.379 97.734375Q589.7384 97.734375 589.33215 98.140625Q588.9415 98.53125 588.9415 99.21875Q588.9415 99.859375 589.33215 100.265625Q589.7228 100.671875 590.3634 100.671875Q591.01965 100.671875 591.4103 100.265625Q591.8009 99.859375 591.8009 99.21875Q591.8009 98.5625 591.39465 98.15625Q590.9884 97.734375 590.379 97.734375ZM598.8634 101.75Q598.5353 102.15625 598.0509 102.40625Q597.58215 102.640625 597.01965 102.640625Q596.2853 102.640625 595.7384 102.28125Q595.1915 101.921875 594.89465 101.265625Q594.5978 100.59375 594.5978 99.796875Q594.5978 98.953125 594.9103 98.265625Q595.2384 97.578125 595.83215 97.21875Q596.4415 96.84375 597.2384 96.84375Q598.504 96.84375 599.2228 97.796875Q599.95715 98.75 599.95715 100.375L599.95715 100.6875Q599.95715 103.1875 598.9728 104.328125Q597.9884 105.46875 596.004 105.5L595.7853 105.5L595.7853 104.59375L596.01965 104.59375Q597.3634 104.5625 598.08215 103.890625Q598.8009 103.21875 598.8634 101.75ZM597.1915 101.75Q597.7384 101.75 598.1915 101.421875Q598.6603 101.078125 598.879 100.59375L598.879 100.15625Q598.879 99.09375 598.4103 98.421875Q597.9415 97.75 597.2384 97.75Q596.51965 97.75 596.08215 98.296875Q595.6603 98.84375 595.6603 99.75Q595.6603 100.625 596.0665 101.1875Q596.4884 101.75 597.1915 101.75ZM606.4415 96.96875L609.2384 103.921875L612.01965 96.96875L613.4884 96.96875L613.4884 105.5L612.3634 105.5L612.3634 102.171875L612.4728 98.59375L609.6603 105.5L608.8009 105.5L606.004 98.609375L606.1134 102.171875L606.1134 105.5L604.9884 105.5L604.9884 96.96875L606.4415 96.96875ZM614.9884 105.5L614.9884 96.96875L617.7853 96.96875Q619.1759 96.96875 619.8634 97.546875Q620.5665 98.109375 620.5665 99.234375Q620.5665 99.84375 620.2228 100.3125Q619.89465 100.765625 619.3009 101.015625Q620.004 101.203125 620.39465 101.75Q620.8009 102.28125 620.8009 103.03125Q620.8009 104.1875 620.0509 104.84375Q619.3165 105.5 617.95715 105.5L614.9884 105.5ZM616.1134 101.515625L616.1134 104.578125L617.9728 104.578125Q618.76965 104.578125 619.2228 104.171875Q619.6759 103.765625 619.6759 103.046875Q619.6759 101.515625 617.9884 101.515625L616.1134 101.515625ZM616.1134 100.609375L617.8165 100.609375Q618.5509 100.609375 618.9884 100.25Q619.4415 99.875 619.4415 99.234375Q619.4415 98.53125 619.0353 98.21875Q618.629 97.890625 617.7853 97.890625L616.1134 97.890625L616.1134 100.609375ZM622.0353 106.234375L621.1134 106.234375L624.6759 96.96875L625.5978 96.96875L622.0353 106.234375ZM630.51965 103.8125Q630.51965 103.375 630.1759 103.140625Q629.8478 102.890625 629.01965 102.71875Q628.20715 102.546875 627.7228 102.296875Q627.2384 102.046875 627.004 101.71875Q626.7853 101.375 626.7853 100.90625Q626.7853 100.125 627.4415 99.59375Q628.0978 99.046875 629.129 99.046875Q630.20715 99.046875 630.8634 99.609375Q631.5353 100.15625 631.5353 101.015625L630.45715 101.015625Q630.45715 100.578125 630.0665 100.265625Q629.6915 99.9375 629.129 99.9375Q628.5353 99.9375 628.1915 100.203125Q627.8634 100.453125 627.8634 100.859375Q627.8634 101.25 628.1759 101.453125Q628.4884 101.65625 629.3009 101.84375Q630.1134 102.015625 630.6134 102.265625Q631.1134 102.515625 631.3478 102.875Q631.5978 103.234375 631.5978 103.734375Q631.5978 104.59375 630.9103 105.109375Q630.2384 105.625 629.1603 105.625Q628.39465 105.625 627.8009 105.359375Q627.2228 105.078125 626.89465 104.59375Q626.5665 104.109375 626.5665 103.546875L627.64465 103.546875Q627.6759 104.09375 628.08215 104.421875Q628.4884 104.734375 629.1603 104.734375Q629.76965 104.734375 630.14465 104.484375Q630.51965 104.234375 630.51965 103.8125Z" fill-rule="nonzero"/><path fill="#ffffff" d="M592.89465 99.1875Q592.89465 99.828125 592.5509 100.328125Q592.20715 100.828125 591.64465 101.109375Q592.3009 101.390625 592.6915 101.953125Q593.08215 102.5 593.08215 103.203125Q593.08215 104.296875 592.33215 104.96875Q591.5978 105.625 590.379 105.625Q589.14465 105.625 588.39465 104.96875Q587.6603 104.296875 587.6603 103.203125Q587.6603 102.5 588.0353 101.953125Q588.4103 101.390625 589.08215 101.109375Q588.51965 100.828125 588.1915 100.328125Q587.8634 99.828125 587.8634 99.1875Q587.8634 98.109375 588.5509 97.484375Q589.2384 96.84375 590.379 96.84375Q591.504 96.84375 592.1915 97.484375Q592.89465 98.109375 592.89465 99.1875ZM592.004 103.171875Q592.004 102.453125 591.5509 102.015625Q591.0978 101.5625 590.3634 101.5625Q589.629 101.5625 589.1759 102.015625Q588.7384 102.453125 588.7384 103.1875Q588.7384 103.90625 589.1759 104.328125Q589.6134 104.734375 590.379 104.734375Q591.129 104.734375 591.5665 104.3125Q592.004 103.890625 592.004 103.171875ZM590.379 97.734375Q589.7384 97.734375 589.33215 98.140625Q588.9415 98.53125 588.9415 99.21875Q588.9415 99.859375 589.33215 100.265625Q589.7228 100.671875 590.3634 100.671875Q591.01965 100.671875 591.4103 100.265625Q591.8009 99.859375 591.8009 99.21875Q591.8009 98.5625 591.39465 98.15625Q590.9884 97.734375 590.379 97.734375ZM598.8634 101.75Q598.5353 102.15625 598.0509 102.40625Q597.58215 102.640625 597.01965 102.640625Q596.2853 102.640625 595.7384 102.28125Q595.1915 101.921875 594.89465 101.265625Q594.5978 100.59375 594.5978 99.796875Q594.5978 98.953125 594.9103 98.265625Q595.2384 97.578125 595.83215 97.21875Q596.4415 96.84375 597.2384 96.84375Q598.504 96.84375 599.2228 97.796875Q599.95715 98.75 599.95715 100.375L599.95715 100.6875Q599.95715 103.1875 598.9728 104.328125Q597.9884 105.46875 596.004 105.5L595.7853 105.5L595.7853 104.59375L596.01965 104.59375Q597.3634 104.5625 598.08215 103.890625Q598.8009 103.21875 598.8634 101.75ZM597.1915 101.75Q597.7384 101.75 598.1915 101.421875Q598.6603 101.078125 598.879 100.59375L598.879 100.15625Q598.879 99.09375 598.4103 98.421875Q597.9415 97.75 597.2384 97.75Q596.51965 97.75 596.08215 98.296875Q595.6603 98.84375 595.6603 99.75Q595.6603 100.625 596.0665 101.1875Q596.4884 101.75 597.1915 101.75ZM606.4415 96.96875L609.2384 103.921875L612.01965 96.96875L613.4884 96.96875L613.4884 105.5L612.3634 105.5L612.3634 102.171875L612.4728 98.59375L609.6603 105.5L608.8009 105.5L606.004 98.609375L606.1134 102.171875L606.1134 105.5L604.9884 105.5L604.9884 96.96875L606.4415 96.96875ZM614.9884 105.5L614.9884 96.96875L617.7853 96.96875Q619.1759 96.96875 619.8634 97.546875Q620.5665 98.109375 620.5665 99.234375Q620.5665 99.84375 620.2228 100.3125Q619.89465 100.765625 619.3009 101.015625Q620.004 101.203125 620.39465 101.75Q620.8009 102.28125 620.8009 103.03125Q620.8009 104.1875 620.0509 104.84375Q619.3165 105.5 617.95715 105.5L614.9884 105.5ZM616.1134 101.515625L616.1134 104.578125L617.9728 104.578125Q618.76965 104.578125 619.2228 104.171875Q619.6759 103.765625 619.6759 103.046875Q619.6759 101.515625 617.9884 101.515625L616.1134 101.515625ZM616.1134 100.609375L617.8165 100.609375Q618.5509 100.609375 618.9884 100.25Q619.4415 99.875 619.4415 99.234375Q619.4415 98.53125 619.0353 98.21875Q618.629 97.890625 617.7853 97.890625L616.1134 97.890625L616.1134 100.609375ZM622.0353 106.234375L621.1134 106.234375L624.6759 96.96875L625.5978 96.96875L622.0353 106.234375ZM630.51965 103.8125Q630.51965 103.375 630.1759 103.140625Q629.8478 102.890625 629.01965 102.71875Q628.20715 102.546875 627.7228 102.296875Q627.2384 102.046875 627.004 101.71875Q626.7853 101.375 626.7853 100.90625Q626.7853 100.125 627.4415 99.59375Q628.0978 99.046875 629.129 99.046875Q630.20715 99.046875 630.8634 99.609375Q631.5353 100.15625 631.5353 101.015625L630.45715 101.015625Q630.45715 100.578125 630.0665 100.265625Q629.6915 99.9375 629.129 99.9375Q628.5353 99.9375 628.1915 100.203125Q627.8634 100.453125 627.8634 100.859375Q627.8634 101.25 628.1759 101.453125Q628.4884 101.65625 629.3009 101.84375Q630.1134 102.015625 630.6134 102.265625Q631.1134 102.515625 631.3478 102.875Q631.5978 103.234375 631.5978 103.734375Q631.5978 104.59375 630.9103 105.109375Q630.2384 105.625 629.1603 105.625Q628.39465 105.625 627.8009 105.359375Q627.2228 105.078125 626.89465 104.59375Q626.5665 104.109375 626.5665 103.546875L627.64465 103.546875Q627.6759 104.09375 628.08215 104.421875Q628.4884 104.734375 629.1603 104.734375Q629.76965 104.734375 630.14465 104.484375Q630.51965 104.234375 630.51965 103.8125Z" fill-rule="nonzero"/><path stroke="#4285f4" stroke-width="3.0" stroke-linejoin="round" stroke-linecap="round" d="M452.1923 177.96875L452.1923 178.875L451.98917 178.875Q450.72354 178.90625 449.97354 179.64062Q449.22354 180.35938 449.09854 181.67188Q449.78604 180.90625 450.9423 180.90625Q452.05167 180.90625 452.72354 181.6875Q453.39542 182.46875 453.39542 183.71875Q453.39542 185.03125 452.67667 185.82812Q451.95792 186.625 450.73917 186.625Q449.52042 186.625 448.7548 185.6875Q448.0048 184.73438 448.0048 183.25L448.0048 182.84375Q448.0048 180.48438 449.0048 179.23438Q450.0048 177.98438 451.98917 177.96875L452.1923 177.96875ZM450.77042 181.8125Q450.20792 181.8125 449.73917 182.14062Q449.27042 182.46875 449.08292 182.98438L449.08292 183.375Q449.08292 184.4375 449.55167 185.07812Q450.03604 185.71875 450.73917 185.71875Q451.47354 185.71875 451.89542 185.1875Q452.3173 184.64062 452.3173 183.76562Q452.3173 182.89062 451.89542 182.35938Q451.47354 181.8125 450.77042 181.8125ZM460.11417 180.1875Q460.11417 180.82812 459.77042 181.32812Q459.42667 181.82812 458.86417 182.10938Q459.52042 182.39062 459.91104 182.95312Q460.30167 183.5 460.30167 184.20312Q460.30167 185.29688 459.55167 185.96875Q458.8173 186.625 457.59854 186.625Q456.36417 186.625 455.61417 185.96875Q454.8798 185.29688 454.8798 184.20312Q454.8798 183.5 455.2548 182.95312Q455.6298 182.39062 456.30167 182.10938Q455.73917 181.82812 455.41104 181.32812Q455.08292 180.82812 455.08292 180.1875Q455.08292 179.10938 455.77042 178.48438Q456.45792 177.84375 457.59854 177.84375Q458.72354 177.84375 459.41104 178.48438Q460.11417 179.10938 460.11417 180.1875ZM459.22354 184.17188Q459.22354 183.45312 458.77042 183.01562Q458.3173 182.5625 457.58292 182.5625Q456.84854 182.5625 456.39542 183.01562Q455.95792 183.45312 455.95792 184.1875Q455.95792 184.90625 456.39542 185.32812Q456.83292 185.73438 457.59854 185.73438Q458.34854 185.73438 458.78604 185.3125Q459.22354 184.89062 459.22354 184.17188ZM457.59854 178.73438Q456.95792 178.73438 456.55167 179.14062Q456.16104 179.53125 456.16104 180.21875Q456.16104 180.85938 456.55167 181.26562Q456.9423 181.67188 457.58292 181.67188Q458.23917 181.67188 458.6298 181.26562Q459.02042 180.85938 459.02042 180.21875Q459.02042 179.5625 458.61417 179.15625Q458.20792 178.73438 457.59854 178.73438ZM466.66104 177.96875L469.45792 184.92188L472.23917 177.96875L473.70792 177.96875L473.70792 186.5L472.58292 186.5L472.58292 183.17188L472.6923 179.59375L469.8798 186.5L469.02042 186.5L466.22354 179.60938L466.33292 183.17188L466.33292 186.5L465.20792 186.5L465.20792 177.96875L466.66104 177.96875ZM475.20792 186.5L475.20792 177.96875L478.0048 177.96875Q479.39542 177.96875 480.08292 178.54688Q480.78604 179.10938 480.78604 180.23438Q480.78604 180.84375 480.4423 181.3125Q480.11417 181.76562 479.52042 182.01562Q480.22354 182.20312 480.61417 182.75Q481.02042 183.28125 481.02042 184.03125Q481.02042 185.1875 480.27042 185.84375Q479.53604 186.5 478.17667 186.5L475.20792 186.5ZM476.33292 182.51562L476.33292 185.57812L478.1923 185.57812Q478.98917 185.57812 479.4423 185.17188Q479.89542 184.76562 479.89542 184.04688Q479.89542 182.51562 478.20792 182.51562L476.33292 182.51562ZM476.33292 181.60938L478.03604 181.60938Q478.77042 181.60938 479.20792 181.25Q479.66104 180.875 479.66104 180.23438Q479.66104 179.53125 479.2548 179.21875Q478.84854 178.89062 478.0048 178.89062L476.33292 178.89062L476.33292 181.60938ZM482.2548 187.23438L481.33292 187.23438L484.89542 177.96875L485.8173 177.96875L482.2548 187.23438ZM490.73917 184.8125Q490.73917 184.375 490.39542 184.14062Q490.0673 183.89062 489.23917 183.71875Q488.42667 183.54688 487.9423 183.29688Q487.45792 183.04688 487.22354 182.71875Q487.0048 182.375 487.0048 181.90625Q487.0048 181.125 487.66104 180.59375Q488.3173 180.04688 489.34854 180.04688Q490.42667 180.04688 491.08292 180.60938Q491.7548 181.15625 491.7548 182.01562L490.67667 182.01562Q490.67667 181.57812 490.28604 181.26562Q489.91104 180.9375 489.34854 180.9375Q488.7548 180.9375 488.41104 181.20312Q488.08292 181.45312 488.08292 181.85938Q488.08292 182.25 488.39542 182.45312Q488.70792 182.65625 489.52042 182.84375Q490.33292 183.01562 490.83292 183.26562Q491.33292 183.51562 491.5673 183.875Q491.8173 184.23438 491.8173 184.73438Q491.8173 185.59375 491.1298 186.10938Q490.45792 186.625 489.3798 186.625Q488.61417 186.625 488.02042 186.35938Q487.4423 186.07812 487.11417 185.59375Q486.78604 185.10938 486.78604 184.54688L487.86417 184.54688Q487.89542 185.09375 488.30167 185.42188Q488.70792 185.73438 489.3798 185.73438Q489.98917 185.73438 490.36417 185.48438Q490.73917 185.23438 490.73917 184.8125Z" fill-rule="nonzero"/><path fill="#ffffff" d="M452.1923 177.96875L452.1923 178.875L451.98917 178.875Q450.72354 178.90625 449.97354 179.64062Q449.22354 180.35938 449.09854 181.67188Q449.78604 180.90625 450.9423 180.90625Q452.05167 180.90625 452.72354 181.6875Q453.39542 182.46875 453.39542 183.71875Q453.39542 185.03125 452.67667 185.82812Q451.95792 186.625 450.73917 186.625Q449.52042 186.625 448.7548 185.6875Q448.0048 184.73438 448.0048 183.25L448.0048 182.84375Q448.0048 180.48438 449.0048 179.23438Q450.0048 177.98438 451.98917 177.96875L452.1923 177.96875ZM450.77042 181.8125Q450.20792 181.8125 449.73917 182.14062Q449.27042 182.46875 449.08292 182.98438L449.08292 183.375Q449.08292 184.4375 449.55167 185.07812Q450.03604 185.71875 450.73917 185.71875Q451.47354 185.71875 451.89542 185.1875Q452.3173 184.64062 452.3173 183.76562Q452.3173 182.89062 451.89542 182.35938Q451.47354 181.8125 450.77042 181.8125ZM460.11417 180.1875Q460.11417 180.82812 459.77042 181.32812Q459.42667 181.82812 458.86417 182.10938Q459.52042 182.39062 459.91104 182.95312Q460.30167 183.5 460.30167 184.20312Q460.30167 185.29688 459.55167 185.96875Q458.8173 186.625 457.59854 186.625Q456.36417 186.625 455.61417 185.96875Q454.8798 185.29688 454.8798 184.20312Q454.8798 183.5 455.2548 182.95312Q455.6298 182.39062 456.30167 182.10938Q455.73917 181.82812 455.41104 181.32812Q455.08292 180.82812 455.08292 180.1875Q455.08292 179.10938 455.77042 178.48438Q456.45792 177.84375 457.59854 177.84375Q458.72354 177.84375 459.41104 178.48438Q460.11417 179.10938 460.11417 180.1875ZM459.22354 184.17188Q459.22354 183.45312 458.77042 183.01562Q458.3173 182.5625 457.58292 182.5625Q456.84854 182.5625 456.39542 183.01562Q455.95792 183.45312 455.95792 184.1875Q455.95792 184.90625 456.39542 185.32812Q456.83292 185.73438 457.59854 185.73438Q458.34854 185.73438 458.78604 185.3125Q459.22354 184.89062 459.22354 184.17188ZM457.59854 178.73438Q456.95792 178.73438 456.55167 179.14062Q456.16104 179.53125 456.16104 180.21875Q456.16104 180.85938 456.55167 181.26562Q456.9423 181.67188 457.58292 181.67188Q458.23917 181.67188 458.6298 181.26562Q459.02042 180.85938 459.02042 180.21875Q459.02042 179.5625 458.61417 179.15625Q458.20792 178.73438 457.59854 178.73438ZM466.66104 177.96875L469.45792 184.92188L472.23917 177.96875L473.70792 177.96875L473.70792 186.5L472.58292 186.5L472.58292 183.17188L472.6923 179.59375L469.8798 186.5L469.02042 186.5L466.22354 179.60938L466.33292 183.17188L466.33292 186.5L465.20792 186.5L465.20792 177.96875L466.66104 177.96875ZM475.20792 186.5L475.20792 177.96875L478.0048 177.96875Q479.39542 177.96875 480.08292 178.54688Q480.78604 179.10938 480.78604 180.23438Q480.78604 180.84375 480.4423 181.3125Q480.11417 181.76562 479.52042 182.01562Q480.22354 182.20312 480.61417 182.75Q481.02042 183.28125 481.02042 184.03125Q481.02042 185.1875 480.27042 185.84375Q479.53604 186.5 478.17667 186.5L475.20792 186.5ZM476.33292 182.51562L476.33292 185.57812L478.1923 185.57812Q478.98917 185.57812 479.4423 185.17188Q479.89542 184.76562 479.89542 184.04688Q479.89542 182.51562 478.20792 182.51562L476.33292 182.51562ZM476.33292 181.60938L478.03604 181.60938Q478.77042 181.60938 479.20792 181.25Q479.66104 180.875 479.66104 180.23438Q479.66104 179.53125 479.2548 179.21875Q478.84854 178.89062 478.0048 178.89062L476.33292 178.89062L476.33292 181.60938ZM482.2548 187.23438L481.33292 187.23438L484.89542 177.96875L485.8173 177.96875L482.2548 187.23438ZM490.73917 184.8125Q490.73917 184.375 490.39542 184.14062Q490.0673 183.89062 489.23917 183.71875Q488.42667 183.54688 487.9423 183.29688Q487.45792 183.04688 487.22354 182.71875Q487.0048 182.375 487.0048 181.90625Q487.0048 181.125 487.66104 180.59375Q488.3173 180.04688 489.34854 180.04688Q490.42667 180.04688 491.08292 180.60938Q491.7548 181.15625 491.7548 182.01562L490.67667 182.01562Q490.67667 181.57812 490.28604 181.26562Q489.91104 180.9375 489.34854 180.9375Q488.7548 180.9375 488.41104 181.20312Q488.08292 181.45312 488.08292 181.85938Q488.08292 182.25 488.39542 182.45312Q488.70792 182.65625 489.52042 182.84375Q490.33292 183.01562 490.83292 183.26562Q491.33292 183.51562 491.5673 183.875Q491.8173 184.23438 491.8173 184.73438Q491.8173 185.59375 491.1298 186.10938Q490.45792 186.625 489.3798 186.625Q488.61417 186.625 488.02042 186.35938Q487.4423 186.07812 487.11417 185.59375Q486.78604 185.10938 486.78604 184.54688L487.86417 184.54688Q487.89542 185.09375 488.30167 185.42188Q488.70792 185.73438 489.3798 185.73438Q489.98917 185.73438 490.36417 185.48438Q490.73917 185.23438 490.73917 184.8125Z" fill-rule="nonzero"/><path fill="#000000" d="M14.421875 105.07447L14.421875 96.48072L17.671875 96.48072Q18.515625 96.48072 18.96875 96.558846Q19.609375 96.66822 20.03125 96.965096Q20.46875 97.26197 20.71875 97.79322Q20.984375 98.32447 20.984375 98.965096Q20.984375 100.058846 20.28125 100.82447Q19.59375 101.57447 17.765625 101.57447L15.5625 101.57447L15.5625 105.07447L14.421875 105.07447ZM15.5625 100.57447L17.78125 100.57447Q18.890625 100.57447 19.34375 100.16822Q19.8125 99.746346 19.8125 98.996346Q19.8125 98.465096 19.53125 98.090096Q19.265625 97.69947 18.828125 97.57447Q18.53125 97.496346 17.765625 97.496346L15.5625 97.496346L15.5625 100.57447ZM26.375 105.07447L26.375 104.152596Q25.640625 105.215096 24.390625 105.215096Q23.84375 105.215096 23.359375 105.01197Q22.890625 104.79322 22.65625 104.48072Q22.421875 104.152596 22.328125 103.683846Q22.265625 103.38697 22.265625 102.69947L22.265625 98.85572L23.328125 98.85572L23.328125 102.308846Q23.328125 103.121346 23.390625 103.41822Q23.484375 103.82447 23.796875 104.07447Q24.125 104.308846 24.609375 104.308846Q25.078125 104.308846 25.484375 104.07447Q25.90625 103.82447 26.078125 103.402596Q26.265625 102.98072 26.265625 102.183846L26.265625 98.85572L27.3125 98.85572L27.3125 105.07447L26.375 105.07447ZM29.265625 105.07447L29.265625 96.48072L30.328125 96.48072L30.328125 105.07447L29.265625 105.07447ZM31.875 103.215096L32.90625 103.058846Q33.0 103.683846 33.390625 104.01197Q33.796875 104.340096 34.53125 104.340096Q35.25 104.340096 35.59375 104.058846Q35.953125 103.76197 35.953125 103.35572Q35.953125 102.996346 35.640625 102.79322Q35.421875 102.652596 34.5625 102.433846Q33.40625 102.13697 32.953125 101.933846Q32.515625 101.715096 32.28125 101.340096Q32.046875 100.965096 32.046875 100.496346Q32.046875 100.090096 32.234375 99.73072Q32.421875 99.371346 32.75 99.13697Q33.0 98.965096 33.421875 98.840096Q33.84375 98.715096 34.34375 98.715096Q35.0625 98.715096 35.609375 98.933846Q36.171875 99.13697 36.4375 99.496346Q36.703125 99.85572 36.796875 100.44947L35.765625 100.590096Q35.703125 100.121346 35.359375 99.85572Q35.03125 99.57447 34.40625 99.57447Q33.6875 99.57447 33.375 99.82447Q33.0625 100.058846 33.0625 100.38697Q33.0625 100.590096 33.1875 100.746346Q33.328125 100.91822 33.59375 101.027596Q33.75 101.090096 34.53125 101.29322Q35.65625 101.60572 36.09375 101.79322Q36.53125 101.98072 36.78125 102.340096Q37.03125 102.69947 37.03125 103.246346Q37.03125 103.777596 36.71875 104.246346Q36.421875 104.69947 35.84375 104.965096Q35.265625 105.215096 34.53125 105.215096Q33.3125 105.215096 32.671875 104.715096Q32.046875 104.19947 31.875 103.215096ZM43.546875 103.07447L44.640625 103.19947Q44.390625 104.152596 43.6875 104.683846Q42.984375 105.215096 41.90625 105.215096Q40.546875 105.215096 39.734375 104.371346Q38.9375 103.527596 38.9375 102.01197Q38.9375 100.44947 39.75 99.590096Q40.5625 98.715096 41.84375 98.715096Q43.09375 98.715096 43.875 99.558846Q44.671875 100.402596 44.671875 101.94947Q44.671875 102.04322 44.671875 102.23072L40.03125 102.23072Q40.09375 103.26197 40.609375 103.808846Q41.125 104.340096 41.90625 104.340096Q42.484375 104.340096 42.890625 104.04322Q43.3125 103.73072 43.546875 103.07447ZM40.09375 101.371346L43.5625 101.371346Q43.5 100.57447 43.171875 100.183846Q42.65625 99.57447 41.859375 99.57447Q41.125 99.57447 40.625 100.058846Q40.140625 100.54322 40.09375 101.371346Z" fill-rule="nonzero"/><path fill="#000000" d="M18.609375 185.92554L18.609375 178.34741L15.78125 178.34741L15.78125 177.33179L22.59375 177.33179L22.59375 178.34741L19.75 178.34741L19.75 185.92554L18.609375 185.92554ZM22.90625 182.81616Q22.90625 181.08179 23.859375 180.25366Q24.65625 179.56616 25.8125 179.56616Q27.09375 179.56616 27.90625 180.40991Q28.734375 181.23804 28.734375 182.72241Q28.734375 183.92554 28.375 184.61304Q28.015625 185.30054 27.3125 185.69116Q26.625 186.06616 25.8125 186.06616Q24.515625 186.06616 23.703125 185.23804Q22.90625 184.39429 22.90625 182.81616ZM23.984375 182.81616Q23.984375 184.00366 24.5 184.59741Q25.03125 185.19116 25.8125 185.19116Q26.609375 185.19116 27.125 184.59741Q27.640625 184.00366 27.640625 182.78491Q27.640625 181.62866 27.109375 181.03491Q26.59375 180.44116 25.8125 180.44116Q25.03125 180.44116 24.5 181.03491Q23.984375 181.61304 23.984375 182.81616ZM30.296875 185.92554L30.296875 177.33179L31.359375 177.33179L31.359375 182.23804L33.84375 179.70679L35.21875 179.70679L32.828125 182.00366L35.453125 185.92554L34.15625 185.92554L32.09375 182.73804L31.359375 183.45679L31.359375 185.92554L30.296875 185.92554ZM36.296875 178.55054L36.296875 177.33179L37.359375 177.33179L37.359375 178.55054L36.296875 178.55054ZM36.296875 185.92554L36.296875 179.70679L37.359375 179.70679L37.359375 185.92554L36.296875 185.92554ZM38.90625 182.81616Q38.90625 181.08179 39.859375 180.25366Q40.65625 179.56616 41.8125 179.56616Q43.09375 179.56616 43.90625 180.40991Q44.734375 181.23804 44.734375 182.72241Q44.734375 183.92554 44.375 184.61304Q44.015625 185.30054 43.3125 185.69116Q42.625 186.06616 41.8125 186.06616Q40.515625 186.06616 39.703125 185.23804Q38.90625 184.39429 38.90625 182.81616ZM39.984375 182.81616Q39.984375 184.00366 40.5 184.59741Q41.03125 185.19116 41.8125 185.19116Q42.609375 185.19116 43.125 184.59741Q43.640625 184.00366 43.640625 182.78491Q43.640625 181.62866 43.109375 181.03491Q42.59375 180.44116 41.8125 180.44116Q41.03125 180.44116 40.5 181.03491Q39.984375 181.61304 39.984375 182.81616Z" fill-rule="nonzero"/><path fill="#000000" d="M40.390625 253.5L40.390625 244.90625L42.109375 244.90625L44.140625 250.98438Q44.421875 251.84375 44.546875 252.26562Q44.6875 251.79688 45.0 250.89062L47.0625 244.90625L48.59375 244.90625L48.59375 253.5L47.5 253.5L47.5 246.3125L45.0 253.5L43.96875 253.5L41.484375 246.1875L41.484375 253.5L40.390625 253.5ZM49.375 253.5L49.375 244.90625L52.609375 244.90625Q53.59375 244.90625 54.1875 245.17188Q54.78125 245.4375 55.109375 245.98438Q55.453125 246.51562 55.453125 247.10938Q55.453125 247.65625 55.15625 248.14062Q54.859375 248.625 54.25 248.92188Q55.03125 249.15625 55.4375 249.71875Q55.859375 250.26562 55.859375 251.01562Q55.859375 251.60938 55.609375 252.14062Q55.359375 252.65625 54.984375 252.9375Q54.609375 253.21875 54.03125 253.35938Q53.46875 253.5 52.65625 253.5L49.375 253.5ZM50.515625 248.51562L52.375 248.51562Q53.125 248.51562 53.453125 248.42188Q53.890625 248.29688 54.109375 248.0Q54.328125 247.6875 54.328125 247.23438Q54.328125 246.8125 54.125 246.48438Q53.921875 246.15625 53.53125 246.04688Q53.15625 245.92188 52.234375 245.92188L50.515625 245.92188L50.515625 248.51562ZM50.515625 252.48438L52.65625 252.48438Q53.203125 252.48438 53.421875 252.4375Q53.828125 252.375 54.078125 252.21875Q54.34375 252.04688 54.515625 251.73438Q54.6875 251.42188 54.6875 251.01562Q54.6875 250.53125 54.4375 250.17188Q54.203125 249.8125 53.765625 249.67188Q53.328125 249.53125 52.5 249.53125L50.515625 249.53125L50.515625 252.48438ZM56.5 253.64062L58.984375 244.76562L59.828125 244.76562L57.34375 253.64062L56.5 253.64062ZM59.875 251.64062L60.90625 251.48438Q61.0 252.10938 61.390625 252.4375Q61.796875 252.76562 62.53125 252.76562Q63.25 252.76562 63.59375 252.48438Q63.953125 252.1875 63.953125 251.78125Q63.953125 251.42188 63.640625 251.21875Q63.421875 251.07812 62.5625 250.85938Q61.40625 250.5625 60.953125 250.35938Q60.515625 250.14062 60.28125 249.76562Q60.046875 249.39062 60.046875 248.92188Q60.046875 248.51562 60.234375 248.15625Q60.421875 247.79688 60.75 247.5625Q61.0 247.39062 61.421875 247.26562Q61.84375 247.14062 62.34375 247.14062Q63.0625 247.14062 63.609375 247.35938Q64.171875 247.5625 64.4375 247.92188Q64.703125 248.28125 64.796875 248.875L63.765625 249.01562Q63.703125 248.54688 63.359375 248.28125Q63.03125 248.0 62.40625 248.0Q61.6875 248.0 61.375 248.25Q61.0625 248.48438 61.0625 248.8125Q61.0625 249.01562 61.1875 249.17188Q61.328125 249.34375 61.59375 249.45312Q61.75 249.51562 62.53125 249.71875Q63.65625 250.03125 64.09375 250.21875Q64.53125 250.40625 64.78125 250.76562Q65.03125 251.125 65.03125 251.67188Q65.03125 252.20312 64.71875 252.67188Q64.421875 253.125 63.84375 253.39062Q63.265625 253.64062 62.53125 253.64062Q61.3125 253.64062 60.671875 253.14062Q60.046875 252.625 59.875 251.64062Z" fill-rule="nonzero"/><path fill="#000000" d="M143.80208 253.5L142.7552 253.5L142.7552 246.78125Q142.36458 247.14062 141.73958 247.51562Q141.1302 247.875 140.64583 248.04688L140.64583 247.03125Q141.52083 246.60938 142.17708 246.03125Q142.84895 245.4375 143.1302 244.875L143.80208 244.875L143.80208 253.5ZM146.89583 246.03125L146.89583 245.01562L152.45833 245.01562L152.45833 245.84375Q151.64583 246.71875 150.83333 248.17188Q150.03645 249.60938 149.59895 251.14062Q149.27083 252.21875 149.1927 253.5L148.09895 253.5Q148.11458 252.48438 148.48958 251.04688Q148.8802 249.60938 149.58333 248.28125Q150.30208 246.95312 151.11458 246.03125L146.89583 246.03125ZM157.22395 253.5L157.22395 244.90625L158.9427 244.90625L160.97395 250.98438Q161.2552 251.84375 161.3802 252.26562Q161.52083 251.79688 161.83333 250.89062L163.89583 244.90625L165.42708 244.90625L165.42708 253.5L164.33333 253.5L164.33333 246.3125L161.83333 253.5L160.80208 253.5L158.3177 246.1875L158.3177 253.5L157.22395 253.5ZM166.20833 253.5L166.20833 244.90625L169.4427 244.90625Q170.42708 244.90625 171.02083 245.17188Q171.61458 245.4375 171.9427 245.98438Q172.28645 246.51562 172.28645 247.10938Q172.28645 247.65625 171.98958 248.14062Q171.6927 248.625 171.08333 248.92188Q171.86458 249.15625 172.27083 249.71875Q172.6927 250.26562 172.6927 251.01562Q172.6927 251.60938 172.4427 252.14062Q172.1927 252.65625 171.8177 252.9375Q171.4427 253.21875 170.86458 253.35938Q170.30208 253.5 169.48958 253.5L166.20833 253.5ZM167.34895 248.51562L169.20833 248.51562Q169.95833 248.51562 170.28645 248.42188Q170.72395 248.29688 170.9427 248.0Q171.16145 247.6875 171.16145 247.23438Q171.16145 246.8125 170.95833 246.48438Q170.7552 246.15625 170.36458 246.04688Q169.98958 245.92188 169.0677 245.92188L167.34895 245.92188L167.34895 248.51562ZM167.34895 252.48438L169.48958 252.48438Q170.03645 252.48438 170.2552 252.4375Q170.66145 252.375 170.91145 252.21875Q171.17708 252.04688 171.34895 251.73438Q171.52083 251.42188 171.52083 251.01562Q171.52083 250.53125 171.27083 250.17188Q171.03645 249.8125 170.59895 249.67188Q170.16145 249.53125 169.33333 249.53125L167.34895 249.53125L167.34895 252.48438ZM173.33333 253.64062L175.8177 244.76562L176.66145 244.76562L174.17708 253.64062L173.33333 253.64062ZM176.70833 251.64062L177.73958 251.48438Q177.83333 252.10938 178.22395 252.4375Q178.6302 252.76562 179.36458 252.76562Q180.08333 252.76562 180.42708 252.48438Q180.78645 252.1875 180.78645 251.78125Q180.78645 251.42188 180.47395 251.21875Q180.2552 251.07812 179.39583 250.85938Q178.23958 250.5625 177.78645 250.35938Q177.34895 250.14062 177.11458 249.76562Q176.8802 249.39062 176.8802 248.92188Q176.8802 248.51562 177.0677 248.15625Q177.2552 247.79688 177.58333 247.5625Q177.83333 247.39062 178.2552 247.26562Q178.67708 247.14062 179.17708 247.14062Q179.89583 247.14062 180.4427 247.35938Q181.0052 247.5625 181.27083 247.92188Q181.53645 248.28125 181.6302 248.875L180.59895 249.01562Q180.53645 248.54688 180.1927 248.28125Q179.86458 248.0 179.23958 248.0Q178.52083 248.0 178.20833 248.25Q177.89583 248.48438 177.89583 248.8125Q177.89583 249.01562 178.02083 249.17188Q178.16145 249.34375 178.42708 249.45312Q178.58333 249.51562 179.36458 249.71875Q180.48958 250.03125 180.92708 250.21875Q181.36458 250.40625 181.61458 250.76562Q181.86458 251.125 181.86458 251.67188Q181.86458 252.20312 181.55208 252.67188Q181.2552 253.125 180.67708 253.39062Q180.09895 253.64062 179.36458 253.64062Q178.14583 253.64062 177.5052 253.14062Q176.8802 252.625 176.70833 251.64062Z" fill-rule="nonzero"/><path fill="#000000" d="M249.66667 251.23438L250.72917 251.09375Q250.90105 251.98438 251.33855 252.39062Q251.77605 252.78125 252.40105 252.78125Q253.15105 252.78125 253.66667 252.26562Q254.1823 251.75 254.1823 250.98438Q254.1823 250.26562 253.69792 249.79688Q253.22917 249.3125 252.4948 249.3125Q252.19792 249.3125 251.7448 249.4375L251.8698 248.5Q251.97917 248.51562 252.04167 248.51562Q252.71355 248.51562 253.2448 248.17188Q253.79167 247.8125 253.79167 247.07812Q253.79167 246.5 253.40105 246.125Q253.01042 245.73438 252.38542 245.73438Q251.77605 245.73438 251.35417 246.125Q250.94792 246.51562 250.83855 247.28125L249.77605 247.09375Q249.96355 246.04688 250.65105 245.46875Q251.33855 244.875 252.35417 244.875Q253.0573 244.875 253.65105 245.1875Q254.2448 245.48438 254.5573 246.0Q254.8698 246.51562 254.8698 247.10938Q254.8698 247.65625 254.57292 248.125Q254.27605 248.57812 253.69792 248.84375Q254.44792 249.01562 254.8698 249.57812Q255.29167 250.125 255.29167 250.96875Q255.29167 252.09375 254.46355 252.875Q253.65105 253.65625 252.40105 253.65625Q251.27605 253.65625 250.52605 252.98438Q249.77605 252.29688 249.66667 251.23438ZM256.6667 251.23438L257.7292 251.09375Q257.90106 251.98438 258.33856 252.39062Q258.77606 252.78125 259.40106 252.78125Q260.15106 252.78125 260.6667 252.26562Q261.1823 251.75 261.1823 250.98438Q261.1823 250.26562 260.69794 249.79688Q260.2292 249.3125 259.4948 249.3125Q259.19794 249.3125 258.7448 249.4375L258.8698 248.5Q258.9792 248.51562 259.0417 248.51562Q259.71356 248.51562 260.2448 248.17188Q260.7917 247.8125 260.7917 247.07812Q260.7917 246.5 260.40106 246.125Q260.01044 245.73438 259.38544 245.73438Q258.77606 245.73438 258.3542 246.125Q257.94794 246.51562 257.83856 247.28125L256.77606 247.09375Q256.96356 246.04688 257.65106 245.46875Q258.33856 244.875 259.3542 244.875Q260.0573 244.875 260.65106 245.1875Q261.2448 245.48438 261.5573 246.0Q261.8698 246.51562 261.8698 247.10938Q261.8698 247.65625 261.57294 248.125Q261.27606 248.57812 260.69794 248.84375Q261.44794 249.01562 261.8698 249.57812Q262.2917 250.125 262.2917 250.96875Q262.2917 252.09375 261.46356 252.875Q260.65106 253.65625 259.40106 253.65625Q258.27606 253.65625 257.52606 252.98438Q256.77606 252.29688 256.6667 251.23438ZM267.0573 253.5L267.0573 244.90625L268.77606 244.90625L270.8073 250.98438Q271.08856 251.84375 271.21356 252.26562Q271.3542 251.79688 271.6667 250.89062L273.7292 244.90625L275.26044 244.90625L275.26044 253.5L274.1667 253.5L274.1667 246.3125L271.6667 253.5L270.63544 253.5L268.15106 246.1875L268.15106 253.5L267.0573 253.5ZM276.0417 253.5L276.0417 244.90625L279.27606 244.90625Q280.26044 244.90625 280.8542 245.17188Q281.44794 245.4375 281.77606 245.98438Q282.1198 246.51562 282.1198 247.10938Q282.1198 247.65625 281.82294 248.14062Q281.52606 248.625 280.9167 248.92188Q281.69794 249.15625 282.1042 249.71875Q282.52606 250.26562 282.52606 251.01562Q282.52606 251.60938 282.27606 252.14062Q282.02606 252.65625 281.65106 252.9375Q281.27606 253.21875 280.69794 253.35938Q280.13544 253.5 279.32294 253.5L276.0417 253.5ZM277.1823 248.51562L279.0417 248.51562Q279.7917 248.51562 280.1198 248.42188Q280.5573 248.29688 280.77606 248.0Q280.9948 247.6875 280.9948 247.23438Q280.9948 246.8125 280.7917 246.48438Q280.58856 246.15625 280.19794 246.04688Q279.82294 245.92188 278.90106 245.92188L277.1823 245.92188L277.1823 248.51562ZM277.1823 252.48438L279.32294 252.48438Q279.8698 252.48438 280.08856 252.4375Q280.4948 252.375 280.7448 252.21875Q281.01044 252.04688 281.1823 251.73438Q281.3542 251.42188 281.3542 251.01562Q281.3542 250.53125 281.1042 250.17188Q280.8698 249.8125 280.4323 249.67188Q279.9948 249.53125 279.1667 249.53125L277.1823 249.53125L277.1823 252.48438ZM283.1667 253.64062L285.65106 244.76562L286.4948 244.76562L284.01044 253.64062L283.1667 253.64062ZM286.5417 251.64062L287.57294 251.48438Q287.6667 252.10938 288.0573 252.4375Q288.46356 252.76562 289.19794 252.76562Q289.9167 252.76562 290.26044 252.48438Q290.6198 252.1875 290.6198 251.78125Q290.6198 251.42188 290.3073 251.21875Q290.08856 251.07812 289.2292 250.85938Q288.07294 250.5625 287.6198 250.35938Q287.1823 250.14062 286.94794 249.76562Q286.71356 249.39062 286.71356 248.92188Q286.71356 248.51562 286.90106 248.15625Q287.08856 247.79688 287.4167 247.5625Q287.6667 247.39062 288.08856 247.26562Q288.51044 247.14062 289.01044 247.14062Q289.7292 247.14062 290.27606 247.35938Q290.83856 247.5625 291.1042 247.92188Q291.3698 248.28125 291.46356 248.875L290.4323 249.01562Q290.3698 248.54688 290.02606 248.28125Q289.69794 248.0 289.07294 248.0Q288.3542 248.0 288.0417 248.25Q287.7292 248.48438 287.7292 248.8125Q287.7292 249.01562 287.8542 249.17188Q287.9948 249.34375 288.26044 249.45312Q288.4167 249.51562 289.19794 249.71875Q290.32294 250.03125 290.76044 250.21875Q291.19794 250.40625 291.44794 250.76562Q291.69794 251.125 291.69794 251.67188Q291.69794 252.20312 291.38544 252.67188Q291.08856 253.125 290.51044 253.39062Q289.9323 253.64062 289.19794 253.64062Q287.9792 253.64062 287.33856 253.14062Q286.71356 252.625 286.5417 251.64062Z" fill-rule="nonzero"/><path fill="#000000" d="M359.5 251.25L360.60938 251.15625Q360.73438 251.96875 361.17188 252.375Q361.625 252.78125 362.26562 252.78125Q363.01562 252.78125 363.54688 252.20312Q364.07812 251.625 364.07812 250.6875Q364.07812 249.78125 363.5625 249.26562Q363.0625 248.73438 362.23438 248.73438Q361.73438 248.73438 361.3125 248.96875Q360.90625 249.20312 360.67188 249.5625L359.6875 249.4375L360.51562 245.03125L364.79688 245.03125L364.79688 246.03125L361.35938 246.03125L360.90625 248.34375Q361.67188 247.79688 362.51562 247.79688Q363.64062 247.79688 364.40625 248.57812Q365.1875 249.35938 365.1875 250.59375Q365.1875 251.75 364.51562 252.60938Q363.6875 253.64062 362.26562 253.64062Q361.09375 253.64062 360.34375 252.98438Q359.60938 252.32812 359.5 251.25ZM366.5 249.26562Q366.5 247.73438 366.8125 246.8125Q367.125 245.875 367.73438 245.375Q368.35938 244.875 369.29688 244.875Q369.98438 244.875 370.5 245.15625Q371.03125 245.4375 371.375 245.96875Q371.71875 246.48438 371.90625 247.23438Q372.09375 247.98438 372.09375 249.26562Q372.09375 250.78125 371.78125 251.70312Q371.48438 252.625 370.85938 253.14062Q370.25 253.64062 369.29688 253.64062Q368.0625 253.64062 367.34375 252.75Q366.5 251.6875 366.5 249.26562ZM367.57812 249.26562Q367.57812 251.375 368.07812 252.07812Q368.57812 252.78125 369.29688 252.78125Q370.03125 252.78125 370.51562 252.07812Q371.01562 251.375 371.01562 249.26562Q371.01562 247.14062 370.51562 246.45312Q370.03125 245.75 369.28125 245.75Q368.5625 245.75 368.125 246.35938Q367.57812 247.14062 367.57812 249.26562ZM376.89062 253.5L376.89062 244.90625L378.60938 244.90625L380.64062 250.98438Q380.92188 251.84375 381.04688 252.26562Q381.1875 251.79688 381.5 250.89062L383.5625 244.90625L385.09375 244.90625L385.09375 253.5L384.0 253.5L384.0 246.3125L381.5 253.5L380.46875 253.5L377.98438 246.1875L377.98438 253.5L376.89062 253.5ZM385.875 253.5L385.875 244.90625L389.10938 244.90625Q390.09375 244.90625 390.6875 245.17188Q391.28125 245.4375 391.60938 245.98438Q391.95312 246.51562 391.95312 247.10938Q391.95312 247.65625 391.65625 248.14062Q391.35938 248.625 390.75 248.92188Q391.53125 249.15625 391.9375 249.71875Q392.35938 250.26562 392.35938 251.01562Q392.35938 251.60938 392.10938 252.14062Q391.85938 252.65625 391.48438 252.9375Q391.10938 253.21875 390.53125 253.35938Q389.96875 253.5 389.15625 253.5L385.875 253.5ZM387.01562 248.51562L388.875 248.51562Q389.625 248.51562 389.95312 248.42188Q390.39062 248.29688 390.60938 248.0Q390.82812 247.6875 390.82812 247.23438Q390.82812 246.8125 390.625 246.48438Q390.42188 246.15625 390.03125 246.04688Q389.65625 245.92188 388.73438 245.92188L387.01562 245.92188L387.01562 248.51562ZM387.01562 252.48438L389.15625 252.48438Q389.70312 252.48438 389.92188 252.4375Q390.32812 252.375 390.57812 252.21875Q390.84375 252.04688 391.01562 251.73438Q391.1875 251.42188 391.1875 251.01562Q391.1875 250.53125 390.9375 250.17188Q390.70312 249.8125 390.26562 249.67188Q389.82812 249.53125 389.0 249.53125L387.01562 249.53125L387.01562 252.48438ZM393.0 253.64062L395.48438 244.76562L396.32812 244.76562L393.84375 253.64062L393.0 253.64062ZM396.375 251.64062L397.40625 251.48438Q397.5 252.10938 397.89062 252.4375Q398.29688 252.76562 399.03125 252.76562Q399.75 252.76562 400.09375 252.48438Q400.45312 252.1875 400.45312 251.78125Q400.45312 251.42188 400.14062 251.21875Q399.92188 251.07812 399.0625 250.85938Q397.90625 250.5625 397.45312 250.35938Q397.01562 250.14062 396.78125 249.76562Q396.54688 249.39062 396.54688 248.92188Q396.54688 248.51562 396.73438 248.15625Q396.92188 247.79688 397.25 247.5625Q397.5 247.39062 397.92188 247.26562Q398.34375 247.14062 398.84375 247.14062Q399.5625 247.14062 400.10938 247.35938Q400.67188 247.5625 400.9375 247.92188Q401.20312 248.28125 401.29688 248.875L400.26562 249.01562Q400.20312 248.54688 399.85938 248.28125Q399.53125 248.0 398.90625 248.0Q398.1875 248.0 397.875 248.25Q397.5625 248.48438 397.5625 248.8125Q397.5625 249.01562 397.6875 249.17188Q397.82812 249.34375 398.09375 249.45312Q398.25 249.51562 399.03125 249.71875Q400.15625 250.03125 400.59375 250.21875Q401.03125 250.40625 401.28125 250.76562Q401.53125 251.125 401.53125 251.67188Q401.53125 252.20312 401.21875 252.67188Q400.92188 253.125 400.34375 253.39062Q399.76562 253.64062 399.03125 253.64062Q397.8125 253.64062 397.17188 253.14062Q396.54688 252.625 396.375 251.64062Z" fill-rule="nonzero"/><path fill="#000000" d="M474.8021 247.01562L473.75522 247.09375Q473.6146 246.46875 473.3646 246.1875Q472.9271 245.73438 472.3021 245.73438Q471.8021 245.73438 471.41147 246.01562Q470.9271 246.39062 470.63022 247.09375Q470.34897 247.78125 470.33334 249.0625Q470.70834 248.48438 471.25522 248.20312Q471.81772 247.92188 472.4271 247.92188Q473.47397 247.92188 474.20834 248.70312Q474.95834 249.48438 474.95834 250.70312Q474.95834 251.51562 474.59897 252.21875Q474.25522 252.90625 473.64584 253.28125Q473.03647 253.64062 472.27084 253.64062Q470.94272 253.64062 470.1146 252.67188Q469.28647 251.70312 469.28647 249.48438Q469.28647 246.98438 470.20834 245.85938Q471.00522 244.875 472.3646 244.875Q473.38022 244.875 474.02084 245.45312Q474.6771 246.01562 474.8021 247.01562ZM470.50522 250.71875Q470.50522 251.26562 470.72397 251.76562Q470.95834 252.25 471.3646 252.51562Q471.78647 252.78125 472.25522 252.78125Q472.91147 252.78125 473.39584 252.25Q473.88022 251.70312 473.88022 250.78125Q473.88022 249.89062 473.39584 249.375Q472.9271 248.85938 472.20834 248.85938Q471.4896 248.85938 470.9896 249.375Q470.50522 249.89062 470.50522 250.71875ZM476.39584 246.03125L476.39584 245.01562L481.95834 245.01562L481.95834 245.84375Q481.14584 246.71875 480.33334 248.17188Q479.53647 249.60938 479.09897 251.14062Q478.77084 252.21875 478.69272 253.5L477.59897 253.5Q477.6146 252.48438 477.9896 251.04688Q478.38022 249.60938 479.08334 248.28125Q479.8021 246.95312 480.6146 246.03125L476.39584 246.03125ZM486.72397 253.5L486.72397 244.90625L488.44272 244.90625L490.47397 250.98438Q490.75522 251.84375 490.88022 252.26562Q491.02084 251.79688 491.33334 250.89062L493.39584 244.90625L494.9271 244.90625L494.9271 253.5L493.83334 253.5L493.83334 246.3125L491.33334 253.5L490.3021 253.5L487.81772 246.1875L487.81772 253.5L486.72397 253.5ZM495.70834 253.5L495.70834 244.90625L498.94272 244.90625Q499.9271 244.90625 500.52084 245.17188Q501.1146 245.4375 501.44272 245.98438Q501.78647 246.51562 501.78647 247.10938Q501.78647 247.65625 501.4896 248.14062Q501.19272 248.625 500.58334 248.92188Q501.3646 249.15625 501.77084 249.71875Q502.19272 250.26562 502.19272 251.01562Q502.19272 251.60938 501.94272 252.14062Q501.69272 252.65625 501.31772 252.9375Q500.94272 253.21875 500.3646 253.35938Q499.8021 253.5 498.9896 253.5L495.70834 253.5ZM496.84897 248.51562L498.70834 248.51562Q499.45834 248.51562 499.78647 248.42188Q500.22397 248.29688 500.44272 248.0Q500.66147 247.6875 500.66147 247.23438Q500.66147 246.8125 500.45834 246.48438Q500.25522 246.15625 499.8646 246.04688Q499.4896 245.92188 498.56772 245.92188L496.84897 245.92188L496.84897 248.51562ZM496.84897 252.48438L498.9896 252.48438Q499.53647 252.48438 499.75522 252.4375Q500.16147 252.375 500.41147 252.21875Q500.6771 252.04688 500.84897 251.73438Q501.02084 251.42188 501.02084 251.01562Q501.02084 250.53125 500.77084 250.17188Q500.53647 249.8125 500.09897 249.67188Q499.66147 249.53125 498.83334 249.53125L496.84897 249.53125L496.84897 252.48438ZM502.83334 253.64062L505.31772 244.76562L506.16147 244.76562L503.6771 253.64062L502.83334 253.64062ZM506.20834 251.64062L507.2396 251.48438Q507.33334 252.10938 507.72397 252.4375Q508.13022 252.76562 508.8646 252.76562Q509.58334 252.76562 509.9271 252.48438Q510.28647 252.1875 510.28647 251.78125Q510.28647 251.42188 509.97397 251.21875Q509.75522 251.07812 508.89584 250.85938Q507.7396 250.5625 507.28647 250.35938Q506.84897 250.14062 506.6146 249.76562Q506.38022 249.39062 506.38022 248.92188Q506.38022 248.51562 506.56772 248.15625Q506.75522 247.79688 507.08334 247.5625Q507.33334 247.39062 507.75522 247.26562Q508.1771 247.14062 508.6771 247.14062Q509.39584 247.14062 509.94272 247.35938Q510.50522 247.5625 510.77084 247.92188Q511.03647 248.28125 511.13022 248.875L510.09897 249.01562Q510.03647 248.54688 509.69272 248.28125Q509.3646 248.0 508.7396 248.0Q508.02084 248.0 507.70834 248.25Q507.39584 248.48438 507.39584 248.8125Q507.39584 249.01562 507.52084 249.17188Q507.66147 249.34375 507.9271 249.45312Q508.08334 249.51562 508.8646 249.71875Q509.9896 250.03125 510.4271 250.21875Q510.8646 250.40625 511.1146 250.76562Q511.3646 251.125 511.3646 251.67188Q511.3646 252.20312 511.0521 252.67188Q510.75522 253.125 510.1771 253.39062Q509.59897 253.64062 508.8646 253.64062Q507.64584 253.64062 507.00522 253.14062Q506.38022 252.625 506.20834 251.64062Z" fill-rule="nonzero"/><path fill="#000000" d="M580.7917 248.84375Q580.13544 248.59375 579.8073 248.15625Q579.4948 247.70312 579.4948 247.09375Q579.4948 246.15625 580.1667 245.51562Q580.8542 244.875 581.96356 244.875Q583.08856 244.875 583.77606 245.53125Q584.46356 246.1875 584.46356 247.125Q584.46356 247.71875 584.15106 248.15625Q583.83856 248.59375 583.19794 248.84375Q583.9948 249.09375 584.40106 249.67188Q584.8073 250.25 584.8073 251.04688Q584.8073 252.14062 584.02606 252.89062Q583.26044 253.64062 581.9792 253.64062Q580.71356 253.64062 579.9323 252.89062Q579.15106 252.14062 579.15106 251.01562Q579.15106 250.17188 579.57294 249.60938Q580.01044 249.04688 580.7917 248.84375ZM580.57294 247.04688Q580.57294 247.65625 580.96356 248.04688Q581.3698 248.4375 581.9948 248.4375Q582.6042 248.4375 582.9948 248.0625Q583.38544 247.67188 583.38544 247.10938Q583.38544 246.53125 582.9792 246.14062Q582.57294 245.73438 581.9792 245.73438Q581.3698 245.73438 580.96356 246.125Q580.57294 246.51562 580.57294 247.04688ZM580.2448 251.01562Q580.2448 251.46875 580.44794 251.89062Q580.6667 252.3125 581.08856 252.54688Q581.51044 252.78125 581.9948 252.78125Q582.7448 252.78125 583.2292 252.29688Q583.7292 251.8125 583.7292 251.0625Q583.7292 250.29688 583.2292 249.79688Q582.7292 249.29688 581.96356 249.29688Q581.21356 249.29688 580.7292 249.79688Q580.2448 250.28125 580.2448 251.01562ZM586.1667 251.23438L587.2292 251.09375Q587.40106 251.98438 587.83856 252.39062Q588.27606 252.78125 588.90106 252.78125Q589.65106 252.78125 590.1667 252.26562Q590.6823 251.75 590.6823 250.98438Q590.6823 250.26562 590.19794 249.79688Q589.7292 249.3125 588.9948 249.3125Q588.69794 249.3125 588.2448 249.4375L588.3698 248.5Q588.4792 248.51562 588.5417 248.51562Q589.21356 248.51562 589.7448 248.17188Q590.2917 247.8125 590.2917 247.07812Q590.2917 246.5 589.90106 246.125Q589.51044 245.73438 588.88544 245.73438Q588.27606 245.73438 587.8542 246.125Q587.44794 246.51562 587.33856 247.28125L586.27606 247.09375Q586.46356 246.04688 587.15106 245.46875Q587.83856 244.875 588.8542 244.875Q589.5573 244.875 590.15106 245.1875Q590.7448 245.48438 591.0573 246.0Q591.3698 246.51562 591.3698 247.10938Q591.3698 247.65625 591.07294 248.125Q590.77606 248.57812 590.19794 248.84375Q590.94794 249.01562 591.3698 249.57812Q591.7917 250.125 591.7917 250.96875Q591.7917 252.09375 590.96356 252.875Q590.15106 253.65625 588.90106 253.65625Q587.77606 253.65625 587.02606 252.98438Q586.27606 252.29688 586.1667 251.23438ZM596.5573 253.5L596.5573 244.90625L598.27606 244.90625L600.3073 250.98438Q600.58856 251.84375 600.71356 252.26562Q600.8542 251.79688 601.1667 250.89062L603.2292 244.90625L604.76044 244.90625L604.76044 253.5L603.6667 253.5L603.6667 246.3125L601.1667 253.5L600.13544 253.5L597.65106 246.1875L597.65106 253.5L596.5573 253.5ZM605.5417 253.5L605.5417 244.90625L608.77606 244.90625Q609.76044 244.90625 610.3542 245.17188Q610.94794 245.4375 611.27606 245.98438Q611.6198 246.51562 611.6198 247.10938Q611.6198 247.65625 611.32294 248.14062Q611.02606 248.625 610.4167 248.92188Q611.19794 249.15625 611.6042 249.71875Q612.02606 250.26562 612.02606 251.01562Q612.02606 251.60938 611.77606 252.14062Q611.52606 252.65625 611.15106 252.9375Q610.77606 253.21875 610.19794 253.35938Q609.63544 253.5 608.82294 253.5L605.5417 253.5ZM606.6823 248.51562L608.5417 248.51562Q609.2917 248.51562 609.6198 248.42188Q610.0573 248.29688 610.27606 248.0Q610.4948 247.6875 610.4948 247.23438Q610.4948 246.8125 610.2917 246.48438Q610.08856 246.15625 609.69794 246.04688Q609.32294 245.92188 608.40106 245.92188L606.6823 245.92188L606.6823 248.51562ZM606.6823 252.48438L608.82294 252.48438Q609.3698 252.48438 609.58856 252.4375Q609.9948 252.375 610.2448 252.21875Q610.51044 252.04688 610.6823 251.73438Q610.8542 251.42188 610.8542 251.01562Q610.8542 250.53125 610.6042 250.17188Q610.3698 249.8125 609.9323 249.67188Q609.4948 249.53125 608.6667 249.53125L606.6823 249.53125L606.6823 252.48438ZM612.6667 253.64062L615.15106 244.76562L615.9948 244.76562L613.51044 253.64062L612.6667 253.64062ZM616.0417 251.64062L617.07294 251.48438Q617.1667 252.10938 617.5573 252.4375Q617.96356 252.76562 618.69794 252.76562Q619.4167 252.76562 619.76044 252.48438Q620.1198 252.1875 620.1198 251.78125Q620.1198 251.42188 619.8073 251.21875Q619.58856 251.07812 618.7292 250.85938Q617.57294 250.5625 617.1198 250.35938Q616.6823 250.14062 616.44794 249.76562Q616.21356 249.39062 616.21356 248.92188Q616.21356 248.51562 616.40106 248.15625Q616.58856 247.79688 616.9167 247.5625Q617.1667 247.39062 617.58856 247.26562Q618.01044 247.14062 618.51044 247.14062Q619.2292 247.14062 619.77606 247.35938Q620.33856 247.5625 620.6042 247.92188Q620.8698 248.28125 620.96356 248.875L619.9323 249.01562Q619.8698 248.54688 619.52606 248.28125Q619.19794 248.0 618.57294 248.0Q617.8542 248.0 617.5417 248.25Q617.2292 248.48438 617.2292 248.8125Q617.2292 249.01562 617.3542 249.17188Q617.4948 249.34375 617.76044 249.45312Q617.9167 249.51562 618.69794 249.71875Q619.82294 250.03125 620.26044 250.21875Q620.69794 250.40625 620.94794 250.76562Q621.19794 251.125 621.19794 251.67188Q621.19794 252.20312 620.88544 252.67188Q620.58856 253.125 620.01044 253.39062Q619.4323 253.64062 618.69794 253.64062Q617.4792 253.64062 616.83856 253.14062Q616.21356 252.625 616.0417 251.64062Z" fill-rule="nonzero"/><path fill="#757575" d="M15.046875 32.5L15.046875 18.1875L19.96875 18.1875Q21.640625 18.1875 22.53125 18.390625Q23.75 18.671875 24.625 19.40625Q25.75 20.375 26.3125 21.859375Q26.875 23.34375 26.875 25.265625Q26.875 26.890625 26.5 28.15625Q26.125 29.40625 25.515625 30.234375Q24.921875 31.0625 24.21875 31.546875Q23.515625 32.015625 22.515625 32.265625Q21.515625 32.5 20.203125 32.5L15.046875 32.5ZM16.9375 30.8125L20.0 30.8125Q21.40625 30.8125 22.203125 30.546875Q23.015625 30.28125 23.5 29.796875Q24.171875 29.125 24.546875 28.0Q24.921875 26.859375 24.921875 25.234375Q24.921875 22.984375 24.1875 21.78125Q23.453125 20.578125 22.390625 20.171875Q21.640625 19.875 19.953125 19.875L16.9375 19.875L16.9375 30.8125ZM28.828125 20.203125L28.828125 18.1875L30.59375 18.1875L30.59375 20.203125L28.828125 20.203125ZM28.828125 32.5L28.828125 22.125L30.59375 22.125L30.59375 32.5L28.828125 32.5ZM32.796875 32.5L32.796875 22.125L34.375 22.125L34.375 23.703125Q34.984375 22.59375 35.5 22.25Q36.015625 21.890625 36.625 21.890625Q37.515625 21.890625 38.4375 22.453125L37.828125 24.09375Q37.1875 23.703125 36.546875 23.703125Q35.96875 23.703125 35.5 24.0625Q35.046875 24.40625 34.84375 25.015625Q34.5625 25.953125 34.5625 27.0625L34.5625 32.5L32.796875 32.5ZM46.921875 29.15625L48.734375 29.390625Q48.3125 30.96875 47.140625 31.859375Q45.984375 32.734375 44.171875 32.734375Q41.90625 32.734375 40.5625 31.34375Q39.234375 29.9375 39.234375 27.40625Q39.234375 24.78125 40.578125 23.34375Q41.921875 21.890625 44.078125 21.890625Q46.15625 21.890625 47.46875 23.3125Q48.796875 24.71875 48.796875 27.296875Q48.796875 27.453125 48.78125 27.765625L41.046875 27.765625Q41.140625 29.46875 42.015625 30.375Q42.890625 31.28125 44.1875 31.28125Q45.15625 31.28125 45.828125 30.78125Q46.515625 30.265625 46.921875 29.15625ZM41.140625 26.3125L46.9375 26.3125Q46.828125 25.015625 46.28125 24.359375Q45.4375 23.34375 44.09375 23.34375Q42.890625 23.34375 42.0625 24.15625Q41.234375 24.953125 41.140625 26.3125ZM57.59375 28.703125L59.3125 28.921875Q59.03125 30.71875 57.859375 31.734375Q56.703125 32.734375 55.0 32.734375Q52.875 32.734375 51.578125 31.34375Q50.28125 29.953125 50.28125 27.359375Q50.28125 25.671875 50.828125 24.421875Q51.390625 23.15625 52.53125 22.53125Q53.671875 21.890625 55.015625 21.890625Q56.703125 21.890625 57.765625 22.75Q58.84375 23.609375 59.15625 25.171875L57.4375 25.4375Q57.203125 24.390625 56.578125 23.875Q55.953125 23.34375 55.078125 23.34375Q53.75 23.34375 52.921875 24.296875Q52.09375 25.25 52.09375 27.296875Q52.09375 29.390625 52.890625 30.34375Q53.6875 31.28125 54.984375 31.28125Q56.015625 31.28125 56.703125 30.65625Q57.40625 30.015625 57.59375 28.703125ZM64.65625 30.921875L64.90625 32.484375Q64.171875 32.640625 63.578125 32.640625Q62.625 32.640625 62.09375 32.34375Q61.578125 32.03125 61.359375 31.546875Q61.140625 31.046875 61.140625 29.46875L61.140625 23.5L59.859375 23.5L59.859375 22.125L61.140625 22.125L61.140625 19.5625L62.890625 18.5L62.890625 22.125L64.65625 22.125L64.65625 23.5L62.890625 23.5L62.890625 29.5625Q62.890625 30.3125 62.984375 30.53125Q63.078125 30.734375 63.28125 30.875Q63.5 31.0 63.890625 31.0Q64.171875 31.0 64.65625 30.921875ZM72.796875 32.5L72.796875 22.125L74.375 22.125L74.375 23.703125Q74.984375 22.59375 75.5 22.25Q76.015625 21.890625 76.625 21.890625Q77.515625 21.890625 78.4375 22.453125L77.828125 24.09375Q77.1875 23.703125 76.546875 23.703125Q75.96875 23.703125 75.5 24.0625Q75.046875 24.40625 74.84375 25.015625Q74.5625 25.953125 74.5625 27.0625L74.5625 32.5L72.796875 32.5ZM86.59375 31.21875Q85.609375 32.046875 84.703125 32.390625Q83.796875 32.734375 82.765625 32.734375Q81.0625 32.734375 80.140625 31.90625Q79.21875 31.0625 79.21875 29.765625Q79.21875 29.0 79.5625 28.375Q79.921875 27.75 80.484375 27.375Q81.046875 26.984375 81.75 26.78125Q82.265625 26.65625 83.3125 26.515625Q85.4375 26.265625 86.4375 25.921875Q86.453125 25.5625 86.453125 25.453125Q86.453125 24.390625 85.953125 23.9375Q85.28125 23.34375 83.953125 23.34375Q82.703125 23.34375 82.109375 23.78125Q81.53125 24.21875 81.25 25.328125L79.53125 25.09375Q79.765625 23.984375 80.296875 23.3125Q80.828125 22.625 81.84375 22.265625Q82.859375 21.890625 84.203125 21.890625Q85.53125 21.890625 86.359375 22.203125Q87.1875 22.515625 87.578125 23.0Q87.96875 23.46875 88.125 24.1875Q88.21875 24.640625 88.21875 25.8125L88.21875 28.15625Q88.21875 30.609375 88.328125 31.265625Q88.4375 31.90625 88.78125 32.5L86.9375 32.5Q86.671875 31.953125 86.59375 31.21875ZM86.4375 27.296875Q85.484375 27.6875 83.5625 27.953125Q82.484375 28.109375 82.03125 28.3125Q81.59375 28.5 81.34375 28.875Q81.09375 29.25 81.09375 29.71875Q81.09375 30.421875 81.625 30.890625Q82.15625 31.359375 83.1875 31.359375Q84.203125 31.359375 84.984375 30.921875Q85.78125 30.46875 86.15625 29.703125Q86.4375 29.09375 86.4375 27.9375L86.4375 27.296875ZM90.8125 32.5L90.8125 22.125L92.40625 22.125L92.40625 23.609375Q93.546875 21.890625 95.703125 21.890625Q96.640625 21.890625 97.421875 22.234375Q98.21875 22.5625 98.609375 23.109375Q99.0 23.65625 99.15625 24.40625Q99.25 24.90625 99.25 26.125L99.25 32.5L97.484375 32.5L97.484375 26.1875Q97.484375 25.109375 97.28125 24.578125Q97.078125 24.046875 96.546875 23.734375Q96.03125 23.421875 95.328125 23.421875Q94.203125 23.421875 93.390625 24.140625Q92.578125 24.84375 92.578125 26.828125L92.578125 32.5L90.8125 32.5ZM107.546875 32.5L107.546875 31.1875Q106.5625 32.734375 104.640625 32.734375Q103.40625 32.734375 102.359375 32.046875Q101.328125 31.359375 100.75 30.140625Q100.1875 28.921875 100.1875 27.328125Q100.1875 25.765625 100.703125 24.5Q101.21875 23.234375 102.25 22.5625Q103.296875 21.890625 104.5625 21.890625Q105.5 21.890625 106.234375 22.296875Q106.96875 22.6875 107.4375 23.3125L107.4375 18.1875L109.171875 18.1875L109.171875 32.5L107.546875 32.5ZM101.984375 27.328125Q101.984375 29.3125 102.828125 30.296875Q103.671875 31.28125 104.8125 31.28125Q105.96875 31.28125 106.765625 30.34375Q107.578125 29.40625 107.578125 27.46875Q107.578125 25.34375 106.75 24.34375Q105.9375 23.34375 104.734375 23.34375Q103.5625 23.34375 102.765625 24.3125Q101.984375 25.265625 101.984375 27.328125ZM111.171875 27.3125Q111.171875 24.4375 112.765625 23.046875Q114.109375 21.890625 116.03125 21.890625Q118.171875 21.890625 119.515625 23.296875Q120.875 24.703125 120.875 27.171875Q120.875 29.171875 120.28125 30.328125Q119.6875 31.46875 118.53125 32.109375Q117.390625 32.734375 116.03125 32.734375Q113.84375 32.734375 112.5 31.34375Q111.171875 29.9375 111.171875 27.3125ZM112.96875 27.3125Q112.96875 29.3125 113.828125 30.296875Q114.703125 31.28125 116.03125 31.28125Q117.34375 31.28125 118.203125 30.296875Q119.078125 29.296875 119.078125 27.25Q119.078125 25.328125 118.203125 24.34375Q117.328125 23.34375 116.03125 23.34375Q114.703125 23.34375 113.828125 24.34375Q112.96875 25.328125 112.96875 27.3125ZM122.8125 32.5L122.8125 22.125L124.390625 22.125L124.390625 23.578125Q124.875 22.828125 125.6875 22.359375Q126.5 21.890625 127.53125 21.890625Q128.6875 21.890625 129.42188 22.375Q130.15625 22.84375 130.46875 23.703125Q131.70312 21.890625 133.67188 21.890625Q135.21875 21.890625 136.04688 22.75Q136.875 23.609375 136.875 25.375L136.875 32.5L135.125 32.5L135.125 25.96875Q135.125 24.90625 134.95312 24.453125Q134.78125 23.984375 134.32812 23.703125Q133.89062 23.421875 133.28125 23.421875Q132.1875 23.421875 131.45312 24.15625Q130.73438 24.875 130.73438 26.46875L130.73438 32.5L128.98438 32.5L128.98438 25.765625Q128.98438 24.59375 128.54688 24.015625Q128.125 23.421875 127.140625 23.421875Q126.40625 23.421875 125.765625 23.8125Q125.140625 24.203125 124.859375 24.953125Q124.578125 25.703125 124.578125 27.125L124.578125 32.5L122.8125 32.5ZM149.96875 32.5L149.96875 29.078125L143.75 29.078125L143.75 27.453125L150.28125 18.1875L151.71875 18.1875L151.71875 27.453125L153.65625 27.453125L153.65625 29.078125L151.71875 29.078125L151.71875 32.5L149.96875 32.5ZM149.96875 27.453125L149.96875 21.0L145.48438 27.453125L149.96875 27.453125ZM155.96875 32.5L155.96875 18.1875L157.85938 18.1875L157.85938 25.28125L164.96875 18.1875L167.53125 18.1875L161.53125 23.984375L167.79688 32.5L165.29688 32.5L160.20312 25.25L157.85938 27.53125L157.85938 32.5L155.96875 32.5ZM168.96875 32.5L168.96875 18.1875L174.34375 18.1875Q175.98438 18.1875 176.96875 18.625Q177.95312 19.046875 178.51562 19.953125Q179.07812 20.859375 179.07812 21.84375Q179.07812 22.765625 178.57812 23.578125Q178.09375 24.390625 177.07812 24.875Q178.375 25.265625 179.07812 26.1875Q179.78125 27.09375 179.78125 28.34375Q179.78125 29.359375 179.34375 30.21875Q178.92188 31.078125 178.29688 31.546875Q177.67188 32.015625 176.73438 32.265625Q175.79688 32.5 174.42188 32.5L168.96875 32.5ZM170.85938 24.203125L173.95312 24.203125Q175.21875 24.203125 175.76562 24.03125Q176.48438 23.8125 176.84375 23.328125Q177.21875 22.828125 177.21875 22.0625Q177.21875 21.359375 176.875 20.8125Q176.53125 20.265625 175.89062 20.078125Q175.26562 19.875 173.71875 19.875L170.85938 19.875L170.85938 24.203125ZM170.85938 30.8125L174.42188 30.8125Q175.34375 30.8125 175.71875 30.734375Q176.375 30.625 176.8125 30.359375Q177.25 30.078125 177.53125 29.5625Q177.8125 29.03125 177.8125 28.34375Q177.8125 27.546875 177.40625 26.953125Q177.0 26.359375 176.26562 26.125Q175.53125 25.890625 174.17188 25.890625L170.85938 25.890625L170.85938 30.8125ZM198.89062 30.96875Q200.21875 31.875 201.32812 32.296875L200.76562 33.609375Q199.21875 33.0625 197.6875 31.859375Q196.09375 32.75 194.17188 32.75Q192.23438 32.75 190.64062 31.8125Q189.0625 30.875 188.20312 29.171875Q187.35938 27.46875 187.35938 25.34375Q187.35938 23.21875 188.21875 21.484375Q189.07812 19.75 190.65625 18.84375Q192.25 17.921875 194.21875 17.921875Q196.20312 17.921875 197.78125 18.875Q199.375 19.8125 200.20312 21.515625Q201.04688 23.203125 201.04688 25.328125Q201.04688 27.09375 200.51562 28.515625Q199.98438 29.921875 198.89062 30.96875ZM194.71875 28.546875Q196.35938 29.0 197.42188 29.90625Q199.09375 28.390625 199.09375 25.328125Q199.09375 23.59375 198.5 22.296875Q197.92188 21.0 196.78125 20.28125Q195.64062 19.5625 194.21875 19.5625Q192.10938 19.5625 190.70312 21.015625Q189.3125 22.453125 189.3125 25.34375Q189.3125 28.140625 190.6875 29.640625Q192.07812 31.125 194.21875 31.125Q195.23438 31.125 196.14062 30.734375Q195.25 30.171875 194.26562 29.921875L194.71875 28.546875ZM204.04688 32.5L204.04688 18.1875L208.96875 18.1875Q210.64062 18.1875 211.53125 18.390625Q212.75 18.671875 213.625 19.40625Q214.75 20.375 215.3125 21.859375Q215.875 23.34375 215.875 25.265625Q215.875 26.890625 215.5 28.15625Q215.125 29.40625 214.51562 30.234375Q213.92188 31.0625 213.21875 31.546875Q212.51562 32.015625 211.51562 32.265625Q210.51562 32.5 209.20312 32.5L204.04688 32.5ZM205.9375 30.8125L209.0 30.8125Q210.40625 30.8125 211.20312 30.546875Q212.01562 30.28125 212.5 29.796875Q213.17188 29.125 213.54688 28.0Q213.92188 26.859375 213.92188 25.234375Q213.92188 22.984375 213.1875 21.78125Q212.45312 20.578125 211.39062 20.171875Q210.64062 19.875 208.95312 19.875L205.9375 19.875L205.9375 30.8125ZM223.95312 32.5L222.1875 32.5L222.1875 21.296875Q221.5625 21.90625 220.53125 22.515625Q219.5 23.109375 218.67188 23.421875L218.67188 21.71875Q220.15625 21.03125 221.25 20.046875Q222.35938 19.046875 222.8125 18.125L223.95312 18.125L223.95312 32.5Z" fill-rule="nonzero"/></svg>