<svg version="1.1" viewBox="0.0 0.0 724.0 270.0" fill="none" stroke="none" stroke-linecap="square" stroke-miterlimit="10" width="724" height="270" xmlns:xlink="http://www.w3.org/1999/xlink" xmlns="http://www.w3.org/2000/svg"><path fill="#ffffff" d="M0 0L724.0 0L724.0 270.0L0 270.0L0 0Z" fill-rule="nonzero"/><path stroke="#333333" stroke-width="1.0" stroke-linecap="butt" d="M51.5 46.5L51.5 236.5" fill-rule="nonzero"/><path stroke="#cccccc" stroke-width="1.0" stroke-linecap="butt" d="M161.5 46.5L161.5 236.5" fill-rule="nonzero"/><path stroke="#cccccc" stroke-width="1.0" stroke-linecap="butt" d="M271.5 46.5L271.5 236.5" fill-rule="nonzero"/><path stroke="#cccccc" stroke-width="1.0" stroke-linecap="butt" d="M381.5 46.5L381.5 236.5" fill-rule="nonzero"/><path stroke="#cccccc" stroke-width="1.0" stroke-linecap="butt" d="M490.5 46.5L490.5 236.5" fill-rule="nonzero"/><path stroke="#cccccc" stroke-width="1.0" stroke-linecap="butt" d="M600.5 46.5L600.5 236.5" fill-rule="nonzero"/><path stroke="#cccccc" stroke-width="1.0" stroke-linecap="butt" d="M710.5 46.5L710.5 236.5" fill-rule="nonzero"/><path stroke="#e6e6e6" stroke-width="1.0" stroke-linecap="butt" d="M88.5 46.5L88.5 236.5" fill-rule="nonzero"/><path stroke="#e6e6e6" stroke-width="1.0" stroke-linecap="butt" d="M124.5 46.5L124.5 236.5" fill-rule="nonzero"/><path stroke="#e6e6e6" stroke-width="1.0" stroke-linecap="butt" d="M197.5 46.5L197.5 236.5" fill-rule="nonzero"/><path stroke="#e6e6e6" stroke-width="1.0" stroke-linecap="butt" d="M234.5 46.5L234.5 236.5" fill-rule="nonzero"/><path stroke="#e6e6e6" stroke-width="1.0" stroke-linecap="butt" d="M307.5 46.5L307.5 236.5" fill-rule="nonzero"/><path stroke="#e6e6e6" stroke-width="1.0" stroke-linecap="butt" d="M344.5 46.5L344.5 236.5" fill-rule="nonzero"/><path stroke="#e6e6e6" stroke-width="1.0" stroke-linecap="butt" d="M417.5 46.5L417.5 236.5" fill-rule="nonzero"/><path stroke="#e6e6e6" stroke-width="1.0" stroke-linecap="butt" d="M454.5 46.5L454.5 236.5" fill-rule="nonzero"/><path stroke="#e6e6e6" stroke-width="1.0" stroke-linecap="butt" d="M527.5 46.5L527.5 236.5" fill-rule="nonzero"/><path stroke="#e6e6e6" stroke-width="1.0" stroke-linecap="butt" d="M564.5 46.5L564.5 236.5" fill-rule="nonzero"/><path stroke="#e6e6e6" stroke-width="1.0" stroke-linecap="butt" d="M637.5 46.5L637.5 236.5" fill-rule="nonzero"/><path stroke="#e6e6e6" stroke-width="1.0" stroke-linecap="butt" d="M673.5 46.5L673.5 236.5" fill-rule="nonzero"/><path stroke="#000000" stroke-width="1.0" stroke-linecap="butt" d="M710.5 236.5L51.5 236.5" fill-rule="nonzero"/><clipPath id="id_0"><path d="M51.5 46.5L710.5 46.5L710.5 236.5L51.5 236.5L51.5 46.5Z" clip-rule="nonzero"/></clipPath><path stroke="#000000" stroke-width="2.0" stroke-linecap="butt" stroke-opacity="0.0" clip-path="url(#id_0)" d="M51.0 128.0L51.0 75.0L649.0 75.0C650.10455 75.0 651.0 75.89543 651.0 77.0L651.0 126.0C651.0 127.10457 650.10455 128.0 649.0 128.0Z" fill-rule="nonzero"/><path fill="#4285f4" clip-path="url(#id_0)" d="M51.0 128.0L51.0 75.0L649.0 75.0C650.10455 75.0 651.0 75.89543 651.0 77.0L651.0 126.0C651.0 127.10457 650.10455 128.0 649.0 128.0Z" fill-rule="nonzero"/><path stroke="#000000" stroke-width="2.0" stroke-linecap="butt" stroke-opacity="0.0" clip-path="url(#id_0)" d="M51.0 209.0L51.0 156.0L605.0 156.0C606.10455 156.0 607.0 156.89543 607.0 158.0L607.0 207.0C607.0 208.10457 606.10455 209.0 605.0 209.0Z" fill-rule="nonzero"/><path fill="#4285f4" clip-path="url(#id_0)" d="M51.0 209.0L51.0 156.0L605.0 156.0C606.10455 156.0 607.0 156.89543 607.0 158.0L607.0 207.0C607.0 208.10457 606.10455 209.0 605.0 209.0Z" fill-rule="nonzero"/><path stroke="#4285f4" stroke-width="3.0" stroke-linejoin="round" stroke-linecap="round" d="M618.8863 105.5L617.80817 105.5L617.80817 98.28125L615.62067 99.078125L615.62067 98.09375L618.73004 96.921875L618.8863 96.921875L618.8863 105.5ZM627.5113 99.1875Q627.5113 99.828125 627.16754 100.328125Q626.8238 100.828125 626.2613 101.109375Q626.91754 101.390625 627.30817 101.953125Q627.6988 102.5 627.6988 103.203125Q627.6988 104.296875 626.9488 104.96875Q626.2144 105.625 624.99567 105.625Q623.7613 105.625 623.0113 104.96875Q622.2769 104.296875 622.2769 103.203125Q622.2769 102.5 622.6519 101.953125Q623.0269 101.390625 623.6988 101.109375Q623.1363 100.828125 622.80817 100.328125Q622.48004 99.828125 622.48004 99.1875Q622.48004 98.109375 623.16754 97.484375Q623.85504 96.84375 624.99567 96.84375Q626.12067 96.84375 626.80817 97.484375Q627.5113 98.109375 627.5113 99.1875ZM626.62067 103.171875Q626.62067 102.453125 626.16754 102.015625Q625.7144 101.5625 624.98004 101.5625Q624.24567 101.5625 623.79254 102.015625Q623.35504 102.453125 623.35504 103.1875Q623.35504 103.90625 623.79254 104.328125Q624.23004 104.734375 624.99567 104.734375Q625.74567 104.734375 626.18317 104.3125Q626.62067 103.890625 626.62067 103.171875ZM624.99567 97.734375Q624.35504 97.734375 623.9488 98.140625Q623.55817 98.53125 623.55817 99.21875Q623.55817 99.859375 623.9488 100.265625Q624.3394 100.671875 624.98004 100.671875Q625.6363 100.671875 626.0269 100.265625Q626.41754 99.859375 626.41754 99.21875Q626.41754 98.5625 626.0113 98.15625Q625.60504 97.734375 624.99567 97.734375ZM634.91754 105.5L629.3238 105.5L629.3238 104.71875L632.2769 101.4375Q632.93317 100.6875 633.18317 100.234375Q633.43317 99.765625 633.43317 99.265625Q633.43317 98.59375 633.0269 98.171875Q632.6363 97.734375 631.9488 97.734375Q631.1519 97.734375 630.6988 98.203125Q630.24567 98.65625 630.24567 99.484375L629.16754 99.484375Q629.16754 98.296875 629.91754 97.578125Q630.68317 96.84375 631.9488 96.84375Q633.1519 96.84375 633.8394 97.46875Q634.5269 98.09375 634.5269 99.140625Q634.5269 100.390625 632.91754 102.140625L630.6363 104.609375L634.91754 104.609375L634.91754 105.5ZM641.7769 101.53125L640.73004 102.609375L640.73004 105.5L639.60504 105.5L639.60504 96.96875L640.73004 96.96875L640.73004 101.1875L644.5269 96.96875L645.8863 96.96875L642.5269 100.734375L646.1519 105.5L644.80817 105.5L641.7769 101.53125Z" fill-rule="nonzero"/><path fill="#ffffff" d="M618.8863 105.5L617.80817 105.5L617.80817 98.28125L615.62067 99.078125L615.62067 98.09375L618.73004 96.921875L618.8863 96.921875L618.8863 105.5ZM627.5113 99.1875Q627.5113 99.828125 627.16754 100.328125Q626.8238 100.828125 626.2613 101.109375Q626.91754 101.390625 627.30817 101.953125Q627.6988 102.5 627.6988 103.203125Q627.6988 104.296875 626.9488 104.96875Q626.2144 105.625 624.99567 105.625Q623.7613 105.625 623.0113 104.96875Q622.2769 104.296875 622.2769 103.203125Q622.2769 102.5 622.6519 101.953125Q623.0269 101.390625 623.6988 101.109375Q623.1363 100.828125 622.80817 100.328125Q622.48004 99.828125 622.48004 99.1875Q622.48004 98.109375 623.16754 97.484375Q623.85504 96.84375 624.99567 96.84375Q626.12067 96.84375 626.80817 97.484375Q627.5113 98.109375 627.5113 99.1875ZM626.62067 103.171875Q626.62067 102.453125 626.16754 102.015625Q625.7144 101.5625 624.98004 101.5625Q624.24567 101.5625 623.79254 102.015625Q623.35504 102.453125 623.35504 103.1875Q623.35504 103.90625 623.79254 104.328125Q624.23004 104.734375 624.99567 104.734375Q625.74567 104.734375 626.18317 104.3125Q626.62067 103.890625 626.62067 103.171875ZM624.99567 97.734375Q624.35504 97.734375 623.9488 98.140625Q623.55817 98.53125 623.55817 99.21875Q623.55817 99.859375 623.9488 100.265625Q624.3394 100.671875 624.98004 100.671875Q625.6363 100.671875 626.0269 100.265625Q626.41754 99.859375 626.41754 99.21875Q626.41754 98.5625 626.0113 98.15625Q625.60504 97.734375 624.99567 97.734375ZM634.91754 105.5L629.3238 105.5L629.3238 104.71875L632.2769 101.4375Q632.93317 100.6875 633.18317 100.234375Q633.43317 99.765625 633.43317 99.265625Q633.43317 98.59375 633.0269 98.171875Q632.6363 97.734375 631.9488 97.734375Q631.1519 97.734375 630.6988 98.203125Q630.24567 98.65625 630.24567 99.484375L629.16754 99.484375Q629.16754 98.296875 629.91754 97.578125Q630.68317 96.84375 631.9488 96.84375Q633.1519 96.84375 633.8394 97.46875Q634.5269 98.09375 634.5269 99.140625Q634.5269 100.390625 632.91754 102.140625L630.6363 104.609375L634.91754 104.609375L634.91754 105.5ZM641.7769 101.53125L640.73004 102.609375L640.73004 105.5L639.60504 105.5L639.60504 96.96875L640.73004 96.96875L640.73004 101.1875L644.5269 96.96875L645.8863 96.96875L642.5269 100.734375L646.1519 105.5L644.80817 105.5L641.7769 101.53125Z" fill-rule="nonzero"/><path stroke="#4285f4" stroke-width="3.0" stroke-linejoin="round" stroke-linecap="round" d="M574.1567 186.5L573.07855 186.5L573.07855 179.28125L570.89105 180.07812L570.89105 179.09375L574.0004 177.92188L574.1567 177.92188L574.1567 186.5ZM581.8598 177.96875L581.8598 178.875L581.6567 178.875Q580.39105 178.90625 579.64105 179.64062Q578.89105 180.35938 578.76605 181.67188Q579.45355 180.90625 580.6098 180.90625Q581.7192 180.90625 582.39105 181.6875Q583.0629 182.46875 583.0629 183.71875Q583.0629 185.03125 582.3442 185.82812Q581.6254 186.625 580.4067 186.625Q579.1879 186.625 578.4223 185.6875Q577.6723 184.73438 577.6723 183.25L577.6723 182.84375Q577.6723 180.48438 578.6723 179.23438Q579.6723 177.98438 581.6567 177.96875L581.8598 177.96875ZM580.4379 181.8125Q579.8754 181.8125 579.4067 182.14062Q578.9379 182.46875 578.7504 182.98438L578.7504 183.375Q578.7504 184.4375 579.2192 185.07812Q579.70355 185.71875 580.4067 185.71875Q581.14105 185.71875 581.5629 185.1875Q581.9848 184.64062 581.9848 183.76562Q581.9848 182.89062 581.5629 182.35938Q581.14105 181.8125 580.4379 181.8125ZM589.7817 180.1875Q589.7817 180.82812 589.4379 181.32812Q589.0942 181.82812 588.5317 182.10938Q589.1879 182.39062 589.57855 182.95312Q589.9692 183.5 589.9692 184.20312Q589.9692 185.29688 589.2192 185.96875Q588.4848 186.625 587.26605 186.625Q586.0317 186.625 585.2817 185.96875Q584.5473 185.29688 584.5473 184.20312Q584.5473 183.5 584.9223 182.95312Q585.2973 182.39062 585.9692 182.10938Q585.4067 181.82812 585.07855 181.32812Q584.7504 180.82812 584.7504 180.1875Q584.7504 179.10938 585.4379 178.48438Q586.1254 177.84375 587.26605 177.84375Q588.39105 177.84375 589.07855 178.48438Q589.7817 179.10938 589.7817 180.1875ZM588.89105 184.17188Q588.89105 183.45312 588.4379 183.01562Q587.9848 182.5625 587.2504 182.5625Q586.51605 182.5625 586.0629 183.01562Q585.6254 183.45312 585.6254 184.1875Q585.6254 184.90625 586.0629 185.32812Q586.5004 185.73438 587.26605 185.73438Q588.01605 185.73438 588.45355 185.3125Q588.89105 184.89062 588.89105 184.17188ZM587.26605 178.73438Q586.6254 178.73438 586.2192 179.14062Q585.82855 179.53125 585.82855 180.21875Q585.82855 180.85938 586.2192 181.26562Q586.6098 181.67188 587.2504 181.67188Q587.9067 181.67188 588.2973 181.26562Q588.6879 180.85938 588.6879 180.21875Q588.6879 179.5625 588.2817 179.15625Q587.8754 178.73438 587.26605 178.73438ZM597.0473 182.53125L596.0004 183.60938L596.0004 186.5L594.8754 186.5L594.8754 177.96875L596.0004 177.96875L596.0004 182.1875L599.7973 177.96875L601.1567 177.96875L597.7973 181.73438L601.4223 186.5L600.07855 186.5L597.0473 182.53125Z" fill-rule="nonzero"/><path fill="#ffffff" d="M574.1567 186.5L573.07855 186.5L573.07855 179.28125L570.89105 180.07812L570.89105 179.09375L574.0004 177.92188L574.1567 177.92188L574.1567 186.5ZM581.8598 177.96875L581.8598 178.875L581.6567 178.875Q580.39105 178.90625 579.64105 179.64062Q578.89105 180.35938 578.76605 181.67188Q579.45355 180.90625 580.6098 180.90625Q581.7192 180.90625 582.39105 181.6875Q583.0629 182.46875 583.0629 183.71875Q583.0629 185.03125 582.3442 185.82812Q581.6254 186.625 580.4067 186.625Q579.1879 186.625 578.4223 185.6875Q577.6723 184.73438 577.6723 183.25L577.6723 182.84375Q577.6723 180.48438 578.6723 179.23438Q579.6723 177.98438 581.6567 177.96875L581.8598 177.96875ZM580.4379 181.8125Q579.8754 181.8125 579.4067 182.14062Q578.9379 182.46875 578.7504 182.98438L578.7504 183.375Q578.7504 184.4375 579.2192 185.07812Q579.70355 185.71875 580.4067 185.71875Q581.14105 185.71875 581.5629 185.1875Q581.9848 184.64062 581.9848 183.76562Q581.9848 182.89062 581.5629 182.35938Q581.14105 181.8125 580.4379 181.8125ZM589.7817 180.1875Q589.7817 180.82812 589.4379 181.32812Q589.0942 181.82812 588.5317 182.10938Q589.1879 182.39062 589.57855 182.95312Q589.9692 183.5 589.9692 184.20312Q589.9692 185.29688 589.2192 185.96875Q588.4848 186.625 587.26605 186.625Q586.0317 186.625 585.2817 185.96875Q584.5473 185.29688 584.5473 184.20312Q584.5473 183.5 584.9223 182.95312Q585.2973 182.39062 585.9692 182.10938Q585.4067 181.82812 585.07855 181.32812Q584.7504 180.82812 584.7504 180.1875Q584.7504 179.10938 585.4379 178.48438Q586.1254 177.84375 587.26605 177.84375Q588.39105 177.84375 589.07855 178.48438Q589.7817 179.10938 589.7817 180.1875ZM588.89105 184.17188Q588.89105 183.45312 588.4379 183.01562Q587.9848 182.5625 587.2504 182.5625Q586.51605 182.5625 586.0629 183.01562Q585.6254 183.45312 585.6254 184.1875Q585.6254 184.90625 586.0629 185.32812Q586.5004 185.73438 587.26605 185.73438Q588.01605 185.73438 588.45355 185.3125Q588.89105 184.89062 588.89105 184.17188ZM587.26605 178.73438Q586.6254 178.73438 586.2192 179.14062Q585.82855 179.53125 585.82855 180.21875Q585.82855 180.85938 586.2192 181.26562Q586.6098 181.67188 587.2504 181.67188Q587.9067 181.67188 588.2973 181.26562Q588.6879 180.85938 588.6879 180.21875Q588.6879 179.5625 588.2817 179.15625Q587.8754 178.73438 587.26605 178.73438ZM597.0473 182.53125L596.0004 183.60938L596.0004 186.5L594.8754 186.5L594.8754 177.96875L596.0004 177.96875L596.0004 182.1875L599.7973 177.96875L601.1567 177.96875L597.7973 181.73438L601.4223 186.5L600.07855 186.5L597.0473 182.53125Z" fill-rule="nonzero"/><path fill="#000000" d="M14.421875 105.07447L14.421875 96.48072L17.671875 96.48072Q18.515625 96.48072 18.96875 96.558846Q19.609375 96.66822 20.03125 96.965096Q20.46875 97.26197 20.71875 97.79322Q20.984375 98.32447 20.984375 98.965096Q20.984375 100.058846 20.28125 100.82447Q19.59375 101.57447 17.765625 101.57447L15.5625 101.57447L15.5625 105.07447L14.421875 105.07447ZM15.5625 100.57447L17.78125 100.57447Q18.890625 100.57447 19.34375 100.16822Q19.8125 99.746346 19.8125 98.996346Q19.8125 98.465096 19.53125 98.090096Q19.265625 97.69947 18.828125 97.57447Q18.53125 97.496346 17.765625 97.496346L15.5625 97.496346L15.5625 100.57447ZM26.375 105.07447L26.375 104.152596Q25.640625 105.215096 24.390625 105.215096Q23.84375 105.215096 23.359375 105.01197Q22.890625 104.79322 22.65625 104.48072Q22.421875 104.152596 22.328125 103.683846Q22.265625 103.38697 22.265625 102.69947L22.265625 98.85572L23.328125 98.85572L23.328125 102.308846Q23.328125 103.121346 23.390625 103.41822Q23.484375 103.82447 23.796875 104.07447Q24.125 104.308846 24.609375 104.308846Q25.078125 104.308846 25.484375 104.07447Q25.90625 103.82447 26.078125 103.402596Q26.265625 102.98072 26.265625 102.183846L26.265625 98.85572L27.3125 98.85572L27.3125 105.07447L26.375 105.07447ZM29.265625 105.07447L29.265625 96.48072L30.328125 96.48072L30.328125 105.07447L29.265625 105.07447ZM31.875 103.215096L32.90625 103.058846Q33.0 103.683846 33.390625 104.01197Q33.796875 104.340096 34.53125 104.340096Q35.25 104.340096 35.59375 104.058846Q35.953125 103.76197 35.953125 103.35572Q35.953125 102.996346 35.640625 102.79322Q35.421875 102.652596 34.5625 102.433846Q33.40625 102.13697 32.953125 101.933846Q32.515625 101.715096 32.28125 101.340096Q32.046875 100.965096 32.046875 100.496346Q32.046875 100.090096 32.234375 99.73072Q32.421875 99.371346 32.75 99.13697Q33.0 98.965096 33.421875 98.840096Q33.84375 98.715096 34.34375 98.715096Q35.0625 98.715096 35.609375 98.933846Q36.171875 99.13697 36.4375 99.496346Q36.703125 99.85572 36.796875 100.44947L35.765625 100.590096Q35.703125 100.121346 35.359375 99.85572Q35.03125 99.57447 34.40625 99.57447Q33.6875 99.57447 33.375 99.82447Q33.0625 100.058846 33.0625 100.38697Q33.0625 100.590096 33.1875 100.746346Q33.328125 100.91822 33.59375 101.027596Q33.75 101.090096 34.53125 101.29322Q35.65625 101.60572 36.09375 101.79322Q36.53125 101.98072 36.78125 102.340096Q37.03125 102.69947 37.03125 103.246346Q37.03125 103.777596 36.71875 104.246346Q36.421875 104.69947 35.84375 104.965096Q35.265625 105.215096 34.53125 105.215096Q33.3125 105.215096 32.671875 104.715096Q32.046875 104.19947 31.875 103.215096ZM43.546875 103.07447L44.640625 103.19947Q44.390625 104.152596 43.6875 104.683846Q42.984375 105.215096 41.90625 105.215096Q40.546875 105.215096 39.734375 104.371346Q38.9375 103.527596 38.9375 102.01197Q38.9375 100.44947 39.75 99.590096Q40.5625 98.715096 41.84375 98.715096Q43.09375 98.715096 43.875 99.558846Q44.671875 100.402596 44.671875 101.94947Q44.671875 102.04322 44.671875 102.23072L40.03125 102.23072Q40.09375 103.26197 40.609375 103.808846Q41.125 104.340096 41.90625 104.340096Q42.484375 104.340096 42.890625 104.04322Q43.3125 103.73072 43.546875 103.07447ZM40.09375 101.371346L43.5625 101.371346Q43.5 100.57447 43.171875 100.183846Q42.65625 99.57447 41.859375 99.57447Q41.125 99.57447 40.625 100.058846Q40.140625 100.54322 40.09375 101.371346Z" fill-rule="nonzero"/><path fill="#000000" d="M18.609375 185.92554L18.609375 178.34741L15.78125 178.34741L15.78125 177.33179L22.59375 177.33179L22.59375 178.34741L19.75 178.34741L19.75 185.92554L18.609375 185.92554ZM22.90625 182.81616Q22.90625 181.08179 23.859375 180.25366Q24.65625 179.56616 25.8125 179.56616Q27.09375 179.56616 27.90625 180.40991Q28.734375 181.23804 28.734375 182.72241Q28.734375 183.92554 28.375 184.61304Q28.015625 185.30054 27.3125 185.69116Q26.625 186.06616 25.8125 186.06616Q24.515625 186.06616 23.703125 185.23804Q22.90625 184.39429 22.90625 182.81616ZM23.984375 182.81616Q23.984375 184.00366 24.5 184.59741Q25.03125 185.19116 25.8125 185.19116Q26.609375 185.19116 27.125 184.59741Q27.640625 184.00366 27.640625 182.78491Q27.640625 181.62866 27.109375 181.03491Q26.59375 180.44116 25.8125 180.44116Q25.03125 180.44116 24.5 181.03491Q23.984375 181.61304 23.984375 182.81616ZM30.296875 185.92554L30.296875 177.33179L31.359375 177.33179L31.359375 182.23804L33.84375 179.70679L35.21875 179.70679L32.828125 182.00366L35.453125 185.92554L34.15625 185.92554L32.09375 182.73804L31.359375 183.45679L31.359375 185.92554L30.296875 185.92554ZM36.296875 178.55054L36.296875 177.33179L37.359375 177.33179L37.359375 178.55054L36.296875 178.55054ZM36.296875 185.92554L36.296875 179.70679L37.359375 179.70679L37.359375 185.92554L36.296875 185.92554ZM38.90625 182.81616Q38.90625 181.08179 39.859375 180.25366Q40.65625 179.56616 41.8125 179.56616Q43.09375 179.56616 43.90625 180.40991Q44.734375 181.23804 44.734375 182.72241Q44.734375 183.92554 44.375 184.61304Q44.015625 185.30054 43.3125 185.69116Q42.625 186.06616 41.8125 186.06616Q40.515625 186.06616 39.703125 185.23804Q38.90625 184.39429 38.90625 182.81616ZM39.984375 182.81616Q39.984375 184.00366 40.5 184.59741Q41.03125 185.19116 41.8125 185.19116Q42.609375 185.19116 43.125 184.59741Q43.640625 184.00366 43.640625 182.78491Q43.640625 181.62866 43.109375 181.03491Q42.59375 180.44116 41.8125 180.44116Q41.03125 180.44116 40.5 181.03491Q39.984375 181.61304 39.984375 182.81616Z" fill-rule="nonzero"/><path fill="#000000" d="M49.875 253.5L49.875 244.90625L51.015625 244.90625L51.015625 249.17188L55.28125 244.90625L56.828125 244.90625L53.21875 248.39062L56.984375 253.5L55.484375 253.5L52.421875 249.15625L51.015625 250.51562L51.015625 253.5L49.875 253.5Z" fill-rule="nonzero"/><path fill="#000000" d="M149.33333 251.23438L150.39583 251.09375Q150.5677 251.98438 151.0052 252.39062Q151.4427 252.78125 152.0677 252.78125Q152.8177 252.78125 153.33333 252.26562Q153.84895 251.75 153.84895 250.98438Q153.84895 250.26562 153.36458 249.79688Q152.89583 249.3125 152.16145 249.3125Q151.86458 249.3125 151.41145 249.4375L151.53645 248.5Q151.64583 248.51562 151.70833 248.51562Q152.3802 248.51562 152.91145 248.17188Q153.45833 247.8125 153.45833 247.07812Q153.45833 246.5 153.0677 246.125Q152.67708 245.73438 152.05208 245.73438Q151.4427 245.73438 151.02083 246.125Q150.61458 246.51562 150.5052 247.28125L149.4427 247.09375Q149.6302 246.04688 150.3177 245.46875Q151.0052 244.875 152.02083 244.875Q152.72395 244.875 153.3177 245.1875Q153.91145 245.48438 154.22395 246.0Q154.53645 246.51562 154.53645 247.10938Q154.53645 247.65625 154.23958 248.125Q153.9427 248.57812 153.36458 248.84375Q154.11458 249.01562 154.53645 249.57812Q154.95833 250.125 154.95833 250.96875Q154.95833 252.09375 154.1302 252.875Q153.3177 253.65625 152.0677 253.65625Q150.9427 253.65625 150.1927 252.98438Q149.4427 252.29688 149.33333 251.23438ZM156.33333 251.23438L157.39583 251.09375Q157.5677 251.98438 158.0052 252.39062Q158.4427 252.78125 159.0677 252.78125Q159.8177 252.78125 160.33333 252.26562Q160.84895 251.75 160.84895 250.98438Q160.84895 250.26562 160.36458 249.79688Q159.89583 249.3125 159.16145 249.3125Q158.86458 249.3125 158.41145 249.4375L158.53645 248.5Q158.64583 248.51562 158.70833 248.51562Q159.3802 248.51562 159.91145 248.17188Q160.45833 247.8125 160.45833 247.07812Q160.45833 246.5 160.0677 246.125Q159.67708 245.73438 159.05208 245.73438Q158.4427 245.73438 158.02083 246.125Q157.61458 246.51562 157.5052 247.28125L156.4427 247.09375Q156.6302 246.04688 157.3177 245.46875Q158.0052 244.875 159.02083 244.875Q159.72395 244.875 160.3177 245.1875Q160.91145 245.48438 161.22395 246.0Q161.53645 246.51562 161.53645 247.10938Q161.53645 247.65625 161.23958 248.125Q160.9427 248.57812 160.36458 248.84375Q161.11458 249.01562 161.53645 249.57812Q161.95833 250.125 161.95833 250.96875Q161.95833 252.09375 161.1302 252.875Q160.3177 253.65625 159.0677 253.65625Q157.9427 253.65625 157.1927 252.98438Q156.4427 252.29688 156.33333 251.23438ZM166.70833 253.5L166.70833 244.90625L167.84895 244.90625L167.84895 249.17188L172.11458 244.90625L173.66145 244.90625L170.05208 248.39062L173.8177 253.5L172.3177 253.5L169.2552 249.15625L167.84895 250.51562L167.84895 253.5L166.70833 253.5Z" fill-rule="nonzero"/><path fill="#000000" d="M264.6354 247.01562L263.58853 247.09375Q263.4479 246.46875 263.1979 246.1875Q262.7604 245.73438 262.1354 245.73438Q261.6354 245.73438 261.24478 246.01562Q260.7604 246.39062 260.46353 247.09375Q260.18228 247.78125 260.16666 249.0625Q260.54166 248.48438 261.08853 248.20312Q261.65103 247.92188 262.2604 247.92188Q263.30728 247.92188 264.04166 248.70312Q264.79166 249.48438 264.79166 250.70312Q264.79166 251.51562 264.43228 252.21875Q264.08853 252.90625 263.47916 253.28125Q262.86978 253.64062 262.10416 253.64062Q260.77603 253.64062 259.9479 252.67188Q259.11978 251.70312 259.11978 249.48438Q259.11978 246.98438 260.04166 245.85938Q260.83853 244.875 262.1979 244.875Q263.21353 244.875 263.85416 245.45312Q264.5104 246.01562 264.6354 247.01562ZM260.33853 250.71875Q260.33853 251.26562 260.55728 251.76562Q260.79166 252.25 261.1979 252.51562Q261.61978 252.78125 262.08853 252.78125Q262.74478 252.78125 263.22916 252.25Q263.71353 251.70312 263.71353 250.78125Q263.71353 249.89062 263.22916 249.375Q262.7604 248.85938 262.04166 248.85938Q261.3229 248.85938 260.8229 249.375Q260.33853 249.89062 260.33853 250.71875ZM266.22916 246.03125L266.22916 245.01562L271.79166 245.01562L271.79166 245.84375Q270.97916 246.71875 270.16666 248.17188Q269.36978 249.60938 268.93228 251.14062Q268.60416 252.21875 268.52603 253.5L267.43228 253.5Q267.4479 252.48438 267.8229 251.04688Q268.21353 249.60938 268.91666 248.28125Q269.6354 246.95312 270.4479 246.03125L266.22916 246.03125ZM276.54166 253.5L276.54166 244.90625L277.68228 244.90625L277.68228 249.17188L281.9479 244.90625L283.49478 244.90625L279.8854 248.39062L283.65103 253.5L282.15103 253.5L279.08853 249.15625L277.68228 250.51562L277.68228 253.5L276.54166 253.5Z" fill-rule="nonzero"/><path fill="#000000" d="M369.46875 253.5L368.42188 253.5L368.42188 246.78125Q368.03125 247.14062 367.40625 247.51562Q366.79688 247.875 366.3125 248.04688L366.3125 247.03125Q367.1875 246.60938 367.84375 246.03125Q368.51562 245.4375 368.79688 244.875L369.46875 244.875L369.46875 253.5ZM372.5 249.26562Q372.5 247.73438 372.8125 246.8125Q373.125 245.875 373.73438 245.375Q374.35938 244.875 375.29688 244.875Q375.98438 244.875 376.5 245.15625Q377.03125 245.4375 377.375 245.96875Q377.71875 246.48438 377.90625 247.23438Q378.09375 247.98438 378.09375 249.26562Q378.09375 250.78125 377.78125 251.70312Q377.48438 252.625 376.85938 253.14062Q376.25 253.64062 375.29688 253.64062Q374.0625 253.64062 373.34375 252.75Q372.5 251.6875 372.5 249.26562ZM373.57812 249.26562Q373.57812 251.375 374.07812 252.07812Q374.57812 252.78125 375.29688 252.78125Q376.03125 252.78125 376.51562 252.07812Q377.01562 251.375 377.01562 249.26562Q377.01562 247.14062 376.51562 246.45312Q376.03125 245.75 375.28125 245.75Q374.5625 245.75 374.125 246.35938Q373.57812 247.14062 373.57812 249.26562ZM379.5 249.26562Q379.5 247.73438 379.8125 246.8125Q380.125 245.875 380.73438 245.375Q381.35938 244.875 382.29688 244.875Q382.98438 244.875 383.5 245.15625Q384.03125 245.4375 384.375 245.96875Q384.71875 246.48438 384.90625 247.23438Q385.09375 247.98438 385.09375 249.26562Q385.09375 250.78125 384.78125 251.70312Q384.48438 252.625 383.85938 253.14062Q383.25 253.64062 382.29688 253.64062Q381.0625 253.64062 380.34375 252.75Q379.5 251.6875 379.5 249.26562ZM380.57812 249.26562Q380.57812 251.375 381.07812 252.07812Q381.57812 252.78125 382.29688 252.78125Q383.03125 252.78125 383.51562 252.07812Q384.01562 251.375 384.01562 249.26562Q384.01562 247.14062 383.51562 246.45312Q383.03125 245.75 382.28125 245.75Q381.5625 245.75 381.125 246.35938Q380.57812 247.14062 380.57812 249.26562ZM389.875 253.5L389.875 244.90625L391.01562 244.90625L391.01562 249.17188L395.28125 244.90625L396.82812 244.90625L393.21875 248.39062L396.98438 253.5L395.48438 253.5L392.42188 249.15625L391.01562 250.51562L391.01562 253.5L389.875 253.5Z" fill-rule="nonzero"/><path fill="#000000" d="M479.3021 253.5L478.25522 253.5L478.25522 246.78125Q477.8646 247.14062 477.2396 247.51562Q476.63022 247.875 476.14584 248.04688L476.14584 247.03125Q477.02084 246.60938 477.6771 246.03125Q478.34897 245.4375 478.63022 244.875L479.3021 244.875L479.3021 253.5ZM482.33334 251.23438L483.39584 251.09375Q483.56772 251.98438 484.00522 252.39062Q484.44272 252.78125 485.06772 252.78125Q485.81772 252.78125 486.33334 252.26562Q486.84897 251.75 486.84897 250.98438Q486.84897 250.26562 486.3646 249.79688Q485.89584 249.3125 485.16147 249.3125Q484.8646 249.3125 484.41147 249.4375L484.53647 248.5Q484.64584 248.51562 484.70834 248.51562Q485.38022 248.51562 485.91147 248.17188Q486.45834 247.8125 486.45834 247.07812Q486.45834 246.5 486.06772 246.125Q485.6771 245.73438 485.0521 245.73438Q484.44272 245.73438 484.02084 246.125Q483.6146 246.51562 483.50522 247.28125L482.44272 247.09375Q482.63022 246.04688 483.31772 245.46875Q484.00522 244.875 485.02084 244.875Q485.72397 244.875 486.31772 245.1875Q486.91147 245.48438 487.22397 246.0Q487.53647 246.51562 487.53647 247.10938Q487.53647 247.65625 487.2396 248.125Q486.94272 248.57812 486.3646 248.84375Q487.1146 249.01562 487.53647 249.57812Q487.95834 250.125 487.95834 250.96875Q487.95834 252.09375 487.13022 252.875Q486.31772 253.65625 485.06772 253.65625Q483.94272 253.65625 483.19272 252.98438Q482.44272 252.29688 482.33334 251.23438ZM489.33334 251.23438L490.39584 251.09375Q490.56772 251.98438 491.00522 252.39062Q491.44272 252.78125 492.06772 252.78125Q492.81772 252.78125 493.33334 252.26562Q493.84897 251.75 493.84897 250.98438Q493.84897 250.26562 493.3646 249.79688Q492.89584 249.3125 492.16147 249.3125Q491.8646 249.3125 491.41147 249.4375L491.53647 248.5Q491.64584 248.51562 491.70834 248.51562Q492.38022 248.51562 492.91147 248.17188Q493.45834 247.8125 493.45834 247.07812Q493.45834 246.5 493.06772 246.125Q492.6771 245.73438 492.0521 245.73438Q491.44272 245.73438 491.02084 246.125Q490.6146 246.51562 490.50522 247.28125L489.44272 247.09375Q489.63022 246.04688 490.31772 245.46875Q491.00522 244.875 492.02084 244.875Q492.72397 244.875 493.31772 245.1875Q493.91147 245.48438 494.22397 246.0Q494.53647 246.51562 494.53647 247.10938Q494.53647 247.65625 494.2396 248.125Q493.94272 248.57812 493.3646 248.84375Q494.1146 249.01562 494.53647 249.57812Q494.95834 250.125 494.95834 250.96875Q494.95834 252.09375 494.13022 252.875Q493.31772 253.65625 492.06772 253.65625Q490.94272 253.65625 490.19272 252.98438Q489.44272 252.29688 489.33334 251.23438ZM499.70834 253.5L499.70834 244.90625L500.84897 244.90625L500.84897 249.17188L505.1146 244.90625L506.66147 244.90625L503.0521 248.39062L506.81772 253.5L505.31772 253.5L502.25522 249.15625L500.84897 250.51562L500.84897 253.5L499.70834 253.5Z" fill-rule="nonzero"/><path fill="#000000" d="M589.13544 253.5L588.08856 253.5L588.08856 246.78125Q587.69794 247.14062 587.07294 247.51562Q586.46356 247.875 585.9792 248.04688L585.9792 247.03125Q586.8542 246.60938 587.51044 246.03125Q588.1823 245.4375 588.46356 244.875L589.13544 244.875L589.13544 253.5ZM597.63544 247.01562L596.58856 247.09375Q596.44794 246.46875 596.19794 246.1875Q595.76044 245.73438 595.13544 245.73438Q594.63544 245.73438 594.2448 246.01562Q593.76044 246.39062 593.46356 247.09375Q593.1823 247.78125 593.1667 249.0625Q593.5417 248.48438 594.08856 248.20312Q594.65106 247.92188 595.26044 247.92188Q596.3073 247.92188 597.0417 248.70312Q597.7917 249.48438 597.7917 250.70312Q597.7917 251.51562 597.4323 252.21875Q597.08856 252.90625 596.4792 253.28125Q595.8698 253.64062 595.1042 253.64062Q593.77606 253.64062 592.94794 252.67188Q592.1198 251.70312 592.1198 249.48438Q592.1198 246.98438 593.0417 245.85938Q593.83856 244.875 595.19794 244.875Q596.21356 244.875 596.8542 245.45312Q597.51044 246.01562 597.63544 247.01562ZM593.33856 250.71875Q593.33856 251.26562 593.5573 251.76562Q593.7917 252.25 594.19794 252.51562Q594.6198 252.78125 595.08856 252.78125Q595.7448 252.78125 596.2292 252.25Q596.71356 251.70312 596.71356 250.78125Q596.71356 249.89062 596.2292 249.375Q595.76044 248.85938 595.0417 248.85938Q594.32294 248.85938 593.82294 249.375Q593.33856 249.89062 593.33856 250.71875ZM599.2292 246.03125L599.2292 245.01562L604.7917 245.01562L604.7917 245.84375Q603.9792 246.71875 603.1667 248.17188Q602.3698 249.60938 601.9323 251.14062Q601.6042 252.21875 601.52606 253.5L600.4323 253.5Q600.44794 252.48438 600.82294 251.04688Q601.21356 249.60938 601.9167 248.28125Q602.63544 246.95312 603.44794 246.03125L599.2292 246.03125ZM609.5417 253.5L609.5417 244.90625L610.6823 244.90625L610.6823 249.17188L614.94794 244.90625L616.4948 244.90625L612.88544 248.39062L616.65106 253.5L615.15106 253.5L612.08856 249.15625L610.6823 250.51562L610.6823 253.5L609.5417 253.5Z" fill-rule="nonzero"/><path fill="#757575" d="M15.078125 32.5L15.078125 18.1875L25.4375 18.1875L25.4375 19.875L16.984375 19.875L16.984375 24.25L24.890625 24.25L24.890625 25.9375L16.984375 25.9375L16.984375 30.8125L25.765625 30.8125L25.765625 32.5L15.078125 32.5ZM34.59375 28.703125L36.3125 28.921875Q36.03125 30.71875 34.859375 31.734375Q33.703125 32.734375 32.0 32.734375Q29.875 32.734375 28.578125 31.34375Q27.28125 29.953125 27.28125 27.359375Q27.28125 25.671875 27.828125 24.421875Q28.390625 23.15625 29.53125 22.53125Q30.671875 21.890625 32.015625 21.890625Q33.703125 21.890625 34.765625 22.75Q35.84375 23.609375 36.15625 25.171875L34.4375 25.4375Q34.203125 24.390625 33.578125 23.875Q32.953125 23.34375 32.078125 23.34375Q30.75 23.34375 29.921875 24.296875Q29.09375 25.25 29.09375 27.296875Q29.09375 29.390625 29.890625 30.34375Q30.6875 31.28125 31.984375 31.28125Q33.015625 31.28125 33.703125 30.65625Q34.40625 30.015625 34.59375 28.703125ZM37.8125 32.5L37.8125 18.1875L39.578125 18.1875L39.578125 23.3125Q40.8125 21.890625 42.6875 21.890625Q43.828125 21.890625 44.671875 22.34375Q45.53125 22.796875 45.890625 23.609375Q46.265625 24.40625 46.265625 25.921875L46.265625 32.5L44.515625 32.5L44.515625 25.921875Q44.515625 24.609375 43.9375 24.015625Q43.359375 23.40625 42.328125 23.40625Q41.546875 23.40625 40.84375 23.8125Q40.15625 24.21875 39.859375 24.921875Q39.578125 25.609375 39.578125 26.828125L39.578125 32.5L37.8125 32.5ZM47.171875 27.3125Q47.171875 24.4375 48.765625 23.046875Q50.109375 21.890625 52.03125 21.890625Q54.171875 21.890625 55.515625 23.296875Q56.875 24.703125 56.875 27.171875Q56.875 29.171875 56.28125 30.328125Q55.6875 31.46875 54.53125 32.109375Q53.390625 32.734375 52.03125 32.734375Q49.84375 32.734375 48.5 31.34375Q47.171875 29.9375 47.171875 27.3125ZM48.96875 27.3125Q48.96875 29.3125 49.828125 30.296875Q50.703125 31.28125 52.03125 31.28125Q53.34375 31.28125 54.203125 30.296875Q55.078125 29.296875 55.078125 27.25Q55.078125 25.328125 54.203125 24.34375Q53.328125 23.34375 52.03125 23.34375Q50.703125 23.34375 49.828125 24.34375Q48.96875 25.328125 48.96875 27.3125ZM64.109375 29.40625L65.859375 29.125Q66.0 30.171875 66.671875 30.734375Q67.34375 31.28125 68.546875 31.28125Q69.75 31.28125 70.328125 30.796875Q70.921875 30.296875 70.921875 29.640625Q70.921875 29.046875 70.40625 28.703125Q70.046875 28.46875 68.609375 28.109375Q66.671875 27.609375 65.921875 27.265625Q65.1875 26.90625 64.796875 26.28125Q64.40625 25.640625 64.40625 24.875Q64.40625 24.1875 64.71875 23.59375Q65.046875 23.0 65.59375 22.609375Q66.0 22.3125 66.703125 22.109375Q67.421875 21.890625 68.234375 21.890625Q69.453125 21.890625 70.375 22.25Q71.296875 22.59375 71.734375 23.203125Q72.171875 23.796875 72.34375 24.796875L70.625 25.03125Q70.5 24.234375 69.9375 23.796875Q69.375 23.34375 68.359375 23.34375Q67.140625 23.34375 66.625 23.75Q66.109375 24.140625 66.109375 24.671875Q66.109375 25.015625 66.328125 25.296875Q66.53125 25.578125 67.0 25.765625Q67.265625 25.859375 68.546875 26.203125Q70.421875 26.703125 71.15625 27.03125Q71.890625 27.34375 72.3125 27.953125Q72.734375 28.546875 72.734375 29.453125Q72.734375 30.328125 72.21875 31.109375Q71.703125 31.890625 70.734375 32.3125Q69.765625 32.734375 68.546875 32.734375Q66.53125 32.734375 65.46875 31.890625Q64.40625 31.046875 64.109375 29.40625ZM81.921875 29.15625L83.734375 29.390625Q83.3125 30.96875 82.140625 31.859375Q80.984375 32.734375 79.171875 32.734375Q76.90625 32.734375 75.5625 31.34375Q74.234375 29.9375 74.234375 27.40625Q74.234375 24.78125 75.578125 23.34375Q76.921875 21.890625 79.078125 21.890625Q81.15625 21.890625 82.46875 23.3125Q83.796875 24.71875 83.796875 27.296875Q83.796875 27.453125 83.78125 27.765625L76.046875 27.765625Q76.140625 29.46875 77.015625 30.375Q77.890625 31.28125 79.1875 31.28125Q80.15625 31.28125 80.828125 30.78125Q81.515625 30.265625 81.921875 29.15625ZM76.140625 26.3125L81.9375 26.3125Q81.828125 25.015625 81.28125 24.359375Q80.4375 23.34375 79.09375 23.34375Q77.890625 23.34375 77.0625 24.15625Q76.234375 24.953125 76.140625 26.3125ZM85.796875 32.5L85.796875 22.125L87.375 22.125L87.375 23.703125Q87.984375 22.59375 88.5 22.25Q89.015625 21.890625 89.625 21.890625Q90.515625 21.890625 91.4375 22.453125L90.828125 24.09375Q90.1875 23.703125 89.546875 23.703125Q88.96875 23.703125 88.5 24.0625Q88.046875 24.40625 87.84375 25.015625Q87.5625 25.953125 87.5625 27.0625L87.5625 32.5L85.796875 32.5ZM95.703125 32.5L91.75 22.125L93.609375 22.125L95.84375 28.34375Q96.203125 29.34375 96.5 30.421875Q96.734375 29.609375 97.15625 28.453125L99.453125 22.125L101.265625 22.125L97.34375 32.5L95.703125 32.5ZM108.921875 29.15625L110.734375 29.390625Q110.3125 30.96875 109.140625 31.859375Q107.984375 32.734375 106.171875 32.734375Q103.90625 32.734375 102.5625 31.34375Q101.234375 29.9375 101.234375 27.40625Q101.234375 24.78125 102.578125 23.34375Q103.921875 21.890625 106.078125 21.890625Q108.15625 21.890625 109.46875 23.3125Q110.796875 24.71875 110.796875 27.296875Q110.796875 27.453125 110.78125 27.765625L103.046875 27.765625Q103.140625 29.46875 104.015625 30.375Q104.890625 31.28125 106.1875 31.28125Q107.15625 31.28125 107.828125 30.78125Q108.515625 30.265625 108.921875 29.15625ZM103.140625 26.3125L108.9375 26.3125Q108.828125 25.015625 108.28125 24.359375Q107.4375 23.34375 106.09375 23.34375Q104.890625 23.34375 104.0625 24.15625Q103.234375 24.953125 103.140625 26.3125ZM112.796875 32.5L112.796875 22.125L114.375 22.125L114.375 23.703125Q114.984375 22.59375 115.5 22.25Q116.015625 21.890625 116.625 21.890625Q117.515625 21.890625 118.4375 22.453125L117.828125 24.09375Q117.1875 23.703125 116.546875 23.703125Q115.96875 23.703125 115.5 24.0625Q115.046875 24.40625 114.84375 25.015625Q114.5625 25.953125 114.5625 27.0625L114.5625 32.5L112.796875 32.5ZM136.89062 30.96875Q138.21875 31.875 139.32812 32.296875L138.76562 33.609375Q137.21875 33.0625 135.6875 31.859375Q134.09375 32.75 132.17188 32.75Q130.23438 32.75 128.64062 31.8125Q127.0625 30.875 126.203125 29.171875Q125.359375 27.46875 125.359375 25.34375Q125.359375 23.21875 126.21875 21.484375Q127.078125 19.75 128.65625 18.84375Q130.25 17.921875 132.21875 17.921875Q134.20312 17.921875 135.78125 18.875Q137.375 19.8125 138.20312 21.515625Q139.04688 23.203125 139.04688 25.328125Q139.04688 27.09375 138.51562 28.515625Q137.98438 29.921875 136.89062 30.96875ZM132.71875 28.546875Q134.35938 29.0 135.42188 29.90625Q137.09375 28.390625 137.09375 25.328125Q137.09375 23.59375 136.5 22.296875Q135.92188 21.0 134.78125 20.28125Q133.64062 19.5625 132.21875 19.5625Q130.10938 19.5625 128.70312 21.015625Q127.3125 22.453125 127.3125 25.34375Q127.3125 28.140625 128.6875 29.640625Q130.07812 31.125 132.21875 31.125Q133.23438 31.125 134.14062 30.734375Q133.25 30.171875 132.26562 29.921875L132.71875 28.546875ZM142.04688 32.5L142.04688 18.1875L147.4375 18.1875Q148.875 18.1875 149.625 18.3125Q150.67188 18.5 151.39062 19.0Q152.10938 19.484375 152.53125 20.375Q152.96875 21.265625 152.96875 22.328125Q152.96875 24.15625 151.79688 25.421875Q150.64062 26.671875 147.60938 26.671875L143.9375 26.671875L143.9375 32.5L142.04688 32.5ZM143.9375 24.984375L147.64062 24.984375Q149.46875 24.984375 150.23438 24.3125Q151.01562 23.625 151.01562 22.375Q151.01562 21.484375 150.5625 20.84375Q150.10938 20.203125 149.375 20.0Q148.89062 19.875 147.59375 19.875L143.9375 19.875L143.9375 24.984375ZM154.40625 27.90625L156.1875 27.75Q156.3125 28.8125 156.76562 29.5Q157.23438 30.1875 158.20312 30.625Q159.1875 31.046875 160.42188 31.046875Q161.5 31.046875 162.32812 30.734375Q163.15625 30.40625 163.5625 29.84375Q163.96875 29.28125 163.96875 28.609375Q163.96875 27.9375 163.57812 27.4375Q163.1875 26.9375 162.29688 26.59375Q161.71875 26.359375 159.73438 25.890625Q157.76562 25.421875 156.98438 25.0Q155.95312 24.46875 155.45312 23.671875Q154.95312 22.875 154.95312 21.890625Q154.95312 20.796875 155.5625 19.859375Q156.17188 18.921875 157.35938 18.4375Q158.54688 17.9375 159.98438 17.9375Q161.57812 17.9375 162.79688 18.453125Q164.01562 18.96875 164.65625 19.96875Q165.3125 20.953125 165.35938 22.21875L163.54688 22.359375Q163.40625 21.0 162.5625 20.3125Q161.71875 19.609375 160.0625 19.609375Q158.34375 19.609375 157.54688 20.25Q156.76562 20.875 156.76562 21.75Q156.76562 22.53125 157.32812 23.03125Q157.875 23.53125 160.1875 24.046875Q162.5 24.5625 163.35938 24.953125Q164.60938 25.53125 165.20312 26.421875Q165.79688 27.296875 165.79688 28.453125Q165.79688 29.59375 165.14062 30.609375Q164.48438 31.625 163.25 32.1875Q162.03125 32.75 160.5 32.75Q158.5625 32.75 157.25 32.1875Q155.9375 31.609375 155.1875 30.46875Q154.4375 29.328125 154.40625 27.90625ZM177.17188 36.703125Q175.71875 34.875 174.71875 32.421875Q173.71875 29.953125 173.71875 27.3125Q173.71875 24.984375 174.46875 22.859375Q175.34375 20.390625 177.17188 17.9375L178.4375 17.9375Q177.25 19.96875 176.875 20.84375Q176.28125 22.1875 175.9375 23.65625Q175.51562 25.484375 175.51562 27.328125Q175.51562 32.015625 178.4375 36.703125L177.17188 36.703125ZM189.5625 30.8125L189.5625 32.5L180.10938 32.5Q180.09375 31.859375 180.3125 31.28125Q180.67188 30.3125 181.46875 29.375Q182.26562 28.4375 183.76562 27.203125Q186.10938 25.296875 186.92188 24.1875Q187.75 23.0625 187.75 22.0625Q187.75 21.015625 187.0 20.296875Q186.25 19.578125 185.04688 19.578125Q183.78125 19.578125 183.01562 20.34375Q182.25 21.109375 182.25 22.453125L180.4375 22.265625Q180.625 20.25 181.82812 19.1875Q183.04688 18.125 185.09375 18.125Q187.14062 18.125 188.34375 19.265625Q189.54688 20.40625 189.54688 22.09375Q189.54688 22.953125 189.1875 23.796875Q188.84375 24.625 188.03125 25.546875Q187.21875 26.453125 185.32812 28.0625Q183.73438 29.390625 183.28125 29.859375Q182.84375 30.328125 182.54688 30.8125L189.5625 30.8125ZM192.28125 32.5L192.28125 30.5L194.28125 30.5L194.28125 32.5Q194.28125 33.609375 193.89062 34.28125Q193.5 34.96875 192.65625 35.328125L192.15625 34.578125Q192.71875 34.34375 192.98438 33.859375Q193.25 33.390625 193.28125 32.5L192.28125 32.5ZM197.32812 25.4375Q197.32812 22.90625 197.84375 21.359375Q198.375 19.796875 199.40625 18.96875Q200.4375 18.125 202.0 18.125Q203.15625 18.125 204.01562 18.59375Q204.89062 19.046875 205.45312 19.921875Q206.01562 20.796875 206.34375 22.0625Q206.67188 23.3125 206.67188 25.4375Q206.67188 27.953125 206.14062 29.5Q205.625 31.046875 204.59375 31.90625Q203.57812 32.75 202.0 32.75Q199.92188 32.75 198.75 31.265625Q197.32812 29.46875 197.32812 25.4375ZM199.14062 25.4375Q199.14062 28.96875 199.95312 30.140625Q200.78125 31.296875 202.0 31.296875Q203.20312 31.296875 204.03125 30.125Q204.85938 28.953125 204.85938 25.4375Q204.85938 21.90625 204.03125 20.75Q203.20312 19.578125 201.98438 19.578125Q200.76562 19.578125 200.04688 20.609375Q199.14062 21.90625 199.14062 25.4375ZM208.32812 25.4375Q208.32812 22.90625 208.84375 21.359375Q209.375 19.796875 210.40625 18.96875Q211.4375 18.125 213.0 18.125Q214.15625 18.125 215.01562 18.59375Q215.89062 19.046875 216.45312 19.921875Q217.01562 20.796875 217.34375 22.0625Q217.67188 23.3125 217.67188 25.4375Q217.67188 27.953125 217.14062 29.5Q216.625 31.046875 215.59375 31.90625Q214.57812 32.75 213.0 32.75Q210.92188 32.75 209.75 31.265625Q208.32812 29.46875 208.32812 25.4375ZM210.14062 25.4375Q210.14062 28.96875 210.95312 30.140625Q211.78125 31.296875 213.0 31.296875Q214.20312 31.296875 215.03125 30.125Q215.85938 28.953125 215.85938 25.4375Q215.85938 21.90625 215.03125 20.75Q214.20312 19.578125 212.98438 19.578125Q211.76562 19.578125 211.04688 20.609375Q210.14062 21.90625 210.14062 25.4375ZM219.32812 25.4375Q219.32812 22.90625 219.84375 21.359375Q220.375 19.796875 221.40625 18.96875Q222.4375 18.125 224.0 18.125Q225.15625 18.125 226.01562 18.59375Q226.89062 19.046875 227.45312 19.921875Q228.01562 20.796875 228.34375 22.0625Q228.67188 23.3125 228.67188 25.4375Q228.67188 27.953125 228.14062 29.5Q227.625 31.046875 226.59375 31.90625Q225.57812 32.75 224.0 32.75Q221.92188 32.75 220.75 31.265625Q219.32812 29.46875 219.32812 25.4375ZM221.14062 25.4375Q221.14062 28.96875 221.95312 30.140625Q222.78125 31.296875 224.0 31.296875Q225.20312 31.296875 226.03125 30.125Q226.85938 28.953125 226.85938 25.4375Q226.85938 21.90625 226.03125 20.75Q225.20312 19.578125 223.98438 19.578125Q222.76562 19.578125 222.04688 20.609375Q221.14062 21.90625 221.14062 25.4375ZM243.59375 28.703125L245.3125 28.921875Q245.03125 30.71875 243.85938 31.734375Q242.70312 32.734375 241.0 32.734375Q238.875 32.734375 237.57812 31.34375Q236.28125 29.953125 236.28125 27.359375Q236.28125 25.671875 236.82812 24.421875Q237.39062 23.15625 238.53125 22.53125Q239.67188 21.890625 241.01562 21.890625Q242.70312 21.890625 243.76562 22.75Q244.84375 23.609375 245.15625 25.171875L243.4375 25.4375Q243.20312 24.390625 242.57812 23.875Q241.95312 23.34375 241.07812 23.34375Q239.75 23.34375 238.92188 24.296875Q238.09375 25.25 238.09375 27.296875Q238.09375 29.390625 238.89062 30.34375Q239.6875 31.28125 240.98438 31.28125Q242.01562 31.28125 242.70312 30.65625Q243.40625 30.015625 243.59375 28.703125ZM246.78125 32.5L246.78125 18.1875L248.53125 18.1875L248.53125 32.5L246.78125 32.5ZM250.82812 20.203125L250.82812 18.1875L252.59375 18.1875L252.59375 20.203125L250.82812 20.203125ZM250.82812 32.5L250.82812 22.125L252.59375 22.125L252.59375 32.5L250.82812 32.5ZM261.92188 29.15625L263.73438 29.390625Q263.3125 30.96875 262.14062 31.859375Q260.98438 32.734375 259.17188 32.734375Q256.90625 32.734375 255.5625 31.34375Q254.23438 29.9375 254.23438 27.40625Q254.23438 24.78125 255.57812 23.34375Q256.92188 21.890625 259.07812 21.890625Q261.15625 21.890625 262.46875 23.3125Q263.79688 24.71875 263.79688 27.296875Q263.79688 27.453125 263.78125 27.765625L256.04688 27.765625Q256.14062 29.46875 257.01562 30.375Q257.89062 31.28125 259.1875 31.28125Q260.15625 31.28125 260.82812 30.78125Q261.51562 30.265625 261.92188 29.15625ZM256.14062 26.3125L261.9375 26.3125Q261.82812 25.015625 261.28125 24.359375Q260.4375 23.34375 259.09375 23.34375Q257.89062 23.34375 257.0625 24.15625Q256.23438 24.953125 256.14062 26.3125ZM265.8125 32.5L265.8125 22.125L267.40625 22.125L267.40625 23.609375Q268.54688 21.890625 270.70312 21.890625Q271.64062 21.890625 272.42188 22.234375Q273.21875 22.5625 273.60938 23.109375Q274.0 23.65625 274.15625 24.40625Q274.25 24.90625 274.25 26.125L274.25 32.5L272.48438 32.5L272.48438 26.1875Q272.48438 25.109375 272.28125 24.578125Q272.07812 24.046875 271.54688 23.734375Q271.03125 23.421875 270.32812 23.421875Q269.20312 23.421875 268.39062 24.140625Q267.57812 24.84375 267.57812 26.828125L267.57812 32.5L265.8125 32.5ZM279.65625 30.921875L279.90625 32.484375Q279.17188 32.640625 278.57812 32.640625Q277.625 32.640625 277.09375 32.34375Q276.57812 32.03125 276.35938 31.546875Q276.14062 31.046875 276.14062 29.46875L276.14062 23.5L274.85938 23.5L274.85938 22.125L276.14062 22.125L276.14062 19.5625L277.89062 18.5L277.89062 22.125L279.65625 22.125L279.65625 23.5L277.89062 23.5L277.89062 29.5625Q277.89062 30.3125 277.98438 30.53125Q278.07812 30.734375 278.28125 30.875Q278.5 31.0 278.89062 31.0Q279.17188 31.0 279.65625 30.921875ZM281.10938 29.40625L282.85938 29.125Q283.0 30.171875 283.67188 30.734375Q284.34375 31.28125 285.54688 31.28125Q286.75 31.28125 287.32812 30.796875Q287.92188 30.296875 287.92188 29.640625Q287.92188 29.046875 287.40625 28.703125Q287.04688 28.46875 285.60938 28.109375Q283.67188 27.609375 282.92188 27.265625Q282.1875 26.90625 281.79688 26.28125Q281.40625 25.640625 281.40625 24.875Q281.40625 24.1875 281.71875 23.59375Q282.04688 23.0 282.59375 22.609375Q283.0 22.3125 283.70312 22.109375Q284.42188 21.890625 285.23438 21.890625Q286.45312 21.890625 287.375 22.25Q288.29688 22.59375 288.73438 23.203125Q289.17188 23.796875 289.34375 24.796875L287.625 25.03125Q287.5 24.234375 286.9375 23.796875Q286.375 23.34375 285.35938 23.34375Q284.14062 23.34375 283.625 23.75Q283.10938 24.140625 283.10938 24.671875Q283.10938 25.015625 283.32812 25.296875Q283.53125 25.578125 284.0 25.765625Q284.26562 25.859375 285.54688 26.203125Q287.42188 26.703125 288.15625 27.03125Q288.89062 27.34375 289.3125 27.953125Q289.73438 28.546875 289.73438 29.453125Q289.73438 30.328125 289.21875 31.109375Q288.70312 31.890625 287.73438 32.3125Q286.76562 32.734375 285.54688 32.734375Q283.53125 32.734375 282.46875 31.890625Q281.40625 31.046875 281.10938 29.40625ZM292.96875 36.703125L291.71875 36.703125Q294.625 32.015625 294.625 27.328125Q294.625 25.484375 294.21875 23.6875Q293.875 22.21875 293.28125 20.875Q292.90625 19.984375 291.71875 17.9375L292.96875 17.9375Q294.8125 20.390625 295.6875 22.859375Q296.4375 24.984375 296.4375 27.3125Q296.4375 29.953125 295.42188 32.421875Q294.42188 34.875 292.96875 36.703125Z" fill-rule="nonzero"/></svg>