<svg version="1.1" viewBox="0.0 0.0 724.0 359.0" fill="none" stroke="none" stroke-linecap="square" stroke-miterlimit="10" width="724" height="359" xmlns:xlink="http://www.w3.org/1999/xlink" xmlns="http://www.w3.org/2000/svg"><path fill="#ffffff" d="M0 0L724.0 0L724.0 359.0L0 359.0L0 0Z" fill-rule="nonzero"/><path stroke="#333333" stroke-width="1.0" stroke-linecap="butt" d="M70.5 53.5L70.5 321.5" fill-rule="nonzero"/><path stroke="#cccccc" stroke-width="1.0" stroke-linecap="butt" d="M176.5 53.5L176.5 321.5" fill-rule="nonzero"/><path stroke="#cccccc" stroke-width="1.0" stroke-linecap="butt" d="M282.5 53.5L282.5 321.5" fill-rule="nonzero"/><path stroke="#cccccc" stroke-width="1.0" stroke-linecap="butt" d="M388.5 53.5L388.5 321.5" fill-rule="nonzero"/><path stroke="#cccccc" stroke-width="1.0" stroke-linecap="butt" d="M494.5 53.5L494.5 321.5" fill-rule="nonzero"/><path stroke="#cccccc" stroke-width="1.0" stroke-linecap="butt" d="M600.5 53.5L600.5 321.5" fill-rule="nonzero"/><path stroke="#cccccc" stroke-width="1.0" stroke-linecap="butt" d="M706.5 53.5L706.5 321.5" fill-rule="nonzero"/><path stroke="#e6e6e6" stroke-width="1.0" stroke-linecap="butt" d="M106.5 53.5L106.5 321.5" fill-rule="nonzero"/><path stroke="#e6e6e6" stroke-width="1.0" stroke-linecap="butt" d="M141.5 53.5L141.5 321.5" fill-rule="nonzero"/><path stroke="#e6e6e6" stroke-width="1.0" stroke-linecap="butt" d="M212.5 53.5L212.5 321.5" fill-rule="nonzero"/><path stroke="#e6e6e6" stroke-width="1.0" stroke-linecap="butt" d="M247.5 53.5L247.5 321.5" fill-rule="nonzero"/><path stroke="#e6e6e6" stroke-width="1.0" stroke-linecap="butt" d="M317.5 53.5L317.5 321.5" fill-rule="nonzero"/><path stroke="#e6e6e6" stroke-width="1.0" stroke-linecap="butt" d="M353.5 53.5L353.5 321.5" fill-rule="nonzero"/><path stroke="#e6e6e6" stroke-width="1.0" stroke-linecap="butt" d="M423.5 53.5L423.5 321.5" fill-rule="nonzero"/><path stroke="#e6e6e6" stroke-width="1.0" stroke-linecap="butt" d="M459.5 53.5L459.5 321.5" fill-rule="nonzero"/><path stroke="#e6e6e6" stroke-width="1.0" stroke-linecap="butt" d="M529.5 53.5L529.5 321.5" fill-rule="nonzero"/><path stroke="#e6e6e6" stroke-width="1.0" stroke-linecap="butt" d="M564.5 53.5L564.5 321.5" fill-rule="nonzero"/><path stroke="#e6e6e6" stroke-width="1.0" stroke-linecap="butt" d="M635.5 53.5L635.5 321.5" fill-rule="nonzero"/><path stroke="#e6e6e6" stroke-width="1.0" stroke-linecap="butt" d="M670.5 53.5L670.5 321.5" fill-rule="nonzero"/><path stroke="#000000" stroke-width="1.0" stroke-linecap="butt" d="M706.5 321.5L70.5 321.5" fill-rule="nonzero"/><clipPath id="id_0"><path d="M70.95 53.916668L706.05 53.916668L706.05 321.05L70.95 321.05L70.95 53.916668Z" clip-rule="nonzero"/></clipPath><path stroke="#000000" stroke-width="2.0" stroke-linecap="butt" stroke-opacity="0.0" clip-path="url(#id_0)" d="M71.0 134.0L71.0 82.0L644.0 82.0C645.10455 82.0 646.0 82.89543 646.0 84.0L646.0 132.0C646.0 133.10457 645.10455 134.0 644.0 134.0Z" fill-rule="nonzero"/><path fill="#4285f4" clip-path="url(#id_0)" d="M71.0 134.0L71.0 82.0L644.0 82.0C645.10455 82.0 646.0 82.89543 646.0 84.0L646.0 132.0C646.0 133.10457 645.10455 134.0 644.0 134.0Z" fill-rule="nonzero"/><path stroke="#000000" stroke-width="2.0" stroke-linecap="butt" stroke-opacity="0.0" clip-path="url(#id_0)" d="M71.0 213.0L71.0 161.0L158.0 161.0C159.10457 161.0 160.0 161.89543 160.0 163.0L160.0 211.0C160.0 212.10457 159.10457 213.0 158.0 213.0Z" fill-rule="nonzero"/><path fill="#4285f4" clip-path="url(#id_0)" d="M71.0 213.0L71.0 161.0L158.0 161.0C159.10457 161.0 160.0 161.89543 160.0 163.0L160.0 211.0C160.0 212.10457 159.10457 213.0 158.0 213.0Z" fill-rule="nonzero"/><path stroke="#000000" stroke-width="2.0" stroke-linecap="butt" stroke-opacity="0.0" clip-path="url(#id_0)" d="M71.0 293.0L71.0 241.0L407.0 241.0C408.10458 241.0 409.0 241.89543 409.0 243.0L409.0 291.0C409.0 292.10458 408.10458 293.0 407.0 293.0Z" fill-rule="nonzero"/><path fill="#4285f4" clip-path="url(#id_0)" d="M71.0 293.0L71.0 241.0L407.0 241.0C408.10458 241.0 409.0 241.89543 409.0 243.0L409.0 291.0C409.0 292.10458 408.10458 293.0 407.0 293.0Z" fill-rule="nonzero"/><path stroke="#4285f4" stroke-width="3.0" stroke-linejoin="round" stroke-linecap="round" d="M588.1343 104.578125L584.603 112.5L583.4624 112.5L586.978 104.859375L582.36865 104.859375L582.36865 103.96875L588.1343 103.96875L588.1343 104.578125ZM595.2124 112.5L589.61865 112.5L589.61865 111.71875L592.5718 108.4375Q593.228 107.6875 593.478 107.234375Q593.728 106.765625 593.728 106.265625Q593.728 105.59375 593.3218 105.171875Q592.93115 104.734375 592.24365 104.734375Q591.4468 104.734375 590.99365 105.203125Q590.5405 105.65625 590.5405 106.484375L589.4624 106.484375Q589.4624 105.296875 590.2124 104.578125Q590.978 103.84375 592.24365 103.84375Q593.4468 103.84375 594.1343 104.46875Q594.8218 105.09375 594.8218 106.140625Q594.8218 107.390625 593.2124 109.140625L590.93115 111.609375L595.2124 111.609375L595.2124 112.5ZM601.1968 109.640625L602.3843 109.640625L602.3843 110.515625L601.1968 110.515625L601.1968 112.5L600.11865 112.5L600.11865 110.515625L596.228 110.515625L596.228 109.875L600.0405 103.96875L601.1968 103.96875L601.1968 109.640625ZM597.4624 109.640625L600.11865 109.640625L600.11865 105.453125L599.978 105.6875L597.4624 109.640625ZM608.978 108.859375Q608.978 110.765625 608.3218 111.703125Q607.68115 112.625 606.2905 112.625Q604.93115 112.625 604.2749 111.71875Q603.61865 110.8125 603.5874 109.0L603.5874 107.5625Q603.5874 105.671875 604.228 104.765625Q604.8843 103.84375 606.2749 103.84375Q607.6499 103.84375 608.30615 104.734375Q608.9624 105.609375 608.978 107.453125L608.978 108.859375ZM607.8843 107.375Q607.8843 106.0 607.49365 105.375Q607.11865 104.734375 606.2749 104.734375Q605.4468 104.734375 605.05615 105.375Q604.68115 106.0 604.68115 107.296875L604.68115 109.03125Q604.68115 110.40625 605.0718 111.078125Q605.478 111.734375 606.2905 111.734375Q607.0874 111.734375 607.478 111.109375Q607.86865 110.484375 607.8843 109.15625L607.8843 107.375ZM615.353 103.96875L618.1499 110.921875L620.93115 103.96875L622.3999 103.96875L622.3999 112.5L621.2749 112.5L621.2749 109.171875L621.3843 105.59375L618.5718 112.5L617.7124 112.5L614.9155 105.609375L615.0249 109.171875L615.0249 112.5L613.8999 112.5L613.8999 103.96875L615.353 103.96875ZM623.8999 112.5L623.8999 103.96875L626.6968 103.96875Q628.0874 103.96875 628.7749 104.546875Q629.478 105.109375 629.478 106.234375Q629.478 106.84375 629.1343 107.3125Q628.80615 107.765625 628.2124 108.015625Q628.9155 108.203125 629.30615 108.75Q629.7124 109.28125 629.7124 110.03125Q629.7124 111.1875 628.9624 111.84375Q628.228 112.5 626.86865 112.5L623.8999 112.5ZM625.0249 108.515625L625.0249 111.578125L626.8843 111.578125Q627.68115 111.578125 628.1343 111.171875Q628.5874 110.765625 628.5874 110.046875Q628.5874 108.515625 626.8999 108.515625L625.0249 108.515625ZM625.0249 107.609375L626.728 107.609375Q627.4624 107.609375 627.8999 107.25Q628.353 106.875 628.353 106.234375Q628.353 105.53125 627.9468 105.21875Q627.5405 104.890625 626.6968 104.890625L625.0249 104.890625L625.0249 107.609375ZM630.9468 113.234375L630.0249 113.234375L633.5874 103.96875L634.5093 103.96875L630.9468 113.234375ZM639.43115 110.8125Q639.43115 110.375 639.0874 110.140625Q638.7593 109.890625 637.93115 109.71875Q637.11865 109.546875 636.6343 109.296875Q636.1499 109.046875 635.9155 108.71875Q635.6968 108.375 635.6968 107.90625Q635.6968 107.125 636.353 106.59375Q637.0093 106.046875 638.0405 106.046875Q639.11865 106.046875 639.7749 106.609375Q640.4468 107.15625 640.4468 108.015625L639.36865 108.015625Q639.36865 107.578125 638.978 107.265625Q638.603 106.9375 638.0405 106.9375Q637.4468 106.9375 637.103 107.203125Q636.7749 107.453125 636.7749 107.859375Q636.7749 108.25 637.0874 108.453125Q637.3999 108.65625 638.2124 108.84375Q639.0249 109.015625 639.5249 109.265625Q640.0249 109.515625 640.2593 109.875Q640.5093 110.234375 640.5093 110.734375Q640.5093 111.59375 639.8218 112.109375Q639.1499 112.625 638.0718 112.625Q637.30615 112.625 636.7124 112.359375Q636.1343 112.078125 635.80615 111.59375Q635.478 111.109375 635.478 110.546875L636.55615 110.546875Q636.5874 111.09375 636.99365 111.421875Q637.3999 111.734375 638.0718 111.734375Q638.68115 111.734375 639.05615 111.484375Q639.43115 111.234375 639.43115 110.8125Z" fill-rule="nonzero"/><path fill="#ffffff" d="M588.1343 104.578125L584.603 112.5L583.4624 112.5L586.978 104.859375L582.36865 104.859375L582.36865 103.96875L588.1343 103.96875L588.1343 104.578125ZM595.2124 112.5L589.61865 112.5L589.61865 111.71875L592.5718 108.4375Q593.228 107.6875 593.478 107.234375Q593.728 106.765625 593.728 106.265625Q593.728 105.59375 593.3218 105.171875Q592.93115 104.734375 592.24365 104.734375Q591.4468 104.734375 590.99365 105.203125Q590.5405 105.65625 590.5405 106.484375L589.4624 106.484375Q589.4624 105.296875 590.2124 104.578125Q590.978 103.84375 592.24365 103.84375Q593.4468 103.84375 594.1343 104.46875Q594.8218 105.09375 594.8218 106.140625Q594.8218 107.390625 593.2124 109.140625L590.93115 111.609375L595.2124 111.609375L595.2124 112.5ZM601.1968 109.640625L602.3843 109.640625L602.3843 110.515625L601.1968 110.515625L601.1968 112.5L600.11865 112.5L600.11865 110.515625L596.228 110.515625L596.228 109.875L600.0405 103.96875L601.1968 103.96875L601.1968 109.640625ZM597.4624 109.640625L600.11865 109.640625L600.11865 105.453125L599.978 105.6875L597.4624 109.640625ZM608.978 108.859375Q608.978 110.765625 608.3218 111.703125Q607.68115 112.625 606.2905 112.625Q604.93115 112.625 604.2749 111.71875Q603.61865 110.8125 603.5874 109.0L603.5874 107.5625Q603.5874 105.671875 604.228 104.765625Q604.8843 103.84375 606.2749 103.84375Q607.6499 103.84375 608.30615 104.734375Q608.9624 105.609375 608.978 107.453125L608.978 108.859375ZM607.8843 107.375Q607.8843 106.0 607.49365 105.375Q607.11865 104.734375 606.2749 104.734375Q605.4468 104.734375 605.05615 105.375Q604.68115 106.0 604.68115 107.296875L604.68115 109.03125Q604.68115 110.40625 605.0718 111.078125Q605.478 111.734375 606.2905 111.734375Q607.0874 111.734375 607.478 111.109375Q607.86865 110.484375 607.8843 109.15625L607.8843 107.375ZM615.353 103.96875L618.1499 110.921875L620.93115 103.96875L622.3999 103.96875L622.3999 112.5L621.2749 112.5L621.2749 109.171875L621.3843 105.59375L618.5718 112.5L617.7124 112.5L614.9155 105.609375L615.0249 109.171875L615.0249 112.5L613.8999 112.5L613.8999 103.96875L615.353 103.96875ZM623.8999 112.5L623.8999 103.96875L626.6968 103.96875Q628.0874 103.96875 628.7749 104.546875Q629.478 105.109375 629.478 106.234375Q629.478 106.84375 629.1343 107.3125Q628.80615 107.765625 628.2124 108.015625Q628.9155 108.203125 629.30615 108.75Q629.7124 109.28125 629.7124 110.03125Q629.7124 111.1875 628.9624 111.84375Q628.228 112.5 626.86865 112.5L623.8999 112.5ZM625.0249 108.515625L625.0249 111.578125L626.8843 111.578125Q627.68115 111.578125 628.1343 111.171875Q628.5874 110.765625 628.5874 110.046875Q628.5874 108.515625 626.8999 108.515625L625.0249 108.515625ZM625.0249 107.609375L626.728 107.609375Q627.4624 107.609375 627.8999 107.25Q628.353 106.875 628.353 106.234375Q628.353 105.53125 627.9468 105.21875Q627.5405 104.890625 626.6968 104.890625L625.0249 104.890625L625.0249 107.609375ZM630.9468 113.234375L630.0249 113.234375L633.5874 103.96875L634.5093 103.96875L630.9468 113.234375ZM639.43115 110.8125Q639.43115 110.375 639.0874 110.140625Q638.7593 109.890625 637.93115 109.71875Q637.11865 109.546875 636.6343 109.296875Q636.1499 109.046875 635.9155 108.71875Q635.6968 108.375 635.6968 107.90625Q635.6968 107.125 636.353 106.59375Q637.0093 106.046875 638.0405 106.046875Q639.11865 106.046875 639.7749 106.609375Q640.4468 107.15625 640.4468 108.015625L639.36865 108.015625Q639.36865 107.578125 638.978 107.265625Q638.603 106.9375 638.0405 106.9375Q637.4468 106.9375 637.103 107.203125Q636.7749 107.453125 636.7749 107.859375Q636.7749 108.25 637.0874 108.453125Q637.3999 108.65625 638.2124 108.84375Q639.0249 109.015625 639.5249 109.265625Q640.0249 109.515625 640.2593 109.875Q640.5093 110.234375 640.5093 110.734375Q640.5093 111.59375 639.8218 112.109375Q639.1499 112.625 638.0718 112.625Q637.30615 112.625 636.7124 112.359375Q636.1343 112.078125 635.80615 111.59375Q635.478 111.109375 635.478 110.546875L636.55615 110.546875Q636.5874 111.09375 636.99365 111.421875Q637.3999 111.734375 638.0718 111.734375Q638.68115 111.734375 639.05615 111.484375Q639.43115 111.234375 639.43115 110.8125Z" fill-rule="nonzero"/><path stroke="#4285f4" stroke-width="3.0" stroke-linejoin="round" stroke-linecap="round" d="M100.40901 191.5L99.33089 191.5L99.33089 184.28125L97.14339 185.07812L97.14339 184.09375L100.25276 182.92188L100.40901 182.92188L100.40901 191.5ZM107.40901 191.5L106.33089 191.5L106.33089 184.28125L104.14339 185.07812L104.14339 184.09375L107.25276 182.92188L107.40901 182.92188L107.40901 191.5ZM116.44026 191.5L110.84651 191.5L110.84651 190.71875L113.79964 187.4375Q114.45589 186.6875 114.70589 186.23438Q114.95589 185.76562 114.95589 185.26562Q114.95589 184.59375 114.54964 184.17188Q114.15901 183.73438 113.47151 183.73438Q112.67464 183.73438 112.22151 184.20312Q111.76839 184.65625 111.76839 185.48438L110.69026 185.48438Q110.69026 184.29688 111.44026 183.57812Q112.20589 182.84375 113.47151 182.84375Q114.67464 182.84375 115.36214 183.46875Q116.04964 184.09375 116.04964 185.14062Q116.04964 186.39062 114.44026 188.14062L112.15901 190.60938L116.44026 190.60938L116.44026 191.5ZM121.40901 191.5L120.33089 191.5L120.33089 184.28125L118.14339 185.07812L118.14339 184.09375L121.25276 182.92188L121.40901 182.92188L121.40901 191.5ZM129.58089 182.96875L132.37776 189.92188L135.15901 182.96875L136.62776 182.96875L136.62776 191.5L135.50276 191.5L135.50276 188.17188L135.61214 184.59375L132.79964 191.5L131.94026 191.5L129.14339 184.60938L129.25276 188.17188L129.25276 191.5L128.12776 191.5L128.12776 182.96875L129.58089 182.96875ZM138.12776 191.5L138.12776 182.96875L140.92464 182.96875Q142.31526 182.96875 143.00276 183.54688Q143.70589 184.10938 143.70589 185.23438Q143.70589 185.84375 143.36214 186.3125Q143.03401 186.76562 142.44026 187.01562Q143.14339 187.20312 143.53401 187.75Q143.94026 188.28125 143.94026 189.03125Q143.94026 190.1875 143.19026 190.84375Q142.45589 191.5 141.09651 191.5L138.12776 191.5ZM139.25276 187.51562L139.25276 190.57812L141.11214 190.57812Q141.90901 190.57812 142.36214 190.17188Q142.81526 189.76562 142.81526 189.04688Q142.81526 187.51562 141.12776 187.51562L139.25276 187.51562ZM139.25276 186.60938L140.95589 186.60938Q141.69026 186.60938 142.12776 186.25Q142.58089 185.875 142.58089 185.23438Q142.58089 184.53125 142.17464 184.21875Q141.76839 183.89062 140.92464 183.89062L139.25276 183.89062L139.25276 186.60938ZM145.17464 192.23438L144.25276 192.23438L147.81526 182.96875L148.73714 182.96875L145.17464 192.23438ZM153.65901 189.8125Q153.65901 189.375 153.31526 189.14062Q152.98714 188.89062 152.15901 188.71875Q151.34651 188.54688 150.86214 188.29688Q150.37776 188.04688 150.14339 187.71875Q149.92464 187.375 149.92464 186.90625Q149.92464 186.125 150.58089 185.59375Q151.23714 185.04688 152.26839 185.04688Q153.34651 185.04688 154.00276 185.60938Q154.67464 186.15625 154.67464 187.01562L153.59651 187.01562Q153.59651 186.57812 153.20589 186.26562Q152.83089 185.9375 152.26839 185.9375Q151.67464 185.9375 151.33089 186.20312Q151.00276 186.45312 151.00276 186.85938Q151.00276 187.25 151.31526 187.45312Q151.62776 187.65625 152.44026 187.84375Q153.25276 188.01562 153.75276 188.26562Q154.25276 188.51562 154.48714 188.875Q154.73714 189.23438 154.73714 189.73438Q154.73714 190.59375 154.04964 191.10938Q153.37776 191.625 152.29964 191.625Q151.53401 191.625 150.94026 191.35938Q150.36214 191.07812 150.03401 190.59375Q149.70589 190.10938 149.70589 189.54688L150.78401 189.54688Q150.81526 190.09375 151.22151 190.42188Q151.62776 190.73438 152.29964 190.73438Q152.90901 190.73438 153.28401 190.48438Q153.65901 190.23438 153.65901 189.8125Z" fill-rule="nonzero"/><path fill="#ffffff" d="M100.40901 191.5L99.33089 191.5L99.33089 184.28125L97.14339 185.07812L97.14339 184.09375L100.25276 182.92188L100.40901 182.92188L100.40901 191.5ZM107.40901 191.5L106.33089 191.5L106.33089 184.28125L104.14339 185.07812L104.14339 184.09375L107.25276 182.92188L107.40901 182.92188L107.40901 191.5ZM116.44026 191.5L110.84651 191.5L110.84651 190.71875L113.79964 187.4375Q114.45589 186.6875 114.70589 186.23438Q114.95589 185.76562 114.95589 185.26562Q114.95589 184.59375 114.54964 184.17188Q114.15901 183.73438 113.47151 183.73438Q112.67464 183.73438 112.22151 184.20312Q111.76839 184.65625 111.76839 185.48438L110.69026 185.48438Q110.69026 184.29688 111.44026 183.57812Q112.20589 182.84375 113.47151 182.84375Q114.67464 182.84375 115.36214 183.46875Q116.04964 184.09375 116.04964 185.14062Q116.04964 186.39062 114.44026 188.14062L112.15901 190.60938L116.44026 190.60938L116.44026 191.5ZM121.40901 191.5L120.33089 191.5L120.33089 184.28125L118.14339 185.07812L118.14339 184.09375L121.25276 182.92188L121.40901 182.92188L121.40901 191.5ZM129.58089 182.96875L132.37776 189.92188L135.15901 182.96875L136.62776 182.96875L136.62776 191.5L135.50276 191.5L135.50276 188.17188L135.61214 184.59375L132.79964 191.5L131.94026 191.5L129.14339 184.60938L129.25276 188.17188L129.25276 191.5L128.12776 191.5L128.12776 182.96875L129.58089 182.96875ZM138.12776 191.5L138.12776 182.96875L140.92464 182.96875Q142.31526 182.96875 143.00276 183.54688Q143.70589 184.10938 143.70589 185.23438Q143.70589 185.84375 143.36214 186.3125Q143.03401 186.76562 142.44026 187.01562Q143.14339 187.20312 143.53401 187.75Q143.94026 188.28125 143.94026 189.03125Q143.94026 190.1875 143.19026 190.84375Q142.45589 191.5 141.09651 191.5L138.12776 191.5ZM139.25276 187.51562L139.25276 190.57812L141.11214 190.57812Q141.90901 190.57812 142.36214 190.17188Q142.81526 189.76562 142.81526 189.04688Q142.81526 187.51562 141.12776 187.51562L139.25276 187.51562ZM139.25276 186.60938L140.95589 186.60938Q141.69026 186.60938 142.12776 186.25Q142.58089 185.875 142.58089 185.23438Q142.58089 184.53125 142.17464 184.21875Q141.76839 183.89062 140.92464 183.89062L139.25276 183.89062L139.25276 186.60938ZM145.17464 192.23438L144.25276 192.23438L147.81526 182.96875L148.73714 182.96875L145.17464 192.23438ZM153.65901 189.8125Q153.65901 189.375 153.31526 189.14062Q152.98714 188.89062 152.15901 188.71875Q151.34651 188.54688 150.86214 188.29688Q150.37776 188.04688 150.14339 187.71875Q149.92464 187.375 149.92464 186.90625Q149.92464 186.125 150.58089 185.59375Q151.23714 185.04688 152.26839 185.04688Q153.34651 185.04688 154.00276 185.60938Q154.67464 186.15625 154.67464 187.01562L153.59651 187.01562Q153.59651 186.57812 153.20589 186.26562Q152.83089 185.9375 152.26839 185.9375Q151.67464 185.9375 151.33089 186.20312Q151.00276 186.45312 151.00276 186.85938Q151.00276 187.25 151.31526 187.45312Q151.62776 187.65625 152.44026 187.84375Q153.25276 188.01562 153.75276 188.26562Q154.25276 188.51562 154.48714 188.875Q154.73714 189.23438 154.73714 189.73438Q154.73714 190.59375 154.04964 191.10938Q153.37776 191.625 152.29964 191.625Q151.53401 191.625 150.94026 191.35938Q150.36214 191.07812 150.03401 190.59375Q149.70589 190.10938 149.70589 189.54688L150.78401 189.54688Q150.81526 190.09375 151.22151 190.42188Q151.62776 190.73438 152.29964 190.73438Q152.90901 190.73438 153.28401 190.48438Q153.65901 190.23438 153.65901 189.8125Z" fill-rule="nonzero"/><path stroke="#4285f4" stroke-width="3.0" stroke-linejoin="round" stroke-linecap="round" d="M350.30444 268.64062L351.49194 268.64062L351.49194 269.51562L350.30444 269.51562L350.30444 271.5L349.22632 271.5L349.22632 269.51562L345.3357 269.51562L345.3357 268.875L349.1482 262.96875L350.30444 262.96875L350.30444 268.64062ZM346.57007 268.64062L349.22632 268.64062L349.22632 264.45312L349.0857 264.6875L346.57007 268.64062ZM358.32007 271.5L352.72632 271.5L352.72632 270.71875L355.67944 267.4375Q356.3357 266.6875 356.5857 266.23438Q356.8357 265.76562 356.8357 265.26562Q356.8357 264.59375 356.42944 264.17188Q356.03882 263.73438 355.35132 263.73438Q354.55444 263.73438 354.10132 264.20312Q353.6482 264.65625 353.6482 265.48438L352.57007 265.48438Q352.57007 264.29688 353.32007 263.57812Q354.0857 262.84375 355.35132 262.84375Q356.55444 262.84375 357.24194 263.46875Q357.92944 264.09375 357.92944 265.14062Q357.92944 266.39062 356.32007 268.14062L354.03882 270.60938L358.32007 270.60938L358.32007 271.5ZM360.22632 267.21875L360.66382 262.96875L365.03882 262.96875L365.03882 263.96875L361.5857 263.96875L361.32007 266.29688Q361.9607 265.92188 362.75757 265.92188Q363.91382 265.92188 364.60132 266.70312Q365.28882 267.46875 365.28882 268.78125Q365.28882 270.09375 364.57007 270.85938Q363.86694 271.625 362.5857 271.625Q361.4607 271.625 360.74194 271.0Q360.0232 270.35938 359.92944 269.25L360.94507 269.25Q361.05444 269.98438 361.47632 270.35938Q361.8982 270.73438 362.5857 270.73438Q363.3357 270.73438 363.7732 270.21875Q364.2107 269.70312 364.2107 268.79688Q364.2107 267.9375 363.74194 267.42188Q363.2732 266.90625 362.49194 266.90625Q361.78882 266.90625 361.38257 267.20312L361.10132 267.4375L360.22632 267.21875ZM370.99194 262.96875L370.99194 263.875L370.78882 263.875Q369.5232 263.90625 368.7732 264.64062Q368.0232 265.35938 367.8982 266.67188Q368.5857 265.90625 369.74194 265.90625Q370.85132 265.90625 371.5232 266.6875Q372.19507 267.46875 372.19507 268.71875Q372.19507 270.03125 371.47632 270.82812Q370.75757 271.625 369.53882 271.625Q368.32007 271.625 367.55444 270.6875Q366.80444 269.73438 366.80444 268.25L366.80444 267.84375Q366.80444 265.48438 367.80444 264.23438Q368.80444 262.98438 370.78882 262.96875L370.99194 262.96875ZM369.57007 266.8125Q369.00757 266.8125 368.53882 267.14062Q368.07007 267.46875 367.88257 267.98438L367.88257 268.375Q367.88257 269.4375 368.35132 270.07812Q368.8357 270.71875 369.53882 270.71875Q370.2732 270.71875 370.69507 270.1875Q371.11694 269.64062 371.11694 268.76562Q371.11694 267.89062 370.69507 267.35938Q370.2732 266.8125 369.57007 266.8125ZM378.4607 262.96875L381.25757 269.92188L384.03882 262.96875L385.50757 262.96875L385.50757 271.5L384.38257 271.5L384.38257 268.17188L384.49194 264.59375L381.67944 271.5L380.82007 271.5L378.0232 264.60938L378.13257 268.17188L378.13257 271.5L377.00757 271.5L377.00757 262.96875L378.4607 262.96875ZM387.00757 271.5L387.00757 262.96875L389.80444 262.96875Q391.19507 262.96875 391.88257 263.54688Q392.5857 264.10938 392.5857 265.23438Q392.5857 265.84375 392.24194 266.3125Q391.91382 266.76562 391.32007 267.01562Q392.0232 267.20312 392.41382 267.75Q392.82007 268.28125 392.82007 269.03125Q392.82007 270.1875 392.07007 270.84375Q391.3357 271.5 389.97632 271.5L387.00757 271.5ZM388.13257 267.51562L388.13257 270.57812L389.99194 270.57812Q390.78882 270.57812 391.24194 270.17188Q391.69507 269.76562 391.69507 269.04688Q391.69507 267.51562 390.00757 267.51562L388.13257 267.51562ZM388.13257 266.60938L389.8357 266.60938Q390.57007 266.60938 391.00757 266.25Q391.4607 265.875 391.4607 265.23438Q391.4607 264.53125 391.05444 264.21875Q390.6482 263.89062 389.80444 263.89062L388.13257 263.89062L388.13257 266.60938ZM394.05444 272.23438L393.13257 272.23438L396.69507 262.96875L397.61694 262.96875L394.05444 272.23438ZM402.53882 269.8125Q402.53882 269.375 402.19507 269.14062Q401.86694 268.89062 401.03882 268.71875Q400.22632 268.54688 399.74194 268.29688Q399.25757 268.04688 399.0232 267.71875Q398.80444 267.375 398.80444 266.90625Q398.80444 266.125 399.4607 265.59375Q400.11694 265.04688 401.1482 265.04688Q402.22632 265.04688 402.88257 265.60938Q403.55444 266.15625 403.55444 267.01562L402.47632 267.01562Q402.47632 266.57812 402.0857 266.26562Q401.7107 265.9375 401.1482 265.9375Q400.55444 265.9375 400.2107 266.20312Q399.88257 266.45312 399.88257 266.85938Q399.88257 267.25 400.19507 267.45312Q400.50757 267.65625 401.32007 267.84375Q402.13257 268.01562 402.63257 268.26562Q403.13257 268.51562 403.36694 268.875Q403.61694 269.23438 403.61694 269.73438Q403.61694 270.59375 402.92944 271.10938Q402.25757 271.625 401.17944 271.625Q400.41382 271.625 399.82007 271.35938Q399.24194 271.07812 398.91382 270.59375Q398.5857 270.10938 398.5857 269.54688L399.66382 269.54688Q399.69507 270.09375 400.10132 270.42188Q400.50757 270.73438 401.17944 270.73438Q401.78882 270.73438 402.16382 270.48438Q402.53882 270.23438 402.53882 269.8125Z" fill-rule="nonzero"/><path fill="#ffffff" d="M350.30444 268.64062L351.49194 268.64062L351.49194 269.51562L350.30444 269.51562L350.30444 271.5L349.22632 271.5L349.22632 269.51562L345.3357 269.51562L345.3357 268.875L349.1482 262.96875L350.30444 262.96875L350.30444 268.64062ZM346.57007 268.64062L349.22632 268.64062L349.22632 264.45312L349.0857 264.6875L346.57007 268.64062ZM358.32007 271.5L352.72632 271.5L352.72632 270.71875L355.67944 267.4375Q356.3357 266.6875 356.5857 266.23438Q356.8357 265.76562 356.8357 265.26562Q356.8357 264.59375 356.42944 264.17188Q356.03882 263.73438 355.35132 263.73438Q354.55444 263.73438 354.10132 264.20312Q353.6482 264.65625 353.6482 265.48438L352.57007 265.48438Q352.57007 264.29688 353.32007 263.57812Q354.0857 262.84375 355.35132 262.84375Q356.55444 262.84375 357.24194 263.46875Q357.92944 264.09375 357.92944 265.14062Q357.92944 266.39062 356.32007 268.14062L354.03882 270.60938L358.32007 270.60938L358.32007 271.5ZM360.22632 267.21875L360.66382 262.96875L365.03882 262.96875L365.03882 263.96875L361.5857 263.96875L361.32007 266.29688Q361.9607 265.92188 362.75757 265.92188Q363.91382 265.92188 364.60132 266.70312Q365.28882 267.46875 365.28882 268.78125Q365.28882 270.09375 364.57007 270.85938Q363.86694 271.625 362.5857 271.625Q361.4607 271.625 360.74194 271.0Q360.0232 270.35938 359.92944 269.25L360.94507 269.25Q361.05444 269.98438 361.47632 270.35938Q361.8982 270.73438 362.5857 270.73438Q363.3357 270.73438 363.7732 270.21875Q364.2107 269.70312 364.2107 268.79688Q364.2107 267.9375 363.74194 267.42188Q363.2732 266.90625 362.49194 266.90625Q361.78882 266.90625 361.38257 267.20312L361.10132 267.4375L360.22632 267.21875ZM370.99194 262.96875L370.99194 263.875L370.78882 263.875Q369.5232 263.90625 368.7732 264.64062Q368.0232 265.35938 367.8982 266.67188Q368.5857 265.90625 369.74194 265.90625Q370.85132 265.90625 371.5232 266.6875Q372.19507 267.46875 372.19507 268.71875Q372.19507 270.03125 371.47632 270.82812Q370.75757 271.625 369.53882 271.625Q368.32007 271.625 367.55444 270.6875Q366.80444 269.73438 366.80444 268.25L366.80444 267.84375Q366.80444 265.48438 367.80444 264.23438Q368.80444 262.98438 370.78882 262.96875L370.99194 262.96875ZM369.57007 266.8125Q369.00757 266.8125 368.53882 267.14062Q368.07007 267.46875 367.88257 267.98438L367.88257 268.375Q367.88257 269.4375 368.35132 270.07812Q368.8357 270.71875 369.53882 270.71875Q370.2732 270.71875 370.69507 270.1875Q371.11694 269.64062 371.11694 268.76562Q371.11694 267.89062 370.69507 267.35938Q370.2732 266.8125 369.57007 266.8125ZM378.4607 262.96875L381.25757 269.92188L384.03882 262.96875L385.50757 262.96875L385.50757 271.5L384.38257 271.5L384.38257 268.17188L384.49194 264.59375L381.67944 271.5L380.82007 271.5L378.0232 264.60938L378.13257 268.17188L378.13257 271.5L377.00757 271.5L377.00757 262.96875L378.4607 262.96875ZM387.00757 271.5L387.00757 262.96875L389.80444 262.96875Q391.19507 262.96875 391.88257 263.54688Q392.5857 264.10938 392.5857 265.23438Q392.5857 265.84375 392.24194 266.3125Q391.91382 266.76562 391.32007 267.01562Q392.0232 267.20312 392.41382 267.75Q392.82007 268.28125 392.82007 269.03125Q392.82007 270.1875 392.07007 270.84375Q391.3357 271.5 389.97632 271.5L387.00757 271.5ZM388.13257 267.51562L388.13257 270.57812L389.99194 270.57812Q390.78882 270.57812 391.24194 270.17188Q391.69507 269.76562 391.69507 269.04688Q391.69507 267.51562 390.00757 267.51562L388.13257 267.51562ZM388.13257 266.60938L389.8357 266.60938Q390.57007 266.60938 391.00757 266.25Q391.4607 265.875 391.4607 265.23438Q391.4607 264.53125 391.05444 264.21875Q390.6482 263.89062 389.80444 263.89062L388.13257 263.89062L388.13257 266.60938ZM394.05444 272.23438L393.13257 272.23438L396.69507 262.96875L397.61694 262.96875L394.05444 272.23438ZM402.53882 269.8125Q402.53882 269.375 402.19507 269.14062Q401.86694 268.89062 401.03882 268.71875Q400.22632 268.54688 399.74194 268.29688Q399.25757 268.04688 399.0232 267.71875Q398.80444 267.375 398.80444 266.90625Q398.80444 266.125 399.4607 265.59375Q400.11694 265.04688 401.1482 265.04688Q402.22632 265.04688 402.88257 265.60938Q403.55444 266.15625 403.55444 267.01562L402.47632 267.01562Q402.47632 266.57812 402.0857 266.26562Q401.7107 265.9375 401.1482 265.9375Q400.55444 265.9375 400.2107 266.20312Q399.88257 266.45312 399.88257 266.85938Q399.88257 267.25 400.19507 267.45312Q400.50757 267.65625 401.32007 267.84375Q402.13257 268.01562 402.63257 268.26562Q403.13257 268.51562 403.36694 268.875Q403.61694 269.23438 403.61694 269.73438Q403.61694 270.59375 402.92944 271.10938Q402.25757 271.625 401.17944 271.625Q400.41382 271.625 399.82007 271.35938Q399.24194 271.07812 398.91382 270.59375Q398.5857 270.10938 398.5857 269.54688L399.66382 269.54688Q399.69507 270.09375 400.10132 270.42188Q400.50757 270.73438 401.17944 270.73438Q401.78882 270.73438 402.16382 270.48438Q402.53882 270.23438 402.53882 269.8125Z" fill-rule="nonzero"/><path fill="#000000" d="M33.871876 111.74204L33.871876 103.14829L37.121876 103.14829Q37.965626 103.14829 38.41875 103.22642Q39.059376 103.33579 39.48125 103.63267Q39.91875 103.92954 40.16875 104.46079Q40.434376 104.99204 40.434376 105.63267Q40.434376 106.72642 39.73125 107.49204Q39.04375 108.24204 37.215626 108.24204L35.0125 108.24204L35.0125 111.74204L33.871876 111.74204ZM35.0125 107.24204L37.23125 107.24204Q38.340626 107.24204 38.79375 106.83579Q39.2625 106.41392 39.2625 105.66392Q39.2625 105.13267 38.98125 104.75767Q38.715626 104.36704 38.278126 104.24204Q37.98125 104.16392 37.215626 104.16392L35.0125 104.16392L35.0125 107.24204ZM45.825 111.74204L45.825 110.82017Q45.090626 111.88267 43.840626 111.88267Q43.29375 111.88267 42.809376 111.67954Q42.340626 111.46079 42.10625 111.14829Q41.871876 110.82017 41.778126 110.35142Q41.715626 110.05454 41.715626 109.36704L41.715626 105.52329L42.778126 105.52329L42.778126 108.97642Q42.778126 109.78892 42.840626 110.08579Q42.934376 110.49204 43.246876 110.74204Q43.575 110.97642 44.059376 110.97642Q44.528126 110.97642 44.934376 110.74204Q45.35625 110.49204 45.528126 110.07017Q45.715626 109.64829 45.715626 108.85142L45.715626 105.52329L46.7625 105.52329L46.7625 111.74204L45.825 111.74204ZM48.715626 111.74204L48.715626 103.14829L49.778126 103.14829L49.778126 111.74204L48.715626 111.74204ZM51.325 109.88267L52.35625 109.72642Q52.45 110.35142 52.840626 110.67954Q53.246876 111.00767 53.98125 111.00767Q54.7 111.00767 55.04375 110.72642Q55.403126 110.42954 55.403126 110.02329Q55.403126 109.66392 55.090626 109.46079Q54.871876 109.32017 54.0125 109.10142Q52.85625 108.80454 52.403126 108.60142Q51.965626 108.38267 51.73125 108.00767Q51.496876 107.63267 51.496876 107.16392Q51.496876 106.75767 51.684376 106.39829Q51.871876 106.03892 52.2 105.80454Q52.45 105.63267 52.871876 105.50767Q53.29375 105.38267 53.79375 105.38267Q54.5125 105.38267 55.059376 105.60142Q55.621876 105.80454 55.8875 106.16392Q56.153126 106.52329 56.246876 107.11704L55.215626 107.25767Q55.153126 106.78892 54.809376 106.52329Q54.48125 106.24204 53.85625 106.24204Q53.1375 106.24204 52.825 106.49204Q52.5125 106.72642 52.5125 107.05454Q52.5125 107.25767 52.6375 107.41392Q52.778126 107.58579 53.04375 107.69517Q53.2 107.75767 53.98125 107.96079Q55.10625 108.27329 55.54375 108.46079Q55.98125 108.64829 56.23125 109.00767Q56.48125 109.36704 56.48125 109.91392Q56.48125 110.44517 56.16875 110.91392Q55.871876 111.36704 55.29375 111.63267Q54.715626 111.88267 53.98125 111.88267Q52.7625 111.88267 52.121876 111.38267Q51.496876 110.86704 51.325 109.88267ZM62.996876 109.74204L64.09062 109.86704Q63.840626 110.82017 63.1375 111.35142Q62.434376 111.88267 61.35625 111.88267Q59.996876 111.88267 59.184376 111.03892Q58.3875 110.19517 58.3875 108.67954Q58.3875 107.11704 59.2 106.25767Q60.0125 105.38267 61.29375 105.38267Q62.54375 105.38267 63.325 106.22642Q64.12187 107.07017 64.12187 108.61704Q64.12187 108.71079 64.12187 108.89829L59.48125 108.89829Q59.54375 109.92954 60.059376 110.47642Q60.575 111.00767 61.35625 111.00767Q61.934376 111.00767 62.340626 110.71079Q62.7625 110.39829 62.996876 109.74204ZM59.54375 108.03892L63.0125 108.03892Q62.95 107.24204 62.621876 106.85142Q62.10625 106.24204 61.309376 106.24204Q60.575 106.24204 60.075 106.72642Q59.590626 107.21079 59.54375 108.03892Z" fill-rule="nonzero"/><path fill="#000000" d="M38.059376 191.48334L38.059376 183.90521L35.23125 183.90521L35.23125 182.88959L42.04375 182.88959L42.04375 183.90521L39.2 183.90521L39.2 191.48334L38.059376 191.48334ZM42.35625 188.37396Q42.35625 186.63959 43.309376 185.81146Q44.10625 185.12396 45.2625 185.12396Q46.54375 185.12396 47.35625 185.96771Q48.184376 186.79584 48.184376 188.28021Q48.184376 189.48334 47.825 190.17084Q47.465626 190.85834 46.7625 191.24896Q46.075 191.62396 45.2625 191.62396Q43.965626 191.62396 43.153126 190.79584Q42.35625 189.95209 42.35625 188.37396ZM43.434376 188.37396Q43.434376 189.56146 43.95 190.15521Q44.48125 190.74896 45.2625 190.74896Q46.059376 190.74896 46.575 190.15521Q47.090626 189.56146 47.090626 188.34271Q47.090626 187.18646 46.559376 186.59271Q46.04375 185.99896 45.2625 185.99896Q44.48125 185.99896 43.95 186.59271Q43.434376 187.17084 43.434376 188.37396ZM49.746876 191.48334L49.746876 182.88959L50.809376 182.88959L50.809376 187.79584L53.29375 185.26459L54.66875 185.26459L52.278126 187.56146L54.903126 191.48334L53.60625 191.48334L51.54375 188.29584L50.809376 189.01459L50.809376 191.48334L49.746876 191.48334ZM55.746876 184.10834L55.746876 182.88959L56.809376 182.88959L56.809376 184.10834L55.746876 184.10834ZM55.746876 191.48334L55.746876 185.26459L56.809376 185.26459L56.809376 191.48334L55.746876 191.48334ZM58.35625 188.37396Q58.35625 186.63959 59.309376 185.81146Q60.10625 185.12396 61.2625 185.12396Q62.54375 185.12396 63.35625 185.96771Q64.18437 186.79584 64.18437 188.28021Q64.18437 189.48334 63.825 190.17084Q63.465626 190.85834 62.7625 191.24896Q62.075 191.62396 61.2625 191.62396Q59.965626 191.62396 59.153126 190.79584Q58.35625 189.95209 58.35625 188.37396ZM59.434376 188.37396Q59.434376 189.56146 59.95 190.15521Q60.48125 190.74896 61.2625 190.74896Q62.059376 190.74896 62.575 190.15521Q63.090626 189.56146 63.090626 188.34271Q63.090626 187.18646 62.559376 186.59271Q62.04375 185.99896 61.2625 185.99896Q60.48125 185.99896 59.95 186.59271Q59.434376 187.17084 59.434376 188.37396Z" fill-rule="nonzero"/><path fill="#000000" d="M18.871876 271.22464L18.871876 262.6309L20.028126 262.6309L24.54375 269.3809L24.54375 262.6309L25.6375 262.6309L25.6375 271.22464L24.465626 271.22464L19.95 264.47464L19.95 271.22464L18.871876 271.22464ZM27.35625 268.11526Q27.35625 266.3809 28.309376 265.55276Q29.10625 264.86526 30.2625 264.86526Q31.54375 264.86526 32.35625 265.709Q33.184376 266.53714 33.184376 268.0215Q33.184376 269.22464 32.825 269.91214Q32.465626 270.59964 31.7625 270.99026Q31.075 271.36526 30.2625 271.36526Q28.965626 271.36526 28.153126 270.53714Q27.35625 269.6934 27.35625 268.11526ZM28.434376 268.11526Q28.434376 269.30276 28.95 269.8965Q29.48125 270.49026 30.2625 270.49026Q31.059376 270.49026 31.575 269.8965Q32.090626 269.30276 32.090626 268.084Q32.090626 266.92776 31.559376 266.334Q31.04375 265.74026 30.2625 265.74026Q29.48125 265.74026 28.95 266.334Q28.434376 266.91214 28.434376 268.11526ZM38.778126 271.22464L38.778126 270.4434Q38.184376 271.36526 37.04375 271.36526Q36.29375 271.36526 35.66875 270.959Q35.04375 270.53714 34.7 269.80276Q34.35625 269.0684 34.35625 268.11526Q34.35625 267.1934 34.66875 266.42776Q34.98125 265.66214 35.60625 265.2715Q36.23125 264.86526 36.996876 264.86526Q37.559376 264.86526 37.996876 265.09964Q38.434376 265.334 38.715626 265.709L38.715626 262.6309L39.7625 262.6309L39.7625 271.22464L38.778126 271.22464ZM35.45 268.11526Q35.45 269.3184 35.95 269.91214Q36.45 270.49026 37.1375 270.49026Q37.825 270.49026 38.309376 269.92776Q38.79375 269.36526 38.79375 268.209Q38.79375 266.92776 38.29375 266.334Q37.809376 265.74026 37.090626 265.74026Q36.3875 265.74026 35.91875 266.3184Q35.45 266.8809 35.45 268.11526ZM45.996876 269.22464L47.090626 269.34964Q46.840626 270.30276 46.1375 270.834Q45.434376 271.36526 44.35625 271.36526Q42.996876 271.36526 42.184376 270.5215Q41.3875 269.67776 41.3875 268.16214Q41.3875 266.59964 42.2 265.74026Q43.0125 264.86526 44.29375 264.86526Q45.54375 264.86526 46.325 265.709Q47.121876 266.55276 47.121876 268.09964Q47.121876 268.1934 47.121876 268.3809L42.48125 268.3809Q42.54375 269.41214 43.059376 269.959Q43.575 270.49026 44.35625 270.49026Q44.934376 270.49026 45.340626 270.1934Q45.7625 269.8809 45.996876 269.22464ZM42.54375 267.5215L46.0125 267.5215Q45.95 266.72464 45.621876 266.334Q45.10625 265.72464 44.309376 265.72464Q43.575 265.72464 43.075 266.209Q42.590626 266.6934 42.54375 267.5215ZM49.04375 271.22464L49.04375 270.0215L50.246876 270.0215L50.246876 271.22464L49.04375 271.22464ZM51.29375 268.78714L52.325 268.6465Q52.35625 269.6309 52.684376 269.99026Q53.0125 270.34964 53.60625 270.34964Q54.028126 270.34964 54.340626 270.16214Q54.653126 269.959 54.7625 269.6309Q54.8875 269.28714 54.8875 268.55276L54.8875 262.6309L56.0125 262.6309L56.0125 268.49026Q56.0125 269.5684 55.746876 270.16214Q55.496876 270.7559 54.934376 271.0684Q54.371876 271.36526 53.60625 271.36526Q52.48125 271.36526 51.871876 270.72464Q51.278126 270.0684 51.29375 268.78714ZM57.496876 268.459L58.559376 268.36526Q58.6375 269.0215 58.91875 269.42776Q59.2 269.834 59.778126 270.09964Q60.371876 270.34964 61.10625 270.34964Q61.746876 270.34964 62.246876 270.16214Q62.746876 269.959 62.98125 269.6309Q63.23125 269.28714 63.23125 268.8965Q63.23125 268.49026 62.996876 268.1934Q62.7625 267.8809 62.23125 267.67776Q61.871876 267.53714 60.684376 267.2559Q59.5125 266.97464 59.04375 266.72464Q58.41875 266.3965 58.121876 265.92776Q57.825 265.4434 57.825 264.84964Q57.825 264.209 58.184376 263.6465Q58.559376 263.0684 59.2625 262.78714Q59.98125 262.49026 60.840626 262.49026Q61.79375 262.49026 62.528126 262.80276Q63.2625 263.09964 63.653126 263.709Q64.04375 264.30276 64.075 265.05276L62.98125 265.1309Q62.8875 264.3184 62.371876 263.91214Q61.871876 263.49026 60.8875 263.49026Q59.85625 263.49026 59.3875 263.86526Q58.91875 264.24026 58.91875 264.7715Q58.91875 265.24026 59.246876 265.53714Q59.575 265.834 60.95 266.1465Q62.340626 266.459 62.85625 266.6934Q63.60625 267.05276 63.965626 267.584Q64.325 268.09964 64.325 268.80276Q64.325 269.49026 63.934376 270.09964Q63.54375 270.6934 62.809376 271.03714Q62.075 271.36526 61.153126 271.36526Q59.98125 271.36526 59.184376 271.03714Q58.403126 270.6934 57.95 270.0059Q57.5125 269.3184 57.496876 268.459Z" fill-rule="nonzero"/><path fill="#000000" d="M59.840626 338.05L59.840626 329.45624L61.559376 329.45624L63.590626 335.53436Q63.871876 336.39374 63.996876 336.8156Q64.1375 336.34686 64.45 335.4406L66.5125 329.45624L68.04375 329.45624L68.04375 338.05L66.95 338.05L66.95 330.8625L64.45 338.05L63.41875 338.05L60.934376 330.7375L60.934376 338.05L59.840626 338.05ZM68.825 338.05L68.825 329.45624L72.05937 329.45624Q73.04375 329.45624 73.6375 329.72186Q74.23125 329.9875 74.55937 330.53436Q74.90312 331.0656 74.90312 331.65936Q74.90312 332.20624 74.60625 332.6906Q74.30937 333.175 73.7 333.47186Q74.48125 333.70624 74.8875 334.26874Q75.30937 334.8156 75.30937 335.5656Q75.30937 336.15936 75.05937 336.6906Q74.80937 337.20624 74.43437 337.4875Q74.05937 337.76874 73.48125 337.90936Q72.91875 338.05 72.10625 338.05L68.825 338.05ZM69.96562 333.0656L71.825 333.0656Q72.575 333.0656 72.90312 332.97186Q73.34062 332.84686 73.55937 332.55Q73.77812 332.2375 73.77812 331.78436Q73.77812 331.3625 73.575 331.03436Q73.37187 330.70624 72.98125 330.59686Q72.60625 330.47186 71.68437 330.47186L69.96562 330.47186L69.96562 333.0656ZM69.96562 337.03436L72.10625 337.03436Q72.65312 337.03436 72.87187 336.9875Q73.27812 336.925 73.52812 336.76874Q73.79375 336.59686 73.96562 336.28436Q74.1375 335.97186 74.1375 335.5656Q74.1375 335.08124 73.8875 334.72186Q73.65312 334.3625 73.21562 334.22186Q72.77812 334.08124 71.95 334.08124L69.96562 334.08124L69.96562 337.03436ZM75.95 338.1906L78.43437 329.3156L79.27812 329.3156L76.79375 338.1906L75.95 338.1906ZM79.325 336.1906L80.35625 336.03436Q80.45 336.65936 80.84062 336.9875Q81.24687 337.3156 81.98125 337.3156Q82.7 337.3156 83.04375 337.03436Q83.40312 336.7375 83.40312 336.33124Q83.40312 335.97186 83.09062 335.76874Q82.87187 335.6281 82.0125 335.40936Q80.85625 335.1125 80.40312 334.90936Q79.96562 334.6906 79.73125 334.3156Q79.49687 333.9406 79.49687 333.47186Q79.49687 333.0656 79.68437 332.70624Q79.87187 332.34686 80.2 332.1125Q80.45 331.9406 80.87187 331.8156Q81.29375 331.6906 81.79375 331.6906Q82.5125 331.6906 83.05937 331.90936Q83.62187 332.1125 83.8875 332.47186Q84.15312 332.83124 84.24687 333.425L83.21562 333.5656Q83.15312 333.09686 82.80937 332.83124Q82.48125 332.55 81.85625 332.55Q81.1375 332.55 80.825 332.8Q80.5125 333.03436 80.5125 333.3625Q80.5125 333.5656 80.6375 333.72186Q80.77812 333.89374 81.04375 334.0031Q81.2 334.0656 81.98125 334.26874Q83.10625 334.58124 83.54375 334.76874Q83.98125 334.95624 84.23125 335.3156Q84.48125 335.675 84.48125 336.22186Q84.48125 336.7531 84.16875 337.22186Q83.87187 337.675 83.29375 337.9406Q82.71562 338.1906 81.98125 338.1906Q80.7625 338.1906 80.12187 337.6906Q79.49687 337.175 79.325 336.1906Z" fill-rule="nonzero"/><path fill="#000000" d="M152.26875 338.05L151.22188 338.05L151.22188 331.33124Q150.83125 331.6906 150.20625 332.0656Q149.59688 332.425 149.1125 332.59686L149.1125 331.58124Q149.9875 331.15936 150.64375 330.58124Q151.31563 329.9875 151.59688 329.425L152.26875 329.425L152.26875 338.05ZM155.3 335.78436L156.3625 335.64374Q156.53438 336.53436 156.97188 336.9406Q157.40938 337.33124 158.03438 337.33124Q158.78438 337.33124 159.3 336.8156Q159.81563 336.3 159.81563 335.53436Q159.81563 334.8156 159.33125 334.34686Q158.8625 333.8625 158.12813 333.8625Q157.83125 333.8625 157.37813 333.9875L157.50313 333.05Q157.6125 333.0656 157.675 333.0656Q158.34688 333.0656 158.87813 332.72186Q159.425 332.3625 159.425 331.6281Q159.425 331.05 159.03438 330.675Q158.64375 330.28436 158.01875 330.28436Q157.40938 330.28436 156.9875 330.675Q156.58125 331.0656 156.47188 331.83124L155.40938 331.64374Q155.59688 330.59686 156.28438 330.01874Q156.97188 329.425 157.9875 329.425Q158.69063 329.425 159.28438 329.7375Q159.87813 330.03436 160.19063 330.55Q160.50313 331.0656 160.50313 331.65936Q160.50313 332.20624 160.20625 332.675Q159.90938 333.1281 159.33125 333.39374Q160.08125 333.5656 160.50313 334.1281Q160.925 334.675 160.925 335.51874Q160.925 336.64374 160.09688 337.425Q159.28438 338.20624 158.03438 338.20624Q156.90938 338.20624 156.15938 337.53436Q155.40938 336.84686 155.3 335.78436ZM162.3 335.78436L163.3625 335.64374Q163.53438 336.53436 163.97188 336.9406Q164.40938 337.33124 165.03438 337.33124Q165.78438 337.33124 166.3 336.8156Q166.81563 336.3 166.81563 335.53436Q166.81563 334.8156 166.33125 334.34686Q165.8625 333.8625 165.12813 333.8625Q164.83125 333.8625 164.37813 333.9875L164.50313 333.05Q164.6125 333.0656 164.675 333.0656Q165.34688 333.0656 165.87813 332.72186Q166.425 332.3625 166.425 331.6281Q166.425 331.05 166.03438 330.675Q165.64375 330.28436 165.01875 330.28436Q164.40938 330.28436 163.9875 330.675Q163.58125 331.0656 163.47188 331.83124L162.40938 331.64374Q162.59688 330.59686 163.28438 330.01874Q163.97188 329.425 164.9875 329.425Q165.69063 329.425 166.28438 329.7375Q166.87813 330.03436 167.19063 330.55Q167.50313 331.0656 167.50313 331.65936Q167.50313 332.20624 167.20625 332.675Q166.90938 333.1281 166.33125 333.39374Q167.08125 333.5656 167.50313 334.1281Q167.925 334.675 167.925 335.51874Q167.925 336.64374 167.09688 337.425Q166.28438 338.20624 165.03438 338.20624Q163.90938 338.20624 163.15938 337.53436Q162.40938 336.84686 162.3 335.78436ZM169.3 335.78436L170.3625 335.64374Q170.53438 336.53436 170.97188 336.9406Q171.40938 337.33124 172.03438 337.33124Q172.78438 337.33124 173.3 336.8156Q173.81563 336.3 173.81563 335.53436Q173.81563 334.8156 173.33125 334.34686Q172.8625 333.8625 172.12813 333.8625Q171.83125 333.8625 171.37813 333.9875L171.50313 333.05Q171.6125 333.0656 171.675 333.0656Q172.34688 333.0656 172.87813 332.72186Q173.425 332.3625 173.425 331.6281Q173.425 331.05 173.03438 330.675Q172.64375 330.28436 172.01875 330.28436Q171.40938 330.28436 170.9875 330.675Q170.58125 331.0656 170.47188 331.83124L169.40938 331.64374Q169.59688 330.59686 170.28438 330.01874Q170.97188 329.425 171.9875 329.425Q172.69063 329.425 173.28438 329.7375Q173.87813 330.03436 174.19063 330.55Q174.50313 331.0656 174.50313 331.65936Q174.50313 332.20624 174.20625 332.675Q173.90938 333.1281 173.33125 333.39374Q174.08125 333.5656 174.50313 334.1281Q174.925 334.675 174.925 335.51874Q174.925 336.64374 174.09688 337.425Q173.28438 338.20624 172.03438 338.20624Q170.90938 338.20624 170.15938 337.53436Q169.40938 336.84686 169.3 335.78436ZM179.69063 338.05L179.69063 329.45624L181.40938 329.45624L183.44063 335.53436Q183.72188 336.39374 183.84688 336.8156Q183.9875 336.34686 184.3 335.4406L186.3625 329.45624L187.89375 329.45624L187.89375 338.05L186.8 338.05L186.8 330.8625L184.3 338.05L183.26875 338.05L180.78438 330.7375L180.78438 338.05L179.69063 338.05ZM188.675 338.05L188.675 329.45624L191.90938 329.45624Q192.89375 329.45624 193.4875 329.72186Q194.08125 329.9875 194.40938 330.53436Q194.75313 331.0656 194.75313 331.65936Q194.75313 332.20624 194.45625 332.6906Q194.15938 333.175 193.55 333.47186Q194.33125 333.70624 194.7375 334.26874Q195.15938 334.8156 195.15938 335.5656Q195.15938 336.15936 194.90938 336.6906Q194.65938 337.20624 194.28438 337.4875Q193.90938 337.76874 193.33125 337.90936Q192.76875 338.05 191.95625 338.05L188.675 338.05ZM189.81563 333.0656L191.675 333.0656Q192.425 333.0656 192.75313 332.97186Q193.19063 332.84686 193.40938 332.55Q193.62813 332.2375 193.62813 331.78436Q193.62813 331.3625 193.425 331.03436Q193.22188 330.70624 192.83125 330.59686Q192.45625 330.47186 191.53438 330.47186L189.81563 330.47186L189.81563 333.0656ZM189.81563 337.03436L191.95625 337.03436Q192.50313 337.03436 192.72188 336.9875Q193.12813 336.925 193.37813 336.76874Q193.64375 336.59686 193.81563 336.28436Q193.9875 335.97186 193.9875 335.5656Q193.9875 335.08124 193.7375 334.72186Q193.50313 334.3625 193.06563 334.22186Q192.62813 334.08124 191.8 334.08124L189.81563 334.08124L189.81563 337.03436ZM195.8 338.1906L198.28438 329.3156L199.12813 329.3156L196.64375 338.1906L195.8 338.1906ZM199.175 336.1906L200.20625 336.03436Q200.3 336.65936 200.69063 336.9875Q201.09688 337.3156 201.83125 337.3156Q202.55 337.3156 202.89375 337.03436Q203.25313 336.7375 203.25313 336.33124Q203.25313 335.97186 202.94063 335.76874Q202.72188 335.6281 201.8625 335.40936Q200.70625 335.1125 200.25313 334.90936Q199.81563 334.6906 199.58125 334.3156Q199.34688 333.9406 199.34688 333.47186Q199.34688 333.0656 199.53438 332.70624Q199.72188 332.34686 200.05 332.1125Q200.3 331.9406 200.72188 331.8156Q201.14375 331.6906 201.64375 331.6906Q202.3625 331.6906 202.90938 331.90936Q203.47188 332.1125 203.7375 332.47186Q204.00313 332.83124 204.09688 333.425L203.06563 333.5656Q203.00313 333.09686 202.65938 332.83124Q202.33125 332.55 201.70625 332.55Q200.9875 332.55 200.675 332.8Q200.3625 333.03436 200.3625 333.3625Q200.3625 333.5656 200.4875 333.72186Q200.62813 333.89374 200.89375 334.0031Q201.05 334.0656 201.83125 334.26874Q202.95625 334.58124 203.39375 334.76874Q203.83125 334.95624 204.08125 335.3156Q204.33125 335.675 204.33125 336.22186Q204.33125 336.7531 204.01875 337.22186Q203.72188 337.675 203.14375 337.9406Q202.56563 338.1906 201.83125 338.1906Q200.6125 338.1906 199.97188 337.6906Q199.34688 337.175 199.175 336.1906Z" fill-rule="nonzero"/><path fill="#000000" d="M259.69687 337.03436L259.69687 338.05L254.00937 338.05Q254.00937 337.675 254.13437 337.3156Q254.35312 336.7375 254.82187 336.175Q255.30624 335.6125 256.2125 334.8781Q257.61874 333.72186 258.10312 333.05Q258.60312 332.3781 258.60312 331.78436Q258.60312 331.15936 258.15 330.7375Q257.69687 330.3 256.97812 330.3Q256.2125 330.3 255.75937 330.7531Q255.30624 331.20624 255.29062 332.01874L254.2125 331.90936Q254.32187 330.6906 255.04062 330.0656Q255.775 329.425 257.00937 329.425Q258.24374 329.425 258.9625 330.1125Q259.68124 330.8 259.68124 331.8156Q259.68124 332.33124 259.4625 332.83124Q259.25937 333.3156 258.75937 333.8781Q258.275 334.425 257.15 335.3781Q256.19687 336.175 255.91562 336.47186Q255.65 336.7531 255.47812 337.03436L259.69687 337.03436ZM266.61874 331.5656L265.57187 331.64374Q265.43124 331.01874 265.18124 330.7375Q264.74374 330.28436 264.11874 330.28436Q263.61874 330.28436 263.22812 330.5656Q262.74374 330.9406 262.44687 331.64374Q262.16562 332.33124 262.15 333.6125Q262.525 333.03436 263.07187 332.7531Q263.63437 332.47186 264.24374 332.47186Q265.29062 332.47186 266.025 333.2531Q266.775 334.03436 266.775 335.2531Q266.775 336.0656 266.41562 336.76874Q266.07187 337.45624 265.4625 337.83124Q264.85312 338.1906 264.0875 338.1906Q262.75937 338.1906 261.93124 337.22186Q261.10312 336.2531 261.10312 334.03436Q261.10312 331.53436 262.025 330.40936Q262.82187 329.425 264.18124 329.425Q265.19687 329.425 265.8375 330.0031Q266.49374 330.5656 266.61874 331.5656ZM262.32187 335.26874Q262.32187 335.8156 262.54062 336.3156Q262.775 336.8 263.18124 337.0656Q263.60312 337.33124 264.07187 337.33124Q264.72812 337.33124 265.2125 336.8Q265.69687 336.2531 265.69687 335.33124Q265.69687 334.4406 265.2125 333.925Q264.74374 333.40936 264.025 333.40936Q263.30624 333.40936 262.80624 333.925Q262.32187 334.4406 262.32187 335.26874ZM273.61874 331.5656L272.57187 331.64374Q272.43124 331.01874 272.18124 330.7375Q271.74374 330.28436 271.11874 330.28436Q270.61874 330.28436 270.22812 330.5656Q269.74374 330.9406 269.44687 331.64374Q269.16562 332.33124 269.15 333.6125Q269.525 333.03436 270.07187 332.7531Q270.63437 332.47186 271.24374 332.47186Q272.29062 332.47186 273.025 333.2531Q273.775 334.03436 273.775 335.2531Q273.775 336.0656 273.41562 336.76874Q273.07187 337.45624 272.4625 337.83124Q271.85312 338.1906 271.0875 338.1906Q269.75937 338.1906 268.93124 337.22186Q268.10312 336.2531 268.10312 334.03436Q268.10312 331.53436 269.025 330.40936Q269.82187 329.425 271.18124 329.425Q272.19687 329.425 272.8375 330.0031Q273.49374 330.5656 273.61874 331.5656ZM269.32187 335.26874Q269.32187 335.8156 269.54062 336.3156Q269.775 336.8 270.18124 337.0656Q270.60312 337.33124 271.07187 337.33124Q271.72812 337.33124 272.2125 336.8Q272.69687 336.2531 272.69687 335.33124Q272.69687 334.4406 272.2125 333.925Q271.74374 333.40936 271.025 333.40936Q270.30624 333.40936 269.80624 333.925Q269.32187 334.4406 269.32187 335.26874ZM275.2125 330.58124L275.2125 329.5656L280.775 329.5656L280.775 330.39374Q279.9625 331.26874 279.15 332.72186Q278.35312 334.15936 277.91562 335.6906Q277.5875 336.76874 277.50937 338.05L276.41562 338.05Q276.43124 337.03436 276.80624 335.59686Q277.19687 334.15936 277.9 332.83124Q278.61874 331.5031 279.43124 330.58124L275.2125 330.58124ZM285.54062 338.05L285.54062 329.45624L287.25937 329.45624L289.29062 335.53436Q289.57187 336.39374 289.69687 336.8156Q289.8375 336.34686 290.15 335.4406L292.2125 329.45624L293.74374 329.45624L293.74374 338.05L292.65 338.05L292.65 330.8625L290.15 338.05L289.11874 338.05L286.63437 330.7375L286.63437 338.05L285.54062 338.05ZM294.525 338.05L294.525 329.45624L297.75937 329.45624Q298.74374 329.45624 299.3375 329.72186Q299.93124 329.9875 300.25937 330.53436Q300.60312 331.0656 300.60312 331.65936Q300.60312 332.20624 300.30624 332.6906Q300.00937 333.175 299.4 333.47186Q300.18124 333.70624 300.5875 334.26874Q301.00937 334.8156 301.00937 335.5656Q301.00937 336.15936 300.75937 336.6906Q300.50937 337.20624 300.13437 337.4875Q299.75937 337.76874 299.18124 337.90936Q298.61874 338.05 297.80624 338.05L294.525 338.05ZM295.66562 333.0656L297.525 333.0656Q298.275 333.0656 298.60312 332.97186Q299.04062 332.84686 299.25937 332.55Q299.47812 332.2375 299.47812 331.78436Q299.47812 331.3625 299.275 331.03436Q299.07187 330.70624 298.68124 330.59686Q298.30624 330.47186 297.38437 330.47186L295.66562 330.47186L295.66562 333.0656ZM295.66562 337.03436L297.80624 337.03436Q298.35312 337.03436 298.57187 336.9875Q298.97812 336.925 299.22812 336.76874Q299.49374 336.59686 299.66562 336.28436Q299.8375 335.97186 299.8375 335.5656Q299.8375 335.08124 299.5875 334.72186Q299.35312 334.3625 298.91562 334.22186Q298.47812 334.08124 297.65 334.08124L295.66562 334.08124L295.66562 337.03436ZM301.65 338.1906L304.13437 329.3156L304.97812 329.3156L302.49374 338.1906L301.65 338.1906ZM305.025 336.1906L306.05624 336.03436Q306.15 336.65936 306.54062 336.9875Q306.94687 337.3156 307.68124 337.3156Q308.4 337.3156 308.74374 337.03436Q309.10312 336.7375 309.10312 336.33124Q309.10312 335.97186 308.79062 335.76874Q308.57187 335.6281 307.7125 335.40936Q306.55624 335.1125 306.10312 334.90936Q305.66562 334.6906 305.43124 334.3156Q305.19687 333.9406 305.19687 333.47186Q305.19687 333.0656 305.38437 332.70624Q305.57187 332.34686 305.9 332.1125Q306.15 331.9406 306.57187 331.8156Q306.99374 331.6906 307.49374 331.6906Q308.2125 331.6906 308.75937 331.90936Q309.32187 332.1125 309.5875 332.47186Q309.85312 332.83124 309.94687 333.425L308.91562 333.5656Q308.85312 333.09686 308.50937 332.83124Q308.18124 332.55 307.55624 332.55Q306.8375 332.55 306.525 332.8Q306.2125 333.03436 306.2125 333.3625Q306.2125 333.5656 306.3375 333.72186Q306.47812 333.89374 306.74374 334.0031Q306.9 334.0656 307.68124 334.26874Q308.80624 334.58124 309.24374 334.76874Q309.68124 334.95624 309.93124 335.3156Q310.18124 335.675 310.18124 336.22186Q310.18124 336.7531 309.86874 337.22186Q309.57187 337.675 308.99374 337.9406Q308.41562 338.1906 307.68124 338.1906Q306.4625 338.1906 305.82187 337.6906Q305.19687 337.175 305.025 336.1906Z" fill-rule="nonzero"/><path fill="#000000" d="M363.375 338.05L363.375 335.9875L359.65625 335.9875L359.65625 335.01874L363.57812 329.45624L364.4375 329.45624L364.4375 335.01874L365.59375 335.01874L365.59375 335.9875L364.4375 335.9875L364.4375 338.05L363.375 338.05ZM363.375 335.01874L363.375 331.15936L360.6875 335.01874L363.375 335.01874ZM367.0 333.8156Q367.0 332.28436 367.3125 331.3625Q367.625 330.425 368.23438 329.925Q368.85938 329.425 369.79688 329.425Q370.48438 329.425 371.0 329.70624Q371.53125 329.9875 371.875 330.51874Q372.21875 331.03436 372.40625 331.78436Q372.59375 332.53436 372.59375 333.8156Q372.59375 335.33124 372.28125 336.2531Q371.98438 337.175 371.35938 337.6906Q370.75 338.1906 369.79688 338.1906Q368.5625 338.1906 367.84375 337.3Q367.0 336.2375 367.0 333.8156ZM368.07812 333.8156Q368.07812 335.925 368.57812 336.6281Q369.07812 337.33124 369.79688 337.33124Q370.53125 337.33124 371.01562 336.6281Q371.51562 335.925 371.51562 333.8156Q371.51562 331.6906 371.01562 331.0031Q370.53125 330.3 369.78125 330.3Q369.0625 330.3 368.625 330.90936Q368.07812 331.6906 368.07812 333.8156ZM374.0 333.8156Q374.0 332.28436 374.3125 331.3625Q374.625 330.425 375.23438 329.925Q375.85938 329.425 376.79688 329.425Q377.48438 329.425 378.0 329.70624Q378.53125 329.9875 378.875 330.51874Q379.21875 331.03436 379.40625 331.78436Q379.59375 332.53436 379.59375 333.8156Q379.59375 335.33124 379.28125 336.2531Q378.98438 337.175 378.35938 337.6906Q377.75 338.1906 376.79688 338.1906Q375.5625 338.1906 374.84375 337.3Q374.0 336.2375 374.0 333.8156ZM375.07812 333.8156Q375.07812 335.925 375.57812 336.6281Q376.07812 337.33124 376.79688 337.33124Q377.53125 337.33124 378.01562 336.6281Q378.51562 335.925 378.51562 333.8156Q378.51562 331.6906 378.01562 331.0031Q377.53125 330.3 376.78125 330.3Q376.0625 330.3 375.625 330.90936Q375.07812 331.6906 375.07812 333.8156ZM381.0 333.8156Q381.0 332.28436 381.3125 331.3625Q381.625 330.425 382.23438 329.925Q382.85938 329.425 383.79688 329.425Q384.48438 329.425 385.0 329.70624Q385.53125 329.9875 385.875 330.51874Q386.21875 331.03436 386.40625 331.78436Q386.59375 332.53436 386.59375 333.8156Q386.59375 335.33124 386.28125 336.2531Q385.98438 337.175 385.35938 337.6906Q384.75 338.1906 383.79688 338.1906Q382.5625 338.1906 381.84375 337.3Q381.0 336.2375 381.0 333.8156ZM382.07812 333.8156Q382.07812 335.925 382.57812 336.6281Q383.07812 337.33124 383.79688 337.33124Q384.53125 337.33124 385.01562 336.6281Q385.51562 335.925 385.51562 333.8156Q385.51562 331.6906 385.01562 331.0031Q384.53125 330.3 383.78125 330.3Q383.0625 330.3 382.625 330.90936Q382.07812 331.6906 382.07812 333.8156ZM391.39062 338.05L391.39062 329.45624L393.10938 329.45624L395.14062 335.53436Q395.42188 336.39374 395.54688 336.8156Q395.6875 336.34686 396.0 335.4406L398.0625 329.45624L399.59375 329.45624L399.59375 338.05L398.5 338.05L398.5 330.8625L396.0 338.05L394.96875 338.05L392.48438 330.7375L392.48438 338.05L391.39062 338.05ZM400.375 338.05L400.375 329.45624L403.60938 329.45624Q404.59375 329.45624 405.1875 329.72186Q405.78125 329.9875 406.10938 330.53436Q406.45312 331.0656 406.45312 331.65936Q406.45312 332.20624 406.15625 332.6906Q405.85938 333.175 405.25 333.47186Q406.03125 333.70624 406.4375 334.26874Q406.85938 334.8156 406.85938 335.5656Q406.85938 336.15936 406.60938 336.6906Q406.35938 337.20624 405.98438 337.4875Q405.60938 337.76874 405.03125 337.90936Q404.46875 338.05 403.65625 338.05L400.375 338.05ZM401.51562 333.0656L403.375 333.0656Q404.125 333.0656 404.45312 332.97186Q404.89062 332.84686 405.10938 332.55Q405.32812 332.2375 405.32812 331.78436Q405.32812 331.3625 405.125 331.03436Q404.92188 330.70624 404.53125 330.59686Q404.15625 330.47186 403.23438 330.47186L401.51562 330.47186L401.51562 333.0656ZM401.51562 337.03436L403.65625 337.03436Q404.20312 337.03436 404.42188 336.9875Q404.82812 336.925 405.07812 336.76874Q405.34375 336.59686 405.51562 336.28436Q405.6875 335.97186 405.6875 335.5656Q405.6875 335.08124 405.4375 334.72186Q405.20312 334.3625 404.76562 334.22186Q404.32812 334.08124 403.5 334.08124L401.51562 334.08124L401.51562 337.03436ZM407.5 338.1906L409.98438 329.3156L410.82812 329.3156L408.34375 338.1906L407.5 338.1906ZM410.875 336.1906L411.90625 336.03436Q412.0 336.65936 412.39062 336.9875Q412.79688 337.3156 413.53125 337.3156Q414.25 337.3156 414.59375 337.03436Q414.95312 336.7375 414.95312 336.33124Q414.95312 335.97186 414.64062 335.76874Q414.42188 335.6281 413.5625 335.40936Q412.40625 335.1125 411.95312 334.90936Q411.51562 334.6906 411.28125 334.3156Q411.04688 333.9406 411.04688 333.47186Q411.04688 333.0656 411.23438 332.70624Q411.42188 332.34686 411.75 332.1125Q412.0 331.9406 412.42188 331.8156Q412.84375 331.6906 413.34375 331.6906Q414.0625 331.6906 414.60938 331.90936Q415.17188 332.1125 415.4375 332.47186Q415.70312 332.83124 415.79688 333.425L414.76562 333.5656Q414.70312 333.09686 414.35938 332.83124Q414.03125 332.55 413.40625 332.55Q412.6875 332.55 412.375 332.8Q412.0625 333.03436 412.0625 333.3625Q412.0625 333.5656 412.1875 333.72186Q412.32812 333.89374 412.59375 334.0031Q412.75 334.0656 413.53125 334.26874Q414.65625 334.58124 415.09375 334.76874Q415.53125 334.95624 415.78125 335.3156Q416.03125 335.675 416.03125 336.22186Q416.03125 336.7531 415.71875 337.22186Q415.42188 337.675 414.84375 337.9406Q414.26562 338.1906 413.53125 338.1906Q412.3125 338.1906 411.67188 337.6906Q411.04688 337.175 410.875 336.1906Z" fill-rule="nonzero"/><path fill="#000000" d="M465.85 335.8L466.95938 335.70624Q467.08438 336.51874 467.52188 336.925Q467.975 337.33124 468.61563 337.33124Q469.36563 337.33124 469.89688 336.7531Q470.42813 336.175 470.42813 335.2375Q470.42813 334.33124 469.9125 333.8156Q469.4125 333.28436 468.58438 333.28436Q468.08438 333.28436 467.6625 333.51874Q467.25626 333.7531 467.02188 334.1125L466.0375 333.9875L466.86563 329.58124L471.14688 329.58124L471.14688 330.58124L467.70938 330.58124L467.25626 332.89374Q468.02188 332.34686 468.86563 332.34686Q469.99063 332.34686 470.75626 333.1281Q471.5375 333.90936 471.5375 335.14374Q471.5375 336.3 470.86563 337.15936Q470.0375 338.1906 468.61563 338.1906Q467.44376 338.1906 466.69376 337.53436Q465.95938 336.8781 465.85 335.8ZM472.85 335.78436L473.9125 335.64374Q474.08438 336.53436 474.52188 336.9406Q474.95938 337.33124 475.58438 337.33124Q476.33438 337.33124 476.85 336.8156Q477.36563 336.3 477.36563 335.53436Q477.36563 334.8156 476.88126 334.34686Q476.4125 333.8625 475.67813 333.8625Q475.38126 333.8625 474.92813 333.9875L475.05313 333.05Q475.1625 333.0656 475.225 333.0656Q475.89688 333.0656 476.42813 332.72186Q476.975 332.3625 476.975 331.6281Q476.975 331.05 476.58438 330.675Q476.19376 330.28436 475.56876 330.28436Q474.95938 330.28436 474.5375 330.675Q474.13126 331.0656 474.02188 331.83124L472.95938 331.64374Q473.14688 330.59686 473.83438 330.01874Q474.52188 329.425 475.5375 329.425Q476.24063 329.425 476.83438 329.7375Q477.42813 330.03436 477.74063 330.55Q478.05313 331.0656 478.05313 331.65936Q478.05313 332.20624 477.75626 332.675Q477.45938 333.1281 476.88126 333.39374Q477.63126 333.5656 478.05313 334.1281Q478.475 334.675 478.475 335.51874Q478.475 336.64374 477.64688 337.425Q476.83438 338.20624 475.58438 338.20624Q474.45938 338.20624 473.70938 337.53436Q472.95938 336.84686 472.85 335.78436ZM479.85 335.78436L480.9125 335.64374Q481.08438 336.53436 481.52188 336.9406Q481.95938 337.33124 482.58438 337.33124Q483.33438 337.33124 483.85 336.8156Q484.36563 336.3 484.36563 335.53436Q484.36563 334.8156 483.88126 334.34686Q483.4125 333.8625 482.67813 333.8625Q482.38126 333.8625 481.92813 333.9875L482.05313 333.05Q482.1625 333.0656 482.225 333.0656Q482.89688 333.0656 483.42813 332.72186Q483.975 332.3625 483.975 331.6281Q483.975 331.05 483.58438 330.675Q483.19376 330.28436 482.56876 330.28436Q481.95938 330.28436 481.5375 330.675Q481.13126 331.0656 481.02188 331.83124L479.95938 331.64374Q480.14688 330.59686 480.83438 330.01874Q481.52188 329.425 482.5375 329.425Q483.24063 329.425 483.83438 329.7375Q484.42813 330.03436 484.74063 330.55Q485.05313 331.0656 485.05313 331.65936Q485.05313 332.20624 484.75626 332.675Q484.45938 333.1281 483.88126 333.39374Q484.63126 333.5656 485.05313 334.1281Q485.475 334.675 485.475 335.51874Q485.475 336.64374 484.64688 337.425Q483.83438 338.20624 482.58438 338.20624Q481.45938 338.20624 480.70938 337.53436Q479.95938 336.84686 479.85 335.78436ZM486.85 335.78436L487.9125 335.64374Q488.08438 336.53436 488.52188 336.9406Q488.95938 337.33124 489.58438 337.33124Q490.33438 337.33124 490.85 336.8156Q491.36563 336.3 491.36563 335.53436Q491.36563 334.8156 490.88126 334.34686Q490.4125 333.8625 489.67813 333.8625Q489.38126 333.8625 488.92813 333.9875L489.05313 333.05Q489.1625 333.0656 489.225 333.0656Q489.89688 333.0656 490.42813 332.72186Q490.975 332.3625 490.975 331.6281Q490.975 331.05 490.58438 330.675Q490.19376 330.28436 489.56876 330.28436Q488.95938 330.28436 488.5375 330.675Q488.13126 331.0656 488.02188 331.83124L486.95938 331.64374Q487.14688 330.59686 487.83438 330.01874Q488.52188 329.425 489.5375 329.425Q490.24063 329.425 490.83438 329.7375Q491.42813 330.03436 491.74063 330.55Q492.05313 331.0656 492.05313 331.65936Q492.05313 332.20624 491.75626 332.675Q491.45938 333.1281 490.88126 333.39374Q491.63126 333.5656 492.05313 334.1281Q492.475 334.675 492.475 335.51874Q492.475 336.64374 491.64688 337.425Q490.83438 338.20624 489.58438 338.20624Q488.45938 338.20624 487.70938 337.53436Q486.95938 336.84686 486.85 335.78436ZM497.24063 338.05L497.24063 329.45624L498.95938 329.45624L500.99063 335.53436Q501.27188 336.39374 501.39688 336.8156Q501.5375 336.34686 501.85 335.4406L503.9125 329.45624L505.44376 329.45624L505.44376 338.05L504.35 338.05L504.35 330.8625L501.85 338.05L500.81876 338.05L498.33438 330.7375L498.33438 338.05L497.24063 338.05ZM506.225 338.05L506.225 329.45624L509.45938 329.45624Q510.44376 329.45624 511.0375 329.72186Q511.63126 329.9875 511.95938 330.53436Q512.3031 331.0656 512.3031 331.65936Q512.3031 332.20624 512.0062 332.6906Q511.70938 333.175 511.1 333.47186Q511.88126 333.70624 512.2875 334.26874Q512.70935 334.8156 512.70935 335.5656Q512.70935 336.15936 512.45935 336.6906Q512.20935 337.20624 511.83438 337.4875Q511.45938 337.76874 510.88126 337.90936Q510.31876 338.05 509.50626 338.05L506.225 338.05ZM507.36563 333.0656L509.225 333.0656Q509.975 333.0656 510.30313 332.97186Q510.74063 332.84686 510.95938 332.55Q511.17813 332.2375 511.17813 331.78436Q511.17813 331.3625 510.975 331.03436Q510.77188 330.70624 510.38126 330.59686Q510.00626 330.47186 509.08438 330.47186L507.36563 330.47186L507.36563 333.0656ZM507.36563 337.03436L509.50626 337.03436Q510.05313 337.03436 510.27188 336.9875Q510.67813 336.925 510.92813 336.76874Q511.19376 336.59686 511.36563 336.28436Q511.5375 335.97186 511.5375 335.5656Q511.5375 335.08124 511.2875 334.72186Q511.05313 334.3625 510.61563 334.22186Q510.17813 334.08124 509.35 334.08124L507.36563 334.08124L507.36563 337.03436ZM513.35 338.1906L515.83435 329.3156L516.6781 329.3156L514.1937 338.1906L513.35 338.1906ZM516.725 336.1906L517.7562 336.03436Q517.85 336.65936 518.2406 336.9875Q518.64685 337.3156 519.3812 337.3156Q520.1 337.3156 520.4437 337.03436Q520.8031 336.7375 520.8031 336.33124Q520.8031 335.97186 520.4906 335.76874Q520.27185 335.6281 519.4125 335.40936Q518.2562 335.1125 517.8031 334.90936Q517.3656 334.6906 517.1312 334.3156Q516.89685 333.9406 516.89685 333.47186Q516.89685 333.0656 517.08435 332.70624Q517.27185 332.34686 517.6 332.1125Q517.85 331.9406 518.27185 331.8156Q518.6937 331.6906 519.1937 331.6906Q519.9125 331.6906 520.45935 331.90936Q521.02185 332.1125 521.2875 332.47186Q521.5531 332.83124 521.64685 333.425L520.6156 333.5656Q520.5531 333.09686 520.20935 332.83124Q519.8812 332.55 519.2562 332.55Q518.5375 332.55 518.225 332.8Q517.9125 333.03436 517.9125 333.3625Q517.9125 333.5656 518.0375 333.72186Q518.1781 333.89374 518.4437 334.0031Q518.6 334.0656 519.3812 334.26874Q520.5062 334.58124 520.9437 334.76874Q521.3812 334.95624 521.6312 335.3156Q521.8812 335.675 521.8812 336.22186Q521.8812 336.7531 521.5687 337.22186Q521.27185 337.675 520.6937 337.9406Q520.1156 338.1906 519.3812 338.1906Q518.1625 338.1906 517.52185 337.6906Q516.89685 337.175 516.725 336.1906Z" fill-rule="nonzero"/><path fill="#000000" d="M577.16876 331.5656L576.1219 331.64374Q575.98126 331.01874 575.73126 330.7375Q575.29376 330.28436 574.66876 330.28436Q574.16876 330.28436 573.77814 330.5656Q573.29376 330.9406 572.9969 331.64374Q572.71564 332.33124 572.7 333.6125Q573.075 333.03436 573.6219 332.7531Q574.1844 332.47186 574.79376 332.47186Q575.84064 332.47186 576.575 333.2531Q577.325 334.03436 577.325 335.2531Q577.325 336.0656 576.96564 336.76874Q576.6219 337.45624 576.0125 337.83124Q575.40314 338.1906 574.6375 338.1906Q573.3094 338.1906 572.48126 337.22186Q571.65314 336.2531 571.65314 334.03436Q571.65314 331.53436 572.575 330.40936Q573.3719 329.425 574.73126 329.425Q575.7469 329.425 576.3875 330.0031Q577.04376 330.5656 577.16876 331.5656ZM572.8719 335.26874Q572.8719 335.8156 573.09064 336.3156Q573.325 336.8 573.73126 337.0656Q574.15314 337.33124 574.6219 337.33124Q575.27814 337.33124 575.7625 336.8Q576.2469 336.2531 576.2469 335.33124Q576.2469 334.4406 575.7625 333.925Q575.29376 333.40936 574.575 333.40936Q573.85626 333.40936 573.35626 333.925Q572.8719 334.4406 572.8719 335.26874ZM584.16876 331.5656L583.1219 331.64374Q582.98126 331.01874 582.73126 330.7375Q582.29376 330.28436 581.66876 330.28436Q581.16876 330.28436 580.77814 330.5656Q580.29376 330.9406 579.9969 331.64374Q579.71564 332.33124 579.7 333.6125Q580.075 333.03436 580.6219 332.7531Q581.1844 332.47186 581.79376 332.47186Q582.84064 332.47186 583.575 333.2531Q584.325 334.03436 584.325 335.2531Q584.325 336.0656 583.96564 336.76874Q583.6219 337.45624 583.0125 337.83124Q582.40314 338.1906 581.6375 338.1906Q580.3094 338.1906 579.48126 337.22186Q578.65314 336.2531 578.65314 334.03436Q578.65314 331.53436 579.575 330.40936Q580.3719 329.425 581.73126 329.425Q582.7469 329.425 583.3875 330.0031Q584.04376 330.5656 584.16876 331.5656ZM579.8719 335.26874Q579.8719 335.8156 580.09064 336.3156Q580.325 336.8 580.73126 337.0656Q581.15314 337.33124 581.6219 337.33124Q582.27814 337.33124 582.7625 336.8Q583.2469 336.2531 583.2469 335.33124Q583.2469 334.4406 582.7625 333.925Q582.29376 333.40936 581.575 333.40936Q580.85626 333.40936 580.35626 333.925Q579.8719 334.4406 579.8719 335.26874ZM591.16876 331.5656L590.1219 331.64374Q589.98126 331.01874 589.73126 330.7375Q589.29376 330.28436 588.66876 330.28436Q588.16876 330.28436 587.77814 330.5656Q587.29376 330.9406 586.9969 331.64374Q586.71564 332.33124 586.7 333.6125Q587.075 333.03436 587.6219 332.7531Q588.1844 332.47186 588.79376 332.47186Q589.84064 332.47186 590.575 333.2531Q591.325 334.03436 591.325 335.2531Q591.325 336.0656 590.96564 336.76874Q590.6219 337.45624 590.0125 337.83124Q589.40314 338.1906 588.6375 338.1906Q587.3094 338.1906 586.48126 337.22186Q585.65314 336.2531 585.65314 334.03436Q585.65314 331.53436 586.575 330.40936Q587.3719 329.425 588.73126 329.425Q589.7469 329.425 590.3875 330.0031Q591.04376 330.5656 591.16876 331.5656ZM586.8719 335.26874Q586.8719 335.8156 587.09064 336.3156Q587.325 336.8 587.73126 337.0656Q588.15314 337.33124 588.6219 337.33124Q589.27814 337.33124 589.7625 336.8Q590.2469 336.2531 590.2469 335.33124Q590.2469 334.4406 589.7625 333.925Q589.29376 333.40936 588.575 333.40936Q587.85626 333.40936 587.35626 333.925Q586.8719 334.4406 586.8719 335.26874ZM592.7625 330.58124L592.7625 329.5656L598.325 329.5656L598.325 330.39374Q597.5125 331.26874 596.7 332.72186Q595.90314 334.15936 595.46564 335.6906Q595.1375 336.76874 595.0594 338.05L593.96564 338.05Q593.98126 337.03436 594.35626 335.59686Q594.7469 334.15936 595.45 332.83124Q596.16876 331.5031 596.98126 330.58124L592.7625 330.58124ZM603.09064 338.05L603.09064 329.45624L604.8094 329.45624L606.84064 335.53436Q607.1219 336.39374 607.2469 336.8156Q607.3875 336.34686 607.7 335.4406L609.7625 329.45624L611.29376 329.45624L611.29376 338.05L610.2 338.05L610.2 330.8625L607.7 338.05L606.66876 338.05L604.1844 330.7375L604.1844 338.05L603.09064 338.05ZM612.075 338.05L612.075 329.45624L615.3094 329.45624Q616.29376 329.45624 616.8875 329.72186Q617.48126 329.9875 617.8094 330.53436Q618.15314 331.0656 618.15314 331.65936Q618.15314 332.20624 617.85626 332.6906Q617.5594 333.175 616.95 333.47186Q617.73126 333.70624 618.1375 334.26874Q618.5594 334.8156 618.5594 335.5656Q618.5594 336.15936 618.3094 336.6906Q618.0594 337.20624 617.6844 337.4875Q617.3094 337.76874 616.73126 337.90936Q616.16876 338.05 615.35626 338.05L612.075 338.05ZM613.21564 333.0656L615.075 333.0656Q615.825 333.0656 616.15314 332.97186Q616.59064 332.84686 616.8094 332.55Q617.02814 332.2375 617.02814 331.78436Q617.02814 331.3625 616.825 331.03436Q616.6219 330.70624 616.23126 330.59686Q615.85626 330.47186 614.9344 330.47186L613.21564 330.47186L613.21564 333.0656ZM613.21564 337.03436L615.35626 337.03436Q615.90314 337.03436 616.1219 336.9875Q616.52814 336.925 616.77814 336.76874Q617.04376 336.59686 617.21564 336.28436Q617.3875 335.97186 617.3875 335.5656Q617.3875 335.08124 617.1375 334.72186Q616.90314 334.3625 616.46564 334.22186Q616.02814 334.08124 615.2 334.08124L613.21564 334.08124L613.21564 337.03436ZM619.2 338.1906L621.6844 329.3156L622.52814 329.3156L620.04376 338.1906L619.2 338.1906ZM622.575 336.1906L623.60626 336.03436Q623.7 336.65936 624.09064 336.9875Q624.4969 337.3156 625.23126 337.3156Q625.95 337.3156 626.29376 337.03436Q626.65314 336.7375 626.65314 336.33124Q626.65314 335.97186 626.34064 335.76874Q626.1219 335.6281 625.2625 335.40936Q624.10626 335.1125 623.65314 334.90936Q623.21564 334.6906 622.98126 334.3156Q622.7469 333.9406 622.7469 333.47186Q622.7469 333.0656 622.9344 332.70624Q623.1219 332.34686 623.45 332.1125Q623.7 331.9406 624.1219 331.8156Q624.54376 331.6906 625.04376 331.6906Q625.7625 331.6906 626.3094 331.90936Q626.8719 332.1125 627.1375 332.47186Q627.40314 332.83124 627.4969 333.425L626.46564 333.5656Q626.40314 333.09686 626.0594 332.83124Q625.73126 332.55 625.10626 332.55Q624.3875 332.55 624.075 332.8Q623.7625 333.03436 623.7625 333.3625Q623.7625 333.5656 623.8875 333.72186Q624.02814 333.89374 624.29376 334.0031Q624.45 334.0656 625.23126 334.26874Q626.35626 334.58124 626.79376 334.76874Q627.23126 334.95624 627.48126 335.3156Q627.73126 335.675 627.73126 336.22186Q627.73126 336.7531 627.41876 337.22186Q627.1219 337.675 626.54376 337.9406Q625.96564 338.1906 625.23126 338.1906Q624.0125 338.1906 623.3719 337.6906Q622.7469 337.175 622.575 336.1906Z" fill-rule="nonzero"/><path fill="#757575" d="M18.85625 32.35625L20.6375 32.2Q20.7625 33.2625 21.215626 33.95Q21.684376 34.6375 22.653126 35.075Q23.6375 35.496876 24.871876 35.496876Q25.95 35.496876 26.778126 35.184376Q27.60625 34.85625 28.0125 34.29375Q28.41875 33.73125 28.41875 33.059376Q28.41875 32.3875 28.028126 31.8875Q27.6375 31.3875 26.746876 31.04375Q26.16875 30.809376 24.184376 30.340626Q22.215626 29.871876 21.434376 29.45Q20.403126 28.91875 19.903126 28.121876Q19.403126 27.325 19.403126 26.340626Q19.403126 25.246876 20.0125 24.309376Q20.621876 23.371876 21.809376 22.8875Q22.996876 22.3875 24.434376 22.3875Q26.028126 22.3875 27.246876 22.903126Q28.465626 23.41875 29.10625 24.41875Q29.7625 25.403126 29.809376 26.66875L27.996876 26.809376Q27.85625 25.45 27.0125 24.7625Q26.16875 24.059376 24.5125 24.059376Q22.79375 24.059376 21.996876 24.7Q21.215626 25.325 21.215626 26.2Q21.215626 26.98125 21.778126 27.48125Q22.325 27.98125 24.6375 28.496876Q26.95 29.0125 27.809376 29.403126Q29.059376 29.98125 29.653126 30.871876Q30.246876 31.746876 30.246876 32.903126Q30.246876 34.04375 29.590626 35.059376Q28.934376 36.075 27.7 36.6375Q26.48125 37.2 24.95 37.2Q23.0125 37.2 21.7 36.6375Q20.3875 36.059376 19.6375 34.91875Q18.8875 33.778126 18.85625 32.35625ZM39.371876 33.60625L41.184376 33.840626Q40.7625 35.41875 39.590626 36.309376Q38.434376 37.184376 36.621876 37.184376Q34.35625 37.184376 33.0125 35.79375Q31.684376 34.3875 31.684376 31.85625Q31.684376 29.23125 33.028126 27.79375Q34.371876 26.340626 36.528126 26.340626Q38.60625 26.340626 39.91875 27.7625Q41.246876 29.16875 41.246876 31.746876Q41.246876 31.903126 41.23125 32.215626L33.496876 32.215626Q33.590626 33.91875 34.465626 34.825Q35.340626 35.73125 36.6375 35.73125Q37.60625 35.73125 38.278126 35.23125Q38.965626 34.715626 39.371876 33.60625ZM33.590626 30.7625L39.3875 30.7625Q39.278126 29.465626 38.73125 28.809376Q37.8875 27.79375 36.54375 27.79375Q35.340626 27.79375 34.5125 28.60625Q33.684376 29.403126 33.590626 30.7625ZM49.8875 40.91875L49.8875 35.840626Q49.465626 36.41875 48.73125 36.809376Q47.996876 37.184376 47.16875 37.184376Q45.325 37.184376 43.98125 35.715626Q42.653126 34.23125 42.653126 31.66875Q42.653126 30.10625 43.184376 28.871876Q43.73125 27.621876 44.7625 26.98125Q45.79375 26.340626 47.028126 26.340626Q48.95 26.340626 50.059376 27.965626L50.059376 26.575L51.6375 26.575L51.6375 40.91875L49.8875 40.91875ZM44.465626 31.73125Q44.465626 33.73125 45.29375 34.73125Q46.1375 35.73125 47.309376 35.73125Q48.434376 35.73125 49.246876 34.79375Q50.059376 33.840626 50.059376 31.8875Q50.059376 29.825 49.2 28.778126Q48.340626 27.73125 47.2 27.73125Q46.059376 27.73125 45.2625 28.7Q44.465626 29.66875 44.465626 31.73125ZM61.059376 36.95L61.059376 35.41875Q59.85625 37.184376 57.778126 37.184376Q56.85625 37.184376 56.059376 36.840626Q55.2625 36.48125 54.871876 35.95Q54.496876 35.41875 54.340626 34.6375Q54.23125 34.121876 54.23125 32.996876L54.23125 26.575L55.98125 26.575L55.98125 32.325Q55.98125 33.7 56.090626 34.184376Q56.2625 34.871876 56.79375 35.278126Q57.340626 35.66875 58.121876 35.66875Q58.91875 35.66875 59.60625 35.2625Q60.309376 34.85625 60.590626 34.16875Q60.8875 33.465626 60.8875 32.1375L60.8875 26.575L62.6375 26.575L62.6375 36.95L61.059376 36.95ZM71.37187 33.60625L73.18437 33.840626Q72.7625 35.41875 71.59062 36.309376Q70.43437 37.184376 68.62187 37.184376Q66.35625 37.184376 65.0125 35.79375Q63.684376 34.3875 63.684376 31.85625Q63.684376 29.23125 65.02812 27.79375Q66.37187 26.340626 68.52812 26.340626Q70.60625 26.340626 71.91875 27.7625Q73.24687 29.16875 73.24687 31.746876Q73.24687 31.903126 73.23125 32.215626L65.49687 32.215626Q65.59062 33.91875 66.46562 34.825Q67.34062 35.73125 68.6375 35.73125Q69.60625 35.73125 70.27812 35.23125Q70.96562 34.715626 71.37187 33.60625ZM65.59062 30.7625L71.3875 30.7625Q71.27812 29.465626 70.73125 28.809376Q69.8875 27.79375 68.54375 27.79375Q67.34062 27.79375 66.5125 28.60625Q65.68437 29.403126 65.59062 30.7625ZM75.2625 36.95L75.2625 26.575L76.85625 26.575L76.85625 28.059376Q77.99687 26.340626 80.15312 26.340626Q81.09062 26.340626 81.87187 26.684376Q82.66875 27.0125 83.05937 27.559376Q83.45 28.10625 83.60625 28.85625Q83.7 29.35625 83.7 30.575L83.7 36.95L81.93437 36.95L81.93437 30.6375Q81.93437 29.559376 81.73125 29.028126Q81.52812 28.496876 80.99687 28.184376Q80.48125 27.871876 79.77812 27.871876Q78.65312 27.871876 77.84062 28.590626Q77.02812 29.29375 77.02812 31.278126L77.02812 36.95L75.2625 36.95ZM89.10625 35.371876L89.35625 36.934376Q88.62187 37.090626 88.02812 37.090626Q87.075 37.090626 86.54375 36.79375Q86.02812 36.48125 85.80937 35.996876Q85.59062 35.496876 85.59062 33.91875L85.59062 27.95L84.30937 27.95L84.30937 26.575L85.59062 26.575L85.59062 24.0125L87.34062 22.95L87.34062 26.575L89.10625 26.575L89.10625 27.95L87.34062 27.95L87.34062 34.0125Q87.34062 34.7625 87.43437 34.98125Q87.52812 35.184376 87.73125 35.325Q87.95 35.45 88.34062 35.45Q88.62187 35.45 89.10625 35.371876ZM91.27812 24.653126L91.27812 22.6375L93.04375 22.6375L93.04375 24.653126L91.27812 24.653126ZM91.27812 36.95L91.27812 26.575L93.04375 26.575L93.04375 36.95L91.27812 36.95ZM102.04375 35.66875Q101.05937 36.496876 100.15312 36.840626Q99.24687 37.184376 98.21562 37.184376Q96.5125 37.184376 95.59062 36.35625Q94.66875 35.5125 94.66875 34.215626Q94.66875 33.45 95.0125 32.825Q95.37187 32.2 95.93437 31.825Q96.49687 31.434376 97.2 31.23125Q97.71562 31.10625 98.7625 30.965626Q100.8875 30.715626 101.8875 30.371876Q101.90312 30.0125 101.90312 29.903126Q101.90312 28.840626 101.40312 28.3875Q100.73125 27.79375 99.40312 27.79375Q98.15312 27.79375 97.55937 28.23125Q96.98125 28.66875 96.7 29.778126L94.98125 29.54375Q95.21562 28.434376 95.74687 27.7625Q96.27812 27.075 97.29375 26.715626Q98.30937 26.340626 99.65312 26.340626Q100.98125 26.340626 101.80937 26.653126Q102.6375 26.965626 103.02812 27.45Q103.41875 27.91875 103.575 28.6375Q103.66875 29.090626 103.66875 30.2625L103.66875 32.60625Q103.66875 35.059376 103.77812 35.715626Q103.8875 36.35625 104.23125 36.95L102.3875 36.95Q102.12187 36.403126 102.04375 35.66875ZM101.8875 31.746876Q100.93437 32.1375 99.0125 32.403126Q97.93437 32.559376 97.48125 32.7625Q97.04375 32.95 96.79375 33.325Q96.54375 33.7 96.54375 34.16875Q96.54375 34.871876 97.075 35.340626Q97.60625 35.809376 98.6375 35.809376Q99.65312 35.809376 100.43437 35.371876Q101.23125 34.91875 101.60625 34.153126Q101.8875 33.54375 101.8875 32.3875L101.8875 31.746876ZM106.23125 36.95L106.23125 22.6375L107.98125 22.6375L107.98125 36.95L106.23125 36.95ZM116.68437 36.95L116.68437 27.95L115.1375 27.95L115.1375 26.575L116.68437 26.575L116.68437 25.48125Q116.68437 24.434376 116.87187 23.91875Q117.12187 23.23125 117.7625 22.809376Q118.40312 22.3875 119.55937 22.3875Q120.30937 22.3875 121.2 22.559376L120.93437 24.090626Q120.3875 23.996876 119.90312 23.996876Q119.10625 23.996876 118.7625 24.340626Q118.43437 24.684376 118.43437 25.621876L118.43437 26.575L120.46562 26.575L120.46562 27.95L118.43437 27.95L118.43437 36.95L116.68437 36.95ZM122.27812 24.653126L122.27812 22.6375L124.04375 22.6375L124.04375 24.653126L122.27812 24.653126ZM122.27812 36.95L122.27812 26.575L124.04375 26.575L124.04375 36.95L122.27812 36.95ZM126.23125 36.95L126.23125 22.6375L127.98125 22.6375L127.98125 36.95L126.23125 36.95ZM137.37187 33.60625L139.18437 33.840626Q138.7625 35.41875 137.59062 36.309376Q136.43437 37.184376 134.62187 37.184376Q132.35625 37.184376 131.0125 35.79375Q129.68437 34.3875 129.68437 31.85625Q129.68437 29.23125 131.02812 27.79375Q132.37187 26.340626 134.52812 26.340626Q136.60625 26.340626 137.91875 27.7625Q139.24687 29.16875 139.24687 31.746876Q139.24687 31.903126 139.23125 32.215626L131.49687 32.215626Q131.59062 33.91875 132.46562 34.825Q133.34062 35.73125 134.6375 35.73125Q135.60625 35.73125 136.27812 35.23125Q136.96562 34.715626 137.37187 33.60625ZM131.59062 30.7625L137.3875 30.7625Q137.27812 29.465626 136.73125 28.809376Q135.8875 27.79375 134.54375 27.79375Q133.34062 27.79375 132.5125 28.60625Q131.68437 29.403126 131.59062 30.7625ZM147.24687 36.95L147.24687 26.575L148.825 26.575L148.825 28.153126Q149.43437 27.04375 149.95 26.7Q150.46562 26.340626 151.075 26.340626Q151.96562 26.340626 152.8875 26.903126L152.27812 28.54375Q151.6375 28.153126 150.99687 28.153126Q150.41875 28.153126 149.95 28.5125Q149.49687 28.85625 149.29375 29.465626Q149.0125 30.403126 149.0125 31.5125L149.0125 36.95L147.24687 36.95ZM161.37187 33.60625L163.18437 33.840626Q162.7625 35.41875 161.59062 36.309376Q160.43437 37.184376 158.62187 37.184376Q156.35625 37.184376 155.0125 35.79375Q153.68437 34.3875 153.68437 31.85625Q153.68437 29.23125 155.02812 27.79375Q156.37187 26.340626 158.52812 26.340626Q160.60625 26.340626 161.91875 27.7625Q163.24687 29.16875 163.24687 31.746876Q163.24687 31.903126 163.23125 32.215626L155.49687 32.215626Q155.59062 33.91875 156.46562 34.825Q157.34062 35.73125 158.6375 35.73125Q159.60625 35.73125 160.27812 35.23125Q160.96562 34.715626 161.37187 33.60625ZM155.59062 30.7625L161.3875 30.7625Q161.27812 29.465626 160.73125 28.809376Q159.8875 27.79375 158.54375 27.79375Q157.34062 27.79375 156.5125 28.60625Q155.68437 29.403126 155.59062 30.7625ZM172.04375 35.66875Q171.05937 36.496876 170.15312 36.840626Q169.24687 37.184376 168.21562 37.184376Q166.5125 37.184376 165.59062 36.35625Q164.66875 35.5125 164.66875 34.215626Q164.66875 33.45 165.0125 32.825Q165.37187 32.2 165.93437 31.825Q166.49687 31.434376 167.2 31.23125Q167.71562 31.10625 168.7625 30.965626Q170.8875 30.715626 171.8875 30.371876Q171.90312 30.0125 171.90312 29.903126Q171.90312 28.840626 171.40312 28.3875Q170.73125 27.79375 169.40312 27.79375Q168.15312 27.79375 167.55937 28.23125Q166.98125 28.66875 166.7 29.778126L164.98125 29.54375Q165.21562 28.434376 165.74687 27.7625Q166.27812 27.075 167.29375 26.715626Q168.30937 26.340626 169.65312 26.340626Q170.98125 26.340626 171.80937 26.653126Q172.6375 26.965626 173.02812 27.45Q173.41875 27.91875 173.575 28.6375Q173.66875 29.090626 173.66875 30.2625L173.66875 32.60625Q173.66875 35.059376 173.77812 35.715626Q173.8875 36.35625 174.23125 36.95L172.3875 36.95Q172.12187 36.403126 172.04375 35.66875ZM171.8875 31.746876Q170.93437 32.1375 169.0125 32.403126Q167.93437 32.559376 167.48125 32.7625Q167.04375 32.95 166.79375 33.325Q166.54375 33.7 166.54375 34.16875Q166.54375 34.871876 167.075 35.340626Q167.60625 35.809376 168.6375 35.809376Q169.65312 35.809376 170.43437 35.371876Q171.23125 34.91875 171.60625 34.153126Q171.8875 33.54375 171.8875 32.3875L171.8875 31.746876ZM182.99687 36.95L182.99687 35.6375Q182.0125 37.184376 180.09062 37.184376Q178.85625 37.184376 177.80937 36.496876Q176.77812 35.809376 176.2 34.590626Q175.6375 33.371876 175.6375 31.778126Q175.6375 30.215626 176.15312 28.95Q176.66875 27.684376 177.7 27.0125Q178.74687 26.340626 180.0125 26.340626Q180.95 26.340626 181.68437 26.746876Q182.41875 27.1375 182.8875 27.7625L182.8875 22.6375L184.62187 22.6375L184.62187 36.95L182.99687 36.95ZM177.43437 31.778126Q177.43437 33.7625 178.27812 34.746876Q179.12187 35.73125 180.2625 35.73125Q181.41875 35.73125 182.21562 34.79375Q183.02812 33.85625 183.02812 31.91875Q183.02812 29.79375 182.2 28.79375Q181.3875 27.79375 180.18437 27.79375Q179.0125 27.79375 178.21562 28.7625Q177.43437 29.715626 177.43437 31.778126Z" fill-rule="nonzero"/></svg>