<svg version="1.1" viewBox="0.0 0.0 724.0 270.0" fill="none" stroke="none" stroke-linecap="square" stroke-miterlimit="10" width="724" height="270" xmlns:xlink="http://www.w3.org/1999/xlink" xmlns="http://www.w3.org/2000/svg"><path fill="#ffffff" d="M0 0L724.0 0L724.0 270.0L0 270.0L0 0Z" fill-rule="nonzero"/><path stroke="#333333" stroke-width="1.0" stroke-linecap="butt" d="M66.5 46.5L66.5 236.5" fill-rule="nonzero"/><path stroke="#cccccc" stroke-width="1.0" stroke-linecap="butt" d="M173.5 46.5L173.5 236.5" fill-rule="nonzero"/><path stroke="#cccccc" stroke-width="1.0" stroke-linecap="butt" d="M281.5 46.5L281.5 236.5" fill-rule="nonzero"/><path stroke="#cccccc" stroke-width="1.0" stroke-linecap="butt" d="M388.5 46.5L388.5 236.5" fill-rule="nonzero"/><path stroke="#cccccc" stroke-width="1.0" stroke-linecap="butt" d="M495.5 46.5L495.5 236.5" fill-rule="nonzero"/><path stroke="#cccccc" stroke-width="1.0" stroke-linecap="butt" d="M603.5 46.5L603.5 236.5" fill-rule="nonzero"/><path stroke="#cccccc" stroke-width="1.0" stroke-linecap="butt" d="M710.5 46.5L710.5 236.5" fill-rule="nonzero"/><path stroke="#e6e6e6" stroke-width="1.0" stroke-linecap="butt" d="M102.5 46.5L102.5 236.5" fill-rule="nonzero"/><path stroke="#e6e6e6" stroke-width="1.0" stroke-linecap="butt" d="M138.5 46.5L138.5 236.5" fill-rule="nonzero"/><path stroke="#e6e6e6" stroke-width="1.0" stroke-linecap="butt" d="M209.5 46.5L209.5 236.5" fill-rule="nonzero"/><path stroke="#e6e6e6" stroke-width="1.0" stroke-linecap="butt" d="M245.5 46.5L245.5 236.5" fill-rule="nonzero"/><path stroke="#e6e6e6" stroke-width="1.0" stroke-linecap="butt" d="M316.5 46.5L316.5 236.5" fill-rule="nonzero"/><path stroke="#e6e6e6" stroke-width="1.0" stroke-linecap="butt" d="M352.5 46.5L352.5 236.5" fill-rule="nonzero"/><path stroke="#e6e6e6" stroke-width="1.0" stroke-linecap="butt" d="M424.5 46.5L424.5 236.5" fill-rule="nonzero"/><path stroke="#e6e6e6" stroke-width="1.0" stroke-linecap="butt" d="M460.5 46.5L460.5 236.5" fill-rule="nonzero"/><path stroke="#e6e6e6" stroke-width="1.0" stroke-linecap="butt" d="M531.5 46.5L531.5 236.5" fill-rule="nonzero"/><path stroke="#e6e6e6" stroke-width="1.0" stroke-linecap="butt" d="M567.5 46.5L567.5 236.5" fill-rule="nonzero"/><path stroke="#e6e6e6" stroke-width="1.0" stroke-linecap="butt" d="M638.5 46.5L638.5 236.5" fill-rule="nonzero"/><path stroke="#e6e6e6" stroke-width="1.0" stroke-linecap="butt" d="M674.5 46.5L674.5 236.5" fill-rule="nonzero"/><path stroke="#000000" stroke-width="1.0" stroke-linecap="butt" d="M710.5 236.5L66.5 236.5" fill-rule="nonzero"/><clipPath id="id_0"><path d="M66.5 46.5L710.5 46.5L710.5 236.5L66.5 236.5L66.5 46.5Z" clip-rule="nonzero"/></clipPath><path stroke="#000000" stroke-width="2.0" stroke-linecap="butt" stroke-opacity="0.0" clip-path="url(#id_0)" d="M66.0 104.0L66.0 67.0L647.0 67.0C648.10455 67.0 649.0 67.89543 649.0 69.0L649.0 102.0C649.0 103.10457 648.10455 104.0 647.0 104.0Z" fill-rule="nonzero"/><path fill="#4285f4" clip-path="url(#id_0)" d="M66.0 104.0L66.0 67.0L647.0 67.0C648.10455 67.0 649.0 67.89543 649.0 69.0L649.0 102.0C649.0 103.10457 648.10455 104.0 647.0 104.0Z" fill-rule="nonzero"/><path stroke="#000000" stroke-width="2.0" stroke-linecap="butt" stroke-opacity="0.0" clip-path="url(#id_0)" d="M66.0 161.0L66.0 124.0L155.0 124.0C156.10457 124.0 157.0 124.89543 157.0 126.0L157.0 159.0C157.0 160.10457 156.10457 161.0 155.0 161.0Z" fill-rule="nonzero"/><path fill="#4285f4" clip-path="url(#id_0)" d="M66.0 161.0L66.0 124.0L155.0 124.0C156.10457 124.0 157.0 124.89543 157.0 126.0L157.0 159.0C157.0 160.10457 156.10457 161.0 155.0 161.0Z" fill-rule="nonzero"/><path stroke="#000000" stroke-width="2.0" stroke-linecap="butt" stroke-opacity="0.0" clip-path="url(#id_0)" d="M66.0 217.0L66.0 180.0L407.0 180.0C408.10458 180.0 409.0 180.89543 409.0 182.0L409.0 215.0C409.0 216.10457 408.10458 217.0 407.0 217.0Z" fill-rule="nonzero"/><path fill="#4285f4" clip-path="url(#id_0)" d="M66.0 217.0L66.0 180.0L407.0 180.0C408.10458 180.0 409.0 180.89543 409.0 182.0L409.0 215.0C409.0 216.10457 408.10458 217.0 407.0 217.0Z" fill-rule="nonzero"/><path stroke="#4285f4" stroke-width="3.0" stroke-linejoin="round" stroke-linecap="round" d="M591.7388 81.578125L588.2075 89.5L587.0669 89.5L590.5825 81.859375L585.97314 81.859375L585.97314 80.96875L591.7388 80.96875L591.7388 81.578125ZM598.8169 89.5L593.22314 89.5L593.22314 88.71875L596.1763 85.4375Q596.8325 84.6875 597.0825 84.234375Q597.3325 83.765625 597.3325 83.265625Q597.3325 82.59375 596.9263 82.171875Q596.53564 81.734375 595.84814 81.734375Q595.0513 81.734375 594.59814 82.203125Q594.145 82.65625 594.145 83.484375L593.0669 83.484375Q593.0669 82.296875 593.8169 81.578125Q594.5825 80.84375 595.84814 80.84375Q597.0513 80.84375 597.7388 81.46875Q598.4263 82.09375 598.4263 83.140625Q598.4263 84.390625 596.8169 86.140625L594.53564 88.609375L598.8169 88.609375L598.8169 89.5ZM604.8013 86.640625L605.9888 86.640625L605.9888 87.515625L604.8013 87.515625L604.8013 89.5L603.72314 89.5L603.72314 87.515625L599.8325 87.515625L599.8325 86.875L603.645 80.96875L604.8013 80.96875L604.8013 86.640625ZM601.0669 86.640625L603.72314 86.640625L603.72314 82.453125L603.5825 82.6875L601.0669 86.640625ZM612.5825 85.859375Q612.5825 87.765625 611.9263 88.703125Q611.28564 89.625 609.895 89.625Q608.53564 89.625 607.8794 88.71875Q607.22314 87.8125 607.1919 86.0L607.1919 84.5625Q607.1919 82.671875 607.8325 81.765625Q608.4888 80.84375 609.8794 80.84375Q611.2544 80.84375 611.91064 81.734375Q612.5669 82.609375 612.5825 84.453125L612.5825 85.859375ZM611.4888 84.375Q611.4888 83.0 611.09814 82.375Q610.72314 81.734375 609.8794 81.734375Q609.0513 81.734375 608.66064 82.375Q608.28564 83.0 608.28564 84.296875L608.28564 86.03125Q608.28564 87.40625 608.6763 88.078125Q609.0825 88.734375 609.895 88.734375Q610.6919 88.734375 611.0825 88.109375Q611.47314 87.484375 611.4888 86.15625L611.4888 84.375ZM618.9575 80.96875L621.7544 87.921875L624.53564 80.96875L626.0044 80.96875L626.0044 89.5L624.8794 89.5L624.8794 86.171875L624.9888 82.59375L622.1763 89.5L621.3169 89.5L618.52 82.609375L618.6294 86.171875L618.6294 89.5L617.5044 89.5L617.5044 80.96875L618.9575 80.96875ZM627.5044 89.5L627.5044 80.96875L630.3013 80.96875Q631.6919 80.96875 632.3794 81.546875Q633.0825 82.109375 633.0825 83.234375Q633.0825 83.84375 632.7388 84.3125Q632.41064 84.765625 631.8169 85.015625Q632.52 85.203125 632.91064 85.75Q633.3169 86.28125 633.3169 87.03125Q633.3169 88.1875 632.5669 88.84375Q631.8325 89.5 630.47314 89.5L627.5044 89.5ZM628.6294 85.515625L628.6294 88.578125L630.4888 88.578125Q631.28564 88.578125 631.7388 88.171875Q632.1919 87.765625 632.1919 87.046875Q632.1919 85.515625 630.5044 85.515625L628.6294 85.515625ZM628.6294 84.609375L630.3325 84.609375Q631.0669 84.609375 631.5044 84.25Q631.9575 83.875 631.9575 83.234375Q631.9575 82.53125 631.5513 82.21875Q631.145 81.890625 630.3013 81.890625L628.6294 81.890625L628.6294 84.609375ZM634.5513 90.234375L633.6294 90.234375L637.1919 80.96875L638.1138 80.96875L634.5513 90.234375ZM643.03564 87.8125Q643.03564 87.375 642.6919 87.140625Q642.3638 86.890625 641.53564 86.71875Q640.72314 86.546875 640.2388 86.296875Q639.7544 86.046875 639.52 85.71875Q639.3013 85.375 639.3013 84.90625Q639.3013 84.125 639.9575 83.59375Q640.6138 83.046875 641.645 83.046875Q642.72314 83.046875 643.3794 83.609375Q644.0513 84.15625 644.0513 85.015625L642.97314 85.015625Q642.97314 84.578125 642.5825 84.265625Q642.2075 83.9375 641.645 83.9375Q641.0513 83.9375 640.7075 84.203125Q640.3794 84.453125 640.3794 84.859375Q640.3794 85.25 640.6919 85.453125Q641.0044 85.65625 641.8169 85.84375Q642.6294 86.015625 643.1294 86.265625Q643.6294 86.515625 643.8638 86.875Q644.1138 87.234375 644.1138 87.734375Q644.1138 88.59375 643.4263 89.109375Q642.7544 89.625 641.6763 89.625Q640.91064 89.625 640.3169 89.359375Q639.7388 89.078125 639.41064 88.59375Q639.0825 88.109375 639.0825 87.546875L640.16064 87.546875Q640.1919 88.09375 640.59814 88.421875Q641.0044 88.734375 641.6763 88.734375Q642.28564 88.734375 642.66064 88.484375Q643.03564 88.234375 643.03564 87.8125Z" fill-rule="nonzero"/><path fill="#ffffff" d="M591.7388 81.578125L588.2075 89.5L587.0669 89.5L590.5825 81.859375L585.97314 81.859375L585.97314 80.96875L591.7388 80.96875L591.7388 81.578125ZM598.8169 89.5L593.22314 89.5L593.22314 88.71875L596.1763 85.4375Q596.8325 84.6875 597.0825 84.234375Q597.3325 83.765625 597.3325 83.265625Q597.3325 82.59375 596.9263 82.171875Q596.53564 81.734375 595.84814 81.734375Q595.0513 81.734375 594.59814 82.203125Q594.145 82.65625 594.145 83.484375L593.0669 83.484375Q593.0669 82.296875 593.8169 81.578125Q594.5825 80.84375 595.84814 80.84375Q597.0513 80.84375 597.7388 81.46875Q598.4263 82.09375 598.4263 83.140625Q598.4263 84.390625 596.8169 86.140625L594.53564 88.609375L598.8169 88.609375L598.8169 89.5ZM604.8013 86.640625L605.9888 86.640625L605.9888 87.515625L604.8013 87.515625L604.8013 89.5L603.72314 89.5L603.72314 87.515625L599.8325 87.515625L599.8325 86.875L603.645 80.96875L604.8013 80.96875L604.8013 86.640625ZM601.0669 86.640625L603.72314 86.640625L603.72314 82.453125L603.5825 82.6875L601.0669 86.640625ZM612.5825 85.859375Q612.5825 87.765625 611.9263 88.703125Q611.28564 89.625 609.895 89.625Q608.53564 89.625 607.8794 88.71875Q607.22314 87.8125 607.1919 86.0L607.1919 84.5625Q607.1919 82.671875 607.8325 81.765625Q608.4888 80.84375 609.8794 80.84375Q611.2544 80.84375 611.91064 81.734375Q612.5669 82.609375 612.5825 84.453125L612.5825 85.859375ZM611.4888 84.375Q611.4888 83.0 611.09814 82.375Q610.72314 81.734375 609.8794 81.734375Q609.0513 81.734375 608.66064 82.375Q608.28564 83.0 608.28564 84.296875L608.28564 86.03125Q608.28564 87.40625 608.6763 88.078125Q609.0825 88.734375 609.895 88.734375Q610.6919 88.734375 611.0825 88.109375Q611.47314 87.484375 611.4888 86.15625L611.4888 84.375ZM618.9575 80.96875L621.7544 87.921875L624.53564 80.96875L626.0044 80.96875L626.0044 89.5L624.8794 89.5L624.8794 86.171875L624.9888 82.59375L622.1763 89.5L621.3169 89.5L618.52 82.609375L618.6294 86.171875L618.6294 89.5L617.5044 89.5L617.5044 80.96875L618.9575 80.96875ZM627.5044 89.5L627.5044 80.96875L630.3013 80.96875Q631.6919 80.96875 632.3794 81.546875Q633.0825 82.109375 633.0825 83.234375Q633.0825 83.84375 632.7388 84.3125Q632.41064 84.765625 631.8169 85.015625Q632.52 85.203125 632.91064 85.75Q633.3169 86.28125 633.3169 87.03125Q633.3169 88.1875 632.5669 88.84375Q631.8325 89.5 630.47314 89.5L627.5044 89.5ZM628.6294 85.515625L628.6294 88.578125L630.4888 88.578125Q631.28564 88.578125 631.7388 88.171875Q632.1919 87.765625 632.1919 87.046875Q632.1919 85.515625 630.5044 85.515625L628.6294 85.515625ZM628.6294 84.609375L630.3325 84.609375Q631.0669 84.609375 631.5044 84.25Q631.9575 83.875 631.9575 83.234375Q631.9575 82.53125 631.5513 82.21875Q631.145 81.890625 630.3013 81.890625L628.6294 81.890625L628.6294 84.609375ZM634.5513 90.234375L633.6294 90.234375L637.1919 80.96875L638.1138 80.96875L634.5513 90.234375ZM643.03564 87.8125Q643.03564 87.375 642.6919 87.140625Q642.3638 86.890625 641.53564 86.71875Q640.72314 86.546875 640.2388 86.296875Q639.7544 86.046875 639.52 85.71875Q639.3013 85.375 639.3013 84.90625Q639.3013 84.125 639.9575 83.59375Q640.6138 83.046875 641.645 83.046875Q642.72314 83.046875 643.3794 83.609375Q644.0513 84.15625 644.0513 85.015625L642.97314 85.015625Q642.97314 84.578125 642.5825 84.265625Q642.2075 83.9375 641.645 83.9375Q641.0513 83.9375 640.7075 84.203125Q640.3794 84.453125 640.3794 84.859375Q640.3794 85.25 640.6919 85.453125Q641.0044 85.65625 641.8169 85.84375Q642.6294 86.015625 643.1294 86.265625Q643.6294 86.515625 643.8638 86.875Q644.1138 87.234375 644.1138 87.734375Q644.1138 88.59375 643.4263 89.109375Q642.7544 89.625 641.6763 89.625Q640.91064 89.625 640.3169 89.359375Q639.7388 89.078125 639.41064 88.59375Q639.0825 88.109375 639.0825 87.546875L640.16064 87.546875Q640.1919 88.09375 640.59814 88.421875Q641.0044 88.734375 641.6763 88.734375Q642.28564 88.734375 642.66064 88.484375Q643.03564 88.234375 643.03564 87.8125Z" fill-rule="nonzero"/><path stroke="#4285f4" stroke-width="3.0" stroke-linejoin="round" stroke-linecap="round" d="M97.20612 146.5L96.128 146.5L96.128 139.28125L93.9405 140.07812L93.9405 139.09375L97.04987 137.92188L97.20612 137.92188L97.20612 146.5ZM104.20612 146.5L103.128 146.5L103.128 139.28125L100.9405 140.07812L100.9405 139.09375L104.04987 137.92188L104.20612 137.92188L104.20612 146.5ZM113.23737 146.5L107.64362 146.5L107.64362 145.71875L110.59675 142.4375Q111.253 141.6875 111.503 141.23438Q111.753 140.76562 111.753 140.26562Q111.753 139.59375 111.34675 139.17188Q110.95612 138.73438 110.26862 138.73438Q109.47175 138.73438 109.01862 139.20312Q108.5655 139.65625 108.5655 140.48438L107.48737 140.48438Q107.48737 139.29688 108.23737 138.57812Q109.003 137.84375 110.26862 137.84375Q111.47175 137.84375 112.15925 138.46875Q112.84675 139.09375 112.84675 140.14062Q112.84675 141.39062 111.23737 143.14062L108.95612 145.60938L113.23737 145.60938L113.23737 146.5ZM118.20612 146.5L117.128 146.5L117.128 139.28125L114.9405 140.07812L114.9405 139.09375L118.04987 137.92188L118.20612 137.92188L118.20612 146.5ZM126.378 137.96875L129.17488 144.92188L131.95613 137.96875L133.42488 137.96875L133.42488 146.5L132.29988 146.5L132.29988 143.17188L132.40926 139.59375L129.59676 146.5L128.73738 146.5L125.9405 139.60938L126.04987 143.17188L126.04987 146.5L124.92487 146.5L124.92487 137.96875L126.378 137.96875ZM134.92488 146.5L134.92488 137.96875L137.72176 137.96875Q139.11238 137.96875 139.79988 138.54688Q140.503 139.10938 140.503 140.23438Q140.503 140.84375 140.15926 141.3125Q139.83113 141.76562 139.23738 142.01562Q139.9405 142.20312 140.33113 142.75Q140.73738 143.28125 140.73738 144.03125Q140.73738 145.1875 139.98738 145.84375Q139.253 146.5 137.89363 146.5L134.92488 146.5ZM136.04988 142.51562L136.04988 145.57812L137.90926 145.57812Q138.70613 145.57812 139.15926 145.17188Q139.61238 144.76562 139.61238 144.04688Q139.61238 142.51562 137.92488 142.51562L136.04988 142.51562ZM136.04988 141.60938L137.753 141.60938Q138.48738 141.60938 138.92488 141.25Q139.378 140.875 139.378 140.23438Q139.378 139.53125 138.97176 139.21875Q138.5655 138.89062 137.72176 138.89062L136.04988 138.89062L136.04988 141.60938ZM141.97176 147.23438L141.04988 147.23438L144.61238 137.96875L145.53426 137.96875L141.97176 147.23438ZM150.45613 144.8125Q150.45613 144.375 150.11238 144.14062Q149.78426 143.89062 148.95613 143.71875Q148.14363 143.54688 147.65926 143.29688Q147.17488 143.04688 146.9405 142.71875Q146.72176 142.375 146.72176 141.90625Q146.72176 141.125 147.378 140.59375Q148.03426 140.04688 149.0655 140.04688Q150.14363 140.04688 150.79988 140.60938Q151.47176 141.15625 151.47176 142.01562L150.39363 142.01562Q150.39363 141.57812 150.003 141.26562Q149.628 140.9375 149.0655 140.9375Q148.47176 140.9375 148.128 141.20312Q147.79988 141.45312 147.79988 141.85938Q147.79988 142.25 148.11238 142.45312Q148.42488 142.65625 149.23738 142.84375Q150.04988 143.01562 150.54988 143.26562Q151.04988 143.51562 151.28426 143.875Q151.53426 144.23438 151.53426 144.73438Q151.53426 145.59375 150.84676 146.10938Q150.17488 146.625 149.09676 146.625Q148.33113 146.625 147.73738 146.35938Q147.15926 146.07812 146.83113 145.59375Q146.503 145.10938 146.503 144.54688L147.58113 144.54688Q147.61238 145.09375 148.01863 145.42188Q148.42488 145.73438 149.09676 145.73438Q149.70613 145.73438 150.08113 145.48438Q150.45613 145.23438 150.45613 144.8125Z" fill-rule="nonzero"/><path fill="#ffffff" d="M97.20612 146.5L96.128 146.5L96.128 139.28125L93.9405 140.07812L93.9405 139.09375L97.04987 137.92188L97.20612 137.92188L97.20612 146.5ZM104.20612 146.5L103.128 146.5L103.128 139.28125L100.9405 140.07812L100.9405 139.09375L104.04987 137.92188L104.20612 137.92188L104.20612 146.5ZM113.23737 146.5L107.64362 146.5L107.64362 145.71875L110.59675 142.4375Q111.253 141.6875 111.503 141.23438Q111.753 140.76562 111.753 140.26562Q111.753 139.59375 111.34675 139.17188Q110.95612 138.73438 110.26862 138.73438Q109.47175 138.73438 109.01862 139.20312Q108.5655 139.65625 108.5655 140.48438L107.48737 140.48438Q107.48737 139.29688 108.23737 138.57812Q109.003 137.84375 110.26862 137.84375Q111.47175 137.84375 112.15925 138.46875Q112.84675 139.09375 112.84675 140.14062Q112.84675 141.39062 111.23737 143.14062L108.95612 145.60938L113.23737 145.60938L113.23737 146.5ZM118.20612 146.5L117.128 146.5L117.128 139.28125L114.9405 140.07812L114.9405 139.09375L118.04987 137.92188L118.20612 137.92188L118.20612 146.5ZM126.378 137.96875L129.17487 144.92188L131.95612 137.96875L133.42487 137.96875L133.42487 146.5L132.29987 146.5L132.29987 143.17188L132.40924 139.59375L129.59674 146.5L128.73737 146.5L125.9405 139.60938L126.04987 143.17188L126.04987 146.5L124.92487 146.5L124.92487 137.96875L126.378 137.96875ZM134.92487 146.5L134.92487 137.96875L137.72174 137.96875Q139.11237 137.96875 139.79987 138.54688Q140.50299 139.10938 140.50299 140.23438Q140.50299 140.84375 140.15924 141.3125Q139.83112 141.76562 139.23737 142.01562Q139.94049 142.20312 140.33112 142.75Q140.73737 143.28125 140.73737 144.03125Q140.73737 145.1875 139.98737 145.84375Q139.25299 146.5 137.89362 146.5L134.92487 146.5ZM136.04987 142.51562L136.04987 145.57812L137.90924 145.57812Q138.70612 145.57812 139.15924 145.17188Q139.61237 144.76562 139.61237 144.04688Q139.61237 142.51562 137.92487 142.51562L136.04987 142.51562ZM136.04987 141.60938L137.75299 141.60938Q138.48737 141.60938 138.92487 141.25Q139.37799 140.875 139.37799 140.23438Q139.37799 139.53125 138.97174 139.21875Q138.56549 138.89062 137.72174 138.89062L136.04987 138.89062L136.04987 141.60938ZM141.97174 147.23438L141.04987 147.23438L144.61237 137.96875L145.53424 137.96875L141.97174 147.23438ZM150.45612 144.8125Q150.45612 144.375 150.11237 144.14062Q149.78424 143.89062 148.95612 143.71875Q148.14362 143.54688 147.65924 143.29688Q147.17487 143.04688 146.94049 142.71875Q146.72174 142.375 146.72174 141.90625Q146.72174 141.125 147.37799 140.59375Q148.03424 140.04688 149.06549 140.04688Q150.14362 140.04688 150.79987 140.60938Q151.47174 141.15625 151.47174 142.01562L150.39362 142.01562Q150.39362 141.57812 150.00299 141.26562Q149.62799 140.9375 149.06549 140.9375Q148.47174 140.9375 148.12799 141.20312Q147.79987 141.45312 147.79987 141.85938Q147.79987 142.25 148.11237 142.45312Q148.42487 142.65625 149.23737 142.84375Q150.04987 143.01562 150.54987 143.26562Q151.04987 143.51562 151.28424 143.875Q151.53424 144.23438 151.53424 144.73438Q151.53424 145.59375 150.84674 146.10938Q150.17487 146.625 149.09674 146.625Q148.33112 146.625 147.73737 146.35938Q147.15924 146.07812 146.83112 145.59375Q146.50299 145.10938 146.50299 144.54688L147.58112 144.54688Q147.61237 145.09375 148.01862 145.42188Q148.42487 145.73438 149.09674 145.73438Q149.70612 145.73438 150.08112 145.48438Q150.45612 145.23438 150.45612 144.8125Z" fill-rule="nonzero"/><path stroke="#4285f4" stroke-width="3.0" stroke-linejoin="round" stroke-linecap="round" d="M350.58926 199.64062L351.77676 199.64062L351.77676 200.51562L350.58926 200.51562L350.58926 202.5L349.51114 202.5L349.51114 200.51562L345.6205 200.51562L345.6205 199.875L349.433 193.96875L350.58926 193.96875L350.58926 199.64062ZM346.8549 199.64062L349.51114 199.64062L349.51114 195.45312L349.3705 195.6875L346.8549 199.64062ZM358.6049 202.5L353.01114 202.5L353.01114 201.71875L355.96426 198.4375Q356.6205 197.6875 356.8705 197.23438Q357.1205 196.76562 357.1205 196.26562Q357.1205 195.59375 356.71426 195.17188Q356.32364 194.73438 355.63614 194.73438Q354.83926 194.73438 354.38614 195.20312Q353.933 195.65625 353.933 196.48438L352.8549 196.48438Q352.8549 195.29688 353.6049 194.57812Q354.3705 193.84375 355.63614 193.84375Q356.83926 193.84375 357.52676 194.46875Q358.21426 195.09375 358.21426 196.14062Q358.21426 197.39062 356.6049 199.14062L354.32364 201.60938L358.6049 201.60938L358.6049 202.5ZM360.51114 198.21875L360.94864 193.96875L365.32364 193.96875L365.32364 194.96875L361.8705 194.96875L361.6049 197.29688Q362.2455 196.92188 363.0424 196.92188Q364.19864 196.92188 364.88614 197.70312Q365.57364 198.46875 365.57364 199.78125Q365.57364 201.09375 364.8549 201.85938Q364.15176 202.625 362.8705 202.625Q361.7455 202.625 361.02676 202.0Q360.308 201.35938 360.21426 200.25L361.2299 200.25Q361.33926 200.98438 361.76114 201.35938Q362.183 201.73438 362.8705 201.73438Q363.6205 201.73438 364.058 201.21875Q364.4955 200.70312 364.4955 199.79688Q364.4955 198.9375 364.02676 198.42188Q363.558 197.90625 362.77676 197.90625Q362.07364 197.90625 361.6674 198.20312L361.38614 198.4375L360.51114 198.21875ZM371.27676 193.96875L371.27676 194.875L371.07364 194.875Q369.808 194.90625 369.058 195.64062Q368.308 196.35938 368.183 197.67188Q368.8705 196.90625 370.02676 196.90625Q371.13614 196.90625 371.808 197.6875Q372.4799 198.46875 372.4799 199.71875Q372.4799 201.03125 371.76114 201.82812Q371.0424 202.625 369.82364 202.625Q368.6049 202.625 367.83926 201.6875Q367.08926 200.73438 367.08926 199.25L367.08926 198.84375Q367.08926 196.48438 368.08926 195.23438Q369.08926 193.98438 371.07364 193.96875L371.27676 193.96875ZM369.8549 197.8125Q369.2924 197.8125 368.82364 198.14062Q368.3549 198.46875 368.1674 198.98438L368.1674 199.375Q368.1674 200.4375 368.63614 201.07812Q369.1205 201.71875 369.82364 201.71875Q370.558 201.71875 370.9799 201.1875Q371.40176 200.64062 371.40176 199.76562Q371.40176 198.89062 370.9799 198.35938Q370.558 197.8125 369.8549 197.8125ZM378.7455 193.96875L381.5424 200.92188L384.32364 193.96875L385.7924 193.96875L385.7924 202.5L384.6674 202.5L384.6674 199.17188L384.77676 195.59375L381.96426 202.5L381.1049 202.5L378.308 195.60938L378.4174 199.17188L378.4174 202.5L377.2924 202.5L377.2924 193.96875L378.7455 193.96875ZM387.2924 202.5L387.2924 193.96875L390.08926 193.96875Q391.4799 193.96875 392.1674 194.54688Q392.8705 195.10938 392.8705 196.23438Q392.8705 196.84375 392.52676 197.3125Q392.19864 197.76562 391.6049 198.01562Q392.308 198.20312 392.69864 198.75Q393.1049 199.28125 393.1049 200.03125Q393.1049 201.1875 392.3549 201.84375Q391.6205 202.5 390.26114 202.5L387.2924 202.5ZM388.4174 198.51562L388.4174 201.57812L390.27676 201.57812Q391.07364 201.57812 391.52676 201.17188Q391.9799 200.76562 391.9799 200.04688Q391.9799 198.51562 390.2924 198.51562L388.4174 198.51562ZM388.4174 197.60938L390.1205 197.60938Q390.8549 197.60938 391.2924 197.25Q391.7455 196.875 391.7455 196.23438Q391.7455 195.53125 391.33926 195.21875Q390.933 194.89062 390.08926 194.89062L388.4174 194.89062L388.4174 197.60938ZM394.33926 203.23438L393.4174 203.23438L396.9799 193.96875L397.90176 193.96875L394.33926 203.23438ZM402.82364 200.8125Q402.82364 200.375 402.4799 200.14062Q402.15176 199.89062 401.32364 199.71875Q400.51114 199.54688 400.02676 199.29688Q399.5424 199.04688 399.308 198.71875Q399.08926 198.375 399.08926 197.90625Q399.08926 197.125 399.7455 196.59375Q400.40176 196.04688 401.433 196.04688Q402.51114 196.04688 403.1674 196.60938Q403.83926 197.15625 403.83926 198.01562L402.76114 198.01562Q402.76114 197.57812 402.3705 197.26562Q401.9955 196.9375 401.433 196.9375Q400.83926 196.9375 400.4955 197.20312Q400.1674 197.45312 400.1674 197.85938Q400.1674 198.25 400.4799 198.45312Q400.7924 198.65625 401.6049 198.84375Q402.4174 199.01562 402.9174 199.26562Q403.4174 199.51562 403.65176 199.875Q403.90176 200.23438 403.90176 200.73438Q403.90176 201.59375 403.21426 202.10938Q402.5424 202.625 401.46426 202.625Q400.69864 202.625 400.1049 202.35938Q399.52676 202.07812 399.19864 201.59375Q398.8705 201.10938 398.8705 200.54688L399.94864 200.54688Q399.9799 201.09375 400.38614 201.42188Q400.7924 201.73438 401.46426 201.73438Q402.07364 201.73438 402.44864 201.48438Q402.82364 201.23438 402.82364 200.8125Z" fill-rule="nonzero"/><path fill="#ffffff" d="M350.58926 199.64062L351.77676 199.64062L351.77676 200.51562L350.58926 200.51562L350.58926 202.5L349.51114 202.5L349.51114 200.51562L345.6205 200.51562L345.6205 199.875L349.433 193.96875L350.58926 193.96875L350.58926 199.64062ZM346.8549 199.64062L349.51114 199.64062L349.51114 195.45312L349.3705 195.6875L346.8549 199.64062ZM358.6049 202.5L353.01114 202.5L353.01114 201.71875L355.96426 198.4375Q356.6205 197.6875 356.8705 197.23438Q357.1205 196.76562 357.1205 196.26562Q357.1205 195.59375 356.71426 195.17188Q356.32364 194.73438 355.63614 194.73438Q354.83926 194.73438 354.38614 195.20312Q353.933 195.65625 353.933 196.48438L352.8549 196.48438Q352.8549 195.29688 353.6049 194.57812Q354.3705 193.84375 355.63614 193.84375Q356.83926 193.84375 357.52676 194.46875Q358.21426 195.09375 358.21426 196.14062Q358.21426 197.39062 356.6049 199.14062L354.32364 201.60938L358.6049 201.60938L358.6049 202.5ZM360.51114 198.21875L360.94864 193.96875L365.32364 193.96875L365.32364 194.96875L361.8705 194.96875L361.6049 197.29688Q362.2455 196.92188 363.0424 196.92188Q364.19864 196.92188 364.88614 197.70312Q365.57364 198.46875 365.57364 199.78125Q365.57364 201.09375 364.8549 201.85938Q364.15176 202.625 362.8705 202.625Q361.7455 202.625 361.02676 202.0Q360.308 201.35938 360.21426 200.25L361.2299 200.25Q361.33926 200.98438 361.76114 201.35938Q362.183 201.73438 362.8705 201.73438Q363.6205 201.73438 364.058 201.21875Q364.4955 200.70312 364.4955 199.79688Q364.4955 198.9375 364.02676 198.42188Q363.558 197.90625 362.77676 197.90625Q362.07364 197.90625 361.6674 198.20312L361.38614 198.4375L360.51114 198.21875ZM371.27676 193.96875L371.27676 194.875L371.07364 194.875Q369.808 194.90625 369.058 195.64062Q368.308 196.35938 368.183 197.67188Q368.8705 196.90625 370.02676 196.90625Q371.13614 196.90625 371.808 197.6875Q372.4799 198.46875 372.4799 199.71875Q372.4799 201.03125 371.76114 201.82812Q371.0424 202.625 369.82364 202.625Q368.6049 202.625 367.83926 201.6875Q367.08926 200.73438 367.08926 199.25L367.08926 198.84375Q367.08926 196.48438 368.08926 195.23438Q369.08926 193.98438 371.07364 193.96875L371.27676 193.96875ZM369.8549 197.8125Q369.2924 197.8125 368.82364 198.14062Q368.3549 198.46875 368.1674 198.98438L368.1674 199.375Q368.1674 200.4375 368.63614 201.07812Q369.1205 201.71875 369.82364 201.71875Q370.558 201.71875 370.9799 201.1875Q371.40176 200.64062 371.40176 199.76562Q371.40176 198.89062 370.9799 198.35938Q370.558 197.8125 369.8549 197.8125ZM378.7455 193.96875L381.5424 200.92188L384.32364 193.96875L385.7924 193.96875L385.7924 202.5L384.6674 202.5L384.6674 199.17188L384.77676 195.59375L381.96426 202.5L381.1049 202.5L378.308 195.60938L378.4174 199.17188L378.4174 202.5L377.2924 202.5L377.2924 193.96875L378.7455 193.96875ZM387.2924 202.5L387.2924 193.96875L390.08926 193.96875Q391.4799 193.96875 392.1674 194.54688Q392.8705 195.10938 392.8705 196.23438Q392.8705 196.84375 392.52676 197.3125Q392.19864 197.76562 391.6049 198.01562Q392.308 198.20312 392.69864 198.75Q393.1049 199.28125 393.1049 200.03125Q393.1049 201.1875 392.3549 201.84375Q391.6205 202.5 390.26114 202.5L387.2924 202.5ZM388.4174 198.51562L388.4174 201.57812L390.27676 201.57812Q391.07364 201.57812 391.52676 201.17188Q391.9799 200.76562 391.9799 200.04688Q391.9799 198.51562 390.2924 198.51562L388.4174 198.51562ZM388.4174 197.60938L390.1205 197.60938Q390.8549 197.60938 391.2924 197.25Q391.7455 196.875 391.7455 196.23438Q391.7455 195.53125 391.33926 195.21875Q390.933 194.89062 390.08926 194.89062L388.4174 194.89062L388.4174 197.60938ZM394.33926 203.23438L393.4174 203.23438L396.9799 193.96875L397.90176 193.96875L394.33926 203.23438ZM402.82364 200.8125Q402.82364 200.375 402.4799 200.14062Q402.15176 199.89062 401.32364 199.71875Q400.51114 199.54688 400.02676 199.29688Q399.5424 199.04688 399.308 198.71875Q399.08926 198.375 399.08926 197.90625Q399.08926 197.125 399.7455 196.59375Q400.40176 196.04688 401.433 196.04688Q402.51114 196.04688 403.1674 196.60938Q403.83926 197.15625 403.83926 198.01562L402.76114 198.01562Q402.76114 197.57812 402.3705 197.26562Q401.9955 196.9375 401.433 196.9375Q400.83926 196.9375 400.4955 197.20312Q400.1674 197.45312 400.1674 197.85938Q400.1674 198.25 400.4799 198.45312Q400.7924 198.65625 401.6049 198.84375Q402.4174 199.01562 402.9174 199.26562Q403.4174 199.51562 403.65176 199.875Q403.90176 200.23438 403.90176 200.73438Q403.90176 201.59375 403.21426 202.10938Q402.5424 202.625 401.46426 202.625Q400.69864 202.625 400.1049 202.35938Q399.52676 202.07812 399.19864 201.59375Q398.8705 201.10938 398.8705 200.54688L399.94864 200.54688Q399.9799 201.09375 400.38614 201.42188Q400.7924 201.73438 401.46426 201.73438Q402.07364 201.73438 402.44864 201.48438Q402.82364 201.23438 402.82364 200.8125Z" fill-rule="nonzero"/><path fill="#000000" d="M29.421875 88.783585L29.421875 80.189835L32.671875 80.189835Q33.515625 80.189835 33.96875 80.26796Q34.609375 80.377335 35.03125 80.67421Q35.46875 80.971085 35.71875 81.502335Q35.984375 82.033585 35.984375 82.67421Q35.984375 83.76796 35.28125 84.533585Q34.59375 85.283585 32.765625 85.283585L30.5625 85.283585L30.5625 88.783585L29.421875 88.783585ZM30.5625 84.283585L32.78125 84.283585Q33.890625 84.283585 34.34375 83.877335Q34.8125 83.45546 34.8125 82.70546Q34.8125 82.17421 34.53125 81.79921Q34.265625 81.408585 33.828125 81.283585Q33.53125 81.20546 32.765625 81.20546L30.5625 81.20546L30.5625 84.283585ZM41.375 88.783585L41.375 87.86171Q40.640625 88.92421 39.390625 88.92421Q38.84375 88.92421 38.359375 88.721085Q37.890625 88.502335 37.65625 88.189835Q37.421875 87.86171 37.328125 87.39296Q37.265625 87.096085 37.265625 86.408585L37.265625 82.564835L38.328125 82.564835L38.328125 86.01796Q38.328125 86.83046 38.390625 87.127335Q38.484375 87.533585 38.796875 87.783585Q39.125 88.01796 39.609375 88.01796Q40.078125 88.01796 40.484375 87.783585Q40.90625 87.533585 41.078125 87.11171Q41.265625 86.689835 41.265625 85.89296L41.265625 82.564835L42.3125 82.564835L42.3125 88.783585L41.375 88.783585ZM44.265625 88.783585L44.265625 80.189835L45.328125 80.189835L45.328125 88.783585L44.265625 88.783585ZM46.875 86.92421L47.90625 86.76796Q48.0 87.39296 48.390625 87.721085Q48.796875 88.04921 49.53125 88.04921Q50.25 88.04921 50.59375 87.76796Q50.953125 87.471085 50.953125 87.064835Q50.953125 86.70546 50.640625 86.502335Q50.421875 86.36171 49.5625 86.14296Q48.40625 85.846085 47.953125 85.64296Q47.515625 85.42421 47.28125 85.04921Q47.046875 84.67421 47.046875 84.20546Q47.046875 83.79921 47.234375 83.439835Q47.421875 83.08046 47.75 82.846085Q48.0 82.67421 48.421875 82.54921Q48.84375 82.42421 49.34375 82.42421Q50.0625 82.42421 50.609375 82.64296Q51.171875 82.846085 51.4375 83.20546Q51.703125 83.564835 51.796875 84.158585L50.765625 84.29921Q50.703125 83.83046 50.359375 83.564835Q50.03125 83.283585 49.40625 83.283585Q48.6875 83.283585 48.375 83.533585Q48.0625 83.76796 48.0625 84.096085Q48.0625 84.29921 48.1875 84.45546Q48.328125 84.627335 48.59375 84.73671Q48.75 84.79921 49.53125 85.002335Q50.65625 85.314835 51.09375 85.502335Q51.53125 85.689835 51.78125 86.04921Q52.03125 86.408585 52.03125 86.95546Q52.03125 87.48671 51.71875 87.95546Q51.421875 88.408585 50.84375 88.67421Q50.265625 88.92421 49.53125 88.92421Q48.3125 88.92421 47.671875 88.42421Q47.046875 87.908585 46.875 86.92421ZM58.546875 86.783585L59.640625 86.908585Q59.390625 87.86171 58.6875 88.39296Q57.984375 88.92421 56.90625 88.92421Q55.546875 88.92421 54.734375 88.08046Q53.9375 87.23671 53.9375 85.721085Q53.9375 84.158585 54.75 83.29921Q55.5625 82.42421 56.84375 82.42421Q58.09375 82.42421 58.875 83.26796Q59.671875 84.11171 59.671875 85.658585Q59.671875 85.752335 59.671875 85.939835L55.03125 85.939835Q55.09375 86.971085 55.609375 87.51796Q56.125 88.04921 56.90625 88.04921Q57.484375 88.04921 57.890625 87.752335Q58.3125 87.439835 58.546875 86.783585ZM55.09375 85.08046L58.5625 85.08046Q58.5 84.283585 58.171875 83.89296Q57.65625 83.283585 56.859375 83.283585Q56.125 83.283585 55.625 83.76796Q55.140625 84.252335 55.09375 85.08046Z" fill-rule="nonzero"/><path fill="#000000" d="M33.609375 145.5L33.609375 137.92188L30.78125 137.92188L30.78125 136.90625L37.59375 136.90625L37.59375 137.92188L34.75 137.92188L34.75 145.5L33.609375 145.5ZM37.90625 142.39062Q37.90625 140.65625 38.859375 139.82812Q39.65625 139.14062 40.8125 139.14062Q42.09375 139.14062 42.90625 139.98438Q43.734375 140.8125 43.734375 142.29688Q43.734375 143.5 43.375 144.1875Q43.015625 144.875 42.3125 145.26562Q41.625 145.64062 40.8125 145.64062Q39.515625 145.64062 38.703125 144.8125Q37.90625 143.96875 37.90625 142.39062ZM38.984375 142.39062Q38.984375 143.57812 39.5 144.17188Q40.03125 144.76562 40.8125 144.76562Q41.609375 144.76562 42.125 144.17188Q42.640625 143.57812 42.640625 142.35938Q42.640625 141.20312 42.109375 140.60938Q41.59375 140.01562 40.8125 140.01562Q40.03125 140.01562 39.5 140.60938Q38.984375 141.1875 38.984375 142.39062ZM45.296875 145.5L45.296875 136.90625L46.359375 136.90625L46.359375 141.8125L48.84375 139.28125L50.21875 139.28125L47.828125 141.57812L50.453125 145.5L49.15625 145.5L47.09375 142.3125L46.359375 143.03125L46.359375 145.5L45.296875 145.5ZM51.296875 138.125L51.296875 136.90625L52.359375 136.90625L52.359375 138.125L51.296875 138.125ZM51.296875 145.5L51.296875 139.28125L52.359375 139.28125L52.359375 145.5L51.296875 145.5ZM53.90625 142.39062Q53.90625 140.65625 54.859375 139.82812Q55.65625 139.14062 56.8125 139.14062Q58.09375 139.14062 58.90625 139.98438Q59.734375 140.8125 59.734375 142.29688Q59.734375 143.5 59.375 144.1875Q59.015625 144.875 58.3125 145.26562Q57.625 145.64062 56.8125 145.64062Q55.515625 145.64062 54.703125 144.8125Q53.90625 143.96875 53.90625 142.39062ZM54.984375 142.39062Q54.984375 143.57812 55.5 144.17188Q56.03125 144.76562 56.8125 144.76562Q57.609375 144.76562 58.125 144.17188Q58.640625 143.57812 58.640625 142.35938Q58.640625 141.20312 58.109375 140.60938Q57.59375 140.01562 56.8125 140.01562Q56.03125 140.01562 55.5 140.60938Q54.984375 141.1875 54.984375 142.39062Z" fill-rule="nonzero"/><path fill="#000000" d="M14.421875 202.21642L14.421875 193.62267L15.578125 193.62267L20.09375 200.37267L20.09375 193.62267L21.1875 193.62267L21.1875 202.21642L20.015625 202.21642L15.5 195.46642L15.5 202.21642L14.421875 202.21642ZM22.90625 199.10704Q22.90625 197.37267 23.859375 196.54454Q24.65625 195.85704 25.8125 195.85704Q27.09375 195.85704 27.90625 196.70079Q28.734375 197.52892 28.734375 199.01329Q28.734375 200.21642 28.375 200.90392Q28.015625 201.59142 27.3125 201.98204Q26.625 202.35704 25.8125 202.35704Q24.515625 202.35704 23.703125 201.52892Q22.90625 200.68517 22.90625 199.10704ZM23.984375 199.10704Q23.984375 200.29454 24.5 200.88829Q25.03125 201.48204 25.8125 201.48204Q26.609375 201.48204 27.125 200.88829Q27.640625 200.29454 27.640625 199.07579Q27.640625 197.91954 27.109375 197.32579Q26.59375 196.73204 25.8125 196.73204Q25.03125 196.73204 24.5 197.32579Q23.984375 197.90392 23.984375 199.10704ZM34.328125 202.21642L34.328125 201.43517Q33.734375 202.35704 32.59375 202.35704Q31.84375 202.35704 31.21875 201.95079Q30.59375 201.52892 30.25 200.79454Q29.90625 200.06017 29.90625 199.10704Q29.90625 198.18517 30.21875 197.41954Q30.53125 196.65392 31.15625 196.26329Q31.78125 195.85704 32.546875 195.85704Q33.109375 195.85704 33.546875 196.09142Q33.984375 196.32579 34.265625 196.70079L34.265625 193.62267L35.3125 193.62267L35.3125 202.21642L34.328125 202.21642ZM31.0 199.10704Q31.0 200.31017 31.5 200.90392Q32.0 201.48204 32.6875 201.48204Q33.375 201.48204 33.859375 200.91954Q34.34375 200.35704 34.34375 199.20079Q34.34375 197.91954 33.84375 197.32579Q33.359375 196.73204 32.640625 196.73204Q31.9375 196.73204 31.46875 197.31017Q31.0 197.87267 31.0 199.10704ZM41.546875 200.21642L42.640625 200.34142Q42.390625 201.29454 41.6875 201.82579Q40.984375 202.35704 39.90625 202.35704Q38.546875 202.35704 37.734375 201.51329Q36.9375 200.66954 36.9375 199.15392Q36.9375 197.59142 37.75 196.73204Q38.5625 195.85704 39.84375 195.85704Q41.09375 195.85704 41.875 196.70079Q42.671875 197.54454 42.671875 199.09142Q42.671875 199.18517 42.671875 199.37267L38.03125 199.37267Q38.09375 200.40392 38.609375 200.95079Q39.125 201.48204 39.90625 201.48204Q40.484375 201.48204 40.890625 201.18517Q41.3125 200.87267 41.546875 200.21642ZM38.09375 198.51329L41.5625 198.51329Q41.5 197.71642 41.171875 197.32579Q40.65625 196.71642 39.859375 196.71642Q39.125 196.71642 38.625 197.20079Q38.140625 197.68517 38.09375 198.51329ZM44.59375 202.21642L44.59375 201.01329L45.796875 201.01329L45.796875 202.21642L44.59375 202.21642ZM46.84375 199.77892L47.875 199.63829Q47.90625 200.62267 48.234375 200.98204Q48.5625 201.34142 49.15625 201.34142Q49.578125 201.34142 49.890625 201.15392Q50.203125 200.95079 50.3125 200.62267Q50.4375 200.27892 50.4375 199.54454L50.4375 193.62267L51.5625 193.62267L51.5625 199.48204Q51.5625 200.56017 51.296875 201.15392Q51.046875 201.74767 50.484375 202.06017Q49.921875 202.35704 49.15625 202.35704Q48.03125 202.35704 47.421875 201.71642Q46.828125 201.06017 46.84375 199.77892ZM53.046875 199.45079L54.109375 199.35704Q54.1875 200.01329 54.46875 200.41954Q54.75 200.82579 55.328125 201.09142Q55.921875 201.34142 56.65625 201.34142Q57.296875 201.34142 57.796875 201.15392Q58.296875 200.95079 58.53125 200.62267Q58.78125 200.27892 58.78125 199.88829Q58.78125 199.48204 58.546875 199.18517Q58.3125 198.87267 57.78125 198.66954Q57.421875 198.52892 56.234375 198.24767Q55.0625 197.96642 54.59375 197.71642Q53.96875 197.38829 53.671875 196.91954Q53.375 196.43517 53.375 195.84142Q53.375 195.20079 53.734375 194.63829Q54.109375 194.06017 54.8125 193.77892Q55.53125 193.48204 56.390625 193.48204Q57.34375 193.48204 58.078125 193.79454Q58.8125 194.09142 59.203125 194.70079Q59.59375 195.29454 59.625 196.04454L58.53125 196.12267Q58.4375 195.31017 57.921875 194.90392Q57.421875 194.48204 56.4375 194.48204Q55.40625 194.48204 54.9375 194.85704Q54.46875 195.23204 54.46875 195.76329Q54.46875 196.23204 54.796875 196.52892Q55.125 196.82579 56.5 197.13829Q57.890625 197.45079 58.40625 197.68517Q59.15625 198.04454 59.515625 198.57579Q59.875 199.09142 59.875 199.79454Q59.875 200.48204 59.484375 201.09142Q59.09375 201.68517 58.359375 202.02892Q57.625 202.35704 56.703125 202.35704Q55.53125 202.35704 54.734375 202.02892Q53.953125 201.68517 53.5 200.99767Q53.0625 200.31017 53.046875 199.45079Z" fill-rule="nonzero"/><path fill="#000000" d="M55.390625 253.5L55.390625 244.90625L57.109375 244.90625L59.140625 250.98438Q59.421875 251.84375 59.546875 252.26562Q59.6875 251.79688 60.0 250.89062L62.0625 244.90625L63.59375 244.90625L63.59375 253.5L62.5 253.5L62.5 246.3125L60.0 253.5L58.96875 253.5L56.484375 246.1875L56.484375 253.5L55.390625 253.5ZM64.375 253.5L64.375 244.90625L67.609375 244.90625Q68.59375 244.90625 69.1875 245.17188Q69.78125 245.4375 70.109375 245.98438Q70.453125 246.51562 70.453125 247.10938Q70.453125 247.65625 70.15625 248.14062Q69.859375 248.625 69.25 248.92188Q70.03125 249.15625 70.4375 249.71875Q70.859375 250.26562 70.859375 251.01562Q70.859375 251.60938 70.609375 252.14062Q70.359375 252.65625 69.984375 252.9375Q69.609375 253.21875 69.03125 253.35938Q68.46875 253.5 67.65625 253.5L64.375 253.5ZM65.515625 248.51562L67.375 248.51562Q68.125 248.51562 68.453125 248.42188Q68.890625 248.29688 69.109375 248.0Q69.328125 247.6875 69.328125 247.23438Q69.328125 246.8125 69.125 246.48438Q68.921875 246.15625 68.53125 246.04688Q68.15625 245.92188 67.234375 245.92188L65.515625 245.92188L65.515625 248.51562ZM65.515625 252.48438L67.65625 252.48438Q68.203125 252.48438 68.421875 252.4375Q68.828125 252.375 69.078125 252.21875Q69.34375 252.04688 69.515625 251.73438Q69.6875 251.42188 69.6875 251.01562Q69.6875 250.53125 69.4375 250.17188Q69.203125 249.8125 68.765625 249.67188Q68.328125 249.53125 67.5 249.53125L65.515625 249.53125L65.515625 252.48438ZM71.5 253.64062L73.984375 244.76562L74.828125 244.76562L72.34375 253.64062L71.5 253.64062ZM74.875 251.64062L75.90625 251.48438Q76.0 252.10938 76.390625 252.4375Q76.796875 252.76562 77.53125 252.76562Q78.25 252.76562 78.59375 252.48438Q78.953125 252.1875 78.953125 251.78125Q78.953125 251.42188 78.640625 251.21875Q78.421875 251.07812 77.5625 250.85938Q76.40625 250.5625 75.953125 250.35938Q75.515625 250.14062 75.28125 249.76562Q75.046875 249.39062 75.046875 248.92188Q75.046875 248.51562 75.234375 248.15625Q75.421875 247.79688 75.75 247.5625Q76.0 247.39062 76.421875 247.26562Q76.84375 247.14062 77.34375 247.14062Q78.0625 247.14062 78.609375 247.35938Q79.171875 247.5625 79.4375 247.92188Q79.703125 248.28125 79.796875 248.875L78.765625 249.01562Q78.703125 248.54688 78.359375 248.28125Q78.03125 248.0 77.40625 248.0Q76.6875 248.0 76.375 248.25Q76.0625 248.48438 76.0625 248.8125Q76.0625 249.01562 76.1875 249.17188Q76.328125 249.34375 76.59375 249.45312Q76.75 249.51562 77.53125 249.71875Q78.65625 250.03125 79.09375 250.21875Q79.53125 250.40625 79.78125 250.76562Q80.03125 251.125 80.03125 251.67188Q80.03125 252.20312 79.71875 252.67188Q79.421875 253.125 78.84375 253.39062Q78.265625 253.64062 77.53125 253.64062Q76.3125 253.64062 75.671875 253.14062Q75.046875 252.625 74.875 251.64062Z" fill-rule="nonzero"/><path fill="#000000" d="M149.30208 253.5L148.2552 253.5L148.2552 246.78125Q147.86458 247.14062 147.23958 247.51562Q146.6302 247.875 146.14583 248.04688L146.14583 247.03125Q147.02083 246.60938 147.67708 246.03125Q148.34895 245.4375 148.6302 244.875L149.30208 244.875L149.30208 253.5ZM152.33333 251.23438L153.39583 251.09375Q153.5677 251.98438 154.0052 252.39062Q154.4427 252.78125 155.0677 252.78125Q155.8177 252.78125 156.33333 252.26562Q156.84895 251.75 156.84895 250.98438Q156.84895 250.26562 156.36458 249.79688Q155.89583 249.3125 155.16145 249.3125Q154.86458 249.3125 154.41145 249.4375L154.53645 248.5Q154.64583 248.51562 154.70833 248.51562Q155.3802 248.51562 155.91145 248.17188Q156.45833 247.8125 156.45833 247.07812Q156.45833 246.5 156.0677 246.125Q155.67708 245.73438 155.05208 245.73438Q154.4427 245.73438 154.02083 246.125Q153.61458 246.51562 153.5052 247.28125L152.4427 247.09375Q152.6302 246.04688 153.3177 245.46875Q154.0052 244.875 155.02083 244.875Q155.72395 244.875 156.3177 245.1875Q156.91145 245.48438 157.22395 246.0Q157.53645 246.51562 157.53645 247.10938Q157.53645 247.65625 157.23958 248.125Q156.9427 248.57812 156.36458 248.84375Q157.11458 249.01562 157.53645 249.57812Q157.95833 250.125 157.95833 250.96875Q157.95833 252.09375 157.1302 252.875Q156.3177 253.65625 155.0677 253.65625Q153.9427 253.65625 153.1927 252.98438Q152.4427 252.29688 152.33333 251.23438ZM159.33333 251.23438L160.39583 251.09375Q160.5677 251.98438 161.0052 252.39062Q161.4427 252.78125 162.0677 252.78125Q162.8177 252.78125 163.33333 252.26562Q163.84895 251.75 163.84895 250.98438Q163.84895 250.26562 163.36458 249.79688Q162.89583 249.3125 162.16145 249.3125Q161.86458 249.3125 161.41145 249.4375L161.53645 248.5Q161.64583 248.51562 161.70833 248.51562Q162.3802 248.51562 162.91145 248.17188Q163.45833 247.8125 163.45833 247.07812Q163.45833 246.5 163.0677 246.125Q162.67708 245.73438 162.05208 245.73438Q161.4427 245.73438 161.02083 246.125Q160.61458 246.51562 160.5052 247.28125L159.4427 247.09375Q159.6302 246.04688 160.3177 245.46875Q161.0052 244.875 162.02083 244.875Q162.72395 244.875 163.3177 245.1875Q163.91145 245.48438 164.22395 246.0Q164.53645 246.51562 164.53645 247.10938Q164.53645 247.65625 164.23958 248.125Q163.9427 248.57812 163.36458 248.84375Q164.11458 249.01562 164.53645 249.57812Q164.95833 250.125 164.95833 250.96875Q164.95833 252.09375 164.1302 252.875Q163.3177 253.65625 162.0677 253.65625Q160.9427 253.65625 160.1927 252.98438Q159.4427 252.29688 159.33333 251.23438ZM166.33333 251.23438L167.39583 251.09375Q167.5677 251.98438 168.0052 252.39062Q168.4427 252.78125 169.0677 252.78125Q169.8177 252.78125 170.33333 252.26562Q170.84895 251.75 170.84895 250.98438Q170.84895 250.26562 170.36458 249.79688Q169.89583 249.3125 169.16145 249.3125Q168.86458 249.3125 168.41145 249.4375L168.53645 248.5Q168.64583 248.51562 168.70833 248.51562Q169.3802 248.51562 169.91145 248.17188Q170.45833 247.8125 170.45833 247.07812Q170.45833 246.5 170.0677 246.125Q169.67708 245.73438 169.05208 245.73438Q168.4427 245.73438 168.02083 246.125Q167.61458 246.51562 167.5052 247.28125L166.4427 247.09375Q166.6302 246.04688 167.3177 245.46875Q168.0052 244.875 169.02083 244.875Q169.72395 244.875 170.3177 245.1875Q170.91145 245.48438 171.22395 246.0Q171.53645 246.51562 171.53645 247.10938Q171.53645 247.65625 171.23958 248.125Q170.9427 248.57812 170.36458 248.84375Q171.11458 249.01562 171.53645 249.57812Q171.95833 250.125 171.95833 250.96875Q171.95833 252.09375 171.1302 252.875Q170.3177 253.65625 169.0677 253.65625Q167.9427 253.65625 167.1927 252.98438Q166.4427 252.29688 166.33333 251.23438ZM176.72395 253.5L176.72395 244.90625L178.4427 244.90625L180.47395 250.98438Q180.7552 251.84375 180.8802 252.26562Q181.02083 251.79688 181.33333 250.89062L183.39583 244.90625L184.92708 244.90625L184.92708 253.5L183.83333 253.5L183.83333 246.3125L181.33333 253.5L180.30208 253.5L177.8177 246.1875L177.8177 253.5L176.72395 253.5ZM185.70833 253.5L185.70833 244.90625L188.9427 244.90625Q189.92708 244.90625 190.52083 245.17188Q191.11458 245.4375 191.4427 245.98438Q191.78645 246.51562 191.78645 247.10938Q191.78645 247.65625 191.48958 248.14062Q191.1927 248.625 190.58333 248.92188Q191.36458 249.15625 191.77083 249.71875Q192.1927 250.26562 192.1927 251.01562Q192.1927 251.60938 191.9427 252.14062Q191.6927 252.65625 191.3177 252.9375Q190.9427 253.21875 190.36458 253.35938Q189.80208 253.5 188.98958 253.5L185.70833 253.5ZM186.84895 248.51562L188.70833 248.51562Q189.45833 248.51562 189.78645 248.42188Q190.22395 248.29688 190.4427 248.0Q190.66145 247.6875 190.66145 247.23438Q190.66145 246.8125 190.45833 246.48438Q190.2552 246.15625 189.86458 246.04688Q189.48958 245.92188 188.5677 245.92188L186.84895 245.92188L186.84895 248.51562ZM186.84895 252.48438L188.98958 252.48438Q189.53645 252.48438 189.7552 252.4375Q190.16145 252.375 190.41145 252.21875Q190.67708 252.04688 190.84895 251.73438Q191.02083 251.42188 191.02083 251.01562Q191.02083 250.53125 190.77083 250.17188Q190.53645 249.8125 190.09895 249.67188Q189.66145 249.53125 188.83333 249.53125L186.84895 249.53125L186.84895 252.48438ZM192.83333 253.64062L195.3177 244.76562L196.16145 244.76562L193.67708 253.64062L192.83333 253.64062ZM196.20833 251.64062L197.23958 251.48438Q197.33333 252.10938 197.72395 252.4375Q198.1302 252.76562 198.86458 252.76562Q199.58333 252.76562 199.92708 252.48438Q200.28645 252.1875 200.28645 251.78125Q200.28645 251.42188 199.97395 251.21875Q199.7552 251.07812 198.89583 250.85938Q197.73958 250.5625 197.28645 250.35938Q196.84895 250.14062 196.61458 249.76562Q196.3802 249.39062 196.3802 248.92188Q196.3802 248.51562 196.5677 248.15625Q196.7552 247.79688 197.08333 247.5625Q197.33333 247.39062 197.7552 247.26562Q198.17708 247.14062 198.67708 247.14062Q199.39583 247.14062 199.9427 247.35938Q200.5052 247.5625 200.77083 247.92188Q201.03645 248.28125 201.1302 248.875L200.09895 249.01562Q200.03645 248.54688 199.6927 248.28125Q199.36458 248.0 198.73958 248.0Q198.02083 248.0 197.70833 248.25Q197.39583 248.48438 197.39583 248.8125Q197.39583 249.01562 197.52083 249.17188Q197.66145 249.34375 197.92708 249.45312Q198.08333 249.51562 198.86458 249.71875Q199.98958 250.03125 200.42708 250.21875Q200.86458 250.40625 201.11458 250.76562Q201.36458 251.125 201.36458 251.67188Q201.36458 252.20312 201.05208 252.67188Q200.7552 253.125 200.17708 253.39062Q199.59895 253.64062 198.86458 253.64062Q197.64583 253.64062 197.0052 253.14062Q196.3802 252.625 196.20833 251.64062Z" fill-rule="nonzero"/><path fill="#000000" d="M258.21356 252.48438L258.21356 253.5L252.52605 253.5Q252.52605 253.125 252.65105 252.76562Q252.8698 252.1875 253.33855 251.625Q253.82292 251.0625 254.72917 250.32812Q256.13544 249.17188 256.6198 248.5Q257.1198 247.82812 257.1198 247.23438Q257.1198 246.60938 256.6667 246.1875Q256.21356 245.75 255.4948 245.75Q254.72917 245.75 254.27605 246.20312Q253.82292 246.65625 253.8073 247.46875L252.72917 247.35938Q252.83855 246.14062 253.5573 245.51562Q254.29167 244.875 255.52605 244.875Q256.76044 244.875 257.4792 245.5625Q258.19794 246.25 258.19794 247.26562Q258.19794 247.78125 257.9792 248.28125Q257.77606 248.76562 257.27606 249.32812Q256.7917 249.875 255.66667 250.82812Q254.71355 251.625 254.4323 251.92188Q254.16667 252.20312 253.9948 252.48438L258.21356 252.48438ZM265.13544 247.01562L264.08856 247.09375Q263.94794 246.46875 263.69794 246.1875Q263.26044 245.73438 262.63544 245.73438Q262.13544 245.73438 261.7448 246.01562Q261.26044 246.39062 260.96356 247.09375Q260.6823 247.78125 260.6667 249.0625Q261.0417 248.48438 261.58856 248.20312Q262.15106 247.92188 262.76044 247.92188Q263.8073 247.92188 264.5417 248.70312Q265.2917 249.48438 265.2917 250.70312Q265.2917 251.51562 264.9323 252.21875Q264.58856 252.90625 263.9792 253.28125Q263.3698 253.64062 262.6042 253.64062Q261.27606 253.64062 260.44794 252.67188Q259.6198 251.70312 259.6198 249.48438Q259.6198 246.98438 260.5417 245.85938Q261.33856 244.875 262.69794 244.875Q263.71356 244.875 264.3542 245.45312Q265.01044 246.01562 265.13544 247.01562ZM260.83856 250.71875Q260.83856 251.26562 261.0573 251.76562Q261.2917 252.25 261.69794 252.51562Q262.1198 252.78125 262.58856 252.78125Q263.2448 252.78125 263.7292 252.25Q264.21356 251.70312 264.21356 250.78125Q264.21356 249.89062 263.7292 249.375Q263.26044 248.85938 262.5417 248.85938Q261.82294 248.85938 261.32294 249.375Q260.83856 249.89062 260.83856 250.71875ZM272.13544 247.01562L271.08856 247.09375Q270.94794 246.46875 270.69794 246.1875Q270.26044 245.73438 269.63544 245.73438Q269.13544 245.73438 268.7448 246.01562Q268.26044 246.39062 267.96356 247.09375Q267.6823 247.78125 267.6667 249.0625Q268.0417 248.48438 268.58856 248.20312Q269.15106 247.92188 269.76044 247.92188Q270.8073 247.92188 271.5417 248.70312Q272.2917 249.48438 272.2917 250.70312Q272.2917 251.51562 271.9323 252.21875Q271.58856 252.90625 270.9792 253.28125Q270.3698 253.64062 269.6042 253.64062Q268.27606 253.64062 267.44794 252.67188Q266.6198 251.70312 266.6198 249.48438Q266.6198 246.98438 267.5417 245.85938Q268.33856 244.875 269.69794 244.875Q270.71356 244.875 271.3542 245.45312Q272.01044 246.01562 272.13544 247.01562ZM267.83856 250.71875Q267.83856 251.26562 268.0573 251.76562Q268.2917 252.25 268.69794 252.51562Q269.1198 252.78125 269.58856 252.78125Q270.2448 252.78125 270.7292 252.25Q271.21356 251.70312 271.21356 250.78125Q271.21356 249.89062 270.7292 249.375Q270.26044 248.85938 269.5417 248.85938Q268.82294 248.85938 268.32294 249.375Q267.83856 249.89062 267.83856 250.71875ZM273.7292 246.03125L273.7292 245.01562L279.2917 245.01562L279.2917 245.84375Q278.4792 246.71875 277.6667 248.17188Q276.8698 249.60938 276.4323 251.14062Q276.1042 252.21875 276.02606 253.5L274.9323 253.5Q274.94794 252.48438 275.32294 251.04688Q275.71356 249.60938 276.4167 248.28125Q277.13544 246.95312 277.94794 246.03125L273.7292 246.03125ZM284.0573 253.5L284.0573 244.90625L285.77606 244.90625L287.8073 250.98438Q288.08856 251.84375 288.21356 252.26562Q288.3542 251.79688 288.6667 250.89062L290.7292 244.90625L292.26044 244.90625L292.26044 253.5L291.1667 253.5L291.1667 246.3125L288.6667 253.5L287.63544 253.5L285.15106 246.1875L285.15106 253.5L284.0573 253.5ZM293.0417 253.5L293.0417 244.90625L296.27606 244.90625Q297.26044 244.90625 297.8542 245.17188Q298.44794 245.4375 298.77606 245.98438Q299.1198 246.51562 299.1198 247.10938Q299.1198 247.65625 298.82294 248.14062Q298.52606 248.625 297.9167 248.92188Q298.69794 249.15625 299.1042 249.71875Q299.52606 250.26562 299.52606 251.01562Q299.52606 251.60938 299.27606 252.14062Q299.02606 252.65625 298.65106 252.9375Q298.27606 253.21875 297.69794 253.35938Q297.13544 253.5 296.32294 253.5L293.0417 253.5ZM294.1823 248.51562L296.0417 248.51562Q296.7917 248.51562 297.1198 248.42188Q297.5573 248.29688 297.77606 248.0Q297.9948 247.6875 297.9948 247.23438Q297.9948 246.8125 297.7917 246.48438Q297.58856 246.15625 297.19794 246.04688Q296.82294 245.92188 295.90106 245.92188L294.1823 245.92188L294.1823 248.51562ZM294.1823 252.48438L296.32294 252.48438Q296.8698 252.48438 297.08856 252.4375Q297.4948 252.375 297.7448 252.21875Q298.01044 252.04688 298.1823 251.73438Q298.3542 251.42188 298.3542 251.01562Q298.3542 250.53125 298.1042 250.17188Q297.8698 249.8125 297.4323 249.67188Q296.9948 249.53125 296.1667 249.53125L294.1823 249.53125L294.1823 252.48438ZM300.1667 253.64062L302.65106 244.76562L303.4948 244.76562L301.01044 253.64062L300.1667 253.64062ZM303.5417 251.64062L304.57294 251.48438Q304.6667 252.10938 305.0573 252.4375Q305.46356 252.76562 306.19794 252.76562Q306.9167 252.76562 307.26044 252.48438Q307.6198 252.1875 307.6198 251.78125Q307.6198 251.42188 307.3073 251.21875Q307.08856 251.07812 306.2292 250.85938Q305.07294 250.5625 304.6198 250.35938Q304.1823 250.14062 303.94794 249.76562Q303.71356 249.39062 303.71356 248.92188Q303.71356 248.51562 303.90106 248.15625Q304.08856 247.79688 304.4167 247.5625Q304.6667 247.39062 305.08856 247.26562Q305.51044 247.14062 306.01044 247.14062Q306.7292 247.14062 307.27606 247.35938Q307.83856 247.5625 308.1042 247.92188Q308.3698 248.28125 308.46356 248.875L307.4323 249.01562Q307.3698 248.54688 307.02606 248.28125Q306.69794 248.0 306.07294 248.0Q305.3542 248.0 305.0417 248.25Q304.7292 248.48438 304.7292 248.8125Q304.7292 249.01562 304.8542 249.17188Q304.9948 249.34375 305.26044 249.45312Q305.4167 249.51562 306.19794 249.71875Q307.32294 250.03125 307.76044 250.21875Q308.19794 250.40625 308.44794 250.76562Q308.69794 251.125 308.69794 251.67188Q308.69794 252.20312 308.38544 252.67188Q308.08856 253.125 307.51044 253.39062Q306.9323 253.64062 306.19794 253.64062Q304.9792 253.64062 304.33856 253.14062Q303.71356 252.625 303.5417 251.64062Z" fill-rule="nonzero"/><path fill="#000000" d="M363.375 253.5L363.375 251.4375L359.65625 251.4375L359.65625 250.46875L363.57812 244.90625L364.4375 244.90625L364.4375 250.46875L365.59375 250.46875L365.59375 251.4375L364.4375 251.4375L364.4375 253.5L363.375 253.5ZM363.375 250.46875L363.375 246.60938L360.6875 250.46875L363.375 250.46875ZM367.0 249.26562Q367.0 247.73438 367.3125 246.8125Q367.625 245.875 368.23438 245.375Q368.85938 244.875 369.79688 244.875Q370.48438 244.875 371.0 245.15625Q371.53125 245.4375 371.875 245.96875Q372.21875 246.48438 372.40625 247.23438Q372.59375 247.98438 372.59375 249.26562Q372.59375 250.78125 372.28125 251.70312Q371.98438 252.625 371.35938 253.14062Q370.75 253.64062 369.79688 253.64062Q368.5625 253.64062 367.84375 252.75Q367.0 251.6875 367.0 249.26562ZM368.07812 249.26562Q368.07812 251.375 368.57812 252.07812Q369.07812 252.78125 369.79688 252.78125Q370.53125 252.78125 371.01562 252.07812Q371.51562 251.375 371.51562 249.26562Q371.51562 247.14062 371.01562 246.45312Q370.53125 245.75 369.78125 245.75Q369.0625 245.75 368.625 246.35938Q368.07812 247.14062 368.07812 249.26562ZM374.0 249.26562Q374.0 247.73438 374.3125 246.8125Q374.625 245.875 375.23438 245.375Q375.85938 244.875 376.79688 244.875Q377.48438 244.875 378.0 245.15625Q378.53125 245.4375 378.875 245.96875Q379.21875 246.48438 379.40625 247.23438Q379.59375 247.98438 379.59375 249.26562Q379.59375 250.78125 379.28125 251.70312Q378.98438 252.625 378.35938 253.14062Q377.75 253.64062 376.79688 253.64062Q375.5625 253.64062 374.84375 252.75Q374.0 251.6875 374.0 249.26562ZM375.07812 249.26562Q375.07812 251.375 375.57812 252.07812Q376.07812 252.78125 376.79688 252.78125Q377.53125 252.78125 378.01562 252.07812Q378.51562 251.375 378.51562 249.26562Q378.51562 247.14062 378.01562 246.45312Q377.53125 245.75 376.78125 245.75Q376.0625 245.75 375.625 246.35938Q375.07812 247.14062 375.07812 249.26562ZM381.0 249.26562Q381.0 247.73438 381.3125 246.8125Q381.625 245.875 382.23438 245.375Q382.85938 244.875 383.79688 244.875Q384.48438 244.875 385.0 245.15625Q385.53125 245.4375 385.875 245.96875Q386.21875 246.48438 386.40625 247.23438Q386.59375 247.98438 386.59375 249.26562Q386.59375 250.78125 386.28125 251.70312Q385.98438 252.625 385.35938 253.14062Q384.75 253.64062 383.79688 253.64062Q382.5625 253.64062 381.84375 252.75Q381.0 251.6875 381.0 249.26562ZM382.07812 249.26562Q382.07812 251.375 382.57812 252.07812Q383.07812 252.78125 383.79688 252.78125Q384.53125 252.78125 385.01562 252.07812Q385.51562 251.375 385.51562 249.26562Q385.51562 247.14062 385.01562 246.45312Q384.53125 245.75 383.78125 245.75Q383.0625 245.75 382.625 246.35938Q382.07812 247.14062 382.07812 249.26562ZM391.39062 253.5L391.39062 244.90625L393.10938 244.90625L395.14062 250.98438Q395.42188 251.84375 395.54688 252.26562Q395.6875 251.79688 396.0 250.89062L398.0625 244.90625L399.59375 244.90625L399.59375 253.5L398.5 253.5L398.5 246.3125L396.0 253.5L394.96875 253.5L392.48438 246.1875L392.48438 253.5L391.39062 253.5ZM400.375 253.5L400.375 244.90625L403.60938 244.90625Q404.59375 244.90625 405.1875 245.17188Q405.78125 245.4375 406.10938 245.98438Q406.45312 246.51562 406.45312 247.10938Q406.45312 247.65625 406.15625 248.14062Q405.85938 248.625 405.25 248.92188Q406.03125 249.15625 406.4375 249.71875Q406.85938 250.26562 406.85938 251.01562Q406.85938 251.60938 406.60938 252.14062Q406.35938 252.65625 405.98438 252.9375Q405.60938 253.21875 405.03125 253.35938Q404.46875 253.5 403.65625 253.5L400.375 253.5ZM401.51562 248.51562L403.375 248.51562Q404.125 248.51562 404.45312 248.42188Q404.89062 248.29688 405.10938 248.0Q405.32812 247.6875 405.32812 247.23438Q405.32812 246.8125 405.125 246.48438Q404.92188 246.15625 404.53125 246.04688Q404.15625 245.92188 403.23438 245.92188L401.51562 245.92188L401.51562 248.51562ZM401.51562 252.48438L403.65625 252.48438Q404.20312 252.48438 404.42188 252.4375Q404.82812 252.375 405.07812 252.21875Q405.34375 252.04688 405.51562 251.73438Q405.6875 251.42188 405.6875 251.01562Q405.6875 250.53125 405.4375 250.17188Q405.20312 249.8125 404.76562 249.67188Q404.32812 249.53125 403.5 249.53125L401.51562 249.53125L401.51562 252.48438ZM407.5 253.64062L409.98438 244.76562L410.82812 244.76562L408.34375 253.64062L407.5 253.64062ZM410.875 251.64062L411.90625 251.48438Q412.0 252.10938 412.39062 252.4375Q412.79688 252.76562 413.53125 252.76562Q414.25 252.76562 414.59375 252.48438Q414.95312 252.1875 414.95312 251.78125Q414.95312 251.42188 414.64062 251.21875Q414.42188 251.07812 413.5625 250.85938Q412.40625 250.5625 411.95312 250.35938Q411.51562 250.14062 411.28125 249.76562Q411.04688 249.39062 411.04688 248.92188Q411.04688 248.51562 411.23438 248.15625Q411.42188 247.79688 411.75 247.5625Q412.0 247.39062 412.42188 247.26562Q412.84375 247.14062 413.34375 247.14062Q414.0625 247.14062 414.60938 247.35938Q415.17188 247.5625 415.4375 247.92188Q415.70312 248.28125 415.79688 248.875L414.76562 249.01562Q414.70312 248.54688 414.35938 248.28125Q414.03125 248.0 413.40625 248.0Q412.6875 248.0 412.375 248.25Q412.0625 248.48438 412.0625 248.8125Q412.0625 249.01562 412.1875 249.17188Q412.32812 249.34375 412.59375 249.45312Q412.75 249.51562 413.53125 249.71875Q414.65625 250.03125 415.09375 250.21875Q415.53125 250.40625 415.78125 250.76562Q416.03125 251.125 416.03125 251.67188Q416.03125 252.20312 415.71875 252.67188Q415.42188 253.125 414.84375 253.39062Q414.26562 253.64062 413.53125 253.64062Q412.3125 253.64062 411.67188 253.14062Q411.04688 252.625 410.875 251.64062Z" fill-rule="nonzero"/><path fill="#000000" d="M467.33334 251.25L468.44272 251.15625Q468.56772 251.96875 469.00522 252.375Q469.45834 252.78125 470.09897 252.78125Q470.84897 252.78125 471.38022 252.20312Q471.91147 251.625 471.91147 250.6875Q471.91147 249.78125 471.39584 249.26562Q470.89584 248.73438 470.06772 248.73438Q469.56772 248.73438 469.14584 248.96875Q468.7396 249.20312 468.50522 249.5625L467.52084 249.4375L468.34897 245.03125L472.63022 245.03125L472.63022 246.03125L469.19272 246.03125L468.7396 248.34375Q469.50522 247.79688 470.34897 247.79688Q471.47397 247.79688 472.2396 248.57812Q473.02084 249.35938 473.02084 250.59375Q473.02084 251.75 472.34897 252.60938Q471.52084 253.64062 470.09897 253.64062Q468.9271 253.64062 468.1771 252.98438Q467.44272 252.32812 467.33334 251.25ZM474.33334 251.23438L475.39584 251.09375Q475.56772 251.98438 476.00522 252.39062Q476.44272 252.78125 477.06772 252.78125Q477.81772 252.78125 478.33334 252.26562Q478.84897 251.75 478.84897 250.98438Q478.84897 250.26562 478.3646 249.79688Q477.89584 249.3125 477.16147 249.3125Q476.8646 249.3125 476.41147 249.4375L476.53647 248.5Q476.64584 248.51562 476.70834 248.51562Q477.38022 248.51562 477.91147 248.17188Q478.45834 247.8125 478.45834 247.07812Q478.45834 246.5 478.06772 246.125Q477.6771 245.73438 477.0521 245.73438Q476.44272 245.73438 476.02084 246.125Q475.6146 246.51562 475.50522 247.28125L474.44272 247.09375Q474.63022 246.04688 475.31772 245.46875Q476.00522 244.875 477.02084 244.875Q477.72397 244.875 478.31772 245.1875Q478.91147 245.48438 479.22397 246.0Q479.53647 246.51562 479.53647 247.10938Q479.53647 247.65625 479.2396 248.125Q478.94272 248.57812 478.3646 248.84375Q479.1146 249.01562 479.53647 249.57812Q479.95834 250.125 479.95834 250.96875Q479.95834 252.09375 479.13022 252.875Q478.31772 253.65625 477.06772 253.65625Q475.94272 253.65625 475.19272 252.98438Q474.44272 252.29688 474.33334 251.23438ZM481.33334 251.23438L482.39584 251.09375Q482.56772 251.98438 483.00522 252.39062Q483.44272 252.78125 484.06772 252.78125Q484.81772 252.78125 485.33334 252.26562Q485.84897 251.75 485.84897 250.98438Q485.84897 250.26562 485.3646 249.79688Q484.89584 249.3125 484.16147 249.3125Q483.8646 249.3125 483.41147 249.4375L483.53647 248.5Q483.64584 248.51562 483.70834 248.51562Q484.38022 248.51562 484.91147 248.17188Q485.45834 247.8125 485.45834 247.07812Q485.45834 246.5 485.06772 246.125Q484.6771 245.73438 484.0521 245.73438Q483.44272 245.73438 483.02084 246.125Q482.6146 246.51562 482.50522 247.28125L481.44272 247.09375Q481.63022 246.04688 482.31772 245.46875Q483.00522 244.875 484.02084 244.875Q484.72397 244.875 485.31772 245.1875Q485.91147 245.48438 486.22397 246.0Q486.53647 246.51562 486.53647 247.10938Q486.53647 247.65625 486.2396 248.125Q485.94272 248.57812 485.3646 248.84375Q486.1146 249.01562 486.53647 249.57812Q486.95834 250.125 486.95834 250.96875Q486.95834 252.09375 486.13022 252.875Q485.31772 253.65625 484.06772 253.65625Q482.94272 253.65625 482.19272 252.98438Q481.44272 252.29688 481.33334 251.23438ZM488.33334 251.23438L489.39584 251.09375Q489.56772 251.98438 490.00522 252.39062Q490.44272 252.78125 491.06772 252.78125Q491.81772 252.78125 492.33334 252.26562Q492.84897 251.75 492.84897 250.98438Q492.84897 250.26562 492.3646 249.79688Q491.89584 249.3125 491.16147 249.3125Q490.8646 249.3125 490.41147 249.4375L490.53647 248.5Q490.64584 248.51562 490.70834 248.51562Q491.38022 248.51562 491.91147 248.17188Q492.45834 247.8125 492.45834 247.07812Q492.45834 246.5 492.06772 246.125Q491.6771 245.73438 491.0521 245.73438Q490.44272 245.73438 490.02084 246.125Q489.6146 246.51562 489.50522 247.28125L488.44272 247.09375Q488.63022 246.04688 489.31772 245.46875Q490.00522 244.875 491.02084 244.875Q491.72397 244.875 492.31772 245.1875Q492.91147 245.48438 493.22397 246.0Q493.53647 246.51562 493.53647 247.10938Q493.53647 247.65625 493.2396 248.125Q492.94272 248.57812 492.3646 248.84375Q493.1146 249.01562 493.53647 249.57812Q493.95834 250.125 493.95834 250.96875Q493.95834 252.09375 493.13022 252.875Q492.31772 253.65625 491.06772 253.65625Q489.94272 253.65625 489.19272 252.98438Q488.44272 252.29688 488.33334 251.23438ZM498.72397 253.5L498.72397 244.90625L500.44272 244.90625L502.47397 250.98438Q502.75522 251.84375 502.88022 252.26562Q503.02084 251.79688 503.33334 250.89062L505.39584 244.90625L506.9271 244.90625L506.9271 253.5L505.83334 253.5L505.83334 246.3125L503.33334 253.5L502.3021 253.5L499.81772 246.1875L499.81772 253.5L498.72397 253.5ZM507.70834 253.5L507.70834 244.90625L510.94272 244.90625Q511.9271 244.90625 512.5209 245.17188Q513.1146 245.4375 513.44275 245.98438Q513.7865 246.51562 513.7865 247.10938Q513.7865 247.65625 513.4896 248.14062Q513.19275 248.625 512.5834 248.92188Q513.3646 249.15625 513.7709 249.71875Q514.19275 250.26562 514.19275 251.01562Q514.19275 251.60938 513.94275 252.14062Q513.69275 252.65625 513.31775 252.9375Q512.94275 253.21875 512.3646 253.35938Q511.8021 253.5 510.9896 253.5L507.70834 253.5ZM508.84897 248.51562L510.70834 248.51562Q511.45834 248.51562 511.78647 248.42188Q512.224 248.29688 512.44275 248.0Q512.6615 247.6875 512.6615 247.23438Q512.6615 246.8125 512.4584 246.48438Q512.25525 246.15625 511.8646 246.04688Q511.4896 245.92188 510.56772 245.92188L508.84897 245.92188L508.84897 248.51562ZM508.84897 252.48438L510.9896 252.48438Q511.53647 252.48438 511.75522 252.4375Q512.1615 252.375 512.4115 252.21875Q512.6771 252.04688 512.849 251.73438Q513.0209 251.42188 513.0209 251.01562Q513.0209 250.53125 512.7709 250.17188Q512.5365 249.8125 512.099 249.67188Q511.66147 249.53125 510.83334 249.53125L508.84897 249.53125L508.84897 252.48438ZM514.8334 253.64062L517.31775 244.76562L518.1615 244.76562L515.6771 253.64062L514.8334 253.64062ZM518.2084 251.64062L519.2396 251.48438Q519.3334 252.10938 519.724 252.4375Q520.13025 252.76562 520.8646 252.76562Q521.5834 252.76562 521.9271 252.48438Q522.2865 252.1875 522.2865 251.78125Q522.2865 251.42188 521.974 251.21875Q521.75525 251.07812 520.8959 250.85938Q519.7396 250.5625 519.2865 250.35938Q518.849 250.14062 518.6146 249.76562Q518.38025 249.39062 518.38025 248.92188Q518.38025 248.51562 518.56775 248.15625Q518.75525 247.79688 519.0834 247.5625Q519.3334 247.39062 519.75525 247.26562Q520.1771 247.14062 520.6771 247.14062Q521.3959 247.14062 521.94275 247.35938Q522.50525 247.5625 522.7709 247.92188Q523.0365 248.28125 523.13025 248.875L522.099 249.01562Q522.0365 248.54688 521.69275 248.28125Q521.3646 248.0 520.7396 248.0Q520.0209 248.0 519.7084 248.25Q519.3959 248.48438 519.3959 248.8125Q519.3959 249.01562 519.5209 249.17188Q519.6615 249.34375 519.9271 249.45312Q520.0834 249.51562 520.8646 249.71875Q521.9896 250.03125 522.4271 250.21875Q522.8646 250.40625 523.1146 250.76562Q523.3646 251.125 523.3646 251.67188Q523.3646 252.20312 523.0521 252.67188Q522.75525 253.125 522.1771 253.39062Q521.599 253.64062 520.8646 253.64062Q519.6459 253.64062 519.00525 253.14062Q518.38025 252.625 518.2084 251.64062Z" fill-rule="nonzero"/><path fill="#000000" d="M580.13544 247.01562L579.08856 247.09375Q578.94794 246.46875 578.69794 246.1875Q578.26044 245.73438 577.63544 245.73438Q577.13544 245.73438 576.7448 246.01562Q576.26044 246.39062 575.96356 247.09375Q575.6823 247.78125 575.6667 249.0625Q576.0417 248.48438 576.58856 248.20312Q577.15106 247.92188 577.76044 247.92188Q578.8073 247.92188 579.5417 248.70312Q580.2917 249.48438 580.2917 250.70312Q580.2917 251.51562 579.9323 252.21875Q579.58856 252.90625 578.9792 253.28125Q578.3698 253.64062 577.6042 253.64062Q576.27606 253.64062 575.44794 252.67188Q574.6198 251.70312 574.6198 249.48438Q574.6198 246.98438 575.5417 245.85938Q576.33856 244.875 577.69794 244.875Q578.71356 244.875 579.3542 245.45312Q580.01044 246.01562 580.13544 247.01562ZM575.83856 250.71875Q575.83856 251.26562 576.0573 251.76562Q576.2917 252.25 576.69794 252.51562Q577.1198 252.78125 577.58856 252.78125Q578.2448 252.78125 578.7292 252.25Q579.21356 251.70312 579.21356 250.78125Q579.21356 249.89062 578.7292 249.375Q578.26044 248.85938 577.5417 248.85938Q576.82294 248.85938 576.32294 249.375Q575.83856 249.89062 575.83856 250.71875ZM587.13544 247.01562L586.08856 247.09375Q585.94794 246.46875 585.69794 246.1875Q585.26044 245.73438 584.63544 245.73438Q584.13544 245.73438 583.7448 246.01562Q583.26044 246.39062 582.96356 247.09375Q582.6823 247.78125 582.6667 249.0625Q583.0417 248.48438 583.58856 248.20312Q584.15106 247.92188 584.76044 247.92188Q585.8073 247.92188 586.5417 248.70312Q587.2917 249.48438 587.2917 250.70312Q587.2917 251.51562 586.9323 252.21875Q586.58856 252.90625 585.9792 253.28125Q585.3698 253.64062 584.6042 253.64062Q583.27606 253.64062 582.44794 252.67188Q581.6198 251.70312 581.6198 249.48438Q581.6198 246.98438 582.5417 245.85938Q583.33856 244.875 584.69794 244.875Q585.71356 244.875 586.3542 245.45312Q587.01044 246.01562 587.13544 247.01562ZM582.83856 250.71875Q582.83856 251.26562 583.0573 251.76562Q583.2917 252.25 583.69794 252.51562Q584.1198 252.78125 584.58856 252.78125Q585.2448 252.78125 585.7292 252.25Q586.21356 251.70312 586.21356 250.78125Q586.21356 249.89062 585.7292 249.375Q585.26044 248.85938 584.5417 248.85938Q583.82294 248.85938 583.32294 249.375Q582.83856 249.89062 582.83856 250.71875ZM594.13544 247.01562L593.08856 247.09375Q592.94794 246.46875 592.69794 246.1875Q592.26044 245.73438 591.63544 245.73438Q591.13544 245.73438 590.7448 246.01562Q590.26044 246.39062 589.96356 247.09375Q589.6823 247.78125 589.6667 249.0625Q590.0417 248.48438 590.58856 248.20312Q591.15106 247.92188 591.76044 247.92188Q592.8073 247.92188 593.5417 248.70312Q594.2917 249.48438 594.2917 250.70312Q594.2917 251.51562 593.9323 252.21875Q593.58856 252.90625 592.9792 253.28125Q592.3698 253.64062 591.6042 253.64062Q590.27606 253.64062 589.44794 252.67188Q588.6198 251.70312 588.6198 249.48438Q588.6198 246.98438 589.5417 245.85938Q590.33856 244.875 591.69794 244.875Q592.71356 244.875 593.3542 245.45312Q594.01044 246.01562 594.13544 247.01562ZM589.83856 250.71875Q589.83856 251.26562 590.0573 251.76562Q590.2917 252.25 590.69794 252.51562Q591.1198 252.78125 591.58856 252.78125Q592.2448 252.78125 592.7292 252.25Q593.21356 251.70312 593.21356 250.78125Q593.21356 249.89062 592.7292 249.375Q592.26044 248.85938 591.5417 248.85938Q590.82294 248.85938 590.32294 249.375Q589.83856 249.89062 589.83856 250.71875ZM595.7292 246.03125L595.7292 245.01562L601.2917 245.01562L601.2917 245.84375Q600.4792 246.71875 599.6667 248.17188Q598.8698 249.60938 598.4323 251.14062Q598.1042 252.21875 598.02606 253.5L596.9323 253.5Q596.94794 252.48438 597.32294 251.04688Q597.71356 249.60938 598.4167 248.28125Q599.13544 246.95312 599.94794 246.03125L595.7292 246.03125ZM606.0573 253.5L606.0573 244.90625L607.77606 244.90625L609.8073 250.98438Q610.08856 251.84375 610.21356 252.26562Q610.3542 251.79688 610.6667 250.89062L612.7292 244.90625L614.26044 244.90625L614.26044 253.5L613.1667 253.5L613.1667 246.3125L610.6667 253.5L609.63544 253.5L607.15106 246.1875L607.15106 253.5L606.0573 253.5ZM615.0417 253.5L615.0417 244.90625L618.27606 244.90625Q619.26044 244.90625 619.8542 245.17188Q620.44794 245.4375 620.77606 245.98438Q621.1198 246.51562 621.1198 247.10938Q621.1198 247.65625 620.82294 248.14062Q620.52606 248.625 619.9167 248.92188Q620.69794 249.15625 621.1042 249.71875Q621.52606 250.26562 621.52606 251.01562Q621.52606 251.60938 621.27606 252.14062Q621.02606 252.65625 620.65106 252.9375Q620.27606 253.21875 619.69794 253.35938Q619.13544 253.5 618.32294 253.5L615.0417 253.5ZM616.1823 248.51562L618.0417 248.51562Q618.7917 248.51562 619.1198 248.42188Q619.5573 248.29688 619.77606 248.0Q619.9948 247.6875 619.9948 247.23438Q619.9948 246.8125 619.7917 246.48438Q619.58856 246.15625 619.19794 246.04688Q618.82294 245.92188 617.90106 245.92188L616.1823 245.92188L616.1823 248.51562ZM616.1823 252.48438L618.32294 252.48438Q618.8698 252.48438 619.08856 252.4375Q619.4948 252.375 619.7448 252.21875Q620.01044 252.04688 620.1823 251.73438Q620.3542 251.42188 620.3542 251.01562Q620.3542 250.53125 620.1042 250.17188Q619.8698 249.8125 619.4323 249.67188Q618.9948 249.53125 618.1667 249.53125L616.1823 249.53125L616.1823 252.48438ZM622.1667 253.64062L624.65106 244.76562L625.4948 244.76562L623.01044 253.64062L622.1667 253.64062ZM625.5417 251.64062L626.57294 251.48438Q626.6667 252.10938 627.0573 252.4375Q627.46356 252.76562 628.19794 252.76562Q628.9167 252.76562 629.26044 252.48438Q629.6198 252.1875 629.6198 251.78125Q629.6198 251.42188 629.3073 251.21875Q629.08856 251.07812 628.2292 250.85938Q627.07294 250.5625 626.6198 250.35938Q626.1823 250.14062 625.94794 249.76562Q625.71356 249.39062 625.71356 248.92188Q625.71356 248.51562 625.90106 248.15625Q626.08856 247.79688 626.4167 247.5625Q626.6667 247.39062 627.08856 247.26562Q627.51044 247.14062 628.01044 247.14062Q628.7292 247.14062 629.27606 247.35938Q629.83856 247.5625 630.1042 247.92188Q630.3698 248.28125 630.46356 248.875L629.4323 249.01562Q629.3698 248.54688 629.02606 248.28125Q628.69794 248.0 628.07294 248.0Q627.3542 248.0 627.0417 248.25Q626.7292 248.48438 626.7292 248.8125Q626.7292 249.01562 626.8542 249.17188Q626.9948 249.34375 627.26044 249.45312Q627.4167 249.51562 628.19794 249.71875Q629.32294 250.03125 629.76044 250.21875Q630.19794 250.40625 630.44794 250.76562Q630.69794 251.125 630.69794 251.67188Q630.69794 252.20312 630.38544 252.67188Q630.08856 253.125 629.51044 253.39062Q628.9323 253.64062 628.19794 253.64062Q626.9792 253.64062 626.33856 253.14062Q625.71356 252.625 625.5417 251.64062Z" fill-rule="nonzero"/><path fill="#757575" d="M14.40625 27.90625L16.1875 27.75Q16.3125 28.8125 16.765625 29.5Q17.234375 30.1875 18.203125 30.625Q19.1875 31.046875 20.421875 31.046875Q21.5 31.046875 22.328125 30.734375Q23.15625 30.40625 23.5625 29.84375Q23.96875 29.28125 23.96875 28.609375Q23.96875 27.9375 23.578125 27.4375Q23.1875 26.9375 22.296875 26.59375Q21.71875 26.359375 19.734375 25.890625Q17.765625 25.421875 16.984375 25.0Q15.953125 24.46875 15.453125 23.671875Q14.953125 22.875 14.953125 21.890625Q14.953125 20.796875 15.5625 19.859375Q16.171875 18.921875 17.359375 18.4375Q18.546875 17.9375 19.984375 17.9375Q21.578125 17.9375 22.796875 18.453125Q24.015625 18.96875 24.65625 19.96875Q25.3125 20.953125 25.359375 22.21875L23.546875 22.359375Q23.40625 21.0 22.5625 20.3125Q21.71875 19.609375 20.0625 19.609375Q18.34375 19.609375 17.546875 20.25Q16.765625 20.875 16.765625 21.75Q16.765625 22.53125 17.328125 23.03125Q17.875 23.53125 20.1875 24.046875Q22.5 24.5625 23.359375 24.953125Q24.609375 25.53125 25.203125 26.421875Q25.796875 27.296875 25.796875 28.453125Q25.796875 29.59375 25.140625 30.609375Q24.484375 31.625 23.25 32.1875Q22.03125 32.75 20.5 32.75Q18.5625 32.75 17.25 32.1875Q15.9375 31.609375 15.1875 30.46875Q14.4375 29.328125 14.40625 27.90625ZM34.921875 29.15625L36.734375 29.390625Q36.3125 30.96875 35.140625 31.859375Q33.984375 32.734375 32.171875 32.734375Q29.90625 32.734375 28.5625 31.34375Q27.234375 29.9375 27.234375 27.40625Q27.234375 24.78125 28.578125 23.34375Q29.921875 21.890625 32.078125 21.890625Q34.15625 21.890625 35.46875 23.3125Q36.796875 24.71875 36.796875 27.296875Q36.796875 27.453125 36.78125 27.765625L29.046875 27.765625Q29.140625 29.46875 30.015625 30.375Q30.890625 31.28125 32.1875 31.28125Q33.15625 31.28125 33.828125 30.78125Q34.515625 30.265625 34.921875 29.15625ZM29.140625 26.3125L34.9375 26.3125Q34.828125 25.015625 34.28125 24.359375Q33.4375 23.34375 32.09375 23.34375Q30.890625 23.34375 30.0625 24.15625Q29.234375 24.953125 29.140625 26.3125ZM45.4375 36.46875L45.4375 31.390625Q45.015625 31.96875 44.28125 32.359375Q43.546875 32.734375 42.71875 32.734375Q40.875 32.734375 39.53125 31.265625Q38.203125 29.78125 38.203125 27.21875Q38.203125 25.65625 38.734375 24.421875Q39.28125 23.171875 40.3125 22.53125Q41.34375 21.890625 42.578125 21.890625Q44.5 21.890625 45.609375 23.515625L45.609375 22.125L47.1875 22.125L47.1875 36.46875L45.4375 36.46875ZM40.015625 27.28125Q40.015625 29.28125 40.84375 30.28125Q41.6875 31.28125 42.859375 31.28125Q43.984375 31.28125 44.796875 30.34375Q45.609375 29.390625 45.609375 27.4375Q45.609375 25.375 44.75 24.328125Q43.890625 23.28125 42.75 23.28125Q41.609375 23.28125 40.8125 24.25Q40.015625 25.21875 40.015625 27.28125ZM56.609375 32.5L56.609375 30.96875Q55.40625 32.734375 53.328125 32.734375Q52.40625 32.734375 51.609375 32.390625Q50.8125 32.03125 50.421875 31.5Q50.046875 30.96875 49.890625 30.1875Q49.78125 29.671875 49.78125 28.546875L49.78125 22.125L51.53125 22.125L51.53125 27.875Q51.53125 29.25 51.640625 29.734375Q51.8125 30.421875 52.34375 30.828125Q52.890625 31.21875 53.671875 31.21875Q54.46875 31.21875 55.15625 30.8125Q55.859375 30.40625 56.140625 29.71875Q56.4375 29.015625 56.4375 27.6875L56.4375 22.125L58.1875 22.125L58.1875 32.5L56.609375 32.5ZM66.921875 29.15625L68.734375 29.390625Q68.3125 30.96875 67.140625 31.859375Q65.984375 32.734375 64.171875 32.734375Q61.90625 32.734375 60.5625 31.34375Q59.234375 29.9375 59.234375 27.40625Q59.234375 24.78125 60.578125 23.34375Q61.921875 21.890625 64.078125 21.890625Q66.15625 21.890625 67.46875 23.3125Q68.796875 24.71875 68.796875 27.296875Q68.796875 27.453125 68.78125 27.765625L61.046875 27.765625Q61.140625 29.46875 62.015625 30.375Q62.890625 31.28125 64.1875 31.28125Q65.15625 31.28125 65.828125 30.78125Q66.515625 30.265625 66.921875 29.15625ZM61.140625 26.3125L66.9375 26.3125Q66.828125 25.015625 66.28125 24.359375Q65.4375 23.34375 64.09375 23.34375Q62.890625 23.34375 62.0625 24.15625Q61.234375 24.953125 61.140625 26.3125ZM70.8125 32.5L70.8125 22.125L72.40625 22.125L72.40625 23.609375Q73.546875 21.890625 75.703125 21.890625Q76.640625 21.890625 77.421875 22.234375Q78.21875 22.5625 78.609375 23.109375Q79.0 23.65625 79.15625 24.40625Q79.25 24.90625 79.25 26.125L79.25 32.5L77.484375 32.5L77.484375 26.1875Q77.484375 25.109375 77.28125 24.578125Q77.078125 24.046875 76.546875 23.734375Q76.03125 23.421875 75.328125 23.421875Q74.203125 23.421875 73.390625 24.140625Q72.578125 24.84375 72.578125 26.828125L72.578125 32.5L70.8125 32.5ZM84.65625 30.921875L84.90625 32.484375Q84.171875 32.640625 83.578125 32.640625Q82.625 32.640625 82.09375 32.34375Q81.578125 32.03125 81.359375 31.546875Q81.140625 31.046875 81.140625 29.46875L81.140625 23.5L79.859375 23.5L79.859375 22.125L81.140625 22.125L81.140625 19.5625L82.890625 18.5L82.890625 22.125L84.65625 22.125L84.65625 23.5L82.890625 23.5L82.890625 29.5625Q82.890625 30.3125 82.984375 30.53125Q83.078125 30.734375 83.28125 30.875Q83.5 31.0 83.890625 31.0Q84.171875 31.0 84.65625 30.921875ZM86.828125 20.203125L86.828125 18.1875L88.59375 18.1875L88.59375 20.203125L86.828125 20.203125ZM86.828125 32.5L86.828125 22.125L88.59375 22.125L88.59375 32.5L86.828125 32.5ZM97.59375 31.21875Q96.609375 32.046875 95.703125 32.390625Q94.796875 32.734375 93.765625 32.734375Q92.0625 32.734375 91.140625 31.90625Q90.21875 31.0625 90.21875 29.765625Q90.21875 29.0 90.5625 28.375Q90.921875 27.75 91.484375 27.375Q92.046875 26.984375 92.75 26.78125Q93.265625 26.65625 94.3125 26.515625Q96.4375 26.265625 97.4375 25.921875Q97.453125 25.5625 97.453125 25.453125Q97.453125 24.390625 96.953125 23.9375Q96.28125 23.34375 94.953125 23.34375Q93.703125 23.34375 93.109375 23.78125Q92.53125 24.21875 92.25 25.328125L90.53125 25.09375Q90.765625 23.984375 91.296875 23.3125Q91.828125 22.625 92.84375 22.265625Q93.859375 21.890625 95.203125 21.890625Q96.53125 21.890625 97.359375 22.203125Q98.1875 22.515625 98.578125 23.0Q98.96875 23.46875 99.125 24.1875Q99.21875 24.640625 99.21875 25.8125L99.21875 28.15625Q99.21875 30.609375 99.328125 31.265625Q99.4375 31.90625 99.78125 32.5L97.9375 32.5Q97.671875 31.953125 97.59375 31.21875ZM97.4375 27.296875Q96.484375 27.6875 94.5625 27.953125Q93.484375 28.109375 93.03125 28.3125Q92.59375 28.5 92.34375 28.875Q92.09375 29.25 92.09375 29.71875Q92.09375 30.421875 92.625 30.890625Q93.15625 31.359375 94.1875 31.359375Q95.203125 31.359375 95.984375 30.921875Q96.78125 30.46875 97.15625 29.703125Q97.4375 29.09375 97.4375 27.9375L97.4375 27.296875ZM101.78125 32.5L101.78125 18.1875L103.53125 18.1875L103.53125 32.5L101.78125 32.5ZM112.078125 32.5L112.078125 18.1875L118.421875 18.1875Q120.328125 18.1875 121.328125 18.578125Q122.328125 18.953125 122.921875 19.9375Q123.515625 20.90625 123.515625 22.09375Q123.515625 23.609375 122.53125 24.65625Q121.546875 25.703125 119.484375 25.984375Q120.234375 26.34375 120.625 26.703125Q121.453125 27.453125 122.203125 28.609375L124.6875 32.5L122.3125 32.5L120.40625 29.515625Q119.578125 28.234375 119.046875 27.546875Q118.515625 26.859375 118.078125 26.59375Q117.65625 26.3125 117.21875 26.203125Q116.890625 26.140625 116.171875 26.140625L113.96875 26.140625L113.96875 32.5L112.078125 32.5ZM113.96875 24.5L118.046875 24.5Q119.34375 24.5 120.0625 24.234375Q120.796875 23.96875 121.171875 23.375Q121.5625 22.78125 121.5625 22.09375Q121.5625 21.078125 120.828125 20.421875Q120.09375 19.765625 118.5 19.765625L113.96875 19.765625L113.96875 24.5ZM132.92188 29.15625L134.73438 29.390625Q134.3125 30.96875 133.14062 31.859375Q131.98438 32.734375 130.17188 32.734375Q127.90625 32.734375 126.5625 31.34375Q125.234375 29.9375 125.234375 27.40625Q125.234375 24.78125 126.578125 23.34375Q127.921875 21.890625 130.07812 21.890625Q132.15625 21.890625 133.46875 23.3125Q134.79688 24.71875 134.79688 27.296875Q134.79688 27.453125 134.78125 27.765625L127.046875 27.765625Q127.140625 29.46875 128.01562 30.375Q128.89062 31.28125 130.1875 31.28125Q131.15625 31.28125 131.82812 30.78125Q132.51562 30.265625 132.92188 29.15625ZM127.140625 26.3125L132.9375 26.3125Q132.82812 25.015625 132.28125 24.359375Q131.4375 23.34375 130.09375 23.34375Q128.89062 23.34375 128.0625 24.15625Q127.234375 24.953125 127.140625 26.3125ZM143.59375 31.21875Q142.60938 32.046875 141.70312 32.390625Q140.79688 32.734375 139.76562 32.734375Q138.0625 32.734375 137.14062 31.90625Q136.21875 31.0625 136.21875 29.765625Q136.21875 29.0 136.5625 28.375Q136.92188 27.75 137.48438 27.375Q138.04688 26.984375 138.75 26.78125Q139.26562 26.65625 140.3125 26.515625Q142.4375 26.265625 143.4375 25.921875Q143.45312 25.5625 143.45312 25.453125Q143.45312 24.390625 142.95312 23.9375Q142.28125 23.34375 140.95312 23.34375Q139.70312 23.34375 139.10938 23.78125Q138.53125 24.21875 138.25 25.328125L136.53125 25.09375Q136.76562 23.984375 137.29688 23.3125Q137.82812 22.625 138.84375 22.265625Q139.85938 21.890625 141.20312 21.890625Q142.53125 21.890625 143.35938 22.203125Q144.1875 22.515625 144.57812 23.0Q144.96875 23.46875 145.125 24.1875Q145.21875 24.640625 145.21875 25.8125L145.21875 28.15625Q145.21875 30.609375 145.32812 31.265625Q145.4375 31.90625 145.78125 32.5L143.9375 32.5Q143.67188 31.953125 143.59375 31.21875ZM143.4375 27.296875Q142.48438 27.6875 140.5625 27.953125Q139.48438 28.109375 139.03125 28.3125Q138.59375 28.5 138.34375 28.875Q138.09375 29.25 138.09375 29.71875Q138.09375 30.421875 138.625 30.890625Q139.15625 31.359375 140.1875 31.359375Q141.20312 31.359375 141.98438 30.921875Q142.78125 30.46875 143.15625 29.703125Q143.4375 29.09375 143.4375 27.9375L143.4375 27.296875ZM154.54688 32.5L154.54688 31.1875Q153.5625 32.734375 151.64062 32.734375Q150.40625 32.734375 149.35938 32.046875Q148.32812 31.359375 147.75 30.140625Q147.1875 28.921875 147.1875 27.328125Q147.1875 25.765625 147.70312 24.5Q148.21875 23.234375 149.25 22.5625Q150.29688 21.890625 151.5625 21.890625Q152.5 21.890625 153.23438 22.296875Q153.96875 22.6875 154.4375 23.3125L154.4375 18.1875L156.17188 18.1875L156.17188 32.5L154.54688 32.5ZM148.98438 27.328125Q148.98438 29.3125 149.82812 30.296875Q150.67188 31.28125 151.8125 31.28125Q152.96875 31.28125 153.76562 30.34375Q154.57812 29.40625 154.57812 27.46875Q154.57812 25.34375 153.75 24.34375Q152.9375 23.34375 151.73438 23.34375Q150.5625 23.34375 149.76562 24.3125Q148.98438 25.265625 148.98438 27.328125Z" fill-rule="nonzero"/></svg>